<?xml version="1.0" standalone="no"?>
<!DOCTYPE svg PUBLIC "-//W3C//DTD SVG 1.1//EN" "http://www.w3.org/Graphics/SVG/1.1/DTD/svg11.dtd" >
<svg>
<metadata>
Created by FontForge 20090622 at Sun Nov  1 17:31:01 2015
 By deploy user
Copyright (c) Carter &#38; Cone Type, Inc, 1997. All rights reserved.
</metadata>
<defs>
<font id="MillerDisplay-Italic" horiz-adv-x="500" >
  <font-face 
    font-family="MillerDisplay-Italic"
    font-weight="400"
    font-style="italic"
    font-stretch="normal"
    units-per-em="1000"
    panose-1="2 0 6 3 8 0 0 9 0 4"
    ascent="764"
    descent="-236"
    x-height="459"
    cap-height="683"
    bbox="-228 -240 1152 933"
    underline-thickness="20"
    underline-position="-123"
    unicode-range="U+0020-U+FB02"
  />
<missing-glyph 
 />
    <glyph glyph-name=".notdef" 
 />
    <glyph glyph-name=".null" horiz-adv-x="0" 
 />
    <glyph glyph-name="nonmarkingreturn" horiz-adv-x="0" 
 />
    <glyph glyph-name="space" unicode=" " horiz-adv-x="228" 
 />
    <glyph glyph-name="exclam" unicode="!" horiz-adv-x="365" 
d="M346 641q0 26 -13.5 41t-37.5 15q-28 0 -46.5 -19.5t-26.5 -48.5q-4 -16 -9.5 -56.5l-13 -96.5t-17.5 -123.5t-23 -138.5l24 -5q33 91 62.5 164.5l52 127.5t35.5 89t13 51zM196 52q0 26 -18 44t-44 18t-44 -18t-18 -44t18 -43.5t44 -17.5t44 17.5t18 43.5z" />
    <glyph glyph-name="quotedbl" unicode="&#x22;" horiz-adv-x="392" 
d="M433 685q0 22 -14 37t-40 15q-53 0 -53 -70v-72t-5 -123h20q21 49 38 85l29 61t18.5 41t6.5 26zM238 685q0 22 -14 37t-40 15q-53 0 -53 -70v-72t-5 -123h20q21 49 38 85l29 61t18.5 41t6.5 26z" />
    <glyph glyph-name="numbersign" unicode="#" horiz-adv-x="560" 
d="M542 511l-119 -28l36 144h-24l-37 -150l-125 -29l45 179h-24l-46 -185l-118 -28l-24 -94l118 28l-25 -101l-118 -28l-23 -94l118 28l-40 -160h24l41 166l125 29l-49 -195h24l50 201l119 28l23 94l-118 -28l25 101l119 28zM374 383l-25 -101l-124 -29l25 101z" />
    <glyph glyph-name="dollar" unicode="$" horiz-adv-x="615" 
d="M585 499q0 39 -34 65.5t-85 39.5l27 109h-22l-26 -104q-15 2 -30 3.5t-31 1.5h-12l25 99h-22l-25 -101q-48 -5 -87 -22.5t-66 -43.5t-41.5 -59.5t-14.5 -69.5q0 -51 32.5 -88.5t92.5 -51.5l-61 -247q-48 11 -67.5 34t-11.5 54q7 9 16 15t16.5 12.5t12.5 15.5t5 25
q0 20 -12 31.5t-33 11.5q-16 0 -30 -8t-24 -20.5t-16 -29.5t-6 -35q0 -45 39 -80t105 -49l-37 -149h22l36 145q14 -2 28.5 -3t29.5 -1h15l-35 -141h22l36 143q46 5 86 22t69 44t45.5 64t16.5 82q0 51 -33 83.5t-99 49.5l59 236q34 -8 52.5 -22.5t19.5 -31.5
q-6 -11 -15.5 -18.5t-18 -15t-14.5 -18t-6 -26.5q0 -17 12.5 -27t32.5 -10q13 0 24.5 7.5t20 19.5t13 27.5t4.5 31.5zM439 586l-58 -235q-20 5 -35 8t-35 8l56 224h9q18 0 33.5 -1.5t29.5 -3.5zM344 589l-54 -217q-33 11 -49 36t-16 55q0 52 30 85t89 41zM451 158
q0 -54 -34 -88t-95 -44l56 228q34 -10 53.5 -33.5t19.5 -62.5zM357 258l-58 -235h-18q-16 0 -29.5 1t-25.5 3l61 246q17 -4 34 -7t36 -8z" />
    <glyph glyph-name="percent" unicode="%" horiz-adv-x="820" 
d="M770 181q0 28 -10.5 51.5t-28.5 39.5t-42.5 25t-53.5 9q-38 0 -73.5 -16.5t-63.5 -43.5t-44.5 -62.5t-16.5 -73.5q0 -28 10.5 -51t28.5 -39t42.5 -24.5t51.5 -8.5q35 0 70.5 14.5t64.5 40t47 61.5t18 78zM766 672l-27 18l-664 -770l25 -18zM412 494q0 28 -10.5 51.5
t-28.5 39.5t-42.5 25t-53.5 9q-38 0 -73.5 -16.5t-63.5 -43.5t-44.5 -62.5t-16.5 -73.5q0 -28 10.5 -51t28.5 -39t42.5 -24.5t51.5 -8.5q35 0 70.5 14.5t64.5 40t47 61.5t18 78zM694 203q0 -39 -10.5 -73.5t-27.5 -60.5t-38.5 -41.5t-44.5 -15.5q-33 0 -46.5 22t-13.5 55
q0 32 9.5 66.5t26 62.5t38.5 46t48 18q30 0 44.5 -20.5t14.5 -58.5zM336 516q0 -39 -10.5 -73.5t-27.5 -60.5t-38.5 -41.5t-44.5 -15.5q-33 0 -46.5 22t-13.5 55q0 32 9.5 66.5t26 62.5t38.5 46t48 18q30 0 44.5 -20.5t14.5 -58.5z" />
    <glyph glyph-name="ampersand" unicode="&#x26;" horiz-adv-x="850" 
d="M847 575q0 49 -31.5 75.5t-74.5 26.5q-42 0 -65.5 -21.5t-23.5 -45.5q0 -32 17.5 -45t37.5 -13q17 0 30 10t13 33q0 11 -5 17.5t-11.5 10.5t-12.5 7t-9 6q0 8 5.5 14.5t26.5 6.5q28 0 49 -15t21 -60q0 -12 -5.5 -25.5t-16.5 -25t-27 -18.5t-36 -7q-8 0 -22 1t-29.5 1.5
t-30 1.5t-24.5 1q-26 0 -55 -6t-54 -21t-41.5 -41t-16.5 -65q0 -30 11.5 -52.5t29.5 -38t40 -23.5t44 -8q21 0 37 7.5t27 19t16.5 26t5.5 28.5q0 18 -6 29.5t-15.5 18t-21 9t-21.5 2.5q-6 0 -14 -2t-15 -7.5t-12 -14.5t-5 -23q0 -13 5.5 -21.5t13.5 -14.5t18.5 -10l20.5 -8
q-12 -8 -20.5 -11.5t-25.5 -3.5q-32 0 -54.5 20t-22.5 67q0 21 9 37.5t23.5 27.5t33.5 17t40 6q28 0 54 -8.5t46 -27.5t32.5 -49t12.5 -73q0 -44 -18.5 -86.5t-54 -75.5t-88 -53.5t-120.5 -20.5q-75 0 -133 17t-98.5 44.5t-61.5 63t-21 72.5q0 23 7.5 39t17 26t19 15l13.5 7
q23 -14 48 -26t59 -12q23 0 33.5 11.5t10.5 26.5q0 19 -17 31t-46 12q-21 0 -40.5 -6t-39.5 -13q-17 14 -20.5 33.5t-3.5 34.5q0 58 31.5 92t80.5 34q41 0 66 -19.5t50 -58.5l16 8q-14 54 -57 88.5t-112 34.5q-32 0 -59 -12t-46.5 -31.5t-31 -43.5t-11.5 -48q0 -26 6 -45
t15.5 -33.5t22 -25.5t25.5 -20q-20 -11 -39 -23.5t-34 -29t-24 -39.5t-9 -55q0 -48 23.5 -89.5t64 -72t95.5 -48t117 -17.5q110 0 186 31.5t123.5 78t69 100.5t21.5 99q0 37 -7 63.5t-19.5 45t-29.5 30t-37 20.5q75 0 118 33t43 91z" />
    <glyph glyph-name="quoteright" unicode="&#x2019;" horiz-adv-x="185" 
d="M272 659q0 40 -17.5 59t-48.5 19q-16 0 -28.5 -6t-21 -15.5t-13 -21t-4.5 -21.5q0 -22 16 -36.5t47 -14.5h20q-8 -42 -38 -69.5t-76 -52.5l10 -23q69 36 111.5 79.5t42.5 102.5z" />
    <glyph glyph-name="parenleft" unicode="(" horiz-adv-x="365" 
d="M416 711l-28 37q-174 -116 -263.5 -255t-89.5 -308q0 -57 12.5 -106t34.5 -91.5t52 -79.5t65 -68l38 33q-31 30 -57 63t-44.5 71.5t-29 84.5t-10.5 101q0 148 77.5 275t242.5 243z" />
    <glyph glyph-name="parenright" unicode=")" horiz-adv-x="365" 
d="M343 403q0 57 -12.5 106t-34.5 91.5t-52 79t-65 68.5l-38 -33q31 -30 57 -63t44.5 -71.5t29 -84.5t10.5 -101q0 -148 -77.5 -275t-242.5 -243l28 -37q174 116 263.5 255t89.5 308z" />
    <glyph glyph-name="asterisk" unicode="*" horiz-adv-x="363" 
d="M402 582q0 11 -7.5 20t-16.5 9q-14 0 -39 -16t-74 -36q8 24 16.5 42t16 31t12 22t4.5 17q0 13 -8.5 19.5t-21.5 6.5q-19 0 -24 -21q-4 -14 -3 -42.5t-4 -70.5q-20 21 -32.5 39l-21.5 31.5t-16 21t-15 7.5q-16 0 -23 -11t-7 -19t7 -14t21 -14l34.5 -20t46.5 -33
q-38 -7 -68 -8t-36 -1q-16 0 -24.5 -5t-8.5 -19t7 -22t16 -8q13 0 39.5 16.5t75.5 33.5q-9 -25 -18 -42.5l-16 -30t-11 -21.5t-4 -17q0 -11 7.5 -18.5t21.5 -7.5q9 0 16 6t9 15q3 12 1.5 40.5t5.5 72.5q21 -24 33.5 -42.5l21 -31t15 -19.5t14.5 -7q9 0 19 8.5t10 22.5
q0 8 -7 14t-21 14.5l-34 20.5t-45 32q35 6 59 7.5t40 1.5q37 0 37 26z" />
    <glyph glyph-name="plus" unicode="+" horiz-adv-x="580" 
d="M549 237v46h-217v218h-48v-218h-217v-46h217v-218h48v218h217z" />
    <glyph glyph-name="comma" unicode="," horiz-adv-x="242" 
d="M166 45q0 75 -68 75q-31 0 -50.5 -21t-19.5 -45t15.5 -38t47.5 -14h23q-5 -43 -39 -80.5t-79 -61.5l7 -22q28 14 57 34t52.5 46t38.5 58t15 69z" />
    <glyph glyph-name="hyphen" unicode="-" horiz-adv-x="350" 
d="M320 279h-271l-20 -73h271z" />
    <glyph glyph-name="hyphen" unicode="&#xad;" horiz-adv-x="350" 
d="M320 279h-271l-20 -73h271z" />
    <glyph glyph-name="period" unicode="." horiz-adv-x="242" 
d="M164 55q0 27 -19 46t-46 19t-46 -19t-19 -46t19 -45.5t46 -18.5t46 18.5t19 45.5z" />
    <glyph glyph-name="slash" unicode="/" horiz-adv-x="420" 
d="M515 723l-42 24l-591 -941l41 -24z" />
    <glyph glyph-name="zero" unicode="0" horiz-adv-x="614" 
d="M593 388q0 58 -16 101.5t-44.5 72.5t-67.5 43.5t-85 14.5q-65 0 -124 -33.5t-105 -89.5t-73 -129.5t-27 -153.5q0 -49 13.5 -90.5t40.5 -72t67 -48t93 -17.5q65 0 124.5 33t104.5 88.5t72 128.5t27 152zM494 440q0 -48 -9 -98t-24.5 -98t-38 -90.5t-49 -74.5t-57 -50.5
t-62.5 -18.5q-50 0 -77 42t-27 110q0 78 19.5 156t52.5 139.5t76 100t90 38.5q27 0 47 -12t33 -33t19.5 -49.5t6.5 -61.5z" />
    <glyph glyph-name="one" unicode="1" horiz-adv-x="427" 
d="M391 619h-13q-26 -13 -67 -27.5t-84 -14.5q-30 0 -54 6.5t-44 16.5l-13 -14q28 -32 54.5 -45.5t50.5 -13.5q14 0 21.5 1t15.5 3l-125 -451q-5 -16 -14 -29t-29 -20q-6 -2 -16 -3.5l-21 -3t-21.5 -2.5t-16.5 -1l-5 -21h303l5 21q-7 0 -17.5 2l-20.5 4t-18.5 4.5t-12.5 4.5
q-11 5 -16 11t-5 17q0 8 3 20l106 385q10 36 25 77t29 73z" />
    <glyph glyph-name="two" unicode="2" horiz-adv-x="577" 
d="M553 483q0 64 -50.5 100.5t-132.5 36.5q-58 0 -109.5 -20.5t-90 -52t-61 -69t-22.5 -72.5q0 -45 27.5 -66t67.5 -21q42 0 76 19t66 54l-9 12q-23 -20 -42 -33.5t-47 -13.5q-58 0 -58 66q0 27 15.5 57.5t41 56t59.5 42.5t71 17q51 0 75 -28t24 -71q0 -59 -37.5 -122.5
t-118.5 -134.5l-60 -51l-62 -49l-72.5 -53l-91.5 -62l-5 -25h415l92 171l-17 6q-30 -45 -62.5 -70.5t-70.5 -25.5h-237l33 25q96 49 169 94t123 90t75.5 92.5t25.5 100.5z" />
    <glyph glyph-name="three" unicode="3" horiz-adv-x="565" 
d="M564 495q0 24 -10.5 46.5t-31 40t-51 28t-71.5 10.5q-48 0 -95.5 -15.5t-84.5 -40t-60 -55t-23 -61.5q0 -35 23.5 -53.5t59.5 -18.5q23 0 55 16.5t61 42.5l-10 13q-31 -27 -66 -27q-15 0 -28 10.5t-13 35.5q0 29 16.5 52.5t40.5 40.5t51.5 26.5t50.5 9.5q41 0 65 -19
t24 -63q0 -36 -16 -65.5t-48 -57.5t-80 -56t-112 -60l15 -26l54.5 36.5t53.5 16.5q32 0 52 -18t20 -50q0 -46 -20 -88t-52 -74.5t-72 -51.5t-81 -19q-45 0 -76 18t-31 48q0 25 10.5 33.5t22.5 14.5t22.5 15t10.5 36q0 17 -12.5 28t-35.5 11q-20 0 -36.5 -8.5t-28.5 -22.5
t-18.5 -32.5t-6.5 -39.5q0 -34 17.5 -58.5t46 -40t64 -22.5t71.5 -7q63 0 118.5 17t97.5 48.5t66 76t24 98.5q0 27 -12 48t-32 34.5t-46.5 20.5t-54.5 7h-17l21 13q47 7 84 22.5t62.5 36.5t38.5 46.5t13 52.5z" />
    <glyph glyph-name="four" unicode="4" horiz-adv-x="526" 
d="M506 106l-12 11q-26 -32 -56.5 -45.5t-65.5 -18.5l89 242h-90l-88 -244q-31 3 -65 10t-82 7q-16 0 -33 -2t-36 -4q57 39 107.5 99t94 133.5t79.5 156.5t64 169h-111q-28 -95 -58 -182t-62.5 -159.5t-66.5 -127.5t-69 -86q-15 1 -30 1h-27q-8 0 -17.5 -1.5t-17.5 -5.5
t-13.5 -10.5t-5.5 -16.5q0 -17 13.5 -24t28.5 -7q6 0 15.5 4.5t20 11t21 14t18.5 14.5q8 1 15 1.5t15 0.5q28 0 53.5 -5t48.5 -11.5t44 -13.5t41 -10l-63 -184h87l66 188q40 9 80.5 32t67.5 63z" />
    <glyph glyph-name="five" unicode="5" horiz-adv-x="523" 
d="M579 620l-10 11q-20 -13 -37.5 -23t-36.5 -16.5t-40 -10t-48 -3.5q-59 0 -89 13.5t-38 25.5h-26l-149 -334l25 -5q10 19 27 32.5t36.5 22t39 12t35.5 3.5q18 0 36.5 -4.5t33.5 -15.5t25 -29t10 -44q0 -49 -15.5 -93.5t-42 -78.5t-62 -54.5t-75.5 -20.5q-42 0 -64.5 18
t-22.5 41q4 11 9.5 19.5l10.5 16.5t8.5 16.5t3.5 20.5q0 36 -43 36q-12 0 -24.5 -4.5t-23 -14t-17.5 -23.5t-7 -33q0 -25 13.5 -46t36.5 -36.5t55 -24t69 -8.5q64 0 117 19t90 50.5t57.5 73.5t20.5 88q0 36 -14 65t-39 49t-58 31t-72 11q-34 0 -65 -6.5t-60 -23.5l69 152
q5 -1 23.5 -1.5t36.5 -0.5q16 0 51.5 3t77.5 16t85.5 38t76.5 70z" />
    <glyph glyph-name="six" unicode="6" horiz-adv-x="565" 
d="M616 603q0 17 -7 34.5t-23 31.5t-41 22.5t-62 8.5q-52 0 -104.5 -20.5t-100.5 -57t-89.5 -85t-72.5 -104.5t-48.5 -116.5t-17.5 -119.5q0 -104 52.5 -157.5t143.5 -53.5q67 0 117 26t83 65.5t49.5 87t16.5 90.5q0 38 -11.5 69t-32.5 53.5t-49.5 34.5t-62.5 12
q-49 0 -88.5 -16t-81.5 -54l-3 3q25 69 56.5 126.5t66.5 99t71 64.5t70 23q37 0 49.5 -17t14.5 -51q1 -34 13.5 -52.5t36.5 -18.5q29 0 42 20.5t13 51.5zM408 278q0 -41 -12 -88t-34.5 -86.5t-55 -66t-72.5 -26.5q-46 0 -72.5 34.5t-26.5 99.5q0 52 14.5 97t38 78t54.5 51.5
t64 18.5q48 0 75 -28.5t27 -83.5z" />
    <glyph glyph-name="seven" unicode="7" horiz-adv-x="506" 
d="M592 595h-391l7 56h-18l-128 -257l19 -5q36 59 70 89t84 30h257l-57.5 -69.5l-52 -64l-51 -65l-53.5 -72.5l-90 -126t-57.5 -86.5t-30 -58t-8.5 -38.5q0 -21 11.5 -34.5t35.5 -13.5q29 0 47.5 23.5t29.5 62.5q14 51 29 92t32.5 77.5t37 71l41.5 71.5q28 48 54 86t53 73
t57.5 70.5l69.5 78.5z" />
    <glyph glyph-name="eight" unicode="8" horiz-adv-x="558" 
d="M542 494q0 29 -14.5 53.5t-39 42t-57.5 27.5t-70 10q-47 0 -89 -15.5t-73.5 -42t-50.5 -60.5t-19 -71q0 -45 23.5 -72.5t59.5 -50.5v-4q-32 -7 -63.5 -24t-56.5 -40.5t-40 -52.5t-15 -60q0 -32 15.5 -59.5t43 -47.5t65.5 -31.5t82 -11.5q45 0 90.5 13.5t82 40t59.5 66
t23 90.5q0 23 -8.5 42.5t-23 36t-33 30t-38.5 24.5v4q30 9 56.5 25t47 37.5t32 47.5t11.5 53zM478 502q0 -23 -6 -46.5t-19 -45t-33.5 -39.5t-49.5 -29q-76 28 -111.5 57.5t-35.5 77.5q0 23 10 45t28 39.5t43 28.5t55 11q51 0 85 -25.5t34 -73.5zM403 151q0 -32 -13.5 -58
t-36 -44.5t-50.5 -28.5t-58 -10q-34 0 -59 9.5t-41.5 25t-25 36t-8.5 42.5q0 57 35 105t95 72q33 -12 62.5 -27t51.5 -33t35 -40t13 -49z" />
    <glyph glyph-name="nine" unicode="9" horiz-adv-x="565" 
d="M543 414q0 52 -14 90.5t-39.5 64t-60.5 38.5t-76 13q-55 0 -104 -22t-85.5 -59t-58 -85.5t-21.5 -102.5q0 -39 12.5 -70.5t35 -53.5t52 -33.5t64.5 -11.5q30 0 54.5 7t44 18t35.5 25l31 28l4 -3q-21 -64 -52 -124t-67.5 -106t-76.5 -73.5t-80 -27.5q-39 0 -53 16.5
t-15 47.5q-2 43 -15 58t-38 15t-39 -17t-14 -46q0 -45 36 -73.5t110 -28.5q60 0 115.5 22.5t103 60.5t86.5 89.5t67 108.5t43 117.5t15 117.5zM460 454q0 -53 -15 -96.5t-39.5 -74t-55 -47.5t-61.5 -17q-100 0 -100 129q0 44 12 88.5t34 80t53 58t68 22.5q51 0 77.5 -39
t26.5 -104z" />
    <glyph glyph-name="colon" unicode=":" horiz-adv-x="320" 
d="M271 389q0 27 -19 46t-46 19t-46 -19t-19 -46t19 -45.5t46 -18.5t46 18.5t19 45.5zM183 55q0 27 -19 46t-46 19t-46 -19t-19 -46t19 -45.5t46 -18.5t46 18.5t19 45.5z" />
    <glyph glyph-name="semicolon" unicode=";" horiz-adv-x="320" 
d="M271 389q0 27 -19 46t-46 19t-46 -19t-19 -46t19 -45.5t46 -18.5t46 18.5t19 45.5zM188 45q0 75 -68 75q-31 0 -50.5 -21t-19.5 -45t15.5 -38t47.5 -14h23q-5 -43 -39 -80.5t-79 -61.5l7 -22q28 14 57 34t52.5 46t38.5 58t15 69z" />
    <glyph glyph-name="semicolon" unicode="&#x37e;" horiz-adv-x="320" 
d="M271 389q0 27 -19 46t-46 19t-46 -19t-19 -46t19 -45.5t46 -18.5t46 18.5t19 45.5zM188 45q0 75 -68 75q-31 0 -50.5 -21t-19.5 -45t15.5 -38t47.5 -14h23q-5 -43 -39 -80.5t-79 -61.5l7 -22q28 14 57 34t52.5 46t38.5 58t15 69z" />
    <glyph glyph-name="less" unicode="&#x3c;" horiz-adv-x="580" 
d="M522 35v52l-379 173l379 173v52l-442 -205v-40z" />
    <glyph glyph-name="equal" unicode="=" horiz-adv-x="580" 
d="M529 317v46h-442v-46h442zM529 157v46h-442v-46h442z" />
    <glyph glyph-name="greater" unicode="&#x3e;" horiz-adv-x="580" 
d="M533 240v40l-442 205v-52l379 -173l-379 -173v-52z" />
    <glyph glyph-name="question" unicode="?" horiz-adv-x="428" 
d="M472 542q0 33 -12 61.5t-34.5 50t-55 33.5t-72.5 12q-33 0 -60.5 -9.5t-46.5 -25t-29.5 -37t-10.5 -45.5q0 -41 26.5 -67t62.5 -26q35 0 55.5 18t20.5 47q0 23 -14.5 36t-38.5 13q-20 0 -32.5 -13t-12.5 -33q0 -10 4.5 -17t11.5 -12t14 -7t13 -2v-6q-8 -4 -23 -4
q-33 0 -51 22.5t-18 51.5q0 18 8 34.5t22.5 29.5t34.5 20.5t43 7.5q31 0 53 -10t36.5 -25.5t21.5 -34t7 -35.5q0 -23 -5.5 -42.5t-19 -37.5t-37 -34.5t-60.5 -34.5q-76 -36 -112.5 -72.5t-36.5 -89.5q0 -51 28 -75t67 -24q13 0 28 6.5t28 18.5t23 29t14 39l-22 7
q-3 -14 -8.5 -28.5t-14.5 -26.5t-20.5 -19.5t-24.5 -7.5q-17 0 -32 8.5t-15 39.5q0 27 14.5 48t38 38t53 30.5l60.5 27.5q39 17 64 37t40 41.5t21 45.5t6 48zM217 52q0 26 -18 44t-44 18t-44 -18t-18 -44t18 -43.5t44 -17.5t44 17.5t18 43.5z" />
    <glyph glyph-name="at" unicode="@" horiz-adv-x="1065" 
d="M980 114l-18 6q-51 -144 -157 -219.5t-274 -75.5q-71 0 -131.5 23.5t-104.5 68.5t-69 111t-25 152q0 105 36 187.5t93.5 139.5t130 87t145.5 30q74 0 130 -21t94 -58.5t57.5 -89t19.5 -111.5q0 -65 -20 -117.5t-52 -89.5t-72 -57.5t-80 -20.5q-19 0 -30 10.5t-11 35.5
q0 10 3 24.5t8 27.5l98 263h-70l-21 -54h-3q-5 30 -24.5 45t-45.5 15q-54 0 -97.5 -29t-74 -70.5t-46.5 -86.5t-16 -77q0 -38 9.5 -62.5t25 -39t35 -20.5t40.5 -6q31 0 60.5 22.5t52.5 56.5l3 -1q2 -39 27.5 -59.5t66.5 -20.5q51 0 98.5 25t84 67.5t58.5 97.5t22 115
q0 61 -19 118t-58.5 101.5t-101.5 71.5t-148 27q-111 0 -203 -41t-158.5 -108.5t-103 -154t-36.5 -177.5q0 -97 35.5 -170t94.5 -122t135.5 -73.5t157.5 -24.5q78 0 149 22.5t130 65t102.5 103.5t67.5 138zM648 332l-65 -180q-9 -16 -20.5 -31.5t-25 -28t-29 -20t-34.5 -7.5
q-8 0 -15 2.5t-12.5 11t-9 25t-3.5 43.5q0 36 12 81t32 84.5t47.5 66.5t58.5 27q29 0 44 -18t20 -56z" />
    <glyph glyph-name="A" unicode="A" horiz-adv-x="635" 
d="M606 21q-14 1 -32 4t-29 9q-15 8 -19 21t-4 34v605h-28l-113.5 -147l-115 -148.5l-113.5 -144.5l-108 -135q-22 -26 -43.5 -46.5t-44.5 -31.5q-17 -8 -38 -13.5t-32 -6.5l-6 -21h275l6 21q-12 1 -28.5 4t-32.5 9t-27 14.5t-11 19.5q0 8 11 24.5l25 36.5l20 28l25.5 36
l28 39l27.5 38h226v-184q0 -15 -6 -29.5t-26 -22.5q-13 -5 -34.5 -8t-44.5 -5l-6 -21h292zM425 300h-200l200 256v-256z" />
    <glyph glyph-name="B" unicode="B" horiz-adv-x="627" 
d="M632 556q0 63 -48 95t-128 32h-300l-6 -22q6 0 15 -2t19 -4.5t19 -5.5t14 -5q20 -10 20 -27q0 -5 -1 -10.5t-3 -12.5l-143 -514q-5 -16 -14 -29t-29 -20q-6 -2 -16 -3.5l-21 -3t-21.5 -2.5t-16.5 -1l-5 -21h296q72 0 132 16t103 45t67 69.5t24 90.5q0 33 -13.5 57t-36 41
t-52 27.5t-62.5 16.5v9q39 10 76 25t66 36.5t47 51.5t18 71zM526 547q0 -33 -15 -64t-43 -55t-68.5 -38.5t-91.5 -14.5h-37l78 279q18 1 35.5 1.5t34.5 0.5q54 0 80.5 -29t26.5 -80zM483 219q0 -34 -14 -68t-41 -61.5t-67 -44.5t-92 -17q-45 0 -63.5 13.5t-13.5 47.5l71 257
q14 1 33 1.5t33 0.5q71 0 112.5 -35t41.5 -94z" />
    <glyph glyph-name="C" unicode="C" horiz-adv-x="628" 
d="M678 693h-41l-41 -51q-32 27 -64 40.5t-85 13.5q-75 0 -146.5 -34.5t-127.5 -95.5t-90.5 -143t-34.5 -177q0 -59 17 -107.5t50 -82.5t81 -52.5t110 -18.5q57 0 101 16.5t79 43t62 60t50 68.5l-23 14q-24 -36 -48.5 -65.5t-51.5 -50.5t-58.5 -32.5t-70.5 -11.5
q-48 0 -83 18t-58.5 49.5t-34.5 75t-11 94.5q0 85 24 158.5t62 128t86.5 85.5t98.5 31q48 0 80 -16.5t51.5 -46t29.5 -70t15 -88.5h24z" />
    <glyph glyph-name="D" unicode="D" horiz-adv-x="744" 
d="M735 418q0 74 -25 124.5t-65 82t-91 45t-102 13.5h-296l-6 -22q6 0 15 -2t19 -4.5t19 -5.5t14 -5q20 -10 20 -27q0 -5 -1 -10.5t-3 -12.5l-143 -514q-5 -16 -14 -29t-29 -20q-6 -2 -16 -3.5l-21 -3t-21.5 -2.5t-16.5 -1l-5 -21h296q94 0 179.5 28.5t150.5 82.5
t103.5 131.5t38.5 175.5zM628 409q0 -79 -27 -148t-74.5 -120.5t-112 -81.5t-139.5 -30q-51 0 -70 20.5t-9 56.5l153 547q17 1 33.5 1.5t33.5 0.5q101 0 156.5 -60.5t55.5 -185.5z" />
    <glyph glyph-name="E" unicode="E" horiz-adv-x="637" 
d="M674 683h-525l-7 -22q7 0 17 -2t21 -4.5l21 -5t16 -5.5q11 -5 15.5 -11t4.5 -16q0 -5 -1 -11t-3 -13l-141 -510q-5 -17 -14.5 -30t-28.5 -20q-6 -2 -18 -4.5t-25 -4t-24.5 -2.5t-16.5 -1l-7 -21h574l65 192h-25q-6 -11 -18.5 -29.5t-29 -39t-34.5 -40t-35 -32.5
q-22 -17 -67.5 -20t-96.5 -3q-55 0 -78 7.5t-23 35.5q0 8 2.5 20.5t7.5 27.5l62 221h78q21 0 34 -3t21 -7.5t13 -10t8 -10.5q4 -6 6 -20.5t2 -31.5q0 -12 -0.5 -24t-2.5 -21h24l78 278h-26l-10.5 -22.5t-14 -27t-15.5 -24.5t-15 -17q-11 -10 -33 -21t-62 -11h-78l81 289h108
q24 0 43 -1t35 -3q33 -5 51.5 -39.5t18.5 -77.5v-8h25z" />
    <glyph glyph-name="F" unicode="F" horiz-adv-x="612" 
d="M699 683h-550l-7 -22q7 0 17 -2t21 -4.5l21 -5t16 -5.5q11 -5 15.5 -11t4.5 -16q0 -5 -1 -11t-3 -13l-141 -510q-5 -17 -14.5 -30t-28.5 -20q-6 -2 -18 -4.5t-25 -4t-24.5 -2.5t-16.5 -1l-7 -21h318l7 22q-7 0 -17 2t-21 4.5l-21 5t-16 5.5q-11 5 -15.5 11t-4.5 16
q0 5 1 11t3 13l69 247h89q35 0 54 -10.5t26 -20.5q4 -5 5.5 -17t2 -26.5t-0.5 -29.5t-3 -26h27l79 281h-27q-11 -28 -27 -55t-30 -37q-12 -9 -36 -20t-62 -11h-90l82 291h125q24 0 44.5 -1t37.5 -3q20 -3 34 -14.5t23 -29t13 -40t4 -47.5h25z" />
    <glyph glyph-name="G" unicode="G" horiz-adv-x="711" 
d="M729 302h-326l-6 -23q7 0 19.5 -1.5t26 -3.5t27 -5t21.5 -6q17 -8 20 -23.5t-2 -35.5l-10 -38q-9 -33 -20.5 -60t-30.5 -47t-47 -31t-69 -11q-82 0 -127 63.5t-45 181.5q0 90 25.5 164.5t66.5 128t92 83t103 29.5t86 -16.5t54 -45t29.5 -68t12.5 -84.5h23l55 240h-39
l-45 -51q-24 22 -60 38t-96 16q-87 0 -163.5 -37t-133.5 -99t-89.5 -142t-32.5 -166q0 -71 20.5 -121.5t55.5 -82.5t82 -47.5t100 -15.5q28 0 50.5 4t43.5 11t44 16.5l52 21.5l38 -61l13 4l62 232q4 17 13.5 30.5t30.5 21.5q15 6 35.5 9l34.5 5z" />
    <glyph glyph-name="H" unicode="H" horiz-adv-x="809" 
d="M887 683h-305l-8 -22q7 0 16.5 -2t20 -4.5t19.5 -5.5l15 -5q10 -5 15 -10.5t5 -15.5q0 -5 -1 -11t-3 -13l-62 -222h-328l63 227q5 16 14.5 30t29.5 20q7 2 17.5 4t21.5 3.5l21.5 3t17.5 1.5l6 22h-306l-6 -22q6 0 15 -2t19 -4.5t19 -5.5t14 -5q20 -10 20 -27
q0 -5 -1 -10.5t-3 -12.5l-143 -514q-5 -16 -14 -29t-29 -20q-6 -2 -16 -3.5l-21 -3t-21.5 -2.5t-16.5 -1l-5 -21h305l5 21q-7 0 -17.5 2l-20.5 4t-18.5 4.5t-12.5 4.5q-11 5 -16 11t-5 17q0 6 3 20l72 256h329l-73 -260q-5 -17 -14 -29.5t-29 -19.5q-5 -2 -15.5 -3.5l-22 -3
t-22.5 -2.5t-18 -1l-6 -21h306l6 21q-14 1 -37 5.5t-31 9.5q-10 6 -15.5 11t-5.5 16q0 4 1 9t3 12l144 515q5 17 14 30.5t29 19.5q14 4 37.5 7.5t37.5 4.5z" />
    <glyph glyph-name="I" unicode="I" horiz-adv-x="388" 
d="M465 683h-306l-6 -22q6 0 15 -2t19 -4.5t19 -5.5t14 -5q20 -10 20 -27q0 -5 -1 -10.5t-3 -12.5l-143 -514q-5 -16 -14 -29t-29 -20q-6 -2 -16 -3.5l-21 -3t-21.5 -2.5t-16.5 -1l-5 -21h305l5 21q-7 0 -17.5 2l-20.5 4t-18.5 4.5t-12.5 4.5q-11 5 -16 11t-5 17q0 6 3 20
l144 515q5 16 14.5 30t29.5 20q7 2 17.5 4t21.5 3.5l21.5 3t17.5 1.5z" />
    <glyph glyph-name="J" unicode="J" horiz-adv-x="546" 
d="M605 637q0 18 -11.5 24.5t-25.5 6.5q-11 0 -23.5 -9.5t-26 -24.5t-28.5 -33.5l-30 -36.5h-27q-31 3 -51.5 14.5t-35.5 26.5t-27.5 32.5t-27.5 31.5t-35.5 23.5t-51.5 9.5t-58.5 -14t-48.5 -36t-33 -48.5t-12 -51.5q0 -32 12.5 -57t42.5 -25q20 0 33.5 13.5t13.5 30.5
q0 23 -16 36t-36 14q-5 7 -10 20.5t-5 18.5q0 15 14 26.5t43 11.5q21 -1 37.5 -10t30.5 -21.5t27 -26.5t27.5 -26t31.5 -20t39 -8q7 0 21 1.5t30 4l31 5t25 5.5l-43 -54.5t-32 -44.5t-25 -43.5t-20 -50.5l-132 -3l-5 -27h131q-5 -20 -12 -52.5l-15 -69.5t-17.5 -75
l-18.5 -71q-18 -63 -37 -103.5t-40.5 -63t-46 -31t-52.5 -8.5q-5 0 -15 7t-10 20q9 13 15 24t6 21q0 27 -16 39t-42 12q-14 0 -24 -6t-17.5 -14.5t-11 -17.5t-3.5 -16q0 -17 6.5 -33t21 -28.5t36 -20.5t51.5 -8q39 0 80 14t78 43.5t68 75.5t50 110q25 81 40.5 146l26.5 110
l125 -1l10 35l-129 -3q8 47 20 92.5t36 103.5q23 5 45 10.5t39.5 14.5t28.5 23t11 36z" />
    <glyph glyph-name="K" unicode="K" horiz-adv-x="738" 
d="M819 683h-283l-6 -22q6 0 19 -1.5t25.5 -5.5t21 -11t5.5 -18q-5 -18 -33.5 -48t-73 -66.5t-100.5 -77l-115 -79.5h-13l68 245q5 16 14.5 30t29.5 20q7 2 17.5 4t21.5 3.5l21.5 3t17.5 1.5l6 22h-306l-6 -22q6 0 15 -2t19 -4.5t19 -5.5t14 -5q20 -10 20 -27q0 -5 -1 -10.5
t-3 -12.5l-143 -514q-5 -16 -14 -29t-29 -20q-6 -2 -16 -3.5l-21 -3t-21.5 -2.5t-16.5 -1l-5 -21h305l5 21q-7 0 -17.5 2l-20.5 4t-18.5 4.5t-12.5 4.5q-11 5 -16 11t-5 17q0 8 3 20l71 251h18q30 -36 62 -78.5t58.5 -81.5t43.5 -69.5t17 -42.5q0 -21 -25.5 -28.5
t-79.5 -12.5l-5 -22h341l5 22q-13 1 -34 4.5t-34 9.5q-26 13 -43 29.5t-30 36.5l-48.5 72.5l-45 65l-47 64l-53.5 70.5q41 28 77 55.5l71.5 56l71.5 59l77 64.5q23 19 47.5 29.5t46 15.5t38 6t23.5 1z" />
    <glyph glyph-name="L" unicode="L" horiz-adv-x="629" 
d="M597 194h-24q-10 -17 -24.5 -37.5t-31.5 -40t-34 -36.5t-32 -28q-9 -7 -26 -11.5t-39 -7.5t-45.5 -4t-45.5 -1q-41 0 -63.5 3.5t-32.5 13t-8.5 27.5t9.5 47l134 480q5 16 14.5 30t29.5 20q7 2 17.5 4t21.5 3.5l21.5 3t17.5 1.5l6 22h-313l-7 -22q7 0 17 -2t21 -4.5l21 -5
t16 -5.5q11 -5 15.5 -11t4.5 -16q0 -5 -1 -11t-3 -13l-141 -510q-5 -17 -14.5 -30t-28.5 -20q-6 -2 -18 -4.5t-25 -4t-24.5 -2.5t-16.5 -1l-7 -21h572z" />
    <glyph glyph-name="M" unicode="M" horiz-adv-x="931" 
d="M1006 683h-225q-3 -8 -14.5 -32t-31.5 -54l-295 -443l-99 529h-207l-6 -22q20 -1 44 -7.5t38 -20.5q12 -12 14.5 -31.5t-5.5 -50.5l-99 -366q-17 -60 -33 -92t-36 -45q-8 -5 -21 -9.5t-28 -8l-29 -6.5t-22 -3l-6 -21h299l6 21q-7 0 -20.5 3t-28 7.5t-27.5 10t-19 11.5
q-13 13 -13 45q0 12 4.5 39.5t11.5 52.5l106 397l82 -437q7 -36 10 -71.5t5 -67.5h18l398 587l-131 -518q-4 -16 -13.5 -29t-29.5 -20q-5 -2 -14.5 -3.5t-20 -3t-20.5 -2.5t-16 -1l-5 -21h304l5 21q-7 0 -17.5 1.5t-21.5 4t-20.5 5t-13.5 4.5q-11 5 -16 11t-5 17
q0 4 0.5 9.5t2.5 10.5l133 515q5 19 14.5 31.5t29.5 18.5q7 2 17.5 4t21.5 3.5l21.5 3t17.5 1.5z" />
    <glyph glyph-name="N" unicode="N" horiz-adv-x="737" 
d="M846 683h-297l-6 -21q9 0 22 -3t27 -7.5t26.5 -9.5t18.5 -10q14 -11 14 -42q0 -17 -5 -43.5t-11 -49.5l-92 -352l-231 538h-206l-7 -22q39 -2 63 -11t38 -23q10 -10 14.5 -24.5t4.5 -30.5q0 -9 -1 -18.5t-3 -15.5l-94 -353q-16 -60 -33 -92t-37 -45q-8 -5 -21 -9.5
t-28 -8l-29 -6.5t-22 -3l-6 -21h299l6 21q-7 0 -20.5 3t-28 7.5t-27.5 10t-19 11.5q-13 13 -13 45q0 6 1.5 17.5t4 25l5 27t5.5 22.5l99 377l246 -574h33l136 510q13 47 28 83.5t41 50.5q8 4 22 8.5t29 8t28 6t20 2.5z" />
    <glyph glyph-name="O" unicode="O" horiz-adv-x="720" 
d="M711 430q0 63 -23 113t-56 84q-37 38 -82 54.5t-101 16.5q-69 0 -133.5 -26.5t-119.5 -77.5q-72 -68 -108 -157t-36 -180q0 -66 24 -117.5t61 -87.5q35 -35 77.5 -51.5t96.5 -16.5q73 0 135 25t116 71q39 33 67 74t46 86.5t27 93.5t9 96zM604 451q0 -45 -7 -91t-19.5 -89
t-31 -82.5t-40.5 -70.5q-35 -49 -81 -76.5t-103 -27.5q-43 0 -74 16.5t-50.5 45t-29 68t-9.5 86.5q0 89 24 171t63 145q34 54 84.5 88t111.5 34q45 0 76 -17t50 -46.5t27.5 -69t8.5 -84.5z" />
    <glyph glyph-name="P" unicode="P" horiz-adv-x="603" 
d="M630 536q0 70 -51.5 108.5t-145.5 38.5h-277l-6 -22q6 0 15 -2t19 -4.5t19 -5.5t14 -5q20 -10 20 -27q0 -5 -1 -10.5t-3 -12.5l-143 -514q-5 -16 -14 -29t-29 -20q-6 -2 -16 -3.5l-21 -3t-21.5 -2.5t-16.5 -1l-5 -21h305l5 21q-7 0 -17.5 2l-20.5 4t-18.5 4.5t-12.5 4.5
q-11 5 -16 11t-5 17q0 8 3 19l64 230h47q73 0 133.5 15t104 44t67.5 70t24 94zM524 527q0 -84 -55 -134t-158 -50h-48l86 312h45q71 0 100.5 -35.5t29.5 -92.5z" />
    <glyph glyph-name="Q" unicode="Q" horiz-adv-x="666" 
d="M797 -132q0 20 -9.5 35.5t-35.5 15.5q-22 0 -40.5 -14t-18.5 -37q0 -20 8.5 -31t22.5 -16l4 -15q-10 -1 -25 -1h-23q-58 0 -104.5 28t-88.5 67l-84 79.5t-90 66.5q57 23 117 60t110 88.5t82 118.5t32 150q0 48 -16.5 90.5t-48.5 74.5t-81 51t-113 19q-63 0 -121 -24
t-103 -64.5t-71.5 -93t-26.5 -109.5q0 -42 12 -76.5t33.5 -59.5t52 -38.5t67.5 -13.5q31 0 65 13.5t62.5 38t47.5 58.5t19 76q0 22 -6 43t-17.5 37.5t-28.5 26.5t-39 10q-44 0 -65.5 -20.5t-21.5 -43.5q0 -21 8.5 -36t35.5 -15q20 0 32 12.5t12 32.5q0 8 -1 18t-4 18
q13 -2 22 -12t14 -23.5t7.5 -29.5t2.5 -31q0 -43 -12.5 -70.5t-32.5 -44t-45.5 -23t-50.5 -6.5t-44 10t-31.5 26.5t-19 39t-6.5 47.5q0 50 18 103t51 96.5t80.5 71t106.5 27.5q41 0 70.5 -14t48 -38t27.5 -55t9 -65q0 -87 -27 -161.5t-67 -131.5t-85 -93.5t-82 -46.5
q-51 24 -95 38t-94 14q-23 0 -44 -6t-37.5 -15.5t-26.5 -21.5t-10 -24q0 -17 10.5 -29t27.5 -19.5t38.5 -11.5t44.5 -4q41 0 79 10t73 24q28 -21 50 -48.5l43.5 -56t45.5 -56t56 -49.5t74 -35t100 -13q38 0 69.5 11.5t54 28t35 35t12.5 32.5zM245 38q-11 -6 -26 -11
t-32.5 -9.5t-35.5 -7t-34 -2.5q-22 0 -40.5 10.5t-28.5 33.5q1 5 6 12t12.5 14t16.5 11.5t20 4.5q46 0 81 -15.5t61 -40.5z" />
    <glyph glyph-name="R" unicode="R" horiz-adv-x="711" 
d="M687 152l-23 6q-17 -57 -37 -90t-46 -33q-20 0 -30 15.5t-12 44.5q-2 26 -2 55q0 30 -2 70q-2 53 -30 83.5t-76 39.5v8q43 10 82.5 26.5t69 40.5t47 56.5t17.5 74.5q0 66 -55 100t-153 34h-281l-6 -22q6 0 15 -2t19 -4.5t19 -5.5t14 -5q20 -10 20 -27q0 -5 -1 -10.5
t-3 -12.5l-143 -514q-5 -16 -14 -29t-29 -20q-6 -2 -16 -3.5l-21 -3t-21.5 -2.5t-16.5 -1l-5 -21h305l5 21q-7 0 -17.5 2l-20.5 4t-18.5 4.5t-12.5 4.5q-11 5 -16 11t-5 17q0 6 3 20q4 16 11.5 41.5l17 58l20 70.5l21.5 79h46q43 0 69 -9.5t39.5 -26t17.5 -39t4 -49.5v-86
q0 -69 25.5 -101.5t76.5 -32.5q31 0 54 12.5t40 34.5t30.5 51.5t24.5 64.5zM538 538q0 -85 -59 -130.5t-162 -45.5h-49l82 293h63q125 0 125 -117z" />
    <glyph glyph-name="S" unicode="S" horiz-adv-x="537" 
d="M579 693h-34l-47 -47q-20 20 -54.5 35t-78.5 15q-51 0 -96 -16t-78.5 -43.5t-53 -64.5t-19.5 -79q0 -35 9.5 -61.5t28.5 -48t48.5 -40.5t69.5 -40q37 -18 60.5 -35t37 -34t19 -36t5.5 -42q0 -25 -10.5 -50t-30.5 -44.5t-49 -32t-65 -12.5q-48 0 -81 17.5t-55 46.5
t-33.5 66t-16.5 77h-23l-56 -234h34l46 47q22 -18 65 -34t100 -16q52 0 100.5 16t86 45t60 70.5t22.5 91.5q0 30 -9.5 55.5t-30 49t-53.5 45.5t-80 46q-31 15 -52 29t-34 29t-19 33t-6 42q0 25 11 48t30.5 40.5t46.5 28t59 10.5q39 0 65 -15.5t43 -42.5t26 -63.5t13 -78.5
h22z" />
    <glyph glyph-name="T" unicode="T" horiz-adv-x="632" 
d="M739 683h-607l-49 -174h24q9 16 26.5 40t38.5 46t43 38.5t39 18.5q18 2 41.5 3t40.5 1h42l-158 -573q-5 -17 -14.5 -30t-29.5 -20q-5 -2 -17 -4t-26 -3.5t-26.5 -3t-19.5 -1.5l-6 -21h341l6 21q-7 0 -20 2t-27 5l-26 5.5t-16 4.5q-20 10 -20 28q0 4 0.5 10.5t2.5 11.5
l155 568h42q20 0 41 -1t39 -3q17 -2 29.5 -14.5t21 -32t12.5 -44.5t4 -52h24z" />
    <glyph glyph-name="U" unicode="U" horiz-adv-x="791" 
d="M884 683h-297l-6 -21q9 0 22 -3t27 -7.5t26.5 -9.5t18.5 -10q14 -11 14 -42q0 -17 -4 -40.5t-12 -51.5l-75 -263q-29 -99 -87 -153.5t-154 -54.5q-79 0 -111 30.5t-32 82.5q0 25 5 55t14 62l95 342q5 16 14.5 30t29.5 20q7 2 17.5 4t21.5 3.5l21.5 3t17.5 1.5l6 22h-306
l-6 -22q6 0 15 -2t19 -4.5t19 -5.5t14 -5q20 -10 20 -27q0 -5 -1 -10.5t-3 -12.5l-99 -357q-8 -26 -11 -50t-3 -45q0 -75 51 -116.5t159 -41.5q127 0 200 64.5t108 182.5l78 273q14 47 28.5 83t40.5 50q8 4 22 8.5t29 8t28 6t20 2.5z" />
    <glyph glyph-name="V" unicode="V" horiz-adv-x="635" 
d="M802 683h-275l-6 -21q12 -1 28.5 -4t32.5 -9t27 -14.5t11 -19.5q0 -8 -11 -24.5l-25 -36.5l-46 -64l-81 -107l-200 -256v470q0 15 6 29.5t26 22.5q13 5 34.5 8t44.5 5l6 21h-292l-6 -21q14 -1 32 -4t29 -9q15 -8 19 -21t4 -34v-605h28l113 147l115.5 148.5l113.5 144
l108 135.5q22 26 43.5 46.5t44.5 31.5q17 8 38 13.5t32 6.5z" />
    <glyph glyph-name="W" unicode="W" horiz-adv-x="953" 
d="M1114 683h-269l-6 -22q17 -1 35.5 -4.5t33.5 -9.5t24.5 -14.5t9.5 -19.5q0 -14 -11 -36t-36 -60l-255 -389v469q0 15 6 29.5t26 22.5q13 5 34.5 8t44.5 5l6 21h-292l-6 -21q14 -1 32 -4t29 -9q14 -7 18.5 -18.5t4.5 -27.5q0 -13 -1.5 -25t-6.5 -26l-278 -424v469
q0 15 6 29.5t26 22.5q13 5 34.5 8t44.5 5l6 21h-292l-6 -21q14 -1 32 -4t29 -9q15 -8 19 -21.5t4 -33.5v-602h38l345 517v-517h38l385 576q17 25 33 43.5t39 29.5q16 8 36 13.5t34 6.5z" />
    <glyph glyph-name="X" unicode="X" horiz-adv-x="738" 
d="M828 683h-284l-6 -22q47 -2 67 -10t20 -27q0 -9 -15.5 -29t-43 -49l-65.5 -66.5l-82 -80.5l-58.5 135t-22.5 77q0 14 10 23.5t26 15t36.5 8t41.5 3.5l6 22h-343l-6 -22q7 0 17.5 -1.5t21 -3.5t19.5 -4t14 -5q24 -14 34 -32t18 -35l53.5 -114l61.5 -137l-61.5 -61
l-58.5 -56.5l-57.5 -54l-59.5 -54.5q-18 -17 -42.5 -35.5t-57.5 -31.5q-16 -6 -38.5 -9.5t-36.5 -4.5l-6 -22h284l6 22q-45 2 -65 9.5t-20 29.5q0 9 20.5 33.5t53 58l73 72.5l79.5 77l41 -92.5t27.5 -65t15.5 -43.5t5 -28q0 -15 -10.5 -24t-27 -15t-37 -8.5t-41.5 -3.5
l-6 -22h343l6 22q-6 0 -17 1t-22 2.5t-20.5 3.5t-12.5 5q-20 17 -31.5 34.5t-19.5 34.5q-11 21 -25 51l-30 65.5l-33 74.5l-34 77l117 116l99 93q18 17 42.5 35.5t57.5 31.5q16 6 38 9.5t36 4.5z" />
    <glyph glyph-name="Y" unicode="Y" horiz-adv-x="628" 
d="M735 638q0 18 -15.5 38t-51.5 20q-34 0 -70.5 -17.5t-73.5 -53.5t-71.5 -91.5t-64.5 -131.5h-9q5 30 7 50t2 46q0 36 -11 71.5t-32 63t-51 45t-68 17.5q-122 0 -174 -154l22 -7q17 53 43 76.5t61 23.5q36 0 59.5 -15t37.5 -39t19.5 -55t5.5 -64q0 -25 -1 -64t-9 -72
l-60 -245q-3 -13 -12 -27.5t-29 -21.5q-6 -2 -15.5 -3.5t-20 -3t-20.5 -2.5t-16 -1l-5 -21h313l5 21q-7 0 -19 1.5t-24.5 3.5t-22.5 4.5t-14 4.5q-22 10 -23 29q0 8 3 20l57 229q8 32 20 62.5t25.5 57.5t27 49t24.5 38q19 27 39.5 50.5t40.5 41.5t38.5 30t33.5 16l4 -5
l-9.5 -15t-4.5 -20q0 -6 2.5 -13.5t8.5 -15t15.5 -12.5t24.5 -5q26 0 42 15.5t16 50.5z" />
    <glyph glyph-name="Z" unicode="Z" horiz-adv-x="596" 
d="M687 683h-510l-68 -184h24q12 19 32 43.5t43.5 47.5t48 40t45.5 21q16 3 38.5 4t48.5 1h160l-613 -644l-3 -12h563l73 205h-24q-10 -16 -25 -36t-32.5 -41t-37.5 -40.5t-39 -34.5q-10 -8 -28 -13t-39.5 -8t-46 -4t-46.5 -1h-181l613 644z" />
    <glyph glyph-name="bracketleft" unicode="[" horiz-adv-x="610" 
d="M680 727q0 12 -4 24t-11 18l-23 -8q7 -15 7 -29q0 -13 -4 -23.5t-15.5 -18t-32.5 -11.5t-54 -4q-72 0 -148.5 11t-167.5 33l-21 8l-237 -886l25 8q103 22 185.5 33t154.5 11q26 0 42 -2.5t25 -7t12 -10.5t3 -12q0 -9 -4 -17.5t-9.5 -16t-11 -13t-9.5 -8.5l20 -8
q23 18 37 37.5t14 46.5q0 37 -31 64t-94 27q-42 0 -76.5 -7t-68 -19t-70.5 -29l-83 -37l216 806q36 -20 63.5 -37t54.5 -29t58 -19t73 -7q33 0 66.5 10t59.5 28t42.5 42t16.5 52z" />
    <glyph glyph-name="backslash" unicode="\" horiz-adv-x="470" 
d="M384 -205l-190 958l-49 -7l191 -959z" />
    <glyph glyph-name="bracketright" unicode="]" horiz-adv-x="610" 
d="M656 727l-25 -8q-103 -22 -185.5 -33t-154.5 -11q-26 0 -42 2.5t-25 7t-12 10.5t-3 12q0 9 4 17.5t9.5 16t11 13t9.5 8.5l-20 8q-23 -18 -37 -37.5t-14 -46.5q0 -37 31 -64t94 -27q42 0 76.5 7t68 19t70 29t83.5 37l-216 -806q-36 20 -63.5 37t-54.5 29t-58 19t-73 7
q-33 0 -66.5 -10t-59.5 -28t-42.5 -42t-16.5 -52q0 -12 4 -24t11 -18l23 8q-7 15 -7 29q0 13 4 23.5t15.5 18t32.5 11.5t54 4q72 0 148.5 -11t167.5 -33l21 -8z" />
    <glyph glyph-name="asciicircum" unicode="^" horiz-adv-x="678" 
d="M682 331q0 10 -3.5 21t-11.5 21t-23 16.5t-37 6.5q-29 0 -53 -18t-44.5 -46t-39 -63l-36.5 -68q-19 37 -35 64.5l-29 49.5l-23.5 40.5t-19.5 37.5q33 16 64 35.5t55.5 43.5t39.5 53t15 65q0 48 -32 77.5t-81 29.5q-41 0 -75.5 -15.5t-59.5 -41.5t-39 -61.5t-14 -75.5
q0 -31 7 -58t26 -69q-60 -30 -101 -59.5t-66 -59t-35.5 -60.5t-10.5 -65q0 -36 13 -63.5t34.5 -45.5t50.5 -27.5t61 -9.5q36 0 65.5 9t54 25t45.5 36.5t41 44.5q16 -33 30.5 -74.5t14.5 -76.5q0 -49 -16 -79.5t-42 -47.5t-58.5 -23t-65.5 -6l3 -29q52 0 97 19t78.5 53.5
t52.5 81t19 102.5q0 33 -15 75t-35 83q42 75 67 111.5t45 36.5q21 0 27.5 -6.5t11 -15t12.5 -15t32 -6.5q20 0 29.5 15.5t9.5 31.5zM455 585q0 -31 -10.5 -55.5t-29 -45t-44 -37t-55.5 -31.5q-20 44 -26 70t-6 49t6 46.5t18 42t30.5 30.5t43.5 12q33 0 53 -23t20 -58z
M373 122q-36 -43 -68 -64.5t-79 -21.5q-49 0 -80.5 35.5t-31.5 93.5q0 24 4 47.5t17.5 47.5t39.5 47.5t69 46.5q26 -56 61 -113t68 -119z" />
    <glyph glyph-name="underscore" unicode="_" horiz-adv-x="600" 
d="M500 -155v45h-610v-45h610z" />
    <glyph glyph-name="quoteleft" unicode="&#x2018;" horiz-adv-x="185" 
d="M279 713l-10 23q-69 -36 -111.5 -79.5t-42.5 -102.5q0 -40 17.5 -59t48.5 -19q16 0 28.5 6t21 15.5t13 21t4.5 21.5q0 22 -16 36.5t-47 14.5h-20q8 42 38 69.5t76 52.5z" />
    <glyph glyph-name="a" unicode="a" horiz-adv-x="549" 
d="M541 140l-20 6q-25 -64 -49.5 -98t-59.5 -34q-14 0 -24 7.5t-10 32.5q0 9 4 31t12 43l113 327h-90l-23 -67h-3q-7 38 -32.5 55.5t-57.5 17.5q-68 0 -119.5 -35t-87 -85t-53.5 -104t-18 -93q0 -47 12 -77.5t31.5 -48.5t44 -25t49.5 -7q43 0 77 27.5t63 69.5l4 -1
q0 -51 24.5 -72t69.5 -21q27 0 47.5 11t37 31t30.5 48t28 61zM382 351l-76 -233q-23 -39 -55.5 -68.5t-75.5 -29.5q-10 0 -20 3t-18.5 14t-14 31t-5.5 55q0 30 6.5 65t18 70t27.5 68t36 58.5t43.5 40.5t49.5 15q36 0 55.5 -21.5t28.5 -67.5z" />
    <glyph glyph-name="b" unicode="b" horiz-adv-x="510" 
d="M489 304q0 47 -13 77.5t-34 48t-47 24.5t-51 7q-21 0 -40.5 -7.5t-37 -19t-31.5 -25.5t-25 -27l-3 1l118 359l-218 -10v-20q18 -1 29.5 -1.5t30.5 -2.5q17 -2 28.5 -8.5t11.5 -23.5q0 -10 -3.5 -26t-11.5 -41l-131 -410q-6 -20 -10.5 -38t-4.5 -49q0 -35 13.5 -59t36 -39
t50 -22t56.5 -7q45 0 84 16.5t70.5 43t56.5 61t41.5 70t25.5 69t9 59.5zM395 324q0 -44 -15 -99t-41 -103.5t-60.5 -81.5t-73.5 -33q-13 0 -27.5 3.5t-27 15t-20.5 32t-8 55.5l71 222q12 18 26.5 34.5t31 29t36 20.5t42.5 8q10 0 21.5 -3t21.5 -14t16.5 -31.5t6.5 -54.5z
" />
    <glyph glyph-name="c" unicode="c" horiz-adv-x="397" 
d="M394 371q0 16 -7 32.5t-20 29t-32 20.5t-43 8q-63 0 -113 -35t-84.5 -85t-53 -104t-18.5 -93q0 -48 13.5 -78.5t35 -48t48.5 -24.5t53 -7q25 0 50 8t50.5 26.5t50.5 49t49 74.5l-20 9q-31 -57 -70 -95.5t-94 -38.5q-39 0 -55.5 26.5t-16.5 77.5q0 30 6.5 65.5t17.5 71
t26.5 69t34 59t39 41t42.5 15.5q27 0 40.5 -8t17.5 -28q-23 -12 -37 -27.5t-14 -31.5q0 -24 18 -34.5t35 -10.5q26 0 38.5 20.5t12.5 46.5z" />
    <glyph glyph-name="d" unicode="d" horiz-adv-x="560" 
d="M596 742l-227 -10v-20q19 -1 35 -1.5t35 -2.5q17 -2 29 -8.5t12 -23.5q0 -21 -15 -67l-64 -212h-3q-11 32 -37 48t-57 16q-68 0 -120 -35t-88 -85t-54.5 -104t-18.5 -93q0 -47 12.5 -77.5t32.5 -48.5t45 -25t50 -7q43 0 81 26.5t67 68.5l4 -1q0 -50 23 -70.5t68 -20.5
q27 0 47.5 11t37 31t30.5 48t28 61l-20 6q-25 -64 -49.5 -98t-59.5 -34q-14 0 -23.5 7.5t-9.5 32.5q0 4 1.5 13t4 19.5l5 21.5t5.5 20zM390 362l-75 -246q-23 -39 -58.5 -67.5t-78.5 -28.5q-10 0 -20.5 3t-19.5 14t-15 31t-6 55q0 45 14 100t39 103t58.5 81t72.5 33
q35 0 55.5 -18t33.5 -60z" />
    <glyph glyph-name="e" unicode="e" horiz-adv-x="398" 
d="M394 394q0 34 -25.5 50.5t-59.5 16.5q-47 0 -86 -16t-71 -42.5t-56 -60.5t-40.5 -69t-24.5 -68t-8 -59q0 -48 14 -79t36 -49t49 -25t54 -7q24 0 49 8t49.5 26.5t49 49t47.5 74.5l-18 9q-15 -29 -32 -53.5t-37 -42.5t-43 -28t-50 -10q-39 0 -56.5 25t-17.5 76q0 21 5 45
l10 49q37 6 82.5 19.5t85.5 35.5t67 53t27 72zM325 388q0 -17 -9.5 -39.5t-31.5 -44.5t-58 -41t-89 -28q10 37 25.5 74t34.5 66.5t40.5 47.5t43.5 18q24 0 34 -14.5t10 -38.5z" />
    <glyph glyph-name="f" unicode="f" horiz-adv-x="307" 
d="M536 658q0 15 -6 30.5t-19 27.5t-32 19.5t-45 7.5q-35 0 -71 -11.5t-71 -43.5q-47 -42 -74 -92t-43 -111l-11 -40h-106l-10 -33h106l-46.5 -187t-63.5 -229q-34 -110 -71 -161.5t-92 -51.5q-5 0 -11.5 3.5t-8.5 14.5l15 22t6 25q0 13 -5.5 22.5t-13.5 15t-17.5 8
t-17.5 2.5q-26 0 -39 -17.5t-13 -34.5q0 -15 4.5 -29.5t16 -25.5t31 -18t49.5 -7q37 0 69 12.5t71 45.5q46 38 74.5 91t46.5 111q13 41 26 89.5l26.5 99.5l26.5 102l25 97h124l11 33h-126l20 70q29 106 66 157t85 51q8 0 13 -3t9 -14q-2 -16 -8.5 -29.5t-6.5 -24.5
q0 -12 6 -20.5t14.5 -14t18 -7.5t17.5 -2q13 0 22.5 5.5t16 13t9.5 16.5t3 15z" />
    <glyph glyph-name="g" unicode="g" horiz-adv-x="482" 
d="M524 414q0 20 -14.5 33.5t-31.5 13.5q-16 0 -27.5 -2t-22 -6t-21 -9.5t-23.5 -11.5q-5 0 -16 4.5t-27.5 10t-38 10t-46.5 4.5q-40 0 -75.5 -13.5t-62 -36.5t-42 -55t-15.5 -69q0 -33 20 -60t56 -44v-5q-12 -4 -29.5 -11t-33 -18t-27 -27.5t-11.5 -39.5q0 -17 7.5 -28.5
t19.5 -19.5t28 -13t33 -8v-7q-83 -11 -126 -46t-43 -84q0 -48 45.5 -79t137.5 -31q70 0 123.5 14.5t89.5 39t54 57.5t18 70q0 25 -8.5 44.5t-22 33.5t-31 22.5t-36.5 11.5q-8 1 -22 3t-30 3.5t-32 3.5t-27 3q-56 6 -81.5 13.5t-25.5 35.5q0 20 13 30.5t29 18.5h63
q36 0 69.5 12t59.5 34.5t42 53t16 68.5q0 17 -5.5 35.5t-14.5 32.5v6q11 8 24.5 12.5t37.5 4.5q0 -31 6.5 -46.5t30.5 -15.5q20 0 33 13t13 34zM315 364q0 -23 -6 -53.5t-18.5 -58.5t-32.5 -47t-48 -19q-14 0 -25 8t-19 21t-12.5 29.5t-4.5 34.5q0 20 5 48.5t16.5 54.5
t31 44.5t48.5 18.5q32 0 48.5 -24.5t16.5 -56.5zM343 -75q0 -66 -48 -102.5t-132 -36.5q-34 0 -57.5 9t-37.5 23t-20.5 30.5t-6.5 31.5q0 92 104 118q39 -2 80 -4.5t81 -11.5q9 -2 16 -8.5t11.5 -15t7 -17.5t2.5 -16z" />
    <glyph glyph-name="h" unicode="h" horiz-adv-x="554" 
d="M541 140l-18 6q-25 -64 -49.5 -98t-60.5 -34q-14 0 -25.5 5t-11.5 29q0 11 6 32.5t16 47.5l55 147q8 20 13.5 41.5t5.5 32.5q0 22 -8.5 42.5t-24 36t-36.5 24.5t-46 9q-43 0 -77 -23t-63 -59l-4 1l120 362l-218 -10v-20q18 -1 29 -1.5t31 -2.5q17 -2 28 -8.5t11 -23.5
q0 -10 -3 -26t-11 -41l-192 -609h88l95 305q69 124 151 124q20 0 35 -9t15 -41q0 -14 -6 -33.5t-14 -39.5l-59 -156q-9 -24 -14.5 -44.5t-5.5 -38.5q0 -23 10.5 -38t26.5 -24t35 -12.5t35 -3.5q26 0 46.5 11t37 31t30 48t27.5 61z" />
    <glyph glyph-name="i" unicode="i" horiz-adv-x="334" 
d="M327 653q0 21 -12.5 38t-33.5 17q-32 0 -50 -20.5t-18 -49.5q0 -23 12.5 -39.5t37.5 -16.5q31 0 47.5 21t16.5 50zM315 140l-18 6q-25 -64 -50 -98t-61 -34q-14 0 -25 5.5t-11 29.5q0 11 6 32t17 47l57 147l9.5 25l10.5 28t8 26.5t3 21.5q0 22 -9.5 38t-24.5 26.5
t-32.5 15.5t-33.5 5q-27 0 -47.5 -11.5t-37 -31.5t-30.5 -48t-27 -61l19 -7q25 64 49 99.5t59 35.5q14 0 23.5 -8t9.5 -30q0 -9 -7.5 -33.5t-15.5 -45.5l-67 -170q-10 -26 -15 -45.5t-5 -37.5q0 -23 10 -38t25.5 -24t34 -12.5t34.5 -3.5q26 0 46.5 11t37 31t30.5 48t28 61z
" />
    <glyph glyph-name="j" unicode="j" horiz-adv-x="290" 
d="M328 653q0 21 -12.5 38t-33.5 17q-32 0 -50 -20.5t-18 -49.5q0 -23 12.5 -39.5t37.5 -16.5q31 0 47.5 21t16.5 50zM263 377q0 22 -9 38t-23 26t-31.5 15t-34.5 5q-27 0 -47.5 -11.5t-37 -31.5t-30.5 -48t-27 -61l19 -7q25 64 49 99.5t59 35.5q14 0 22.5 -8t8.5 -30
q0 -9 -2 -23t-6 -28l-22.5 -89.5l-21 -80.5t-23.5 -84l-30 -100q-33 -110 -70 -160.5t-93 -50.5q-5 0 -10 4t-5 16q19 27 19 44q0 26 -14.5 38t-39.5 12q-13 0 -23 -5.5t-16.5 -13t-10 -16t-3.5 -15.5q0 -15 4.5 -30t16 -26.5t30.5 -19t49 -7.5q37 0 70 12t72 45
q45 38 73.5 90t46.5 111l22 76.5l19 67.5l17.5 66l18.5 71q5 19 9.5 43t4.5 31z" />
    <glyph glyph-name="k" unicode="k" horiz-adv-x="547" 
d="M547 390q0 32 -17 51.5t-66 19.5q-32 0 -53 -14t-36.5 -35t-28.5 -45t-29 -45t-37 -35t-53 -14h-24q-9 0 -20 1l151 468l-218 -10v-20q18 -1 29 -1.5t31 -2.5q17 -2 28 -8.5t11 -23.5q0 -10 -3 -25.5t-11 -41.5l-193 -609h88l81 253q9 1 16 1.5t15 0.5q32 0 52 -14
t20 -45q0 -11 -3 -26.5t-7 -32.5t-7 -35t-3 -35q0 -23 9 -38t24 -24t34.5 -12.5t39.5 -3.5q52 0 84.5 42t59.5 109l-19 6q-24 -64 -50 -98t-62 -34q-14 0 -24 6t-10 30q0 25 8.5 53.5t8.5 69.5q0 23 -8 38.5t-20 26t-27 17t-29 11.5q31 9 52 26t36 37t25.5 41l19.5 37.5
t19 27.5t24 11t20 -4t10 -15q-2 -11 -8 -15l-13 -9t-12 -14t-5 -29q0 -14 14 -23.5t29 -9.5q26 0 41.5 20t15.5 43z" />
    <glyph glyph-name="l" unicode="l" horiz-adv-x="294" 
d="M331 742l-219 -10v-20q18 -1 29.5 -1.5t30.5 -2.5q17 -2 28.5 -8.5t11.5 -23.5q0 -10 -3 -25.5t-11 -41.5l-145 -459q-7 -23 -12.5 -44.5t-5.5 -39.5q0 -23 10 -38t25 -23.5t33 -12t34 -3.5q27 0 47.5 11t37 31t30.5 48t28 61l-18 6q-25 -64 -50.5 -98t-61.5 -34
q-14 0 -24.5 6t-10.5 30q0 11 5.5 32t13.5 44z" />
    <glyph glyph-name="m" unicode="m" horiz-adv-x="859" 
d="M847 140l-19 6q-25 -64 -50 -98t-60 -34q-14 0 -25.5 6t-11.5 30q0 11 6 31.5t16 46.5l56 147q7 18 13 40.5t6 33.5q0 22 -9 42.5t-25 36t-37.5 24.5t-46.5 9q-22 0 -41.5 -8t-37.5 -21t-33 -29.5t-28 -33.5h-4q-1 16 -8.5 32.5t-22 30t-35 21.5t-47.5 8q-43 0 -78.5 -27
t-63.5 -65l-4 1q0 28 -8.5 46t-21.5 28t-29.5 13.5t-32.5 3.5q-27 0 -47.5 -11.5t-37 -31.5t-30.5 -48t-27 -61l20 -7q25 64 49 99.5t59 35.5q14 0 21 -7t7 -29q0 -5 -2 -14.5l-4.5 -21.5t-6 -24t-6.5 -21l-108 -320h91l100 305q10 21 26 43t34.5 40t39.5 29.5t41 11.5
q10 0 19.5 -1.5t17 -6.5t12 -14.5t4.5 -25.5q0 -14 -4 -31t-9 -30l-106 -320h92l108 334q12 18 25.5 35t29.5 30.5t34 21.5t38 8q10 0 19 -1.5t16.5 -6.5t12 -14.5t4.5 -25.5q0 -14 -6 -35.5t-13 -39.5l-59 -156q-9 -25 -15.5 -45t-6.5 -38q0 -23 11 -38t27 -24t34.5 -12.5
t34.5 -3.5q27 0 47.5 11t37 31t30.5 48t28 61z" />
    <glyph glyph-name="n" unicode="n" horiz-adv-x="599" 
d="M587 140l-19 6q-25 -64 -50 -98t-60 -34q-14 0 -25.5 6t-11.5 30q0 11 6 31.5t16 46.5l56 147q7 18 13 40.5t6 33.5q0 22 -8.5 42.5t-24 36t-36.5 24.5t-46 9q-44 0 -80 -28t-62 -64l-4 1q0 28 -8.5 46t-21.5 28t-29.5 13.5t-32.5 3.5q-27 0 -47.5 -11.5t-37 -31.5
t-30.5 -48t-27 -61l20 -7q25 64 49 99.5t59 35.5q14 0 21 -7.5t7 -28.5q0 -5 -2 -14.5l-4.5 -21.5t-6 -24t-6.5 -21l-108 -320h91l100 305q13 25 29.5 47.5t35.5 39.5t39.5 27t40.5 10q10 0 18.5 -1.5t15.5 -6.5t11 -14.5t4 -25.5q0 -14 -6 -35.5t-13 -39.5l-59 -156
q-10 -26 -16 -45.5t-6 -37.5q0 -23 11 -38t27 -24t34.5 -12.5t34.5 -3.5q27 0 47.5 11t37 31t30.5 48t28 61z" />
    <glyph glyph-name="o" unicode="o" horiz-adv-x="481" 
d="M455 285q0 47 -13.5 80.5t-35 54.5t-48 31t-51.5 10q-70 0 -122.5 -32t-87.5 -78t-52.5 -98t-17.5 -92q0 -47 13.5 -80t35 -54t47.5 -31t52 -10q70 0 123 31.5t87.5 77.5t52 98t17.5 92zM361 307q0 -45 -11 -97.5t-32.5 -98t-53.5 -76t-74 -30.5q-29 0 -49 34t-20 103
q0 44 12 97t34 98.5t54 76t71 30.5q27 0 48 -34t21 -103z" />
    <glyph glyph-name="p" unicode="p" horiz-adv-x="564" 
d="M543 304q0 47 -13 77.5t-33 48t-45.5 24.5t-50.5 7q-44 0 -79.5 -27.5t-65.5 -65.5l-4 1q0 25 -7 42.5t-19 28.5t-28 16t-33 5q-27 0 -47.5 -11.5t-37 -31.5t-30.5 -48t-27 -61l20 -7q25 64 50 99.5t58 35.5q14 0 20.5 -9t6.5 -34q0 -5 -1.5 -13.5t-4 -19t-5.5 -21.5
t-6 -20l-135 -429l-15 -43t-23 -41q-9 -11 -22.5 -16.5t-48.5 -5.5l-5 -19h282l5 20q-18 1 -29 1.5t-30 2.5q-17 2 -29 8.5t-12 23.5q0 19 14 67l50 162h4q4 -15 13.5 -26.5t22.5 -20t28.5 -13t30.5 -4.5q67 0 119.5 35t88.5 84.5t54.5 104t18.5 93.5zM449 324
q0 -44 -14 -99t-38.5 -103t-58 -80.5t-72.5 -32.5q-36 0 -58 17t-33 59l77 247q23 37 57 66t76 29q10 0 21 -3t20.5 -14t16 -31.5t6.5 -54.5z" />
    <glyph glyph-name="q" unicode="q" horiz-adv-x="518" 
d="M513 455h-66l-40 -58h-4q-11 32 -39.5 48t-59.5 16q-68 0 -120 -35t-88 -85t-54.5 -104t-18.5 -93q0 -47 12.5 -77.5t32.5 -48t45 -24.5t50 -7q21 0 41 7t37.5 17.5t31 23.5t22.5 24l4 -1l-53 -167q-6 -20 -15 -44t-23 -40q-9 -11 -29 -16.5t-54 -5.5l-6 -19h286l6 20
q-9 0 -14.5 0.5l-11 1l-11.5 1t-15 1.5q-17 2 -28.5 8.5t-11.5 23.5q0 10 3 26.5t11 40.5zM394 362l-78 -246q-23 -39 -59 -67t-79 -28q-10 0 -21 3t-20 13.5t-15 30.5t-6 55q0 30 6.5 65t18.5 70t28.5 68t37 58.5t44.5 40.5t50 15q35 0 57.5 -18t35.5 -60z" />
    <glyph glyph-name="r" unicode="r" horiz-adv-x="417" 
d="M446 400q0 23 -16.5 42t-48.5 19q-24 0 -42 -9t-33 -23t-27.5 -32.5l-24.5 -37.5l-4 1q0 27 -7 46.5t-19 31.5t-27.5 17.5t-31.5 5.5q-27 0 -47.5 -11.5t-37 -31.5t-30.5 -48t-27 -61l20 -7q24 62 48.5 98.5t59.5 36.5q14 0 21 -7t7 -29q0 -5 -2 -15t-5 -22l-6 -24
t-6 -20l-100 -320h90l93 306l24.5 42.5t28 42t29.5 32t28 12.5q12 0 13.5 -3t1.5 -10q0 -3 -3.5 -7l-8 -9t-8 -11.5t-3.5 -15.5q0 -17 11.5 -29.5t37.5 -12.5t39 20t13 43z" />
    <glyph glyph-name="s" unicode="s" horiz-adv-x="385" 
d="M366 356q0 9 -4 27t-17 35t-37.5 30t-65.5 13q-30 0 -58 -12.5t-49.5 -32t-34.5 -43.5t-13 -48q0 -31 12.5 -53t31 -39t40 -31.5t40 -30.5t31 -36t12.5 -49q0 -20 -9 -35t-24.5 -25t-35.5 -14.5t-42 -4.5q-19 0 -37 5.5t-32.5 14t-23 19.5t-8.5 23q0 11 6.5 12.5
t20.5 1.5q25 0 34.5 15t9.5 29q0 6 -2 13.5t-8 14.5t-16.5 11.5t-26.5 4.5q-21 0 -38 -20.5t-17 -48.5q0 -18 8 -38.5t25.5 -37.5t46 -28.5t69.5 -11.5q33 0 64 12t55 31.5t38.5 45t14.5 52.5q0 32 -12 55t-30.5 40.5t-40 31.5t-40 29t-30.5 33t-12 42q0 22 8 37.5t20 25.5
t26 15t26 5q25 0 41 -5t25.5 -12t13.5 -14.5t5 -12.5q-2 -4 -10.5 -9t-19 -12t-18.5 -17t-8 -25q0 -22 15 -31.5t34 -9.5q22 0 34.5 17.5t12.5 45.5z" />
    <glyph glyph-name="t" unicode="t" horiz-adv-x="333" 
d="M365 445h-128l46 155h-87l-44 -155h-97l-11 -33h96q-2 -6 -8 -26.5l-14.5 -48.5l-18.5 -60.5l-19 -63l-16 -54.5l-10 -35l-6 -24.5t-4 -33.5q0 -23 10 -38t25.5 -23.5t34 -12t34.5 -3.5q52 0 87 43t62 110l-19 6q-25 -64 -53 -99t-64 -35q-14 0 -25.5 6t-11.5 30
q0 11 6.5 32t12.5 44q3 13 13 46.5l22.5 75.5l25.5 86l23 78h127z" />
    <glyph glyph-name="u" unicode="u" horiz-adv-x="593" 
d="M582 140l-20 6q-25 -64 -49.5 -98t-59.5 -34q-14 0 -23.5 8.5t-9.5 33.5q0 4 1.5 13t4 19.5t5.5 21t5 18.5l105 318h-92l-101 -320q-12 -21 -27.5 -40t-33.5 -34t-38 -24t-41 -9q-20 0 -34.5 9.5t-14.5 41.5q0 14 5.5 33t13.5 39l61 156q10 26 15.5 45.5t5.5 37.5
q0 21 -9.5 36t-24.5 24t-32.5 13.5t-33.5 4.5q-27 0 -47 -11t-36.5 -31t-30 -47.5t-26.5 -60.5l18 -7q25 64 49 99.5t59 35.5q14 0 22 -7t8 -29q0 -12 -5 -33.5t-16 -47.5l-57 -147q-8 -20 -14 -41.5t-6 -32.5q0 -22 8.5 -42.5t24 -36t37 -24.5t46.5 -9q21 0 41.5 8
t39.5 21.5t35.5 30.5t29.5 36l4 -1q0 -53 26.5 -73t68.5 -20q27 0 47.5 11t37 31t30.5 48t28 61z" />
    <glyph glyph-name="v" unicode="v" horiz-adv-x="522" 
d="M507 381q0 14 -1.5 28.5t-7 26t-16 18.5t-28.5 7q-21 0 -36.5 -13.5t-15.5 -33.5q0 -24 8 -37t18 -25t18 -28t8 -46q0 -60 -21 -107t-51.5 -79t-65 -49t-62.5 -17q-13 0 -27 4t-25.5 14.5t-19 28.5t-7.5 45q0 50 14.5 98.5t37.5 91t51 79t55 62.5l-16 15
q-34 -30 -65.5 -42t-66.5 -12q-11 0 -24 2.5t-25.5 8.5t-23.5 15t-18 23h-14l-61 -178l19 -6l34 94q8 -5 21.5 -8t35.5 -3q28 0 59 12.5t68 35.5l6 -5q-81 -72 -130 -140t-49 -142q0 -33 11 -58t29.5 -41.5t42.5 -25t49 -8.5q63 0 116.5 34t92.5 89.5t61 126.5t22 145z" />
    <glyph glyph-name="w" unicode="w" horiz-adv-x="725" 
d="M708 375q0 17 -1.5 32.5t-7 27.5t-16 19t-28.5 7q-21 0 -34.5 -13.5t-13.5 -33.5q0 -26 8.5 -40.5t18 -26.5t18 -27.5t8.5 -43.5q0 -47 -15 -90.5t-40 -77t-57 -54t-66 -20.5q-8 0 -20.5 3t-25 12.5t-23.5 26.5t-17 45q26 32 50.5 67.5t43 70t29.5 66t11 56.5
q0 33 -8.5 56.5t-33.5 23.5q-17 0 -36.5 -15t-39 -40t-37.5 -56.5t-32 -64.5t-22.5 -64.5t-8.5 -56.5q0 -24 3 -45t6 -36q-20 -26 -46.5 -43t-44.5 -17q-23 0 -40 20.5t-17 73.5q0 56 13.5 105t35.5 90.5t48.5 76t53.5 60.5l-15 15q-34 -30 -61 -42t-62 -12q-11 0 -24 2.5
t-26 8.5t-24 15t-18 23h-14l-59 -173l19 -6l31 89q9 -5 22 -8t35 -3q28 0 56 12.5t66 35.5l5 -5q-80 -72 -126.5 -138.5t-46.5 -140.5q0 -69 33 -102t84 -33q26 0 61 20.5t70 55.5q17 -37 45.5 -57t60.5 -20q55 0 104.5 33t87 87.5t59 124.5t21.5 144zM504 368
q0 -20 -9.5 -47t-25 -57t-36 -61.5t-42.5 -58.5q-1 5 -1.5 21t-0.5 25q0 69 6.5 119t26.5 77q7 9 19 13t26 4t25.5 -9t11.5 -26z" />
    <glyph glyph-name="x" unicode="x" horiz-adv-x="532" 
d="M551 388q0 41 -22 57t-51 16q-24 0 -45.5 -11.5t-39 -29t-31 -39t-21.5 -42.5h-5q0 43 -12 67.5t-29 36.5t-37 15t-36 3q-53 0 -90 -43t-64 -109l19 -7q25 64 56.5 99.5t67.5 35.5q7 0 15.5 -1.5t16 -8.5t13 -21t5.5 -39q0 -26 -8.5 -60.5t-20.5 -72.5
q-8 -25 -21.5 -62.5t-33 -72.5t-45.5 -60t-59 -25q-16 0 -18.5 16.5t-2.5 46.5q0 24 6 53t22 55l-13 12q-12 -10 -27 -25t-27.5 -33t-21.5 -39t-9 -44q0 -30 17.5 -49t62.5 -19q30 0 53.5 13t41.5 32.5t30.5 43t21.5 44.5h6q0 -49 13 -76t32.5 -39.5t41 -15t38.5 -2.5
q53 0 91.5 43t64.5 110l-18 6q-25 -64 -56 -97.5t-69 -33.5q-6 0 -16 0.5t-20 7.5t-17 23.5t-7 47.5q0 20 7.5 52.5l15.5 64.5q2 9 8.5 29.5t16.5 46t23 52.5t30 49t37 36.5t43 14.5q17 0 20.5 -8.5t3.5 -27.5q0 -17 -3 -35.5t-7.5 -36.5t-9.5 -32.5t-10 -23.5l11 -11
q12 11 24.5 24t23 28t17.5 32.5t7 38.5z" />
    <glyph glyph-name="y" unicode="y" horiz-adv-x="538" 
d="M540 446h-89l-103 -332q-12 -17 -27.5 -34t-33.5 -30t-38 -21t-41 -8q-20 0 -35 9t-15 41q0 14 5.5 33.5t13.5 39.5l62 154q10 26 16 46.5t6 38.5q0 21 -9.5 36t-24 24t-32 13.5t-33.5 4.5q-27 0 -47.5 -11.5t-37 -31.5t-30 -48t-26.5 -61l18 -7q25 64 49.5 99.5
t59.5 35.5q14 0 21.5 -6t7.5 -28q0 -12 -5.5 -34.5t-16.5 -48.5l-57 -145q-8 -20 -14 -42t-6 -33q0 -22 8.5 -42.5t24 -36t37 -24.5t46.5 -9q43 0 79.5 26t62.5 60l4 -1q-25 -77 -55 -132.5t-63.5 -91t-68.5 -52.5t-71 -17h-22q-12 0 -24 3t-21 10.5t-10 21.5q1 8 5.5 11
t10.5 4t13 1.5t14 4.5q9 5 14.5 14.5t5.5 31.5q0 11 -11.5 26.5t-34.5 15.5q-12 0 -23.5 -3.5t-21 -11.5t-15.5 -21t-6 -33q0 -11 4.5 -27t18 -31t39.5 -25.5t70 -10.5q52 0 102.5 19.5t95 61t82.5 107t67 157.5z" />
    <glyph glyph-name="z" unicode="z" horiz-adv-x="418" 
d="M449 430q0 18 -11 24t-26 6q-17 0 -24.5 -12.5t-7.5 -32.5v-18t-3 -14t-10.5 -9.5t-22.5 -3.5q-25 0 -47 14t-44 30.5t-46.5 30.5t-55.5 14q-19 0 -36 -8t-29.5 -21t-20 -30.5t-7.5 -35.5q0 -21 10 -36.5t25 -27t32 -19t32 -12.5l9 16q-22 7 -39 19t-17 37t17 32.5
t49 7.5q15 0 33.5 -4.5l39.5 -9.5t45.5 -10t52.5 -6l2 -5l-97.5 -71.5l-89 -70.5l-76 -62.5l-57.5 -47.5q-24 -20 -40 -38t-16 -35t10 -25.5t19 -8.5q42 0 42 39q0 10 -0.5 18t1 14.5t5.5 11t14 7.5q22 0 50 -14t57 -30.5l56 -30.5t48 -14q18 0 36 7.5t32.5 19.5t23 27.5
t8.5 32.5q0 16 -3.5 31.5t-12.5 28.5t-24.5 23t-39.5 15l-6 -18q20 -4 30 -13t10 -36q0 -26 -27 -34.5t-65 -8.5q-20 0 -38.5 4t-37.5 9.5l-39 11t-42 8.5l-1 6l90.5 71l90.5 71.5l78 62l53 42.5t29.5 26t18 20.5t8.5 17.5t2 17z" />
    <glyph glyph-name="braceleft" unicode="{" horiz-adv-x="430" 
d="M512 744q-72 0 -122 -13t-82 -41.5t-48.5 -74t-20.5 -110.5q-4 -57 -16.5 -92t-36 -55.5t-60 -29.5t-88.5 -14l-13 -53q69 -5 101.5 -23t32.5 -66q0 -27 -10 -54.5t-21.5 -56t-21.5 -59.5t-10 -64q0 -57 42 -82t146 -25l6 23q-60 4 -83.5 19.5t-23.5 58.5q0 24 8.5 50
l18 53.5t18 57.5t8.5 61q0 29 -9 49t-27 33.5t-44 22.5t-60 16l6 25q46 9 86.5 24t71.5 42t51 70t26 108q4 50 15 82.5t31 52.5t50 29.5t73 12.5z" />
    <glyph glyph-name="bar" unicode="|" horiz-adv-x="340" 
d="M215 -207v953h-48v-953h48z" />
    <glyph glyph-name="braceright" unicode="}" horiz-adv-x="430" 
d="M432 314q-69 5 -101.5 23t-32.5 66q0 27 10 54.5t21.5 56t21.5 59.5t10 64q0 57 -42 82t-146 25l-6 -23q60 -4 83.5 -19.5t23.5 -58.5q0 -24 -8.5 -50l-18 -53.5t-18 -57.5t-8.5 -61q0 -29 9 -49t27 -33.5t44 -22.5t60 -16l-6 -25q-47 -9 -87 -24t-71 -42t-51 -70
t-26 -108q-5 -50 -15.5 -82.5t-30.5 -52.5t-50 -29.5t-73 -12.5l-6 -23q72 0 122 13t82 41.5t48 74t21 110.5q4 57 16.5 92t36 55.5t60 29.5t88.5 14z" />
    <glyph glyph-name="asciitilde" unicode="~" horiz-adv-x="540" 
d="M484 310l-20 7q-17 -32 -38.5 -44.5t-59.5 -12.5q-19 0 -38 7l-39.5 15t-44 15t-51.5 7q-24 0 -46.5 -11.5t-41 -29.5t-31.5 -40t-19 -44l20 -7q17 32 38.5 44.5t59.5 12.5q19 0 37 -7l38.5 -15t44 -15t53.5 -7q24 0 46.5 11.5t41 29.5t31.5 40t19 44z" />
    <glyph glyph-name="exclamdown" unicode="&#xa1;" horiz-adv-x="365" 
d="M342 631q0 26 -18 43.5t-44 17.5t-44 -17.5t-18 -43.5t18 -44t44 -18t44 18t18 44zM255 469l-24 5q-33 -92 -62.5 -165l-52 -127t-35.5 -89t-13 -51q0 -26 13.5 -41t37.5 -15q28 0 46.5 19.5t26.5 48.5q4 16 9.5 56.5l13 96.5l17 123.5t23.5 138.5z" />
    <glyph glyph-name="cent" unicode="&#xa2;" horiz-adv-x="455" 
d="M444 449q0 29 -24.5 55t-64.5 33l46 125l-24 8l-48 -131q-42 -1 -78 -17t-65.5 -42.5t-53 -60t-39 -68.5t-24 -68.5t-8.5 -60.5q0 -35 8 -61t21.5 -44t30.5 -29t36 -17l-66 -180l22 -7l68 182q8 -1 16 -1.5t16 -0.5q25 0 50 8t50.5 26.5t50.5 49t49 74.5l-20 9
q-31 -57 -70 -95.5t-94 -38.5q-21 0 -35 7l155 416q36 -6 42 -34q-23 -12 -32 -27.5t-9 -31.5q0 -24 13 -34.5t30 -10.5q26 0 38.5 20.5t12.5 46.5zM323 522l-148 -402q-9 14 -15 34.5t-6 46.5q0 49 14.5 105t38 104t54 80t62.5 32z" />
    <glyph glyph-name="sterling" unicode="&#xa3;" horiz-adv-x="790" 
d="M762 532q0 25 -8 51t-27 47t-51 34t-80 13q-60 0 -113.5 -27t-96 -77t-73 -120t-45.5 -157h-139v-22h137l-10 -79h-145v-21h144q-3 -23 -4.5 -50t-9.5 -49q-41 9 -90 9q-36 0 -70.5 -7t-60.5 -20.5t-42 -34t-16 -46.5q0 -28 21.5 -48t70.5 -20t95 24t77 62
q26 -13 50.5 -26.5t49 -25t49.5 -19t52 -7.5q64 0 109.5 18t77 47.5t50 66.5t27.5 75l-24 7q-9 -26 -20.5 -52.5t-28 -48t-40 -35.5t-56.5 -14q-31 0 -59.5 9t-57 22.5l-60 28.5t-68.5 26q16 20 34 48.5t29 59.5h187v21h-179l12.5 35.5t12.5 43.5h173v22h-170q5 20 7.5 38
t6.5 41q13 80 33 133.5t46.5 85.5t58.5 45.5t70 13.5q30 0 50 -10.5t32 -27.5t17 -38.5t5 -44.5q0 -30 -8.5 -57t-24 -47.5t-36 -32t-44.5 -11.5q-38 0 -56.5 22t-18.5 58q0 18 5.5 41t18.5 45l-21 4q-16 -24 -22.5 -49t-6.5 -49q0 -44 29 -71.5t72 -27.5q37 0 68.5 13
t54.5 36t36.5 55.5t13.5 70.5zM208 3q-26 -30 -67.5 -49t-86.5 -19q-29 0 -47.5 11t-18.5 28q0 23 20 42t64 19q38 0 72 -9t64 -23z" />
    <glyph glyph-name="fraction" unicode="&#x2044;" horiz-adv-x="340" 
d="M514 725l-40 27l-684 -938l40 -26z" />
    <glyph glyph-name="yen" unicode="&#xa5;" horiz-adv-x="599" 
d="M684 607h-228l-6 -22q14 -1 28 -3.5t25.5 -6.5t18.5 -10t7 -14q0 -5 -15 -25.5t-41.5 -52l-63 -73l-78.5 -88.5q-15 51 -26.5 94l-19.5 74.5t-12 51t-4 24.5q0 7 9.5 12t24 8.5t31 5.5t31.5 3l6 22h-279l-6 -22q13 -1 27 -4t24 -10q25 -16 40 -64l28 -95t28 -106l4 -21.5
t2 -19.5h-154l-5 -23h157l-20 -72h-158l-5 -23h157l-19 -67q-5 -16 -14 -29t-29 -20q-6 -2 -16 -3.5l-21 -3t-21.5 -2.5t-16.5 -1l-5 -21h299l5 21q-7 0 -17.5 2l-20.5 4t-18.5 4.5t-12.5 4.5q-11 5 -16 11t-5 17q0 6 3 20l17 63h164l5 23h-162l11 41q4 14 12 31h160l5 23
h-153q6 11 13.5 21.5t15.5 20.5q60 74 102.5 122t71.5 77t47 43t29 20q4 2 11.5 4.5t16 5l15.5 4.5t11 2z" />
    <glyph glyph-name="florin" unicode="&#x192;" horiz-adv-x="494" 
d="M548 553q0 31 -30 51t-75 20q-35 0 -71.5 -11.5t-72.5 -43.5q-48 -43 -79 -97.5t-53 -134.5h-105l-10 -33h106l-18.5 -63l-17.5 -61l-19.5 -65.5t-24.5 -76.5q-19 -55 -37.5 -95t-39 -66.5t-43.5 -39t-51 -12.5q-10 0 -17 10q7 7 14 20.5t7 26.5q0 25 -13.5 37.5
t-36.5 12.5q-26 0 -41.5 -16.5t-15.5 -41.5q0 -30 21.5 -49t77.5 -19q37 0 71.5 12.5t74.5 45.5q48 38 78 91.5t50 110.5q19 56 36 114l37 124h124l11 33h-126l17 59q32 108 71 158t87 50q15 0 21 -12q-15 -32 -15 -52q0 -24 14 -34.5t36 -10.5q26 0 42 18.5t16 39.5z" />
    <glyph glyph-name="section" unicode="&#xa7;" horiz-adv-x="550" 
d="M540 646q0 14 -6.5 30.5t-20 30t-35 22.5t-51.5 9q-41 0 -74.5 -15.5t-58 -41.5t-38 -59.5t-13.5 -68.5q0 -18 3 -35.5t13 -40.5q-41 -3 -72 -16.5t-52.5 -35t-32.5 -49.5t-11 -58q0 -16 1.5 -29t6 -26.5t13 -30t21.5 -39.5q14 -27 27 -47.5l25 -39t22.5 -36.5t19.5 -38
q10 -20 15.5 -34.5t8.5 -25.5t3.5 -20.5t0.5 -20.5q0 -25 -8 -49.5t-21.5 -43.5t-33 -30.5t-41.5 -11.5q-26 0 -43 8.5t-17 29.5q0 15 9 21.5t19.5 12t19.5 14t9 27.5q0 18 -14 29t-34 11q-30 0 -51 -22.5t-21 -55.5q0 -17 7.5 -34.5t22.5 -31.5t37 -23t52 -9
q38 0 71.5 14.5t58 40t39 60t14.5 74.5q0 23 -4.5 42.5t-13.5 42.5q32 2 62.5 11.5t54.5 28t38.5 46.5t14.5 69q0 13 -2 25t-7 26t-14 32l-22 42l-27 47.5l-23 39.5l-21 36.5t-20 38.5q-9 20 -15 35t-9.5 27t-5 22.5t-1.5 21.5q0 22 7.5 43.5t21 38.5t32.5 27t43 10
q61 0 61 -33q0 -16 -9.5 -22t-20.5 -11.5t-20.5 -14t-9.5 -29.5q0 -19 14 -29.5t34 -10.5q28 0 50 22.5t22 59.5zM408 164q0 -23 -8.5 -39.5t-23 -28.5t-33 -19.5t-38.5 -11.5q-19 45 -50.5 93.5t-66.5 113.5q-26 49 -26 87q0 40 26.5 67.5t77.5 31.5q20 -42 50.5 -94
t65.5 -118q14 -24 20 -41.5t6 -40.5z" />
    <glyph glyph-name="currency" unicode="&#xa4;" horiz-adv-x="615" 
d="M125 331q-5 -18 -9.5 -37.5t-6.5 -38.5h-73l-7 -23h77q-1 -9 -1.5 -18t-0.5 -18q0 -102 50.5 -156t144.5 -54q82 0 141.5 43.5t99.5 110.5l-23 14q-18 -29 -36.5 -51.5t-40 -39t-47 -25t-58.5 -8.5q-37 0 -62 13t-40.5 35.5t-22.5 52.5t-7 64q0 10 0.5 18.5t1.5 18.5h187
l7 23h-191q2 20 5.5 39.5t8.5 36.5h230l6 23h-231q15 55 37.5 100t49.5 76.5t58 48.5t65 17q41 0 59.5 -17.5t20.5 -37.5q-2 -12 -5.5 -19t-7.5 -13t-7 -14t-3 -22q0 -18 13.5 -29t36.5 -11q10 0 20.5 4t19.5 13.5t14.5 24.5t5.5 36q0 45 -40 77t-118 32q-56 0 -105.5 -21.5
t-90 -58t-71 -84.5t-48.5 -102h-76l-6 -23h76z" />
    <glyph glyph-name="quotesingle" unicode="'" horiz-adv-x="196" 
d="M238 685q0 22 -14 37t-40 15q-53 0 -53 -70v-72t-5 -123h20q21 49 38 85l29 61t18.5 41t6.5 26z" />
    <glyph glyph-name="quotedblleft" unicode="&#x201c;" horiz-adv-x="354" 
d="M448 713l-9 22q-74 -38 -114.5 -82t-40.5 -104q0 -73 65 -73q15 0 27 5.5t20.5 14.5t12.5 19.5t4 20.5q0 22 -16.5 37t-45.5 15h-18q8 43 38.5 71.5t76.5 53.5zM279 713l-9 22q-74 -38 -114.5 -82t-40.5 -104q0 -73 65 -73q15 0 27 5.5t20.5 14.5t12.5 19.5t4 20.5
q0 22 -16.5 37t-45.5 15h-18q8 43 38.5 71.5t76.5 53.5z" />
    <glyph glyph-name="guillemotleft" unicode="&#xab;" horiz-adv-x="560" 
d="M554 420l-11 12l-82 -56l-76.5 -50.5l-63.5 -41l-43 -27.5q-6 -4 -10.5 -12t-7.5 -16t-4.5 -15t-1.5 -9q0 -5 2 -9t13 -14l65.5 -67l96.5 -100l14 9l-106 193zM345 420l-11 12l-82 -56l-76.5 -50.5l-63.5 -41l-43 -27.5q-6 -4 -10.5 -12t-7.5 -16t-4.5 -15t-1.5 -9
q0 -5 2 -9t13 -14l65.5 -67l96.5 -100l14 9l-106 193z" />
    <glyph glyph-name="guilsinglleft" unicode="&#x2039;" horiz-adv-x="351" 
d="M345 420l-11 12l-82 -56l-76.5 -50.5l-63.5 -41l-43 -27.5q-6 -4 -10.5 -12t-7.5 -16t-4.5 -15t-1.5 -9q0 -5 2 -9t13 -14l65.5 -67l96.5 -100l14 9l-106 193z" />
    <glyph glyph-name="guilsinglright" unicode="&#x203a;" horiz-adv-x="351" 
d="M310 242q0 5 -2 9t-13 14l-65.5 67l-96.5 100l-14 -9l106 -193l-215 -203l11 -12l82 55.5l76.5 50.5l63.5 41l43 28q6 4 10.5 12t7.5 16t4.5 15t1.5 9z" />
    <glyph glyph-name="fi" unicode="&#xfb01;" horiz-adv-x="579" 
d="M569 656q0 15 -6 30.5t-19 28t-33.5 20.5t-48.5 8q-39 0 -77.5 -11.5t-77.5 -43.5q-52 -42 -82.5 -92.5t-48.5 -110.5l-12 -40h-106l-10 -33h106l-46.5 -187t-63.5 -229q-34 -110 -71 -161.5t-92 -51.5q-5 0 -10.5 4t-7.5 14q9 13 15 24t6 22q0 14 -5.5 23.5t-14 15
t-18 8t-17.5 2.5q-25 0 -38.5 -17t-13.5 -36q0 -15 4.5 -29t16 -25t30.5 -18t49 -7q37 0 69 12.5t71 45.5q46 38 74.5 91t46.5 111q13 41 26 90l26.5 100.5l26.5 103l25 97.5h180q-2 -25 -8 -45.5t-17 -49.5l-63 -170q-10 -26 -15 -45.5t-5 -37.5q0 -23 10.5 -38t26 -24
t34 -12.5t34.5 -3.5q26 0 46.5 11t37 31t30.5 48t28 61l-18 6q-25 -64 -50 -98t-61 -34q-14 0 -25.5 6t-11.5 30q0 11 6 31.5t17 46.5l56 147q10 26 18.5 52t15 49t10.5 41t5 29h-272l20 69q32 112 78 160t100 48q9 0 16 -2.5t12 -13.5q-2 -16 -11.5 -31.5t-9.5 -26.5
q0 -14 6 -23t15 -15t19 -8.5t18 -2.5q15 0 25 6.5t17 15.5t10 18.5t3 15.5z" />
    <glyph glyph-name="fl" unicode="&#xfb02;" horiz-adv-x="596" 
d="M632 738l-100 -23q-12 11 -33.5 19.5t-47.5 8.5q-38 0 -75 -11.5t-75 -43.5q-25 -21 -44 -43t-33.5 -47t-26 -52.5t-21.5 -60.5l-12 -40h-106l-10 -33h106l-46.5 -187t-63.5 -229q-34 -110 -71 -161.5t-92 -51.5q-5 0 -11.5 4t-6.5 14q9 13 14.5 23t5.5 23
q0 14 -5.5 23.5t-13.5 15t-17.5 8t-17.5 2.5q-25 0 -38.5 -17t-13.5 -36q0 -15 4.5 -29t16 -25t30.5 -18t49 -7q37 0 69 12.5t71 45.5q46 38 74.5 91t46.5 111q13 41 26 89.5l26.5 99.5l26.5 102l25 97h124l11 33h-126l20 70q31 107 73.5 157.5t93.5 50.5q9 0 24.5 -4.5
t20.5 -15.5q0 -18 1 -28.5t4.5 -17t9 -9.5t13.5 -5l-156 -493q-8 -23 -13 -44.5t-5 -39.5q0 -23 10 -38t25.5 -23.5t33.5 -12t34 -3.5q27 0 47.5 11t37 31t30.5 48t28 61l-18 6q-25 -64 -50.5 -98t-61.5 -34q-14 0 -25 6t-11 30q0 11 5.5 32t13.5 44z" />
    <glyph glyph-name="endash" unicode="&#x2013;" horiz-adv-x="512" 
d="M480 295h-412l-16 -58h412z" />
    <glyph glyph-name="dagger" unicode="&#x2020;" horiz-adv-x="412" 
d="M430 478q0 14 -9.5 22.5t-21.5 8.5q-21 0 -32 -21q-7 3 -14 8.5l-14.5 11.5t-16.5 10t-21 4t-21 -5q7 19 17.5 39.5l20.5 39t17.5 35t7.5 28.5q0 14 -9 25.5t-25 11.5t-24.5 -9.5t-12.5 -21.5q-3 -11 -4 -27.5t-1.5 -36t-2 -40t-4.5 -38.5q-5 8 -16.5 14.5t-22.5 6.5
q-14 0 -25.5 -5.5t-27.5 -5.5q0 16 -8 27.5t-23 11.5q-14 0 -23 -10t-9 -27q0 -18 13 -30.5t31 -12.5q9 0 19 5t19 10.5l17.5 10.5t16.5 5q13 0 13 -15q0 -4 -4 -26.5t-10.5 -55.5t-15.5 -74l-18 -82.5l-17.5 -80.5l-15.5 -69l20 -6l26.5 87l29.5 93l30 92.5l28 84.5
q5 14 8.5 21.5t10.5 7.5q10 0 17.5 -10l15.5 -21.5t18.5 -21.5t28.5 -10q17 0 30.5 12t13.5 29z" />
    <glyph glyph-name="daggerdbl" unicode="&#x2021;" horiz-adv-x="442" 
d="M449 543q0 13 -9 21.5t-21 8.5q-21 0 -32 -21q-12 5 -29 13t-34 8q-11 0 -19 -4q5 9 13 20.5l16 23.5t13.5 24.5t5.5 24.5q0 16 -9 26t-25 10q-21 0 -29.5 -17t-8.5 -41q0 -20 2 -36t1 -30q-8 12 -22 17t-26 5q-10 0 -16 -1.5t-17 -1.5q0 17 -9 28t-23 11t-23 -9t-9 -24
q0 -18 13.5 -26t28.5 -8q16 0 27.5 5t26.5 5q14 0 19.5 -4.5t5.5 -15.5q0 -5 -2.5 -24t-6.5 -45t-9 -54.5t-10 -51.5l21 -5q5 16 13 38l16 43.5l14.5 38.5l9.5 25q5 13 11 22t14 9q12 0 20.5 -6.5t17.5 -14.5t19.5 -14.5t26.5 -6.5t25 10t9 24zM337 125q0 18 -13.5 26
t-28.5 8q-16 0 -27.5 -5t-26.5 -5q-14 0 -19.5 4.5t-5.5 15.5q0 4 2.5 23.5t6.5 45.5t9 54.5t10 51.5l-21 5q-5 -17 -13 -38.5l-16 -43l-14.5 -39t-9.5 -24.5q-5 -13 -11 -22t-14 -9q-12 0 -20.5 6.5t-17.5 14.5t-19.5 14.5t-26.5 6.5t-25 -10t-9 -24q0 -13 9 -21.5t21 -8.5
q21 0 32 21q12 -5 29 -13t34 -8q11 0 19 4q-5 -9 -13 -20.5l-16 -23.5t-13.5 -24.5t-5.5 -24.5q0 -16 9 -26t25 -10q21 0 29.5 17t8.5 41q0 20 -2 36t-1 30q8 -12 22 -17t26 -5q10 0 16 1.5t17 1.5q0 -17 9 -28t23 -11t23 9t9 24z" />
    <glyph glyph-name="periodcentered" unicode="&#xb7;" horiz-adv-x="282" 
d="M216 272q0 27 -19 46t-46 19t-46 -19t-19 -46t19 -45.5t46 -18.5t46 18.5t19 45.5z" />
    <glyph glyph-name="periodcentered" unicode="&#x22c5;" horiz-adv-x="282" 
d="M216 272q0 27 -19 46t-46 19t-46 -19t-19 -46t19 -45.5t46 -18.5t46 18.5t19 45.5z" />
    <glyph glyph-name="paragraph" unicode="&#xb6;" horiz-adv-x="609" 
d="M693 683h-359q-59 0 -103 -17t-73 -44.5t-44 -61.5t-15 -68q0 -68 54 -109t151 -41h10l-116 -467h28l196 786h96l-196 -786h28l196 786h142z" />
    <glyph glyph-name="bullet" unicode="&#x2022;" horiz-adv-x="413" 
d="M359 325q0 28 -11 52.5t-29.5 43t-43 29.5t-52.5 11t-52.5 -11t-43 -29.5t-29.5 -43t-11 -52.5t11 -52.5t29.5 -42.5t43 -28.5t52.5 -10.5t52.5 10.5t43 28.5t29.5 42.5t11 52.5z" />
    <glyph glyph-name="quotesinglbase" unicode="&#x201a;" horiz-adv-x="225" 
d="M137 39q0 40 -17.5 59t-48.5 19q-16 0 -28.5 -6t-21 -15.5t-13 -21t-4.5 -21.5q0 -22 16 -36.5t47 -14.5h20q-8 -42 -38 -69.5t-76 -52.5l10 -23q69 36 111.5 79.5t42.5 102.5z" />
    <glyph glyph-name="quotedblbase" unicode="&#x201e;" horiz-adv-x="394" 
d="M302 41q0 73 -65 73q-15 0 -27 -5.5t-20.5 -14.5t-12.5 -19.5t-4 -20.5q0 -22 16.5 -37t45.5 -15h18q-8 -43 -38.5 -71.5t-76.5 -53.5l9 -22q74 38 114.5 82t40.5 104zM133 41q0 73 -65 73q-15 0 -27 -5.5t-20.5 -14.5t-12.5 -19.5t-4 -20.5q0 -22 16.5 -37t45.5 -15h18
q-8 -43 -38.5 -71.5t-76.5 -53.5l9 -22q74 38 114.5 82t40.5 104z" />
    <glyph glyph-name="quotedblright" unicode="&#x201d;" horiz-adv-x="354" 
d="M441 664q0 73 -65 73q-15 0 -27 -5.5t-20.5 -14.5t-12.5 -19.5t-4 -20.5q0 -22 16.5 -37t45.5 -15h18q-8 -43 -38.5 -71.5t-76.5 -53.5l9 -22q74 38 114.5 82t40.5 104zM272 664q0 73 -65 73q-15 0 -27 -5.5t-20.5 -14.5t-12.5 -19.5t-4 -20.5q0 -22 16.5 -37t45.5 -15
h18q-8 -43 -38.5 -71.5t-76.5 -53.5l9 -22q74 38 114.5 82t40.5 104z" />
    <glyph glyph-name="guillemotright" unicode="&#xbb;" horiz-adv-x="560" 
d="M519 242q0 5 -2 9t-13 14l-65.5 67l-96.5 100l-14 -9l106 -193l-215 -203l11 -12l82 55.5l76.5 50.5l63.5 41l43 28q6 4 10.5 12t7.5 16t4.5 15t1.5 9zM310 242q0 5 -2 9t-13 14l-65.5 67l-96.5 100l-14 -9l106 -193l-215 -203l11 -12l82 55.5l76.5 50.5l63.5 41l43 28
q6 4 10.5 12t7.5 16t4.5 15t1.5 9z" />
    <glyph glyph-name="ellipsis" unicode="&#x2026;" horiz-adv-x="788" 
d="M712 55q0 26 -19 45t-45 19t-45 -19t-19 -45t19 -44.5t45 -18.5t45 18.5t19 44.5zM438 55q0 26 -19 45t-45 19t-45 -19t-19 -45t19 -44.5t45 -18.5t45 18.5t19 44.5zM164 55q0 26 -19 45t-45 19t-45 -19t-19 -45t19 -44.5t45 -18.5t45 18.5t19 44.5z" />
    <glyph glyph-name="perthousand" unicode="&#x2030;" horiz-adv-x="1202" 
d="M1152 181q0 28 -10.5 51.5t-28.5 39.5t-42.5 25t-53.5 9q-38 0 -73.5 -16.5t-63.5 -43.5t-44.5 -62.5t-16.5 -73.5q0 -28 10.5 -51t28.5 -39t42.5 -24.5t51.5 -8.5q35 0 70.5 14.5t64.5 40t47 61.5t18 78zM770 181q0 28 -10.5 51.5t-28.5 39.5t-42.5 25t-53.5 9
q-38 0 -73.5 -16.5t-63.5 -43.5t-44.5 -62.5t-16.5 -73.5q0 -28 10.5 -51t28.5 -39t42.5 -24.5t51.5 -8.5q35 0 70.5 14.5t64.5 40t47 61.5t18 78zM766 672l-27 18l-664 -770l25 -18zM412 494q0 28 -10.5 51.5t-28.5 39.5t-42.5 25t-53.5 9q-38 0 -73.5 -16.5t-63.5 -43.5
t-44.5 -62.5t-16.5 -73.5q0 -28 10.5 -51t28.5 -39t42.5 -24.5t51.5 -8.5q35 0 70.5 14.5t64.5 40t47 61.5t18 78zM1076 203q0 -39 -10.5 -73.5t-27.5 -60.5t-38.5 -41.5t-44.5 -15.5q-33 0 -46.5 22t-13.5 55q0 32 9.5 66.5t26 62.5t38.5 46t48 18q30 0 44.5 -20.5
t14.5 -58.5zM694 203q0 -39 -10.5 -73.5t-27.5 -60.5t-38.5 -41.5t-44.5 -15.5q-33 0 -46.5 22t-13.5 55q0 32 9.5 66.5t26 62.5t38.5 46t48 18q30 0 44.5 -20.5t14.5 -58.5zM336 516q0 -39 -10.5 -73.5t-27.5 -60.5t-38.5 -41.5t-44.5 -15.5q-33 0 -46.5 22t-13.5 55
q0 32 9.5 66.5t26 62.5t38.5 46t48 18q30 0 44.5 -20.5t14.5 -58.5z" />
    <glyph glyph-name="questiondown" unicode="&#xbf;" horiz-adv-x="428" 
d="M381 634q0 26 -18 43.5t-44 17.5t-44 -17.5t-18 -43.5t18 -44t44 -18t44 18t18 44zM350 429q0 51 -28 75t-67 24q-13 0 -28 -6.5t-28 -18.5t-23 -29t-14 -39l22 -7q3 14 8.5 28.5t14.5 26.5t20 19.5t25 7.5q17 0 32 -8.5t15 -39.5q0 -27 -14.5 -48t-38 -38t-53 -31
t-60.5 -27q-39 -17 -64 -37t-40 -41.5t-21 -45.5t-6 -48q0 -33 12 -61.5t34.5 -50t55 -33.5t72.5 -12q33 0 60.5 9.5t46.5 25t29.5 37t10.5 45.5q0 41 -26.5 67t-62.5 26q-35 0 -55.5 -18t-20.5 -47q0 -23 14.5 -36t38.5 -13q20 0 32.5 13t12.5 33q0 10 -4.5 17t-11.5 12
t-14 7t-13 2v6q8 4 23 4q33 0 51 -22.5t18 -51.5q0 -18 -8 -34.5t-22.5 -29.5t-34.5 -20.5t-43 -7.5q-31 0 -53 10t-36.5 25.5t-21.5 34t-7 35.5q0 23 5.5 42.5t19 37.5t37 34.5t60.5 34.5q76 36 112.5 72.5t36.5 89.5z" />
    <glyph glyph-name="grave" unicode="`" 
d="M414 535l-22 48.5l-16.5 37l-13.5 30.5l-12 29q-11 25 -22.5 38t-31.5 13q-17 0 -27 -11t-10 -27q0 -29 30 -57q10 -9 19.5 -18.5l21.5 -21.5l28.5 -29l40.5 -42z" />
    <glyph glyph-name="acute" unicode="&#xb4;" 
d="M450 699q0 12 -8.5 22t-25.5 10q-20 0 -37.5 -11t-36.5 -34l-24.5 -29.5l-27.5 -31.5l-34 -39l-44 -50l11 -12l62.5 39.5l46.5 29l36 22l30 18.5q22 15 37 30.5t15 35.5z" />
    <glyph glyph-name="circumflex" unicode="&#x2c6;" 
d="M482 538l-42.5 103.5t-29.5 71.5q-5 13 -10.5 16.5t-24.5 3.5q-22 0 -29.5 -4t-20.5 -18l-64.5 -71l-92.5 -100l11 -10l183 135l105 -135z" />
    <glyph glyph-name="tilde" unicode="&#x2dc;" 
d="M534 690l-18 9q-21 -32 -42.5 -52.5t-55.5 -20.5q-18 0 -32.5 9t-29.5 20t-32.5 20t-40.5 9t-44 -13t-39 -32t-33 -41t-24 -39l18 -9q21 32 42.5 52.5t55.5 20.5q18 0 32.5 -9t29.5 -20t32.5 -20t40.5 -9q22 0 43.5 13t39.5 32t33 41t24 39z" />
    <glyph glyph-name="macron" unicode="&#xaf;" 
d="M534 658h-330l-16 -62h330z" />
    <glyph glyph-name="macron" unicode="&#x2c9;" 
d="M534 658h-330l-16 -62h330z" />
    <glyph glyph-name="breve" unicode="&#x2d8;" 
d="M523 720l-19 6q-36 -51 -76.5 -81t-86.5 -30t-71 30t-36 81l-19 -6q1 -52 10.5 -86.5t24.5 -55.5t34.5 -30t39.5 -9t44 9t49.5 30t52 55.5t53.5 86.5z" />
    <glyph glyph-name="dotaccent" unicode="&#x2d9;" 
d="M415 659q0 22 -16.5 38.5t-42.5 16.5q-24 0 -41 -17.5t-17 -41.5q0 -23 17 -40t41 -17q25 0 42 18t17 43z" />
    <glyph glyph-name="dieresis" unicode="&#xa8;" 
d="M518 654q0 18 -12.5 34.5t-33.5 16.5q-32 0 -50.5 -20t-18.5 -46q0 -20 13 -36t38 -16q31 0 47.5 20.5t16.5 46.5zM305 654q0 18 -13 34.5t-34 16.5q-32 0 -50 -20t-18 -46q0 -20 12.5 -36t37.5 -16q31 0 48 20.5t17 46.5z" />
    <glyph glyph-name="ring" unicode="&#x2da;" 
d="M461 633q0 22 -9.5 41t-25 33t-36.5 22.5t-45 8.5q-25 0 -46 -8.5t-36 -23t-23.5 -34t-8.5 -40.5q0 -23 9.5 -41.5t25.5 -32t37.5 -21t45.5 -7.5t44.5 8t35.5 22t23.5 32.5t8.5 40.5zM408 642q0 -16 -4 -31.5t-12 -28t-20.5 -20.5t-28.5 -8q-29 0 -44 19t-15 51
q0 18 4.5 34t13 28.5t20.5 20t27 7.5q29 0 44 -20t15 -52z" />
    <glyph glyph-name="cedilla" unicode="&#xb8;" 
d="M260 -120q0 19 -8 31.5t-22.5 20t-34.5 10.5t-43 3l20 63h-28l-39 -120q39 0 57.5 -7t18.5 -27q0 -31 -40 -43.5t-112 -14.5l-6 -23q52 0 95.5 6t75 18.5t49 33t17.5 49.5z" />
    <glyph glyph-name="hungarumlaut" unicode="&#x2dd;" 
d="M541 713q0 11 -8 20t-22 9q-20 0 -35.5 -11t-35.5 -35l-24 -29.5l-27 -31.5l-33.5 -38.5l-44.5 -50.5l9 -12l61 41l45.5 30l35 23l29.5 19q21 14 35.5 30t14.5 36zM360 713q0 11 -8 20t-22 9q-20 0 -35.5 -11t-35.5 -35l-24 -29.5l-27 -31.5l-33.5 -38.5l-44.5 -50.5
l9 -12l61 41l45.5 30l35 23l29.5 19q21 14 35.5 30t14.5 36z" />
    <glyph glyph-name="ogonek" unicode="&#x2db;" 
d="M229 0h-32q-85 -40 -124 -78.5t-39 -76.5q0 -35 40.5 -52.5t131.5 -18.5l6 25q-32 3 -51 7.5t-29.5 11t-14 16t-3.5 21.5q0 13 5.5 27.5t18.5 31.5t35.5 38t55.5 48z" />
    <glyph glyph-name="caron" unicode="&#x2c7;" 
d="M529 732l-11 10l-183 -135l-105 135l-15 -8l42.5 -103.5t29.5 -71.5q5 -13 10.5 -16.5t24.5 -3.5q22 0 29.5 4t20.5 18l64.5 71z" />
    <glyph glyph-name="emdash" unicode="&#x2014;" horiz-adv-x="900" 
d="M859 283h-752l-16 -56h752z" />
    <glyph glyph-name="AE" unicode="&#xc6;" horiz-adv-x="947" 
d="M984 683h-547l-5 -22q8 0 19 -1.5l22.5 -3t21.5 -3.5t16 -4l-230 -271.5l-221 -258.5q-23 -26 -45.5 -46.5t-45.5 -31.5q-17 -8 -40.5 -13t-38.5 -6l-6 -22h275l6 22q-11 1 -26.5 3.5t-30 8t-24.5 13t-10 18.5q0 8 11 27t28 40l23 29.5l30.5 37l33 39.5l30.5 36h225
l-53 -191q-5 -17 -14.5 -30t-28.5 -20q-6 -2 -18 -4.5t-25 -4t-24.5 -2.5t-16.5 -1l-7 -21h574l65 192h-25q-6 -11 -18.5 -29.5t-29 -39t-34.5 -40t-35 -32.5q-22 -17 -67.5 -20t-96.5 -3q-55 0 -78 7.5t-23 35.5q0 8 2.5 20.5t7.5 27.5l62 221h78q21 0 34 -3t21 -7.5
t13 -10t8 -10.5q4 -6 6 -20.5t2 -31.5q0 -12 -0.5 -24t-2.5 -21h24l78 278h-26l-10.5 -22.5t-14 -27t-15.5 -24.5t-15 -17q-11 -10 -33 -21t-62 -11h-78l81 289h108q24 0 43 -1t35 -3q33 -5 51.5 -39.5t18.5 -77.5v-8h25zM553 645l-90 -340h-207l287 340h10z" />
    <glyph glyph-name="ordfeminine" unicode="&#xaa;" horiz-adv-x="370" 
d="M377 448l-17 5q-24 -68 -54 -68q-6 0 -10.5 4t-4.5 15q0 5 2 16.5t6 21.5l60 175h-52l-9 -31h-2q-5 18 -18.5 26t-31.5 8q-37 0 -65.5 -18.5t-48 -45.5t-29.5 -56.5t-10 -50.5q0 -26 7 -42.5t17.5 -26.5t24 -14t27.5 -4q23 0 40.5 12.5t34.5 33.5h3q4 -44 51 -44
q30 0 46.5 24t32.5 60zM301 292h-225l-7 -25h225zM284 564l-40 -129q-11 -20 -28 -34.5t-34 -14.5q-14 0 -23 10.5t-9 39.5q0 24 7 52.5t20 54t30 42.5t37 17q18 0 26.5 -9t13.5 -29z" />
    <glyph glyph-name="Lslash" unicode="&#x141;" horiz-adv-x="629" 
d="M597 194h-24q-10 -17 -24.5 -37.5t-31.5 -40t-34 -36.5t-32 -28q-9 -7 -26 -11.5t-39 -7.5t-45.5 -4t-45.5 -1q-41 0 -63.5 3.5t-32.5 13t-8.5 27.5t9.5 47l61 218l189 62l-6 27l-175 -58l65 231q5 16 14.5 30t29.5 20q7 2 17.5 4t21.5 3.5l21.5 3t17.5 1.5l6 22h-313
l-7 -22q7 0 17 -2t21 -4.5l21 -5t16 -5.5q11 -5 15.5 -11t4.5 -16q0 -5 -1 -11t-3 -13l-72 -261l-115 -38l7 -26l99 33l-60 -218q-5 -17 -14.5 -30t-28.5 -20q-6 -2 -18 -4.5t-25 -4t-24.5 -2.5t-16.5 -1l-7 -21h572z" />
    <glyph glyph-name="Oslash" unicode="&#xd8;" horiz-adv-x="720" 
d="M773 704l-20 19l-112 -105q-40 42 -86 61t-106 19q-69 0 -133.5 -26.5t-119.5 -77.5q-72 -68 -108 -157t-36 -180q0 -45 11 -83.5t31 -70.5l-130 -123l19 -18l127 119q37 -47 87 -72t114 -25q73 0 135 25t116 71q39 33 67 74t46 86.5t27 93.5t9 96q0 51 -13.5 94.5
t-38.5 72.5zM588 570l-426 -406q-2 14 -3 31.5t-1 34.5q0 89 24.5 171t63.5 145q34 54 84.5 88t111.5 34q59 0 94 -26t52 -72zM605 451q0 -45 -7 -91t-20 -89t-31.5 -82.5t-40.5 -70.5q-35 -49 -81 -76.5t-103 -27.5q-63 0 -100.5 31.5t-52.5 87.5l427 408q5 -20 7 -43.5
t2 -46.5z" />
    <glyph glyph-name="OE" unicode="&#x152;" horiz-adv-x="999" 
d="M1036 683h-391q-24 0 -46 0.5t-45 0.5q-22 0 -47.5 0.5t-56.5 0.5q-69 0 -134 -26.5t-120 -77.5q-36 -33 -63 -73.5t-45 -82.5t-27 -84t-9 -78q0 -53 11 -94.5t40 -76.5q20 -25 40.5 -43t43.5 -29t50 -16.5t60 -5.5q42 0 78.5 1t86.5 1h432l65 192h-25
q-6 -11 -18.5 -29.5t-29 -39t-34.5 -40t-35 -32.5q-22 -17 -67.5 -20t-96.5 -3q-55 0 -78 7.5t-23 35.5q0 8 2.5 20.5t7.5 27.5l62 221h78q21 0 34 -3t21 -7.5t13 -10t8 -10.5q4 -6 6 -20.5t2 -31.5q0 -12 -0.5 -24t-2.5 -21h24l78 278h-26l-10.5 -22.5t-14 -27t-15.5 -24.5
t-15 -17q-11 -10 -33 -21t-62 -11h-78l81 289h108q24 0 43 -1t35 -3q33 -5 51.5 -39.5t18.5 -77.5v-8h25zM574 557q0 -20 -4 -45.5t-10 -53.5t-14 -57.5l-16 -57.5l-24 -82t-28.5 -83.5t-33 -71t-36.5 -44.5q-27 -19 -50 -26.5t-60 -7.5q-28 0 -53.5 12.5t-44.5 37.5
t-30 63.5t-11 90.5q0 82 23 158.5t62.5 135.5t93 94.5t114.5 35.5q59 0 90.5 -22.5t31.5 -76.5z" />
    <glyph glyph-name="ordmasculine" unicode="&#xba;" horiz-adv-x="327" 
d="M327 524q0 25 -7.5 43.5t-19.5 30t-26.5 17t-27.5 5.5q-38 0 -66.5 -17.5t-48 -42.5t-29 -53t-9.5 -49q0 -26 7.5 -44t19.5 -29.5t26 -17t28 -5.5q38 0 67 17t48 42t28.5 53t9.5 50zM294 292h-225l-7 -25h225zM272 537q0 -24 -6 -51.5t-17 -51t-27.5 -39t-38.5 -15.5
q-15 0 -25 16t-10 51q0 23 6.5 50.5t18.5 51t28.5 39t36.5 15.5q13 0 23.5 -15.5t10.5 -50.5z" />
    <glyph glyph-name="ae" unicode="&#xe6;" horiz-adv-x="695" 
d="M691 394q0 34 -25.5 50.5t-59.5 16.5q-50 0 -88 -22.5t-72 -57.5l26 74h-55l-23 -67h-3q-7 38 -32.5 55.5t-57.5 17.5q-68 0 -119.5 -35t-87 -85t-53.5 -104t-18 -93q0 -47 12 -77.5t31.5 -48.5t44 -25t49.5 -7q52 0 91.5 34t70.5 86h3q6 -35 21 -58.5t35.5 -37t44 -19
t47.5 -5.5t49 8t49.5 26.5t49 49t47.5 74.5l-18 9q-15 -29 -32 -53.5t-37 -42.5t-43 -28t-50 -10q-39 0 -56.5 25t-17.5 76q0 21 5 45l10 49q37 6 82.5 19.5t85.5 35.5t67 53t27 72zM622 388q0 -17 -9.5 -39.5t-31.5 -44.5t-58 -41t-89 -28q10 37 25.5 74t34.5 66.5
t40.5 47.5t43.5 18q24 0 34 -14.5t10 -38.5zM382 351l-76 -233q-23 -39 -55.5 -68.5t-75.5 -29.5q-10 0 -20 3t-18.5 14t-14 31t-5.5 55q0 30 6.5 65t18 70t27.5 68t36 58.5t43.5 40.5t49.5 15q36 0 55.5 -21.5t28.5 -67.5z" />
    <glyph glyph-name="dotlessi" unicode="&#x131;" horiz-adv-x="334" 
d="M315 140l-18 6q-25 -64 -50 -98t-61 -34q-14 0 -25 5.5t-11 29.5q0 11 6 32t17 47l57 147l9.5 25l10.5 28t8 26.5t3 21.5q0 22 -9.5 38t-24.5 26.5t-32.5 15.5t-33.5 5q-27 0 -47.5 -11.5t-37 -31.5t-30.5 -48t-27 -61l19 -7q25 64 49 99.5t59 35.5q14 0 23.5 -8t9.5 -30
q0 -9 -7.5 -33.5t-15.5 -45.5l-67 -170q-10 -26 -15 -45.5t-5 -37.5q0 -23 10 -38t25.5 -24t34 -12.5t34.5 -3.5q26 0 46.5 11t37 31t30.5 48t28 61z" />
    <glyph glyph-name="lslash" unicode="&#x142;" horiz-adv-x="294" 
d="M331 742l-219 -10v-20q18 -1 29.5 -1.5t30.5 -2.5q17 -2 28.5 -8.5t11.5 -23.5q0 -10 -3 -25.5t-11 -41.5l-92 -291l-90 -30l6 -24l75 24l-44 -138q-7 -23 -12.5 -44.5t-5.5 -39.5q0 -23 10 -38t25 -23.5t33 -12t34 -3.5q27 0 47.5 11t37 31t30.5 48t28 61l-18 6
q-25 -64 -50.5 -98t-61.5 -34q-14 0 -24.5 6t-10.5 30q0 11 5.5 32t13.5 44l62 195l101 33l-6 25l-85 -28z" />
    <glyph glyph-name="oslash" unicode="&#xf8;" horiz-adv-x="481" 
d="M504 475l-18 15l-76 -75q-21 24 -48.5 35t-54.5 11q-70 0 -122.5 -32t-87.5 -78t-52.5 -98t-17.5 -92q0 -32 6 -57t17 -45l-81 -80l18 -15l76 76q23 -28 53 -41t59 -13q70 0 123 31.5t87.5 77.5t52 98t17.5 92q0 36 -8 64t-22 48zM357 365l-237 -240v17q0 44 12 97
t34.5 98.5t54.5 76t71 30.5q21 0 39 -18.5t26 -60.5zM362 307q0 -45 -11 -97.5t-33 -98t-54 -76t-74 -30.5q-24 0 -43 21.5t-25 69.5l239 241q1 -6 1 -15v-15z" />
    <glyph glyph-name="oe" unicode="&#x153;" horiz-adv-x="709" 
d="M705 394q0 34 -25.5 50.5t-59.5 16.5q-62 0 -108 -27.5t-78 -67.5q-18 44 -49 69.5t-78 25.5q-70 0 -122.5 -32t-87.5 -78t-52.5 -98t-17.5 -92q0 -47 13.5 -80t35 -54t47.5 -31t52 -10q31 0 57.5 7t48.5 18.5t40 26.5t33 31q20 -42 52 -62.5t81 -20.5q24 0 49 8
t49.5 26.5t49 49t47.5 74.5l-18 9q-15 -29 -32 -53.5t-37 -42.5t-43 -28t-50 -10q-39 0 -56.5 25t-17.5 76q0 21 5 45l10 49q37 6 82.5 19.5t85.5 35.5t67 53t27 72zM636 388q0 -17 -9.5 -39.5t-31.5 -44.5t-58 -41t-89 -28q10 37 25.5 74t34.5 66.5t40.5 47.5t43.5 18
q24 0 34 -14.5t10 -38.5zM361 307q0 -45 -11 -97.5t-32.5 -98t-53.5 -76t-74 -30.5q-29 0 -49 34t-20 103q0 44 12 97t34 98.5t54 76t71 30.5q27 0 48 -34t21 -103z" />
    <glyph glyph-name="germandbls" unicode="&#xdf;" horiz-adv-x="546" 
d="M570 628q0 24 -10 44.5t-28.5 36.5t-44.5 25t-57 9q-35 0 -74 -11.5t-74 -43.5q-23 -21 -41 -42.5t-32 -45.5t-25 -52.5t-20 -62.5q-19 -69 -34.5 -131l-30 -121.5l-30 -118t-33.5 -118.5q-17 -55 -34 -95t-36 -66.5t-41 -39t-50 -12.5q-5 0 -10.5 3.5t-7.5 14.5l15 22
t6 25q0 13 -5.5 22.5t-13.5 15t-17.5 8t-17.5 2.5q-26 0 -39 -17.5t-13 -34.5q0 -15 4.5 -29.5t15.5 -25.5t30 -18t49 -7q37 0 69 12.5t71 45.5q46 38 73.5 91t45.5 111q18 60 35.5 125.5l34 130.5l32 125.5t29.5 109.5q30 103 67 155.5t85 52.5q44 0 66 -29t22 -78
q0 -43 -19 -79.5t-45 -56.5q-17 -9 -35 -22.5t-32 -31.5t-23 -40t-9 -47q0 -35 15.5 -61.5t32.5 -52.5t31 -54t14 -69q0 -48 -22 -73t-60 -25q-11 0 -22.5 3t-21.5 8.5t-16.5 13.5t-6.5 19q0 9 8.5 11t18 4.5t18 10.5t8.5 29q0 24 -16 33t-35 9q-26 0 -41 -20t-15 -46
q0 -15 7 -31.5t21 -30t35.5 -22.5t50.5 -9q24 0 53.5 10t55 31.5t43 55t17.5 80.5q0 32 -14.5 58t-32.5 53q-18 28 -34.5 60t-16.5 76q0 17 10.5 32t28 27.5t40.5 22.5t49 18q14 24 21.5 55t7.5 63z" />
    <glyph glyph-name="Scaron" unicode="&#x160;" horiz-adv-x="537" 
d="M579 693h-34l-47 -47q-20 20 -54.5 35t-78.5 15q-51 0 -96 -16t-78.5 -43.5t-53 -64.5t-19.5 -79q0 -35 9.5 -61.5t28.5 -48t48.5 -40.5t69.5 -40q37 -18 60.5 -35t37 -34t19 -36t5.5 -42q0 -25 -10.5 -50t-30.5 -44.5t-49 -32t-65 -12.5q-48 0 -81 17.5t-55 46.5
t-33.5 66t-16.5 77h-23l-56 -234h34l46 47q22 -18 65 -34t100 -16q52 0 100.5 16t86 45t60 70.5t22.5 91.5q0 30 -9.5 55.5t-30 49t-53.5 45.5t-80 46q-31 15 -52 29t-34 29t-19 33t-6 42q0 25 11 48t30.5 40.5t46.5 28t59 10.5q39 0 65 -15.5t43 -42.5t26 -63.5t13 -78.5
h22zM582 923l-11 10l-183 -135l-105 135l-15 -8l42.5 -103.5t29.5 -71.5q5 -13 10.5 -16.5t24.5 -3.5q22 0 29.5 4t20.5 18l64.5 71z" />
    <glyph glyph-name="scaron" unicode="&#x161;" horiz-adv-x="385" 
d="M366 356q0 9 -4 27t-17 35t-37.5 30t-65.5 13q-30 0 -58 -12.5t-49.5 -32t-34.5 -43.5t-13 -48q0 -31 12.5 -53t31 -39t40 -31.5t40 -30.5t31 -36t12.5 -49q0 -20 -9 -35t-24.5 -25t-35.5 -14.5t-42 -4.5q-19 0 -37 5.5t-32.5 14t-23 19.5t-8.5 23q0 11 6.5 12.5
t20.5 1.5q25 0 34.5 15t9.5 29q0 6 -2 13.5t-8 14.5t-16.5 11.5t-26.5 4.5q-21 0 -38 -20.5t-17 -48.5q0 -18 8 -38.5t25.5 -37.5t46 -28.5t69.5 -11.5q33 0 64 12t55 31.5t38.5 45t14.5 52.5q0 32 -12 55t-30.5 40.5t-40 31.5t-40 29t-30.5 33t-12 42q0 22 8 37.5t20 25.5
t26 15t26 5q25 0 41 -5t25.5 -12t13.5 -14.5t5 -12.5q-2 -4 -10.5 -9t-19 -12t-18.5 -17t-8 -25q0 -22 15 -31.5t34 -9.5q22 0 34.5 17.5t12.5 45.5zM477 732l-11 10l-183 -135l-105 135l-15 -8l42.5 -103.5t29.5 -71.5q5 -13 10.5 -16.5t24.5 -3.5q22 0 29.5 4t20.5 18
l64.5 71z" />
    <glyph glyph-name="Yacute" unicode="&#xdd;" horiz-adv-x="628" 
d="M735 638q0 18 -15.5 38t-51.5 20q-34 0 -70.5 -17.5t-73.5 -53.5t-71.5 -91.5t-64.5 -131.5h-9q5 30 7 50t2 46q0 36 -11 71.5t-32 63t-51 45t-68 17.5q-122 0 -174 -154l22 -7q17 53 43 76.5t61 23.5q36 0 59.5 -15t37.5 -39t19.5 -55t5.5 -64q0 -25 -1 -64t-9 -72
l-60 -245q-3 -13 -12 -27.5t-29 -21.5q-6 -2 -15.5 -3.5t-20 -3t-20.5 -2.5t-16 -1l-5 -21h313l5 21q-7 0 -19 1.5t-24.5 3.5t-22.5 4.5t-14 4.5q-22 10 -23 29q0 8 3 20l57 229q8 32 20 62.5t25.5 57.5t27 49t24.5 38q19 27 39.5 50.5t40.5 41.5t38.5 30t33.5 16l4 -5
l-9.5 -15t-4.5 -20q0 -6 2.5 -13.5t8.5 -15t15.5 -12.5t24.5 -5q26 0 42 15.5t16 50.5zM641 890q0 12 -8.5 22t-25.5 10q-20 0 -37.5 -11t-36.5 -34l-24.5 -29.5l-27.5 -31.5l-34 -39l-44 -50l11 -12l62.5 39.5l46.5 29l36 22l30 18.5q22 15 37 30.5t15 35.5z" />
    <glyph glyph-name="yacute" unicode="&#xfd;" horiz-adv-x="538" 
d="M540 446h-89l-103 -332q-12 -17 -27.5 -34t-33.5 -30t-38 -21t-41 -8q-20 0 -35 9t-15 41q0 14 5.5 33.5t13.5 39.5l62 154q10 26 16 46.5t6 38.5q0 21 -9.5 36t-24 24t-32 13.5t-33.5 4.5q-27 0 -47.5 -11.5t-37 -31.5t-30 -48t-26.5 -61l18 -7q25 64 49.5 99.5
t59.5 35.5q14 0 21.5 -6t7.5 -28q0 -12 -5.5 -34.5t-16.5 -48.5l-57 -145q-8 -20 -14 -42t-6 -33q0 -22 8.5 -42.5t24 -36t37 -24.5t46.5 -9q43 0 79.5 26t62.5 60l4 -1q-25 -77 -55 -132.5t-63.5 -91t-68.5 -52.5t-71 -17h-22q-12 0 -24 3t-21 10.5t-10 21.5q1 8 5.5 11
t10.5 4t13 1.5t14 4.5q9 5 14.5 14.5t5.5 31.5q0 11 -11.5 26.5t-34.5 15.5q-12 0 -23.5 -3.5t-21 -11.5t-15.5 -21t-6 -33q0 -11 4.5 -27t18 -31t39.5 -25.5t70 -10.5q52 0 102.5 19.5t95 61t82.5 107t67 157.5zM550 699q0 12 -8.5 22t-25.5 10q-20 0 -37.5 -11t-36.5 -34
l-24.5 -29.5l-27.5 -31.5l-34 -39l-44 -50l11 -12l62.5 39.5l46.5 29l36 22l30 18.5q22 15 37 30.5t15 35.5z" />
    <glyph glyph-name="HT" horiz-adv-x="0" 
 />
    <glyph glyph-name="Thorn" unicode="&#xde;" horiz-adv-x="598" 
d="M589 388q0 70 -51.5 108.5t-145.5 38.5h-76l19 68q5 16 14 29t29 20q6 2 16 3.5l21 3t21.5 2.5t16.5 1l5 21h-302l-6 -22q6 0 15 -2t19 -4.5t19 -5.5t14 -5q20 -10 20 -27q0 -5 -1 -10.5t-3 -12.5l-143 -514q-5 -16 -14 -29t-29 -20q-6 -2 -16 -3.5l-21 -3t-21.5 -2.5
t-16.5 -1l-5 -21h305l5 21q-7 0 -17.5 2l-20.5 4t-18.5 4.5t-12.5 4.5q-11 5 -16 11t-5 17q0 8 3 19l23 82h47q73 0 133.5 15t104 44t67.5 70t24 94zM483 379q0 -84 -55 -134t-158 -50h-48l86 312h45q71 0 100.5 -35.5t29.5 -92.5z" />
    <glyph glyph-name="thorn" unicode="&#xfe;" horiz-adv-x="510" 
d="M489 304q0 47 -13 77.5t-34 48t-47 24.5t-51 7q-21 0 -40.5 -7.5t-37 -19t-31.5 -25.5t-25 -27l-3 1l116 359l-218 -10v-20q18 -1 29.5 -1.5t30.5 -2.5q17 -2 28.5 -8.5t11.5 -23.5q0 -10 -4.5 -29t-10.5 -38l-223 -718l-15 -43t-23 -41q-9 -11 -24.5 -16.5t-50.5 -5.5
v-19h282v20l-27 1.5t-28 2.5q-17 2 -29 8.5t-12 23.5q0 19 14 67l49 162h4q7 -27 32.5 -45.5t63.5 -18.5q45 0 83.5 16.5t70.5 43t56.5 60t41.5 69t25.5 69t8.5 59.5zM395 324q0 -44 -15 -99t-40.5 -103t-60 -80.5t-73.5 -32.5q-34 0 -59 18.5t-31 60.5l77 247
q12 18 26.5 34.5t31 29t36 20.5t42.5 8q10 0 21.5 -3t21.5 -14t16.5 -31.5t6.5 -54.5z" />
    <glyph glyph-name="Eth" unicode="&#xd0;" horiz-adv-x="751" 
d="M735 418q0 74 -25 124.5t-65 82t-91 45t-102 13.5h-296l-6 -22q6 0 15 -2t19 -4.5t19 -5.5t14 -5q20 -10 20 -27q0 -5 -1 -10.5t-3 -12.5l-62 -222h-101l-9 -33h101l-72 -259q-5 -16 -14 -29t-29 -20q-6 -2 -16 -3.5l-21 -3t-21.5 -2.5t-16.5 -1l-5 -21h296
q94 0 179.5 29.5t150.5 83.5t103.5 131.5t38.5 173.5zM629 409q0 -78 -27 -147t-75 -120.5t-112.5 -82t-139.5 -30.5q-51 0 -70 20.5t-9 56.5l65 233h145l9 33h-145l79 281q17 1 33.5 1.5t33.5 0.5q101 0 157 -60.5t56 -185.5z" />
    <glyph glyph-name="Zcaron" unicode="&#x17d;" horiz-adv-x="596" 
d="M687 683h-510l-68 -184h24q12 19 32 43.5t43.5 47.5t48 40t45.5 21q16 3 38.5 4t48.5 1h160l-613 -644l-3 -12h563l73 205h-24q-10 -16 -25 -36t-32.5 -41t-37.5 -40.5t-39 -34.5q-10 -8 -28 -13t-39.5 -8t-46 -4t-46.5 -1h-181l613 644zM627 923l-11 10l-183 -135
l-105 135l-15 -8l42.5 -103.5t29.5 -71.5q5 -13 10.5 -16.5t24.5 -3.5q22 0 29.5 4t20.5 18l64.5 71z" />
    <glyph glyph-name="zcaron" unicode="&#x17e;" horiz-adv-x="418" 
d="M449 430q0 18 -11 24t-26 6q-17 0 -24.5 -12.5t-7.5 -32.5v-18t-3 -14t-10.5 -9.5t-22.5 -3.5q-25 0 -47 14t-44 30.5t-46.5 30.5t-55.5 14q-19 0 -36 -8t-29.5 -21t-20 -30.5t-7.5 -35.5q0 -21 10 -36.5t25 -27t32 -19t32 -12.5l9 16q-22 7 -39 19t-17 37t17 32.5
t49 7.5q15 0 33.5 -4.5l39.5 -9.5t45.5 -10t52.5 -6l2 -5l-97.5 -71.5l-89 -70.5l-76 -62.5l-57.5 -47.5q-24 -20 -40 -38t-16 -35t10 -25.5t19 -8.5q42 0 42 39q0 10 -0.5 18t1 14.5t5.5 11t14 7.5q22 0 50 -14t57 -30.5l56 -30.5t48 -14q18 0 36 7.5t32.5 19.5t23 27.5
t8.5 32.5q0 16 -3.5 31.5t-12.5 28.5t-24.5 23t-39.5 15l-6 -18q20 -4 30 -13t10 -36q0 -26 -27 -34.5t-65 -8.5q-20 0 -38.5 4t-37.5 9.5l-39 11t-42 8.5l-1 6l90.5 71l90.5 71.5l78 62l53 42.5t29.5 26t18 20.5t8.5 17.5t2 17zM487 732l-11 10l-183 -135l-105 135l-15 -8
l42.5 -103.5t29.5 -71.5q5 -13 10.5 -16.5t24.5 -3.5q22 0 29.5 4t20.5 18l64.5 71z" />
    <glyph glyph-name="onehalf" unicode="&#xbd;" horiz-adv-x="595" 
d="M484 749h-13q-20 -9 -53.5 -19t-67.5 -10q-24 0 -43.5 4.5t-35.5 11.5l-12 -15q18 -16 38.5 -28.5t40.5 -12.5q22 0 36 3l-75 -284q-7 -25 -32 -32q-5 -2 -14.5 -2.5t-20.5 -1.5t-21 -1.5t-16 -0.5l-6 -22h266l6 22q-5 0 -14.5 1l-19 2t-18.5 2.5t-12 3.5q-16 6 -16 23
q0 2 1 7.5t2 9.5l63 237q6 23 16 51.5t21 50.5zM539 279h-479l-11 -41h479zM428 87q0 41 -37 68.5t-99 27.5q-45 0 -85 -15.5t-70 -38.5t-48 -51t-18 -53q0 -27 16.5 -39.5t39.5 -12.5q46 0 78 22.5t52 48.5l-13 12q-13 -17 -30 -31t-40 -14t-30.5 8.5t-7.5 21.5
q0 19 10.5 39.5t29.5 38t45 29t57 11.5q26 0 46 -14.5t20 -45.5q0 -19 -4 -38t-15 -39.5t-30.5 -42.5t-49.5 -47q-23 -17 -45.5 -31.5l-48 -29.5l-55.5 -31.5l-67 -37.5l-6 -29h328l69 127l-15 8q-20 -32 -40.5 -51t-46.5 -19h-183l59 33q67 28 112 54t72 52.5t38.5 53.5
t11.5 56z" />
    <glyph glyph-name="onequarter" unicode="&#xbc;" horiz-adv-x="595" 
d="M484 749h-13q-20 -9 -53.5 -19t-67.5 -10q-24 0 -43.5 4.5t-35.5 11.5l-12 -15q18 -16 38.5 -28.5t40.5 -12.5q22 0 36 3l-75 -284q-7 -25 -32 -32q-5 -2 -14.5 -2.5t-20.5 -1.5t-21 -1.5t-16 -0.5l-6 -22h266l6 22q-5 0 -14.5 1l-19 2t-18.5 2.5t-12 3.5q-16 6 -16 23
q0 2 1 7.5t2 9.5l63 237q6 23 16 51.5t21 50.5zM539 279h-479l-11 -41h479zM436 -81l-8 9q-15 -17 -38.5 -28t-43.5 -13l50 137h-72l-50 -137q-10 1 -24.5 3l-30 4t-32 3.5t-31.5 1.5q-6 0 -15.5 -2t-17.5 -3q33 22 64.5 53.5t58.5 69t48.5 80.5t35.5 89h-93
q-27 -103 -61 -178.5t-78 -110.5q-9 1 -19 1.5t-17 0.5q-15 0 -27.5 -5.5t-12.5 -18.5q0 -24 35 -24q12 0 25.5 8.5t23.5 19.5q5 1 10 1.5t19 0.5q18 0 35 -4t33 -9.5l31 -10.5t29 -7l-30 -90h70l32 92q29 5 55 24t46 43z" />
    <glyph glyph-name="onesuperior" unicode="&#xb9;" horiz-adv-x="617" 
d="M597 291q0 32 -21.5 54.5t-51.5 22.5q-22 0 -35.5 -8t-25 -19.5l-24 -23.5t-33.5 -19l-12 6q-5 20 -18 34.5t-30 23.5l-4 12q11 21 26.5 33l29 22.5t23 23.5t9.5 37q0 31 -20.5 53.5t-53.5 22.5q-31 0 -53.5 -20t-22.5 -53q0 -15 5.5 -27.5l11.5 -25t11.5 -27t5.5 -34.5
l-11 -7q-41 0 -69 -30l-15 -1q-18 19 -24 41.5t-14 39.5q-8 16 -24 29t-43 13q-32 0 -54 -23t-22 -54t22 -53.5t55 -22.5q15 0 29 3.5t35 3.5q7 0 13.5 -0.5t13.5 -2.5l5 -13q-3 -12 -3 -25q0 -21 10 -43l-3 -14q-22 -11 -41.5 -12t-32.5 -1q-35 0 -59 -21.5t-24 -53.5
q0 -33 23.5 -55t53.5 -22q37 0 55 25.5t23 57.5q2 14 6 29.5t15 31.5l13 1q26 -18 56 -18h10t10 1l7 -5v-11q0 -15 -3 -27.5t-6 -23.5l-6 -21t-3 -22q0 -32 22.5 -53.5t52.5 -21.5q16 0 30.5 6t25 16.5t16.5 24.5t6 29q0 29 -16 47t-39 29q-14 7 -27.5 15t-25.5 24l1 10
q15 11 25.5 26.5t13.5 33.5l9 8q21 -3 35 -11.5t26 -17t24.5 -15t30.5 -6.5q32 0 53.5 21t21.5 53zM370 278q0 -29 -19 -49.5t-48 -20.5t-48 20.5t-19 49.5t19 48.5t48 19.5t48 -19.5t19 -48.5z" />
    <glyph glyph-name="threequarters" unicode="&#xbe;" horiz-adv-x="595" 
d="M559 669q0 12 -4.5 26t-17.5 25t-35 18.5t-56 7.5q-40 0 -78 -10.5t-67.5 -27.5t-47.5 -40t-18 -48q0 -17 13.5 -30t47.5 -13q21 0 48 15t45 32l-10 12q-10 -8 -22 -15t-30 -7q-14 0 -19 7.5t-5 15.5q0 21 12.5 37t30.5 27t38 16.5t35 5.5q29 0 44.5 -12.5t15.5 -32.5
q0 -27 -12.5 -47.5t-35 -38t-54.5 -34l-71 -35.5l14 -26q23 19 43 32t44 13q20 0 32 -11t12 -30q0 -31 -15 -57.5t-38 -46t-52 -31t-57 -11.5q-37 0 -51.5 12t-14.5 26q0 13 6 17.5t13 7.5t13 9.5t6 24.5q0 14 -9.5 22t-26.5 8q-26 0 -45.5 -21t-19.5 -51q0 -19 10 -34
t27 -25t39 -15t46 -5q51 0 97 11.5t81.5 32.5t56 49.5t20.5 63.5q0 22 -9 36t-24 22t-35 11.5t-42 3.5l11 10q36 6 59 17t37 25t19.5 28.5t5.5 27.5zM539 279h-479l-11 -41h479zM434 -81l-8 9q-15 -17 -38.5 -28t-43.5 -13l50 137h-72l-50 -137q-10 1 -24.5 3l-30 4t-32 3.5
t-31.5 1.5q-6 0 -15.5 -2t-17.5 -3q33 22 64.5 53.5t58.5 69t48.5 80.5t35.5 89h-93q-27 -103 -61 -178.5t-78 -110.5q-9 1 -19 1.5t-17 0.5q-15 0 -27.5 -5.5t-12.5 -18.5q0 -24 35 -24q12 0 25.5 8.5t23.5 19.5q5 1 10 1.5t19 0.5q18 0 35 -4t33 -9.5l31 -10.5t29 -7
l-30 -90h70l32 92q29 5 55 24t46 43z" />
    <glyph glyph-name="threesuperior" unicode="&#xb3;" horiz-adv-x="617" 
d="M597 291q0 32 -21.5 54.5t-51.5 22.5q-22 0 -35.5 -8t-25 -19.5l-24 -23.5t-33.5 -19l-12 6q-5 20 -18 34.5t-30 23.5l-4 12q11 21 26.5 33l29 22.5t23 23.5t9.5 37q0 31 -20.5 53.5t-53.5 22.5q-31 0 -53.5 -20t-22.5 -53q0 -15 5.5 -27.5l11.5 -25t11.5 -27t5.5 -34.5
l-11 -7q-41 0 -69 -30l-15 -1q-18 19 -24 41.5t-14 39.5q-8 16 -24 29t-43 13q-32 0 -54 -23t-22 -54t22 -53.5t55 -22.5q15 0 29 3.5t35 3.5q7 0 13.5 -0.5t13.5 -2.5l5 -13q-3 -12 -3 -25q0 -21 10 -43l-3 -14q-22 -11 -41.5 -12t-32.5 -1q-35 0 -59 -21.5t-24 -53.5
q0 -33 23.5 -55t53.5 -22q37 0 55 25.5t23 57.5q2 14 6 29.5t15 31.5l13 1q26 -18 56 -18h10t10 1l7 -5v-11q0 -15 -3 -27.5t-6 -23.5l-6 -21t-3 -22q0 -32 22.5 -53.5t52.5 -21.5q16 0 30.5 6t25 16.5t16.5 24.5t6 29q0 29 -16 47t-39 29q-14 7 -27.5 15t-25.5 24l1 10
q15 11 25.5 26.5t13.5 33.5l9 8q21 -3 35 -11.5t26 -17t24.5 -15t30.5 -6.5q32 0 53.5 21t21.5 53zM370 278q0 -29 -19 -49.5t-48 -20.5t-48 20.5t-19 49.5t19 48.5t48 19.5t48 -19.5t19 -48.5z" />
    <glyph glyph-name="twosuperior" unicode="&#xb2;" horiz-adv-x="617" 
d="M597 291q0 32 -21.5 54.5t-51.5 22.5q-22 0 -35.5 -8t-25 -19.5l-24 -23.5t-33.5 -19l-12 6q-5 20 -18 34.5t-30 23.5l-4 12q11 21 26.5 33l29 22.5t23 23.5t9.5 37q0 31 -20.5 53.5t-53.5 22.5q-31 0 -53.5 -20t-22.5 -53q0 -15 5.5 -27.5l11.5 -25t11.5 -27t5.5 -34.5
l-11 -7q-41 0 -69 -30l-15 -1q-18 19 -24 41.5t-14 39.5q-8 16 -24 29t-43 13q-32 0 -54 -23t-22 -54t22 -53.5t55 -22.5q15 0 29 3.5t35 3.5q7 0 13.5 -0.5t13.5 -2.5l5 -13q-3 -12 -3 -25q0 -21 10 -43l-3 -14q-22 -11 -41.5 -12t-32.5 -1q-35 0 -59 -21.5t-24 -53.5
q0 -33 23.5 -55t53.5 -22q37 0 55 25.5t23 57.5q2 14 6 29.5t15 31.5l13 1q26 -18 56 -18h10t10 1l7 -5v-11q0 -15 -3 -27.5t-6 -23.5l-6 -21t-3 -22q0 -32 22.5 -53.5t52.5 -21.5q16 0 30.5 6t25 16.5t16.5 24.5t6 29q0 29 -16 47t-39 29q-14 7 -27.5 15t-25.5 24l1 10
q15 11 25.5 26.5t13.5 33.5l9 8q21 -3 35 -11.5t26 -17t24.5 -15t30.5 -6.5q32 0 53.5 21t21.5 53zM370 278q0 -29 -19 -49.5t-48 -20.5t-48 20.5t-19 49.5t19 48.5t48 19.5t48 -19.5t19 -48.5z" />
    <glyph glyph-name="brokenbar" unicode="&#xa6;" horiz-adv-x="340" 
d="M215 364v382h-48v-382h48zM215 -207v392h-48v-392h48z" />
    <glyph glyph-name="minus" unicode="&#x2212;" horiz-adv-x="580" 
d="M543 237v46h-470v-46h470z" />
    <glyph glyph-name="multiply" unicode="&#xd7;" horiz-adv-x="580" 
d="M540 64l-199 199l199 198l-33 33l-198 -199l-199 199l-34 -34l199 -199l-199 -198l33 -33l198 199l199 -199z" />
    <glyph glyph-name="eth" unicode="&#xf0;" horiz-adv-x="481" 
d="M500 728l-13 23l-103 -71q-19 20 -41 36.5t-48 32.5l-17 -18q42 -31 69 -76l-119 -81l14 -21l117 79q19 -37 26.5 -78.5t7.5 -85.5q0 -28 -3 -55h-4q-15 23 -37.5 35.5t-51.5 12.5q-63 0 -113 -31t-85 -77t-53.5 -98t-18.5 -94q0 -47 13.5 -80t35 -54t47.5 -31t52 -10
q70 0 127 34.5t96.5 94t61 139t21.5 169.5q0 70 -19 129t-61 109zM362 307q0 -45 -11 -97.5t-33 -98t-54 -76t-74 -30.5q-29 0 -49 34t-20 103q0 44 12 97t34 98.5t54 76t71 30.5q27 0 48.5 -34t21.5 -103z" />
    <glyph glyph-name="Adieresis" unicode="&#xc4;" horiz-adv-x="635" 
d="M606 21q-14 1 -32 4t-29 9q-15 8 -19 21t-4 34v605h-28l-113.5 -147l-115 -148.5l-113.5 -144.5l-108 -135q-22 -26 -43.5 -46.5t-44.5 -31.5q-17 -8 -38 -13.5t-32 -6.5l-6 -21h275l6 21q-12 1 -28.5 4t-32.5 9t-27 14.5t-11 19.5q0 8 11 24.5l25 36.5l20 28l25.5 36
l28 39l27.5 38h226v-184q0 -15 -6 -29.5t-26 -22.5q-13 -5 -34.5 -8t-44.5 -5l-6 -21h292zM425 300h-200l200 256v-256zM686 829q0 18 -12.5 34.5t-33.5 16.5q-32 0 -50.5 -20t-18.5 -46q0 -20 13 -36t38 -16q31 0 47.5 20.5t16.5 46.5zM473 829q0 18 -13 34.5t-34 16.5
q-32 0 -50 -20t-18 -46q0 -20 12.5 -36t37.5 -16q31 0 48 20.5t17 46.5z" />
    <glyph glyph-name="Aring" unicode="&#xc5;" horiz-adv-x="635" 
d="M606 21q-14 1 -32 4t-29 9q-15 8 -19 21t-4 34v605h-28l-113.5 -147l-115 -148.5l-113.5 -144.5l-108 -135q-22 -26 -43.5 -46.5t-44.5 -31.5q-17 -8 -38 -13.5t-32 -6.5l-6 -21h275l6 21q-12 1 -28.5 4t-32.5 9t-27 14.5t-11 19.5q0 8 11 24.5l25 36.5l20 28l25.5 36
l28 39l27.5 38h226v-184q0 -15 -6 -29.5t-26 -22.5q-13 -5 -34.5 -8t-44.5 -5l-6 -21h292zM425 300h-200l200 256v-256zM640 824q0 22 -9.5 41t-25 33t-36.5 22.5t-45 8.5q-25 0 -46 -8.5t-36 -23t-23.5 -34t-8.5 -40.5q0 -23 9.5 -41.5t25.5 -32t37.5 -21t45.5 -7.5t44.5 8
t35.5 22t23.5 32.5t8.5 40.5zM587 833q0 -16 -4 -31.5t-12 -28t-20.5 -20.5t-28.5 -8q-29 0 -44 19t-15 51q0 18 4.5 34t13 28.5t20.5 20t27 7.5q29 0 44 -20t15 -52z" />
    <glyph glyph-name="Ccedilla" unicode="&#xc7;" horiz-adv-x="628" 
d="M678 693h-41l-41 -51q-32 27 -64 40.5t-85 13.5q-75 0 -146.5 -34.5t-127.5 -95.5t-90.5 -143t-34.5 -177q0 -110 54.5 -178.5t160.5 -80.5l-32 -99q39 0 57.5 -7t18.5 -27q0 -31 -40 -43.5t-112 -14.5l-6 -23q52 0 95.5 6t75 18.5t49 33t17.5 49.5q0 19 -8 31.5
t-22.5 20t-34.5 10.5t-43 3l13 40h15q57 0 101 16.5t79 43t62 60t50 68.5l-23 14q-24 -36 -48.5 -65.5t-51.5 -50.5t-58.5 -32.5t-70.5 -11.5q-48 0 -83 18t-58.5 49.5t-34.5 75t-11 94.5q0 85 24 158.5t62 128t86.5 85.5t98.5 31q48 0 80 -16.5t51.5 -46t29.5 -70t15 -88.5
h24z" />
    <glyph glyph-name="Eacute" unicode="&#xc9;" horiz-adv-x="637" 
d="M674 683h-525l-7 -22q7 0 17 -2t21 -4.5l21 -5t16 -5.5q11 -5 15.5 -11t4.5 -16q0 -5 -1 -11t-3 -13l-141 -510q-5 -17 -14.5 -30t-28.5 -20q-6 -2 -18 -4.5t-25 -4t-24.5 -2.5t-16.5 -1l-7 -21h574l65 192h-25q-6 -11 -18.5 -29.5t-29 -39t-34.5 -40t-35 -32.5
q-22 -17 -67.5 -20t-96.5 -3q-55 0 -78 7.5t-23 35.5q0 8 2.5 20.5t7.5 27.5l62 221h78q21 0 34 -3t21 -7.5t13 -10t8 -10.5q4 -6 6 -20.5t2 -31.5q0 -12 -0.5 -24t-2.5 -21h24l78 278h-26l-10.5 -22.5t-14 -27t-15.5 -24.5t-15 -17q-11 -10 -33 -21t-62 -11h-78l81 289h108
q24 0 43 -1t35 -3q33 -5 51.5 -39.5t18.5 -77.5v-8h25zM625 890q0 12 -8.5 22t-25.5 10q-20 0 -37.5 -11t-36.5 -34l-24.5 -29.5l-27.5 -31.5l-34 -39l-44 -50l11 -12l62.5 39.5l46.5 29l36 22l30 18.5q22 15 37 30.5t15 35.5z" />
    <glyph glyph-name="Ntilde" unicode="&#xd1;" horiz-adv-x="737" 
d="M846 683h-297l-6 -21q9 0 22 -3t27 -7.5t26.5 -9.5t18.5 -10q14 -11 14 -42q0 -17 -5 -43.5t-11 -49.5l-92 -352l-231 538h-206l-7 -22q39 -2 63 -11t38 -23q10 -10 14.5 -24.5t4.5 -30.5q0 -9 -1 -18.5t-3 -15.5l-94 -353q-16 -60 -33 -92t-37 -45q-8 -5 -21 -9.5
t-28 -8l-29 -6.5t-22 -3l-6 -21h299l6 21q-7 0 -20.5 3t-28 7.5t-27.5 10t-19 11.5q-13 13 -13 45q0 6 1.5 17.5t4 25l5 27t5.5 22.5l99 377l246 -574h33l136 510q13 47 28 83.5t41 50.5q8 4 22 8.5t29 8t28 6t20 2.5zM715 891l-18 9q-21 -32 -42.5 -52.5t-55.5 -20.5
q-18 0 -32.5 9t-29.5 20t-32.5 20t-40.5 9t-44 -13t-39 -32t-33 -41t-24 -39l18 -9q21 32 42.5 52.5t55.5 20.5q18 0 32.5 -9t29.5 -20t32.5 -20t40.5 -9q22 0 43.5 13t39.5 32t33 41t24 39z" />
    <glyph glyph-name="Odieresis" unicode="&#xd6;" horiz-adv-x="720" 
d="M711 430q0 63 -23 113t-56 84q-37 38 -82 54.5t-101 16.5q-69 0 -133.5 -26.5t-119.5 -77.5q-72 -68 -108 -157t-36 -180q0 -66 24 -117.5t61 -87.5q35 -35 77.5 -51.5t96.5 -16.5q73 0 135 25t116 71q39 33 67 74t46 86.5t27 93.5t9 96zM604 451q0 -45 -7 -91t-19.5 -89
t-31 -82.5t-40.5 -70.5q-35 -49 -81 -76.5t-103 -27.5q-43 0 -74 16.5t-50.5 45t-29 68t-9.5 86.5q0 89 24 171t63 145q34 54 84.5 88t111.5 34q45 0 76 -17t50 -46.5t27.5 -69t8.5 -84.5zM647 835q0 18 -12.5 34.5t-33.5 16.5q-32 0 -50.5 -20t-18.5 -46q0 -20 13 -36
t38 -16q31 0 47.5 20.5t16.5 46.5zM434 835q0 18 -13 34.5t-34 16.5q-32 0 -50 -20t-18 -46q0 -20 12.5 -36t37.5 -16q31 0 48 20.5t17 46.5z" />
    <glyph glyph-name="Udieresis" unicode="&#xdc;" horiz-adv-x="791" 
d="M884 683h-297l-6 -21q9 0 22 -3t27 -7.5t26.5 -9.5t18.5 -10q14 -11 14 -42q0 -17 -4 -40.5t-12 -51.5l-75 -263q-29 -99 -87 -153.5t-154 -54.5q-79 0 -111 30.5t-32 82.5q0 25 5 55t14 62l95 342q5 16 14.5 30t29.5 20q7 2 17.5 4t21.5 3.5l21.5 3t17.5 1.5l6 22h-306
l-6 -22q6 0 15 -2t19 -4.5t19 -5.5t14 -5q20 -10 20 -27q0 -5 -1 -10.5t-3 -12.5l-99 -357q-8 -26 -11 -50t-3 -45q0 -75 51 -116.5t159 -41.5q127 0 200 64.5t108 182.5l78 273q14 47 28.5 83t40.5 50q8 4 22 8.5t29 8t28 6t20 2.5zM709 835q0 18 -12.5 34.5t-33.5 16.5
q-32 0 -50.5 -20t-18.5 -46q0 -20 13 -36t38 -16q31 0 47.5 20.5t16.5 46.5zM496 835q0 18 -13 34.5t-34 16.5q-32 0 -50 -20t-18 -46q0 -20 12.5 -36t37.5 -16q31 0 48 20.5t17 46.5z" />
    <glyph glyph-name="aacute" unicode="&#xe1;" horiz-adv-x="549" 
d="M541 140l-20 6q-25 -64 -49.5 -98t-59.5 -34q-14 0 -24 7.5t-10 32.5q0 9 4 31t12 43l113 327h-90l-23 -67h-3q-7 38 -32.5 55.5t-57.5 17.5q-68 0 -119.5 -35t-87 -85t-53.5 -104t-18 -93q0 -47 12 -77.5t31.5 -48.5t44 -25t49.5 -7q43 0 77 27.5t63 69.5l4 -1
q0 -51 24.5 -72t69.5 -21q27 0 47.5 11t37 31t30.5 48t28 61zM382 351l-76 -233q-23 -39 -55.5 -68.5t-75.5 -29.5q-10 0 -20 3t-18.5 14t-14 31t-5.5 55q0 30 6.5 65t18 70t27.5 68t36 58.5t43.5 40.5t49.5 15q36 0 55.5 -21.5t28.5 -67.5zM510 699q0 12 -8.5 22t-25.5 10
q-20 0 -37.5 -11t-36.5 -34l-24.5 -29.5l-27.5 -31.5l-34 -39l-44 -50l11 -12l62.5 39.5l46.5 29l36 22l30 18.5q22 15 37 30.5t15 35.5z" />
    <glyph glyph-name="agrave" unicode="&#xe0;" horiz-adv-x="549" 
d="M541 140l-20 6q-25 -64 -49.5 -98t-59.5 -34q-14 0 -24 7.5t-10 32.5q0 9 4 31t12 43l113 327h-90l-23 -67h-3q-7 38 -32.5 55.5t-57.5 17.5q-68 0 -119.5 -35t-87 -85t-53.5 -104t-18 -93q0 -47 12 -77.5t31.5 -48.5t44 -25t49.5 -7q43 0 77 27.5t63 69.5l4 -1
q0 -51 24.5 -72t69.5 -21q27 0 47.5 11t37 31t30.5 48t28 61zM382 351l-76 -233q-23 -39 -55.5 -68.5t-75.5 -29.5q-10 0 -20 3t-18.5 14t-14 31t-5.5 55q0 30 6.5 65t18 70t27.5 68t36 58.5t43.5 40.5t49.5 15q36 0 55.5 -21.5t28.5 -67.5zM361 535l-22 48.5l-16.5 37
l-13.5 30.5l-12 29q-11 25 -22.5 38t-31.5 13q-17 0 -27 -11t-10 -27q0 -29 30 -57q10 -9 19.5 -18.5l21.5 -21.5l28.5 -29l40.5 -42z" />
    <glyph glyph-name="acircumflex" unicode="&#xe2;" horiz-adv-x="549" 
d="M541 140l-20 6q-25 -64 -49.5 -98t-59.5 -34q-14 0 -24 7.5t-10 32.5q0 9 4 31t12 43l113 327h-90l-23 -67h-3q-7 38 -32.5 55.5t-57.5 17.5q-68 0 -119.5 -35t-87 -85t-53.5 -104t-18 -93q0 -47 12 -77.5t31.5 -48.5t44 -25t49.5 -7q43 0 77 27.5t63 69.5l4 -1
q0 -51 24.5 -72t69.5 -21q27 0 47.5 11t37 31t30.5 48t28 61zM382 351l-76 -233q-23 -39 -55.5 -68.5t-75.5 -29.5q-10 0 -20 3t-18.5 14t-14 31t-5.5 55q0 30 6.5 65t18 70t27.5 68t36 58.5t43.5 40.5t49.5 15q36 0 55.5 -21.5t28.5 -67.5zM491 538l-42.5 103.5t-29.5 71.5
q-5 13 -10.5 16.5t-24.5 3.5q-22 0 -29.5 -4t-20.5 -18l-64.5 -71l-92.5 -100l11 -10l183 135l105 -135z" />
    <glyph glyph-name="adieresis" unicode="&#xe4;" horiz-adv-x="549" 
d="M541 140l-20 6q-25 -64 -49.5 -98t-59.5 -34q-14 0 -24 7.5t-10 32.5q0 9 4 31t12 43l113 327h-90l-23 -67h-3q-7 38 -32.5 55.5t-57.5 17.5q-68 0 -119.5 -35t-87 -85t-53.5 -104t-18 -93q0 -47 12 -77.5t31.5 -48.5t44 -25t49.5 -7q43 0 77 27.5t63 69.5l4 -1
q0 -51 24.5 -72t69.5 -21q27 0 47.5 11t37 31t30.5 48t28 61zM382 351l-76 -233q-23 -39 -55.5 -68.5t-75.5 -29.5q-10 0 -20 3t-18.5 14t-14 31t-5.5 55q0 30 6.5 65t18 70t27.5 68t36 58.5t43.5 40.5t49.5 15q36 0 55.5 -21.5t28.5 -67.5zM524 654q0 18 -12.5 34.5
t-33.5 16.5q-32 0 -50.5 -20t-18.5 -46q0 -20 13 -36t38 -16q31 0 47.5 20.5t16.5 46.5zM311 654q0 18 -13 34.5t-34 16.5q-32 0 -50 -20t-18 -46q0 -20 12.5 -36t37.5 -16q31 0 48 20.5t17 46.5z" />
    <glyph glyph-name="atilde" unicode="&#xe3;" horiz-adv-x="549" 
d="M541 140l-20 6q-25 -64 -49.5 -98t-59.5 -34q-14 0 -24 7.5t-10 32.5q0 9 4 31t12 43l113 327h-90l-23 -67h-3q-7 38 -32.5 55.5t-57.5 17.5q-68 0 -119.5 -35t-87 -85t-53.5 -104t-18 -93q0 -47 12 -77.5t31.5 -48.5t44 -25t49.5 -7q43 0 77 27.5t63 69.5l4 -1
q0 -51 24.5 -72t69.5 -21q27 0 47.5 11t37 31t30.5 48t28 61zM382 351l-76 -233q-23 -39 -55.5 -68.5t-75.5 -29.5q-10 0 -20 3t-18.5 14t-14 31t-5.5 55q0 30 6.5 65t18 70t27.5 68t36 58.5t43.5 40.5t49.5 15q36 0 55.5 -21.5t28.5 -67.5zM550 690l-18 9
q-21 -32 -42.5 -52.5t-55.5 -20.5q-18 0 -32.5 9t-29.5 20t-32.5 20t-40.5 9t-44 -13t-39 -32t-33 -41t-24 -39l18 -9q21 32 42.5 52.5t55.5 20.5q18 0 32.5 -9t29.5 -20t32.5 -20t40.5 -9q22 0 43.5 13t39.5 32t33 41t24 39z" />
    <glyph glyph-name="aring" unicode="&#xe5;" horiz-adv-x="549" 
d="M541 140l-20 6q-25 -64 -49.5 -98t-59.5 -34q-14 0 -24 7.5t-10 32.5q0 9 4 31t12 43l113 327h-90l-23 -67h-3q-7 38 -32.5 55.5t-57.5 17.5q-68 0 -119.5 -35t-87 -85t-53.5 -104t-18 -93q0 -47 12 -77.5t31.5 -48.5t44 -25t49.5 -7q43 0 77 27.5t63 69.5l4 -1
q0 -51 24.5 -72t69.5 -21q27 0 47.5 11t37 31t30.5 48t28 61zM382 351l-76 -233q-23 -39 -55.5 -68.5t-75.5 -29.5q-10 0 -20 3t-18.5 14t-14 31t-5.5 55q0 30 6.5 65t18 70t27.5 68t36 58.5t43.5 40.5t49.5 15q36 0 55.5 -21.5t28.5 -67.5zM465 633q0 22 -9.5 41t-25 33
t-36.5 22.5t-45 8.5q-25 0 -46 -8.5t-36 -23t-23.5 -34t-8.5 -40.5q0 -23 9.5 -41.5t25.5 -32t37.5 -21t45.5 -7.5t44.5 8t35.5 22t23.5 32.5t8.5 40.5zM412 642q0 -16 -4 -31.5t-12 -28t-20.5 -20.5t-28.5 -8q-29 0 -44 19t-15 51q0 18 4.5 34t13 28.5t20.5 20t27 7.5
q29 0 44 -20t15 -52z" />
    <glyph glyph-name="ccedilla" unicode="&#xe7;" horiz-adv-x="397" 
d="M394 371q0 16 -7 32.5t-20 29t-32 20.5t-43 8q-63 0 -113 -35t-84.5 -85t-53 -104t-18.5 -93q0 -40 9.5 -67.5t25.5 -46t37 -28t43 -13.5l-33 -101q39 0 58 -7t19 -27q0 -31 -40.5 -43.5t-112.5 -14.5l-6 -23q52 0 95.5 6t75 18.5t49 33t17.5 49.5q0 19 -8 31.5t-22.5 20
t-34.5 10.5t-43 3l13 41h8q25 0 50 8t50.5 26.5t50.5 49t49 74.5l-20 9q-31 -57 -70 -95.5t-94 -38.5q-39 0 -55.5 26.5t-16.5 77.5q0 30 6.5 65.5t17.5 71t26.5 69t34 59t39 41t42.5 15.5q27 0 40.5 -8t17.5 -28q-23 -12 -37 -27.5t-14 -31.5q0 -24 18 -34.5t35 -10.5
q26 0 38.5 20.5t12.5 46.5z" />
    <glyph glyph-name="eacute" unicode="&#xe9;" horiz-adv-x="398" 
d="M394 394q0 34 -25.5 50.5t-59.5 16.5q-47 0 -86 -16t-71 -42.5t-56 -60.5t-40.5 -69t-24.5 -68t-8 -59q0 -48 14 -79t36 -49t49 -25t54 -7q24 0 49 8t49.5 26.5t49 49t47.5 74.5l-18 9q-15 -29 -32 -53.5t-37 -42.5t-43 -28t-50 -10q-39 0 -56.5 25t-17.5 76q0 21 5 45
l10 49q37 6 82.5 19.5t85.5 35.5t67 53t27 72zM325 388q0 -17 -9.5 -39.5t-31.5 -44.5t-58 -41t-89 -28q10 37 25.5 74t34.5 66.5t40.5 47.5t43.5 18q24 0 34 -14.5t10 -38.5zM471 699q0 12 -8.5 22t-25.5 10q-20 0 -37.5 -11t-36.5 -34l-24.5 -29.5l-27.5 -31.5l-34 -39
l-44 -50l11 -12l62.5 39.5l46.5 29l36 22l30 18.5q22 15 37 30.5t15 35.5z" />
    <glyph glyph-name="egrave" unicode="&#xe8;" horiz-adv-x="398" 
d="M394 394q0 34 -25.5 50.5t-59.5 16.5q-47 0 -86 -16t-71 -42.5t-56 -60.5t-40.5 -69t-24.5 -68t-8 -59q0 -48 14 -79t36 -49t49 -25t54 -7q24 0 49 8t49.5 26.5t49 49t47.5 74.5l-18 9q-15 -29 -32 -53.5t-37 -42.5t-43 -28t-50 -10q-39 0 -56.5 25t-17.5 76q0 21 5 45
l10 49q37 6 82.5 19.5t85.5 35.5t67 53t27 72zM325 388q0 -17 -9.5 -39.5t-31.5 -44.5t-58 -41t-89 -28q10 37 25.5 74t34.5 66.5t40.5 47.5t43.5 18q24 0 34 -14.5t10 -38.5zM322 535l-22 48.5l-16.5 37l-13.5 30.5l-12 29q-11 25 -22.5 38t-31.5 13q-17 0 -27 -11t-10 -27
q0 -29 30 -57q10 -9 19.5 -18.5l21.5 -21.5l28.5 -29l40.5 -42z" />
    <glyph glyph-name="ecircumflex" unicode="&#xea;" horiz-adv-x="398" 
d="M394 394q0 34 -25.5 50.5t-59.5 16.5q-47 0 -86 -16t-71 -42.5t-56 -60.5t-40.5 -69t-24.5 -68t-8 -59q0 -48 14 -79t36 -49t49 -25t54 -7q24 0 49 8t49.5 26.5t49 49t47.5 74.5l-18 9q-15 -29 -32 -53.5t-37 -42.5t-43 -28t-50 -10q-39 0 -56.5 25t-17.5 76q0 21 5 45
l10 49q37 6 82.5 19.5t85.5 35.5t67 53t27 72zM325 388q0 -17 -9.5 -39.5t-31.5 -44.5t-58 -41t-89 -28q10 37 25.5 74t34.5 66.5t40.5 47.5t43.5 18q24 0 34 -14.5t10 -38.5zM446 523l-42.5 103.5t-29.5 71.5q-5 13 -10.5 16.5t-24.5 3.5q-22 0 -29.5 -4t-20.5 -18
l-64.5 -71l-92.5 -100l11 -10l183 135l105 -135z" />
    <glyph glyph-name="edieresis" unicode="&#xeb;" horiz-adv-x="398" 
d="M394 394q0 34 -25.5 50.5t-59.5 16.5q-47 0 -86 -16t-71 -42.5t-56 -60.5t-40.5 -69t-24.5 -68t-8 -59q0 -48 14 -79t36 -49t49 -25t54 -7q24 0 49 8t49.5 26.5t49 49t47.5 74.5l-18 9q-15 -29 -32 -53.5t-37 -42.5t-43 -28t-50 -10q-39 0 -56.5 25t-17.5 76q0 21 5 45
l10 49q37 6 82.5 19.5t85.5 35.5t67 53t27 72zM325 388q0 -17 -9.5 -39.5t-31.5 -44.5t-58 -41t-89 -28q10 37 25.5 74t34.5 66.5t40.5 47.5t43.5 18q24 0 34 -14.5t10 -38.5zM473 654q0 18 -12.5 34.5t-33.5 16.5q-32 0 -50.5 -20t-18.5 -46q0 -20 13 -36t38 -16
q31 0 47.5 20.5t16.5 46.5zM260 654q0 18 -13 34.5t-34 16.5q-32 0 -50 -20t-18 -46q0 -20 12.5 -36t37.5 -16q31 0 48 20.5t17 46.5z" />
    <glyph glyph-name="iacute" unicode="&#xed;" horiz-adv-x="334" 
d="M315 140l-18 6q-25 -64 -50 -98t-61 -34q-14 0 -25 5.5t-11 29.5q0 11 6 32t17 47l57 147l9.5 25l10.5 28t8 26.5t3 21.5q0 22 -9.5 38t-24.5 26.5t-32.5 15.5t-33.5 5q-27 0 -47.5 -11.5t-37 -31.5t-30.5 -48t-27 -61l19 -7q25 64 49 99.5t59 35.5q14 0 23.5 -8t9.5 -30
q0 -9 -7.5 -33.5t-15.5 -45.5l-67 -170q-10 -26 -15 -45.5t-5 -37.5q0 -23 10 -38t25.5 -24t34 -12.5t34.5 -3.5q26 0 46.5 11t37 31t30.5 48t28 61zM391 699q0 12 -8.5 22t-25.5 10q-20 0 -37.5 -11t-36.5 -34l-24.5 -29.5l-27.5 -31.5l-34 -39l-44 -50l11 -12l62.5 39.5
l46.5 29l36 22l30 18.5q22 15 37 30.5t15 35.5z" />
    <glyph glyph-name="igrave" unicode="&#xec;" horiz-adv-x="334" 
d="M315 140l-18 6q-25 -64 -50 -98t-61 -34q-14 0 -25 5.5t-11 29.5q0 11 6 32t17 47l57 147l9.5 25l10.5 28t8 26.5t3 21.5q0 22 -9.5 38t-24.5 26.5t-32.5 15.5t-33.5 5q-27 0 -47.5 -11.5t-37 -31.5t-30.5 -48t-27 -61l19 -7q25 64 49 99.5t59 35.5q14 0 23.5 -8t9.5 -30
q0 -9 -7.5 -33.5t-15.5 -45.5l-67 -170q-10 -26 -15 -45.5t-5 -37.5q0 -23 10 -38t25.5 -24t34 -12.5t34.5 -3.5q26 0 46.5 11t37 31t30.5 48t28 61zM260 535l-22 48.5l-16.5 37l-13.5 30.5l-12 29q-11 25 -22.5 38t-31.5 13q-17 0 -27 -11t-10 -27q0 -29 30 -57
q10 -9 19.5 -18.5l21.5 -21.5l28.5 -29l40.5 -42z" />
    <glyph glyph-name="icircumflex" unicode="&#xee;" horiz-adv-x="334" 
d="M337 537q-22 62 -32.5 105t-20.5 71q-2 6 -3.5 10t-4 6.5t-8 3t-16.5 0.5t-17 -0.5t-10 -3t-8 -7l-10 -11.5q-24 -29 -55 -70t-83 -101l13 -10l153 133l85 -134zM315 140l-18 6q-25 -64 -50 -98t-61 -34q-14 0 -25 5.5t-11 29.5q0 11 6 32t17 47l57 147l9.5 25l10.5 28
t8 26.5t3 21.5q0 22 -9.5 38t-24.5 26.5t-32.5 15.5t-33.5 5q-27 0 -47.5 -11.5t-37 -31.5t-30.5 -48t-27 -61l19 -7q25 64 49 99.5t59 35.5q14 0 23.5 -8t9.5 -30q0 -9 -7.5 -33.5t-15.5 -45.5l-67 -170q-10 -26 -15 -45.5t-5 -37.5q0 -23 10 -38t25.5 -24t34 -12.5
t34.5 -3.5q26 0 46.5 11t37 31t30.5 48t28 61z" />
    <glyph glyph-name="idieresis" unicode="&#xef;" horiz-adv-x="334" 
d="M389 649q0 22 -16 38.5t-42 16.5q-24 0 -40.5 -17.5t-16.5 -41.5q0 -23 16.5 -39.5t40.5 -16.5q25 0 41.5 17.5t16.5 42.5zM202 649q0 22 -16.5 38.5t-42.5 16.5q-23 0 -39.5 -17.5t-16.5 -41.5q0 -23 16.5 -40t39.5 -17q26 0 42.5 18t16.5 43zM315 140l-18 6
q-25 -64 -50 -98t-61 -34q-14 0 -25 5.5t-11 29.5q0 11 6 32t17 47l57 147l9.5 25l10.5 28t8 26.5t3 21.5q0 22 -9.5 38t-24.5 26.5t-32.5 15.5t-33.5 5q-27 0 -47.5 -11.5t-37 -31.5t-30.5 -48t-27 -61l19 -7q25 64 49 99.5t59 35.5q14 0 23.5 -8t9.5 -30q0 -9 -7.5 -33.5
t-15.5 -45.5l-67 -170q-10 -26 -15 -45.5t-5 -37.5q0 -23 10 -38t25.5 -24t34 -12.5t34.5 -3.5q26 0 46.5 11t37 31t30.5 48t28 61z" />
    <glyph glyph-name="ntilde" unicode="&#xf1;" horiz-adv-x="599" 
d="M587 140l-19 6q-25 -64 -50 -98t-60 -34q-14 0 -25.5 6t-11.5 30q0 11 6 31.5t16 46.5l56 147q7 18 13 40.5t6 33.5q0 22 -8.5 42.5t-24 36t-36.5 24.5t-46 9q-44 0 -80 -28t-62 -64l-4 1q0 28 -8.5 46t-21.5 28t-29.5 13.5t-32.5 3.5q-27 0 -47.5 -11.5t-37 -31.5
t-30.5 -48t-27 -61l20 -7q25 64 49 99.5t59 35.5q14 0 21 -7.5t7 -28.5q0 -5 -2 -14.5l-4.5 -21.5t-6 -24t-6.5 -21l-108 -320h91l100 305q13 25 29.5 47.5t35.5 39.5t39.5 27t40.5 10q10 0 18.5 -1.5t15.5 -6.5t11 -14.5t4 -25.5q0 -14 -6 -35.5t-13 -39.5l-59 -156
q-10 -26 -16 -45.5t-6 -37.5q0 -23 11 -38t27 -24t34.5 -12.5t34.5 -3.5q27 0 47.5 11t37 31t30.5 48t28 61zM583 690l-18 9q-21 -32 -42.5 -52.5t-55.5 -20.5q-18 0 -32.5 9t-29.5 20t-32.5 20t-40.5 9t-44 -13t-39 -32t-33 -41t-24 -39l18 -9q21 32 42.5 52.5t55.5 20.5
q18 0 32.5 -9t29.5 -20t32.5 -20t40.5 -9q22 0 43.5 13t39.5 32t33 41t24 39z" />
    <glyph glyph-name="oacute" unicode="&#xf3;" horiz-adv-x="481" 
d="M455 285q0 47 -13.5 80.5t-35 54.5t-48 31t-51.5 10q-70 0 -122.5 -32t-87.5 -78t-52.5 -98t-17.5 -92q0 -47 13.5 -80t35 -54t47.5 -31t52 -10q70 0 123 31.5t87.5 77.5t52 98t17.5 92zM361 307q0 -45 -11 -97.5t-32.5 -98t-53.5 -76t-74 -30.5q-29 0 -49 34t-20 103
q0 44 12 97t34 98.5t54 76t71 30.5q27 0 48 -34t21 -103zM478 699q0 12 -8.5 22t-25.5 10q-20 0 -37.5 -11t-36.5 -34l-24.5 -29.5l-27.5 -31.5l-34 -39l-44 -50l11 -12l62.5 39.5l46.5 29l36 22l30 18.5q22 15 37 30.5t15 35.5z" />
    <glyph glyph-name="ograve" unicode="&#xf2;" horiz-adv-x="481" 
d="M455 285q0 47 -13.5 80.5t-35 54.5t-48 31t-51.5 10q-70 0 -122.5 -32t-87.5 -78t-52.5 -98t-17.5 -92q0 -47 13.5 -80t35 -54t47.5 -31t52 -10q70 0 123 31.5t87.5 77.5t52 98t17.5 92zM361 307q0 -45 -11 -97.5t-32.5 -98t-53.5 -76t-74 -30.5q-29 0 -49 34t-20 103
q0 44 12 97t34 98.5t54 76t71 30.5q27 0 48 -34t21 -103zM350 535l-22 48.5l-16.5 37l-13.5 30.5l-12 29q-11 25 -22.5 38t-31.5 13q-17 0 -27 -11t-10 -27q0 -29 30 -57q10 -9 19.5 -18.5l21.5 -21.5l28.5 -29l40.5 -42z" />
    <glyph glyph-name="ocircumflex" unicode="&#xf4;" horiz-adv-x="481" 
d="M455 285q0 47 -13.5 80.5t-35 54.5t-48 31t-51.5 10q-70 0 -122.5 -32t-87.5 -78t-52.5 -98t-17.5 -92q0 -47 13.5 -80t35 -54t47.5 -31t52 -10q70 0 123 31.5t87.5 77.5t52 98t17.5 92zM361 307q0 -45 -11 -97.5t-32.5 -98t-53.5 -76t-74 -30.5q-29 0 -49 34t-20 103
q0 44 12 97t34 98.5t54 76t71 30.5q27 0 48 -34t21 -103zM467 538l-42.5 103.5t-29.5 71.5q-5 13 -10.5 16.5t-24.5 3.5q-22 0 -29.5 -4t-20.5 -18l-64.5 -71l-92.5 -100l11 -10l183 135l105 -135z" />
    <glyph glyph-name="odieresis" unicode="&#xf6;" horiz-adv-x="481" 
d="M455 285q0 47 -13.5 80.5t-35 54.5t-48 31t-51.5 10q-70 0 -122.5 -32t-87.5 -78t-52.5 -98t-17.5 -92q0 -47 13.5 -80t35 -54t47.5 -31t52 -10q70 0 123 31.5t87.5 77.5t52 98t17.5 92zM361 307q0 -45 -11 -97.5t-32.5 -98t-53.5 -76t-74 -30.5q-29 0 -49 34t-20 103
q0 44 12 97t34 98.5t54 76t71 30.5q27 0 48 -34t21 -103zM502 654q0 18 -12.5 34.5t-33.5 16.5q-32 0 -50.5 -20t-18.5 -46q0 -20 13 -36t38 -16q31 0 47.5 20.5t16.5 46.5zM289 654q0 18 -13 34.5t-34 16.5q-32 0 -50 -20t-18 -46q0 -20 12.5 -36t37.5 -16q31 0 48 20.5
t17 46.5z" />
    <glyph glyph-name="otilde" unicode="&#xf5;" horiz-adv-x="481" 
d="M455 285q0 47 -13.5 80.5t-35 54.5t-48 31t-51.5 10q-70 0 -122.5 -32t-87.5 -78t-52.5 -98t-17.5 -92q0 -47 13.5 -80t35 -54t47.5 -31t52 -10q70 0 123 31.5t87.5 77.5t52 98t17.5 92zM361 307q0 -45 -11 -97.5t-32.5 -98t-53.5 -76t-74 -30.5q-29 0 -49 34t-20 103
q0 44 12 97t34 98.5t54 76t71 30.5q27 0 48 -34t21 -103zM521 690l-18 9q-21 -32 -42.5 -52.5t-55.5 -20.5q-18 0 -32.5 9t-29.5 20t-32.5 20t-40.5 9t-44 -13t-39 -32t-33 -41t-24 -39l18 -9q21 32 42.5 52.5t55.5 20.5q18 0 32.5 -9t29.5 -20t32.5 -20t40.5 -9
q22 0 43.5 13t39.5 32t33 41t24 39z" />
    <glyph glyph-name="uacute" unicode="&#xfa;" horiz-adv-x="593" 
d="M582 140l-20 6q-25 -64 -49.5 -98t-59.5 -34q-14 0 -23.5 8.5t-9.5 33.5q0 4 1.5 13t4 19.5t5.5 21t5 18.5l105 318h-92l-101 -320q-12 -21 -27.5 -40t-33.5 -34t-38 -24t-41 -9q-20 0 -34.5 9.5t-14.5 41.5q0 14 5.5 33t13.5 39l61 156q10 26 15.5 45.5t5.5 37.5
q0 21 -9.5 36t-24.5 24t-32.5 13.5t-33.5 4.5q-27 0 -47 -11t-36.5 -31t-30 -47.5t-26.5 -60.5l18 -7q25 64 49 99.5t59 35.5q14 0 22 -7t8 -29q0 -12 -5 -33.5t-16 -47.5l-57 -147q-8 -20 -14 -41.5t-6 -32.5q0 -22 8.5 -42.5t24 -36t37 -24.5t46.5 -9q21 0 41.5 8
t39.5 21.5t35.5 30.5t29.5 36l4 -1q0 -53 26.5 -73t68.5 -20q27 0 47.5 11t37 31t30.5 48t28 61zM553 699q0 12 -8.5 22t-25.5 10q-20 0 -37.5 -11t-36.5 -34l-24.5 -29.5l-27.5 -31.5l-34 -39l-44 -50l11 -12l62.5 39.5l46.5 29l36 22l30 18.5q22 15 37 30.5t15 35.5z" />
    <glyph glyph-name="ugrave" unicode="&#xf9;" horiz-adv-x="593" 
d="M582 140l-20 6q-25 -64 -49.5 -98t-59.5 -34q-14 0 -23.5 8.5t-9.5 33.5q0 4 1.5 13t4 19.5t5.5 21t5 18.5l105 318h-92l-101 -320q-12 -21 -27.5 -40t-33.5 -34t-38 -24t-41 -9q-20 0 -34.5 9.5t-14.5 41.5q0 14 5.5 33t13.5 39l61 156q10 26 15.5 45.5t5.5 37.5
q0 21 -9.5 36t-24.5 24t-32.5 13.5t-33.5 4.5q-27 0 -47 -11t-36.5 -31t-30 -47.5t-26.5 -60.5l18 -7q25 64 49 99.5t59 35.5q14 0 22 -7t8 -29q0 -12 -5 -33.5t-16 -47.5l-57 -147q-8 -20 -14 -41.5t-6 -32.5q0 -22 8.5 -42.5t24 -36t37 -24.5t46.5 -9q21 0 41.5 8
t39.5 21.5t35.5 30.5t29.5 36l4 -1q0 -53 26.5 -73t68.5 -20q27 0 47.5 11t37 31t30.5 48t28 61zM374 535l-22 48.5l-16.5 37l-13.5 30.5l-12 29q-11 25 -22.5 38t-31.5 13q-17 0 -27 -11t-10 -27q0 -29 30 -57q10 -9 19.5 -18.5l21.5 -21.5l28.5 -29l40.5 -42z" />
    <glyph glyph-name="ucircumflex" unicode="&#xfb;" horiz-adv-x="593" 
d="M582 140l-20 6q-25 -64 -49.5 -98t-59.5 -34q-14 0 -23.5 8.5t-9.5 33.5q0 4 1.5 13t4 19.5t5.5 21t5 18.5l105 318h-92l-101 -320q-12 -21 -27.5 -40t-33.5 -34t-38 -24t-41 -9q-20 0 -34.5 9.5t-14.5 41.5q0 14 5.5 33t13.5 39l61 156q10 26 15.5 45.5t5.5 37.5
q0 21 -9.5 36t-24.5 24t-32.5 13.5t-33.5 4.5q-27 0 -47 -11t-36.5 -31t-30 -47.5t-26.5 -60.5l18 -7q25 64 49 99.5t59 35.5q14 0 22 -7t8 -29q0 -12 -5 -33.5t-16 -47.5l-57 -147q-8 -20 -14 -41.5t-6 -32.5q0 -22 8.5 -42.5t24 -36t37 -24.5t46.5 -9q21 0 41.5 8
t39.5 21.5t35.5 30.5t29.5 36l4 -1q0 -53 26.5 -73t68.5 -20q27 0 47.5 11t37 31t30.5 48t28 61zM514 538l-42.5 103.5t-29.5 71.5q-5 13 -10.5 16.5t-24.5 3.5q-22 0 -29.5 -4t-20.5 -18l-64.5 -71l-92.5 -100l11 -10l183 135l105 -135z" />
    <glyph glyph-name="udieresis" unicode="&#xfc;" horiz-adv-x="593" 
d="M582 140l-20 6q-25 -64 -49.5 -98t-59.5 -34q-14 0 -23.5 8.5t-9.5 33.5q0 4 1.5 13t4 19.5t5.5 21t5 18.5l105 318h-92l-101 -320q-12 -21 -27.5 -40t-33.5 -34t-38 -24t-41 -9q-20 0 -34.5 9.5t-14.5 41.5q0 14 5.5 33t13.5 39l61 156q10 26 15.5 45.5t5.5 37.5
q0 21 -9.5 36t-24.5 24t-32.5 13.5t-33.5 4.5q-27 0 -47 -11t-36.5 -31t-30 -47.5t-26.5 -60.5l18 -7q25 64 49 99.5t59 35.5q14 0 22 -7t8 -29q0 -12 -5 -33.5t-16 -47.5l-57 -147q-8 -20 -14 -41.5t-6 -32.5q0 -22 8.5 -42.5t24 -36t37 -24.5t46.5 -9q21 0 41.5 8
t39.5 21.5t35.5 30.5t29.5 36l4 -1q0 -53 26.5 -73t68.5 -20q27 0 47.5 11t37 31t30.5 48t28 61zM548 654q0 18 -12.5 34.5t-33.5 16.5q-32 0 -50.5 -20t-18.5 -46q0 -20 13 -36t38 -16q31 0 47.5 20.5t16.5 46.5zM335 654q0 18 -13 34.5t-34 16.5q-32 0 -50 -20t-18 -46
q0 -20 12.5 -36t37.5 -16q31 0 48 20.5t17 46.5z" />
    <glyph glyph-name="degree" unicode="&#xb0;" horiz-adv-x="387" 
d="M389 568q0 33 -12.5 59.5t-32.5 44.5t-46 27.5t-53 9.5q-33 0 -61 -12t-48.5 -32.5t-32.5 -49t-12 -61.5q0 -32 12.5 -57.5t33 -43.5t47 -28t55.5 -10q32 0 59.5 12t47.5 32.5t31.5 48.5t11.5 60zM330 581q0 -28 -7 -52.5t-19.5 -43t-30 -29t-39.5 -10.5
q-38 0 -61.5 27.5t-23.5 71.5q0 23 6 46.5t18 43t30 31.5t42 12q38 0 61.5 -24.5t23.5 -72.5z" />
    <glyph glyph-name="registered" unicode="&#xae;" horiz-adv-x="494" 
d="M496 521q0 39 -14 72t-38.5 57.5t-57.5 38.5t-72 14t-72 -14t-57.5 -38.5t-38.5 -57.5t-14 -72t14 -72t38.5 -57.5t57.5 -38.5t72 -14t72 14t57.5 38.5t38.5 57.5t14 72zM476 521q0 -35 -12 -65t-34 -52.5t-51.5 -35.5t-64.5 -13t-64.5 13t-51.5 35.5t-34 52.5t-12 65
t12 65t34 52.5t51.5 35.5t64.5 13t64.5 -13t51.5 -35.5t34 -52.5t12 -65zM427 465h-10q0 -16 -3.5 -20.5t-9.5 -4.5q-4 0 -8 2.5t-6 10.5q-3 11 -5 22t-5 23q-5 17 -20 23.5t-26 8.5v3q8 2 18 6t19 10t15 15t6 21t-6 21t-15.5 14.5t-21.5 8t-23 2.5h-105v-10q4 0 9.5 -1
t10.5 -3q9 -3 9 -15v-147q0 -11 -9 -15q-2 -1 -9 -2t-11 -1v-11h94v11q-5 0 -11 0.5t-9 2.5q-9 4 -9 15v68h17q26 0 34 -16t10 -33q6 -51 43 -51q20 0 28.5 10t8.5 32zM351 579q0 -26 -14.5 -35t-34.5 -9h-16v85h24q17 0 29 -7.5t12 -33.5z" />
    <glyph glyph-name="copyright" unicode="&#xa9;" horiz-adv-x="950" 
d="M899 251q0 88 -34 166.5t-93 137t-138.5 92.5t-169.5 34q-91 0 -170.5 -34t-139 -92.5t-93.5 -137t-34 -166.5q0 -89 34 -168t93.5 -137.5t139 -92.5t170.5 -34q90 0 169.5 34t138.5 92.5t93 137.5t34 168zM856 251q0 -83 -30.5 -155.5t-83.5 -126.5t-124.5 -85
t-153.5 -31q-83 0 -154.5 31t-125 85t-84 126.5t-30.5 155.5q0 82 30.5 154t84 125.5t125 84.5t154.5 31q82 0 153.5 -31t124.5 -84.5t83.5 -125.5t30.5 -154zM661 153l-22 10q-11 -22 -24 -41.5t-30.5 -33.5t-40.5 -22.5t-54 -8.5q-34 0 -63.5 13.5t-51 39t-34 61.5
t-12.5 81q0 54 11.5 93.5t30.5 65t43.5 37.5t50.5 12q37 0 63 -12t44 -32t30 -46t21 -54h23l-4 181h-27l-22 -38q-18 13 -49.5 22t-59.5 9q-56 0 -102 -18.5t-80 -51t-52.5 -77t-18.5 -96.5q0 -54 17 -97.5t48.5 -73.5t75.5 -46.5t98 -16.5q39 0 69 12t53.5 32t40 45
t28.5 51z" />
    <glyph glyph-name="trademark" unicode="&#x2122;" horiz-adv-x="662" 
d="M736 433v13q-5 1 -16.5 3t-15.5 4q-10 4 -10 17v176q0 13 10 17q5 2 15.5 4t15.5 2v14h-104q-1 -7 -2.5 -16t-5.5 -17l-57 -145l-74 178h-101v-14q7 0 17 -3t18 -8q5 -5 8 -11.5t3 -18.5v-124q0 -40 -12 -49q-7 -5 -19.5 -6.5t-17.5 -2.5v-13h121v13q-2 0 -7.5 1.5
l-11.5 3t-11.5 3.5t-8.5 4q-5 5 -8.5 16.5t-3.5 32.5v132h6l61 -151q5 -15 10 -28l9 -24h10l88 208h6v-174q0 -12 -10 -18q-4 -2 -18 -3.5t-19 -2.5v-13h135zM360 609v74h-233v-74h12q1 6 5 14.5t9.5 17t11.5 15t12 7.5q7 1 15 1h14h15v-197q0 -12 -12 -16q-5 -2 -16.5 -3
t-16.5 -2v-13h135v13q-5 1 -16.5 3t-15.5 3q-11 5 -11 17v195h14h15t14 -1q6 -1 12 -7.5t11 -15t8.5 -17t5.5 -14.5h12z" />
    <glyph glyph-name="notequal" unicode="&#x2260;" horiz-adv-x="605" 
d="M834 658q0 15 -6 30.5t-19 27.5t-32 19.5t-45 7.5q-35 0 -70.5 -11.5t-70.5 -43.5q-15 -14 -26 -27q-3 13 -9 26.5t-18 23.5t-30.5 16.5t-45.5 6.5q-39 0 -77.5 -11.5t-77.5 -43.5q-52 -42 -83.5 -91.5t-49.5 -109.5l-10 -33h-106l-10 -33h106l-46.5 -187t-63.5 -229
q-34 -110 -71 -161.5t-92 -51.5q-5 0 -11.5 3.5t-8.5 14.5l15 22t6 25q0 13 -5.5 22.5t-13.5 15t-17.5 8t-17.5 2.5q-26 0 -39 -17.5t-13 -34.5q0 -15 4.5 -29.5t16 -25.5t31 -18t49.5 -7q37 0 69 12.5t71 45.5q46 38 74.5 91t46.5 111q13 41 26.5 90l27 100.5l26.5 103
l25 97.5h210l-46.5 -188.5t-63.5 -230.5q-18 -57 -34 -97.5t-33.5 -66t-37.5 -37.5t-45 -12q-5 0 -11.5 3.5t-8.5 14.5l15 22t6 25q0 13 -5.5 22.5t-13.5 15t-17.5 8t-17.5 2.5q-26 0 -38.5 -17.5t-12.5 -34.5q0 -15 4.5 -29.5t16 -25.5t30.5 -18t49 -7q32 0 59.5 12.5
t66.5 45.5q46 38 74.5 91t46.5 111q13 41 26 89.5l26.5 99.5l26.5 102l25 97h124l11 33h-126l20 70q31 108 67 158t84 50q8 0 13 -3t9 -14q-2 -16 -8.5 -29.5t-6.5 -24.5q0 -12 6 -20.5t14.5 -14t18 -7.5t17.5 -2q13 0 22.5 5.5t16 13t9.5 16.5t3 15zM522 601
q-32 -54 -49 -116l-11 -40h-211l18 63q16 56 36 95t43.5 64t48.5 36t52 11q9 0 16 -2.5t12 -13.5q-1 -16 -2.5 -26.5t-1.5 -21.5q0 -29 16 -38t33 -11z" />
    <glyph glyph-name="infinity" unicode="&#x221e;" horiz-adv-x="877" 
d="M867 656q0 15 -6 30.5t-19 28t-33.5 20.5t-48.5 8q-39 0 -77 -11.5t-77 -43.5l-21 -18t-19 -20q-1 15 -6.5 30t-17 27t-31 19.5t-49.5 7.5q-39 0 -77.5 -11.5t-77.5 -43.5q-52 -42 -83.5 -91.5t-49.5 -109.5l-10 -33h-106l-10 -33h106l-46.5 -187t-63.5 -229
q-34 -110 -71 -161.5t-92 -51.5q-5 0 -11.5 3.5t-8.5 14.5l15 22t6 25q0 13 -5.5 22.5t-13.5 15t-17.5 8t-17.5 2.5q-26 0 -39 -17.5t-13 -34.5q0 -15 4.5 -29.5t16 -25.5t31 -18t49.5 -7q37 0 69 12.5t71 45.5q46 38 74.5 91t46.5 111q13 41 26.5 90l27 100.5l26.5 103
l25 97.5h210l-46.5 -188.5t-63.5 -230.5q-17 -57 -33.5 -97t-34 -66t-37.5 -38t-45 -12q-5 0 -10.5 4t-7.5 14q9 13 15 24t6 22q0 14 -5.5 23.5t-14 15t-18 8t-17.5 2.5q-25 0 -38 -17t-13 -36q0 -15 4.5 -29t15.5 -25t30 -18t49 -7q31 0 59 12.5t67 45.5q46 38 74.5 91
t46.5 111q13 41 26 90l26.5 100.5l26.5 103l25 97.5h180q-2 -25 -8 -45.5t-17 -49.5l-63 -170q-10 -26 -15 -45.5t-5 -37.5q0 -23 10.5 -38t26 -24t34 -12.5t34.5 -3.5q26 0 46.5 11t37 31t30.5 48t28 61l-18 6q-25 -64 -50 -98t-61 -34q-14 0 -25.5 6t-11.5 30q0 11 6 31.5
t17 46.5l56 147q10 26 18.5 52t15 48.5t10.5 40.5t5 29h-272l20 70q32 112 78 160t100 48q9 0 16 -2.5t12 -13.5q-2 -16 -11.5 -31.5t-9.5 -26.5q0 -14 6 -23t15 -15t19 -8.5t18 -2.5q15 0 25 6.5t17 15.5t10 18.5t3 15.5zM528 601q-18 -26 -31.5 -55.5t-22.5 -60.5l-12 -40
h-211l18 63q16 56 36 95t43.5 64t48.5 36t52 11q9 0 16 -2.5t12 -13.5q-1 -12 -2.5 -24t-1.5 -23q0 -24 13 -36t42 -14z" />
    <glyph glyph-name="plusminus" unicode="&#xb1;" horiz-adv-x="894" 
d="M930 738l-100 -23q-12 11 -33.5 19.5t-47.5 8.5q-38 0 -74.5 -11.5t-74.5 -43.5q-10 -8 -18.5 -16.5l-16.5 -16.5q-2 14 -7 28t-17 25.5t-31 18.5t-48 7q-39 0 -77.5 -11.5t-77.5 -43.5q-52 -42 -83.5 -91.5t-49.5 -109.5l-10 -33h-106l-10 -33h106l-46.5 -187
t-63.5 -229q-34 -110 -71 -161.5t-92 -51.5q-5 0 -11.5 3.5t-8.5 14.5l15 22t6 25q0 13 -5.5 22.5t-13.5 15t-17.5 8t-17.5 2.5q-26 0 -39 -17.5t-13 -34.5q0 -15 4.5 -29.5t16 -25.5t31 -18t49.5 -7q37 0 69 12.5t71 45.5q46 38 74.5 91t46.5 111q13 41 26.5 90l27 100.5
l26.5 103l25 97.5h210l-46.5 -188.5t-63.5 -230.5q-18 -57 -34 -97.5t-33.5 -66t-37.5 -37.5t-45 -12q-5 0 -11.5 4t-6.5 14q9 13 14.5 23t5.5 23q0 14 -5.5 23.5t-13.5 15t-17.5 8t-17.5 2.5q-25 0 -38 -17t-13 -36q0 -15 4.5 -29t15.5 -25t30 -18t49 -7q32 0 59.5 12.5
t66.5 45.5q46 38 74.5 91t46.5 111q13 41 26 89.5l26.5 99.5l26.5 102l25 97h124l11 33h-126l20 70q30 106 73 157t94 51q9 0 24.5 -4.5t20.5 -15.5q0 -18 1 -28.5t4.5 -17t9 -9.5t13.5 -5l-156 -493q-8 -23 -13 -44.5t-5 -39.5q0 -23 10 -38t25.5 -23.5t33.5 -12t34 -3.5
q27 0 47.5 11t37 31t30.5 48t28 61l-18 6q-25 -64 -50.5 -98t-61.5 -34q-14 0 -25 6t-11 30q0 11 5.5 32t13.5 44zM524 601q-16 -26 -28 -55t-22 -61l-12 -40h-211l18 63q16 56 36 95t43.5 64t48.5 36t52 11q9 0 16 -2.5t12 -13.5q-1 -10 -2.5 -23.5t-1.5 -24.5
q0 -25 13.5 -36t37.5 -13z" />
    <glyph glyph-name="lessequal" unicode="&#x2264;" horiz-adv-x="699" 
d="M666 22q-27 2 -58 8q-7 1 -15 3.5t-15 8.5t-12.5 17t-6.5 29q0 7 -1.5 22t-3 33.5t-3.5 37.5t-4 34q-4 30 -15.5 52t-27 37t-35 24.5t-40.5 14.5v8q43 10 82.5 26.5t69 40.5t47 56.5t17.5 74.5q0 66 -55 100t-153 34h-281l-6 -22q6 0 15 -2t19 -4.5t19 -5.5t14 -5
q20 -10 20 -27q0 -5 -1 -10.5t-3 -12.5l-143 -514q-5 -16 -14 -29t-29 -20q-6 -2 -16 -3.5l-21 -3t-21.5 -2.5t-16.5 -1l-5 -21h305l5 21q-7 0 -17.5 2l-20.5 4t-18.5 4.5t-12.5 4.5q-11 5 -16 11t-5 17q0 6 3 20q4 16 11.5 41.5l17 58l20 70.5l21.5 79h58q31 0 54.5 -11
t39 -30t25 -43t12.5 -51q4 -29 6 -56t2 -54v-42q0 -20 -1 -46h204zM538 538q0 -85 -59 -130.5t-162 -45.5h-49l82 293h63q125 0 125 -117z" />
    <glyph glyph-name="greaterequal" unicode="&#x2265;" horiz-adv-x="417" 
d="M446 400q0 23 -16.5 42t-48.5 19q-24 0 -42 -9t-33 -23t-27.5 -32.5l-24.5 -37.5l-4 1q0 27 -7 46.5t-19 31.5t-27.5 17.5t-31.5 5.5q-27 0 -47.5 -11.5t-37 -31.5t-30.5 -48t-27 -61l20 -7q24 62 48.5 98.5t59.5 36.5q14 0 21 -7t7 -29q0 -5 -2 -15t-5 -22l-6 -24
t-6 -20l-100 -320h90l93 306l24.5 42.5t28 42t29.5 32t28 12.5q12 0 13.5 -3t1.5 -10q0 -3 -3.5 -7l-8 -9t-8 -11.5t-3.5 -15.5q0 -17 11.5 -29.5t37.5 -12.5t39 20t13 43z" />
    <glyph glyph-name="mu" unicode="&#xb5;" horiz-adv-x="612" 
d="M602 140l-20 6q-11 -27 -22 -51t-24 -42t-28.5 -28.5t-34.5 -10.5q-33 0 -33 41q0 5 1.5 14t3.5 19.5t5 20.5l5 17l98 320h-90l-95 -320q-6 -12 -19 -29.5t-31.5 -34.5t-41 -29t-47.5 -12q-26 0 -45 19t-19 62q0 10 2.5 23t5.5 23l89 298h-90l-115 -383q-8 -27 -16 -50.5
t-18 -47.5q-6 -16 -16.5 -36.5l-20.5 -41.5t-17 -39.5t-7 -30.5q0 -25 14 -34t29 -9q19 0 35 13.5t23 38.5q5 18 6 37t1 39q0 21 2 51.5t10 62.5l9 39h2q6 -17 16.5 -30t23.5 -21t28 -12t29 -4q38 0 64.5 9t46 22.5t33.5 30.5l26 32h4q0 -53 25.5 -73t67.5 -20q27 0 47.5 10
t37.5 29.5t31.5 47.5t28.5 64z" />
    <glyph glyph-name="mu" unicode="&#x3bc;" horiz-adv-x="612" 
d="M602 140l-20 6q-11 -27 -22 -51t-24 -42t-28.5 -28.5t-34.5 -10.5q-33 0 -33 41q0 5 1.5 14t3.5 19.5t5 20.5l5 17l98 320h-90l-95 -320q-6 -12 -19 -29.5t-31.5 -34.5t-41 -29t-47.5 -12q-26 0 -45 19t-19 62q0 10 2.5 23t5.5 23l89 298h-90l-115 -383q-8 -27 -16 -50.5
t-18 -47.5q-6 -16 -16.5 -36.5l-20.5 -41.5t-17 -39.5t-7 -30.5q0 -25 14 -34t29 -9q19 0 35 13.5t23 38.5q5 18 6 37t1 39q0 21 2 51.5t10 62.5l9 39h2q6 -17 16.5 -30t23.5 -21t28 -12t29 -4q38 0 64.5 9t46 22.5t33.5 30.5l26 32h4q0 -53 25.5 -73t67.5 -20q27 0 47.5 10
t37.5 29.5t31.5 47.5t28.5 64z" />
    <glyph glyph-name="partialdiff" unicode="&#x2202;" horiz-adv-x="617" 
d="M597 291q0 32 -21.5 54.5t-51.5 22.5q-22 0 -35.5 -8t-25 -19.5l-24 -23.5t-33.5 -19l-12 6q-5 20 -18 34.5t-30 23.5l-4 12q11 21 26.5 33l29 22.5t23 23.5t9.5 37q0 31 -20.5 53.5t-53.5 22.5q-31 0 -53.5 -20t-22.5 -53q0 -15 5.5 -27.5l11.5 -25t11.5 -27t5.5 -34.5
l-11 -7q-41 0 -69 -30l-15 -1q-18 19 -24 41.5t-14 39.5q-8 16 -24 29t-43 13q-32 0 -54 -23t-22 -54t22 -53.5t55 -22.5q15 0 29 3.5t35 3.5q7 0 13.5 -0.5t13.5 -2.5l5 -13q-3 -12 -3 -25q0 -21 10 -43l-3 -14q-22 -11 -41.5 -12t-32.5 -1q-35 0 -59 -21.5t-24 -53.5
q0 -33 23.5 -55t53.5 -22q37 0 55 25.5t23 57.5q2 14 6 29.5t15 31.5l13 1q26 -18 56 -18h10t10 1l7 -5v-11q0 -15 -3 -27.5t-6 -23.5l-6 -21t-3 -22q0 -32 22.5 -53.5t52.5 -21.5q16 0 30.5 6t25 16.5t16.5 24.5t6 29q0 29 -16 47t-39 29q-14 7 -27.5 15t-25.5 24l1 10
q15 11 25.5 26.5t13.5 33.5l9 8q21 -3 35 -11.5t26 -17t24.5 -15t30.5 -6.5q32 0 53.5 21t21.5 53zM370 278q0 -29 -19 -49.5t-48 -20.5t-48 20.5t-19 49.5t19 48.5t48 19.5t48 -19.5t19 -48.5z" />
    <glyph glyph-name="summation" unicode="&#x2211;" horiz-adv-x="595" 
d="M484 749h-13q-20 -9 -53.5 -19t-67.5 -10q-24 0 -43.5 4.5t-35.5 11.5l-12 -15q18 -16 38.5 -28.5t40.5 -12.5q22 0 36 3l-75 -284q-7 -25 -32 -32q-5 -2 -14.5 -2.5t-20.5 -1.5t-21 -1.5t-16 -0.5l-6 -22h266l6 22q-5 0 -14.5 1l-19 2t-18.5 2.5t-12 3.5q-16 6 -16 23
q0 2 1 7.5t2 9.5l63 237q6 23 16 51.5t21 50.5zM539 279h-479l-11 -41h479zM436 -81l-8 9q-15 -17 -38.5 -28t-43.5 -13l50 137h-72l-50 -137q-10 1 -24.5 3l-30 4t-32 3.5t-31.5 1.5q-6 0 -15.5 -2t-17.5 -3q33 22 64.5 53.5t58.5 69t48.5 80.5t35.5 89h-93
q-27 -103 -61 -178.5t-78 -110.5q-9 1 -19 1.5t-17 0.5q-15 0 -27.5 -5.5t-12.5 -18.5q0 -24 35 -24q12 0 25.5 8.5t23.5 19.5q5 1 10 1.5t19 0.5q18 0 35 -4t33 -9.5l31 -10.5t29 -7l-30 -90h70l32 92q29 5 55 24t46 43z" />
    <glyph glyph-name="product" unicode="&#x220f;" horiz-adv-x="595" 
d="M484 749h-13q-20 -9 -53.5 -19t-67.5 -10q-24 0 -43.5 4.5t-35.5 11.5l-12 -15q18 -16 38.5 -28.5t40.5 -12.5q22 0 36 3l-75 -284q-7 -25 -32 -32q-5 -2 -14.5 -2.5t-20.5 -1.5t-21 -1.5t-16 -0.5l-6 -22h266l6 22q-5 0 -14.5 1l-19 2t-18.5 2.5t-12 3.5q-16 6 -16 23
q0 2 1 7.5t2 9.5l63 237q6 23 16 51.5t21 50.5zM539 279h-479l-11 -41h479zM428 87q0 41 -37 68.5t-99 27.5q-45 0 -85 -15.5t-70 -38.5t-48 -51t-18 -53q0 -27 16.5 -39.5t39.5 -12.5q46 0 78 22.5t52 48.5l-13 12q-13 -17 -30 -31t-40 -14t-30.5 8.5t-7.5 21.5
q0 19 10.5 39.5t29.5 38t45 29t57 11.5q26 0 46 -14.5t20 -45.5q0 -19 -4 -38t-15 -39.5t-30.5 -42.5t-49.5 -47q-23 -17 -45.5 -31.5l-48 -29.5l-55.5 -31.5l-67 -37.5l-6 -29h328l69 127l-15 8q-20 -32 -40.5 -51t-46.5 -19h-183l59 33q67 28 112 54t72 52.5t38.5 53.5
t11.5 56z" />
    <glyph glyph-name="pi" unicode="&#x3c0;" horiz-adv-x="950" 
d="M899 251q0 88 -34 166.5t-93 137t-138.5 92.5t-169.5 34q-91 0 -170.5 -34t-139 -92.5t-93.5 -137t-34 -166.5q0 -89 34 -168t93.5 -137.5t139 -92.5t170.5 -34q90 0 169.5 34t138.5 92.5t93 137.5t34 168zM856 251q0 -83 -30.5 -155.5t-83.5 -126.5t-124.5 -85
t-153.5 -31q-83 0 -154.5 31t-125 85t-84 126.5t-30.5 155.5q0 82 30.5 154t84 125.5t125 84.5t154.5 31q82 0 153.5 -31t124.5 -84.5t83.5 -125.5t30.5 -154zM689 365q0 26 -12 47t-32.5 35.5t-48 22.5t-59.5 8h-258v-21q12 -1 30.5 -4.5t32.5 -7.5t18.5 -13t4.5 -18v-328
q0 -9 -4.5 -17t-18.5 -13q-4 -1 -11.5 -2.5t-16.5 -3l-17.5 -3t-14.5 -1.5v-21h266v21q-8 0 -19 1.5l-22 3t-20 3t-12 2.5q-12 4 -16.5 12.5t-4.5 17.5v133h53q34 0 67 9.5t58.5 28.5t41 46t15.5 62zM588 348q0 -11 -3.5 -28.5t-14.5 -34t-31.5 -28.5t-54.5 -12h-30v209h43
q27 0 44.5 -9.5t28 -25t14.5 -34.5t4 -37z" />
    <glyph glyph-name="integral" unicode="&#x222b;" horiz-adv-x="617" 
d="M597 291q0 32 -21.5 54.5t-51.5 22.5q-22 0 -35.5 -8t-25 -19.5l-24 -23.5t-33.5 -19l-12 6q-5 20 -18 34.5t-30 23.5l-4 12q11 21 26.5 33l29 22.5t23 23.5t9.5 37q0 31 -20.5 53.5t-53.5 22.5q-31 0 -53.5 -20t-22.5 -53q0 -15 5.5 -27.5l11.5 -25t11.5 -27t5.5 -34.5
l-11 -7q-41 0 -69 -30l-15 -1q-18 19 -24 41.5t-14 39.5q-8 16 -24 29t-43 13q-32 0 -54 -23t-22 -54t22 -53.5t55 -22.5q15 0 29 3.5t35 3.5q7 0 13.5 -0.5t13.5 -2.5l5 -13q-3 -12 -3 -25q0 -21 10 -43l-3 -14q-22 -11 -41.5 -12t-32.5 -1q-35 0 -59 -21.5t-24 -53.5
q0 -33 23.5 -55t53.5 -22q37 0 55 25.5t23 57.5q2 14 6 29.5t15 31.5l13 1q26 -18 56 -18h10t10 1l7 -5v-11q0 -15 -3 -27.5t-6 -23.5l-6 -21t-3 -22q0 -32 22.5 -53.5t52.5 -21.5q16 0 30.5 6t25 16.5t16.5 24.5t6 29q0 29 -16 47t-39 29q-14 7 -27.5 15t-25.5 24l1 10
q15 11 25.5 26.5t13.5 33.5l9 8q21 -3 35 -11.5t26 -17t24.5 -15t30.5 -6.5q32 0 53.5 21t21.5 53zM370 278q0 -29 -19 -49.5t-48 -20.5t-48 20.5t-19 49.5t19 48.5t48 19.5t48 -19.5t19 -48.5z" />
    <glyph glyph-name="Omega" unicode="&#x2126;" horiz-adv-x="580" 
d="M543 237v46h-470v-46h470z" />
    <glyph glyph-name="logicalnot" unicode="&#xac;" horiz-adv-x="580" 
d="M532 39v264h-467v-46h416v-218h51z" />
    <glyph glyph-name="radical" unicode="&#x221a;" horiz-adv-x="595" 
d="M559 669q0 12 -4.5 26t-17.5 25t-35 18.5t-56 7.5q-40 0 -78 -10.5t-67.5 -27.5t-47.5 -40t-18 -48q0 -17 13.5 -30t47.5 -13q21 0 48 15t45 32l-10 12q-10 -8 -22 -15t-30 -7q-14 0 -19 7.5t-5 15.5q0 21 12.5 37t30.5 27t38 16.5t35 5.5q29 0 44.5 -12.5t15.5 -32.5
q0 -27 -12.5 -47.5t-35 -38t-54.5 -34l-71 -35.5l14 -26q23 19 43 32t44 13q20 0 32 -11t12 -30q0 -31 -15 -57.5t-38 -46t-52 -31t-57 -11.5q-37 0 -51.5 12t-14.5 26q0 13 6 17.5t13 7.5t13 9.5t6 24.5q0 14 -9.5 22t-26.5 8q-26 0 -45.5 -21t-19.5 -51q0 -19 10 -34
t27 -25t39 -15t46 -5q51 0 97 11.5t81.5 32.5t56 49.5t20.5 63.5q0 22 -9 36t-24 22t-35 11.5t-42 3.5l11 10q36 6 59 17t37 25t19.5 28.5t5.5 27.5zM539 279h-479l-11 -41h479zM434 -81l-8 9q-15 -17 -38.5 -28t-43.5 -13l50 137h-72l-50 -137q-10 1 -24.5 3l-30 4t-32 3.5
t-31.5 1.5q-6 0 -15.5 -2t-17.5 -3q33 22 64.5 53.5t58.5 69t48.5 80.5t35.5 89h-93q-27 -103 -61 -178.5t-78 -110.5q-9 1 -19 1.5t-17 0.5q-15 0 -27.5 -5.5t-12.5 -18.5q0 -24 35 -24q12 0 25.5 8.5t23.5 19.5q5 1 10 1.5t19 0.5q18 0 35 -4t33 -9.5l31 -10.5t29 -7
l-30 -90h70l32 92q29 5 55 24t46 43z" />
    <glyph glyph-name="approxequal" unicode="&#x2248;" horiz-adv-x="580" 
d="M540 64l-199 199l199 198l-33 33l-198 -199l-199 199l-34 -34l199 -199l-199 -198l33 -33l198 199l199 -199z" />
    <glyph glyph-name="Delta" unicode="&#x2206;" horiz-adv-x="555" 
d="M569 656q0 15 -6 30.5t-19 28t-33.5 20.5t-48.5 8q-39 0 -77.5 -11.5t-77.5 -43.5q-52 -42 -82.5 -92.5t-48.5 -110.5l-12 -40h-106l-10 -33h106l-46.5 -187t-63.5 -229q-34 -110 -71 -161.5t-92 -51.5q-5 0 -10.5 4t-7.5 14q9 13 15 24t6 22q0 14 -5.5 23.5t-14 15
t-18 8t-17.5 2.5q-25 0 -38.5 -17t-13.5 -36q0 -15 4.5 -29t16 -25t30.5 -18t49 -7q37 0 69 12.5t71 45.5q46 38 74.5 91t46.5 111q13 41 26 90l26.5 100.5l26.5 103l25 97.5h192q0 -11 -2 -32.5t-5 -34.5l-21 -87.5l-18.5 -77.5t-21.5 -83.5t-30 -104.5q-18 -57 -34 -97.5
t-33 -66t-37 -37t-45 -11.5q-5 0 -11.5 3.5t-8.5 14.5l15 22t6 25q0 13 -5.5 22.5t-13.5 15t-17 8t-17 2.5q-26 0 -38.5 -17.5t-12.5 -34.5q0 -15 4.5 -29.5t15.5 -25.5t30 -18t49 -7q16 0 29.5 3t27.5 9.5t29 17.5t35 28q46 38 76 91t48 111q13 41 21.5 72l16.5 61.5
l16.5 64.5l20.5 81q6 21 11 44l9 43l7 35t3 21h-282l20 69q32 112 78 160t100 48q9 0 16 -2.5t12 -13.5q-2 -16 -11.5 -31.5t-9.5 -26.5q0 -14 6 -23t15 -15t19 -8.5t18 -2.5q15 0 25 6.5t17 15.5t10 18.5t3 15.5z" />
    <glyph glyph-name="nonbreakingspace" unicode="&#xa0;" horiz-adv-x="114" 
 />
    <glyph glyph-name="Agrave" unicode="&#xc0;" horiz-adv-x="635" 
d="M606 21q-14 1 -32 4t-29 9q-15 8 -19 21t-4 34v605h-28l-113.5 -147l-115 -148.5l-113.5 -144.5l-108 -135q-22 -26 -43.5 -46.5t-44.5 -31.5q-17 -8 -38 -13.5t-32 -6.5l-6 -21h275l6 21q-12 1 -28.5 4t-32.5 9t-27 14.5t-11 19.5q0 8 11 24.5l25 36.5l20 28l25.5 36
l28 39l27.5 38h226v-184q0 -15 -6 -29.5t-26 -22.5q-13 -5 -34.5 -8t-44.5 -5l-6 -21h292zM425 300h-200l200 256v-256zM542 737l-22 48.5l-16.5 37l-13.5 30.5l-12 29q-11 25 -22.5 38t-31.5 13q-17 0 -27 -11t-10 -27q0 -29 30 -57q10 -9 19.5 -18.5l21.5 -21.5l28.5 -29
l40.5 -42z" />
    <glyph glyph-name="Atilde" unicode="&#xc3;" horiz-adv-x="635" 
d="M606 21q-14 1 -32 4t-29 9q-15 8 -19 21t-4 34v605h-28l-113.5 -147l-115 -148.5l-113.5 -144.5l-108 -135q-22 -26 -43.5 -46.5t-44.5 -31.5q-17 -8 -38 -13.5t-32 -6.5l-6 -21h275l6 21q-12 1 -28.5 4t-32.5 9t-27 14.5t-11 19.5q0 8 11 24.5l25 36.5l20 28l25.5 36
l28 39l27.5 38h226v-184q0 -15 -6 -29.5t-26 -22.5q-13 -5 -34.5 -8t-44.5 -5l-6 -21h292zM425 300h-200l200 256v-256zM727 878l-18 9q-21 -32 -42.5 -52.5t-55.5 -20.5q-18 0 -32.5 9t-29.5 20t-32.5 20t-40.5 9t-44 -13t-39 -32t-33 -41t-24 -39l18 -9q21 32 42.5 52.5
t55.5 20.5q18 0 32.5 -9t29.5 -20t32.5 -20t40.5 -9q22 0 43.5 13t39.5 32t33 41t24 39z" />
    <glyph glyph-name="Otilde" unicode="&#xd5;" horiz-adv-x="720" 
d="M711 430q0 63 -23 113t-56 84q-37 38 -82 54.5t-101 16.5q-69 0 -133.5 -26.5t-119.5 -77.5q-72 -68 -108 -157t-36 -180q0 -66 24 -117.5t61 -87.5q35 -35 77.5 -51.5t96.5 -16.5q73 0 135 25t116 71q39 33 67 74t46 86.5t27 93.5t9 96zM604 451q0 -45 -7 -91t-19.5 -89
t-31 -82.5t-40.5 -70.5q-35 -49 -81 -76.5t-103 -27.5q-43 0 -74 16.5t-50.5 45t-29 68t-9.5 86.5q0 89 24 171t63 145q34 54 84.5 88t111.5 34q45 0 76 -17t50 -46.5t27.5 -69t8.5 -84.5zM689 896l-18 9q-21 -32 -42.5 -52.5t-55.5 -20.5q-18 0 -32.5 9t-29.5 20t-32.5 20
t-40.5 9t-44 -13t-39 -32t-33 -41t-24 -39l18 -9q21 32 42.5 52.5t55.5 20.5q18 0 32.5 -9t29.5 -20t32.5 -20t40.5 -9q22 0 43.5 13t39.5 32t33 41t24 39z" />
    <glyph glyph-name="divide" unicode="&#xf7;" horiz-adv-x="580" 
d="M372 444q0 26 -19 44.5t-45 18.5t-45 -18.5t-19 -44.5t19 -45t45 -19t45 19t19 45zM549 237v46h-482v-46h482zM372 75q0 26 -19 45t-45 19t-45 -19t-19 -45t19 -44.5t45 -18.5t45 18.5t19 44.5z" />
    <glyph glyph-name="lozenge" unicode="&#x25ca;" horiz-adv-x="388" 
d="M381 569q0 26 -21.5 38.5t-48.5 12.5q-54 0 -95 -25t-68.5 -60t-42 -74t-14.5 -67q0 -34 11.5 -56.5t29 -35.5t39 -18.5t42.5 -5.5q38 0 79 26t73 89l-20 11q-22 -42 -52 -69.5t-69 -27.5q-56 0 -56 69q0 14 1 28.5t6 30.5q29 4 65 14.5t67.5 27t52.5 39.5t21 53z
M322 565q0 -12 -7.5 -28t-24.5 -31.5t-44 -28.5t-66 -19q8 26 20.5 51t27 44.5t30.5 31t31 11.5q18 0 25.5 -7.5t7.5 -23.5z" />
    <glyph glyph-name="ydieresis" unicode="&#xff;" horiz-adv-x="538" 
d="M540 446h-89l-103 -332q-12 -17 -27.5 -34t-33.5 -30t-38 -21t-41 -8q-20 0 -35 9t-15 41q0 14 5.5 33.5t13.5 39.5l62 154q10 26 16 46.5t6 38.5q0 21 -9.5 36t-24 24t-32 13.5t-33.5 4.5q-27 0 -47.5 -11.5t-37 -31.5t-30 -48t-26.5 -61l18 -7q25 64 49.5 99.5
t59.5 35.5q14 0 21.5 -6t7.5 -28q0 -12 -5.5 -34.5t-16.5 -48.5l-57 -145q-8 -20 -14 -42t-6 -33q0 -22 8.5 -42.5t24 -36t37 -24.5t46.5 -9q43 0 79.5 26t62.5 60l4 -1q-25 -77 -55 -132.5t-63.5 -91t-68.5 -52.5t-71 -17h-22q-12 0 -24 3t-21 10.5t-10 21.5q1 8 5.5 11
t10.5 4t13 1.5t14 4.5q9 5 14.5 14.5t5.5 31.5q0 11 -11.5 26.5t-34.5 15.5q-12 0 -23.5 -3.5t-21 -11.5t-15.5 -21t-6 -33q0 -11 4.5 -27t18 -31t39.5 -25.5t70 -10.5q52 0 102.5 19.5t95 61t82.5 107t67 157.5zM551 654q0 18 -12.5 34.5t-33.5 16.5q-32 0 -50.5 -20
t-18.5 -46q0 -20 13 -36t38 -16q31 0 47.5 20.5t16.5 46.5zM338 654q0 18 -13 34.5t-34 16.5q-32 0 -50 -20t-18 -46q0 -20 12.5 -36t37.5 -16q31 0 48 20.5t17 46.5z" />
    <glyph glyph-name="Ydieresis" unicode="&#x178;" horiz-adv-x="628" 
d="M735 638q0 18 -15.5 38t-51.5 20q-34 0 -70.5 -17.5t-73.5 -53.5t-71.5 -91.5t-64.5 -131.5h-9q5 30 7 50t2 46q0 36 -11 71.5t-32 63t-51 45t-68 17.5q-122 0 -174 -154l22 -7q17 53 43 76.5t61 23.5q36 0 59.5 -15t37.5 -39t19.5 -55t5.5 -64q0 -25 -1 -64t-9 -72
l-60 -245q-3 -13 -12 -27.5t-29 -21.5q-6 -2 -15.5 -3.5t-20 -3t-20.5 -2.5t-16 -1l-5 -21h313l5 21q-7 0 -19 1.5t-24.5 3.5t-22.5 4.5t-14 4.5q-22 10 -23 29q0 8 3 20l57 229q8 32 20 62.5t25.5 57.5t27 49t24.5 38q19 27 39.5 50.5t40.5 41.5t38.5 30t33.5 16l4 -5
l-9.5 -15t-4.5 -20q0 -6 2.5 -13.5t8.5 -15t15.5 -12.5t24.5 -5q26 0 42 15.5t16 50.5zM621 825q0 18 -12.5 34.5t-33.5 16.5q-32 0 -50.5 -20t-18.5 -46q0 -20 13 -36t38 -16q31 0 47.5 20.5t16.5 46.5zM408 825q0 18 -13 34.5t-34 16.5q-32 0 -50 -20t-18 -46
q0 -20 12.5 -36t37.5 -16q31 0 48 20.5t17 46.5z" />
    <glyph glyph-name="Acircumflex" unicode="&#xc2;" horiz-adv-x="635" 
d="M606 21q-14 1 -32 4t-29 9q-15 8 -19 21t-4 34v605h-28l-113.5 -147l-115 -148.5l-113.5 -144.5l-108 -135q-22 -26 -43.5 -46.5t-44.5 -31.5q-17 -8 -38 -13.5t-32 -6.5l-6 -21h275l6 21q-12 1 -28.5 4t-32.5 9t-27 14.5t-11 19.5q0 8 11 24.5l25 36.5l20 28l25.5 36
l28 39l27.5 38h226v-184q0 -15 -6 -29.5t-26 -22.5q-13 -5 -34.5 -8t-44.5 -5l-6 -21h292zM425 300h-200l200 256v-256zM652 707l-42.5 103.5t-29.5 71.5q-5 13 -10.5 16.5t-24.5 3.5q-22 0 -29.5 -4t-20.5 -18l-64.5 -71l-92.5 -100l11 -10l183 135l105 -135z" />
    <glyph glyph-name="Ecircumflex" unicode="&#xca;" horiz-adv-x="637" 
d="M674 683h-525l-7 -22q7 0 17 -2t21 -4.5l21 -5t16 -5.5q11 -5 15.5 -11t4.5 -16q0 -5 -1 -11t-3 -13l-141 -510q-5 -17 -14.5 -30t-28.5 -20q-6 -2 -18 -4.5t-25 -4t-24.5 -2.5t-16.5 -1l-7 -21h574l65 192h-25q-6 -11 -18.5 -29.5t-29 -39t-34.5 -40t-35 -32.5
q-22 -17 -67.5 -20t-96.5 -3q-55 0 -78 7.5t-23 35.5q0 8 2.5 20.5t7.5 27.5l62 221h78q21 0 34 -3t21 -7.5t13 -10t8 -10.5q4 -6 6 -20.5t2 -31.5q0 -12 -0.5 -24t-2.5 -21h24l78 278h-26l-10.5 -22.5t-14 -27t-15.5 -24.5t-15 -17q-11 -10 -33 -21t-62 -11h-78l81 289h108
q24 0 43 -1t35 -3q33 -5 51.5 -39.5t18.5 -77.5v-8h25zM600 729l-42.5 103.5t-29.5 71.5q-5 13 -10.5 16.5t-24.5 3.5q-22 0 -29.5 -4t-20.5 -18l-64.5 -71l-92.5 -100l11 -10l183 135l105 -135z" />
    <glyph glyph-name="Aacute" unicode="&#xc1;" horiz-adv-x="635" 
d="M606 21q-14 1 -32 4t-29 9q-15 8 -19 21t-4 34v605h-28l-113.5 -147l-115 -148.5l-113.5 -144.5l-108 -135q-22 -26 -43.5 -46.5t-44.5 -31.5q-17 -8 -38 -13.5t-32 -6.5l-6 -21h275l6 21q-12 1 -28.5 4t-32.5 9t-27 14.5t-11 19.5q0 8 11 24.5l25 36.5l20 28l25.5 36
l28 39l27.5 38h226v-184q0 -15 -6 -29.5t-26 -22.5q-13 -5 -34.5 -8t-44.5 -5l-6 -21h292zM425 300h-200l200 256v-256zM680 890q0 12 -8.5 22t-25.5 10q-20 0 -37.5 -11t-36.5 -34l-24.5 -29.5l-27.5 -31.5l-34 -39l-44 -50l11 -12l62.5 39.5l46.5 29l36 22l30 18.5
q22 15 37 30.5t15 35.5z" />
    <glyph glyph-name="Edieresis" unicode="&#xcb;" horiz-adv-x="637" 
d="M674 683h-525l-7 -22q7 0 17 -2t21 -4.5l21 -5t16 -5.5q11 -5 15.5 -11t4.5 -16q0 -5 -1 -11t-3 -13l-141 -510q-5 -17 -14.5 -30t-28.5 -20q-6 -2 -18 -4.5t-25 -4t-24.5 -2.5t-16.5 -1l-7 -21h574l65 192h-25q-6 -11 -18.5 -29.5t-29 -39t-34.5 -40t-35 -32.5
q-22 -17 -67.5 -20t-96.5 -3q-55 0 -78 7.5t-23 35.5q0 8 2.5 20.5t7.5 27.5l62 221h78q21 0 34 -3t21 -7.5t13 -10t8 -10.5q4 -6 6 -20.5t2 -31.5q0 -12 -0.5 -24t-2.5 -21h24l78 278h-26l-10.5 -22.5t-14 -27t-15.5 -24.5t-15 -17q-11 -10 -33 -21t-62 -11h-78l81 289h108
q24 0 43 -1t35 -3q33 -5 51.5 -39.5t18.5 -77.5v-8h25zM621 835q0 18 -12.5 34.5t-33.5 16.5q-32 0 -50.5 -20t-18.5 -46q0 -20 13 -36t38 -16q31 0 47.5 20.5t16.5 46.5zM408 835q0 18 -13 34.5t-34 16.5q-32 0 -50 -20t-18 -46q0 -20 12.5 -36t37.5 -16q31 0 48 20.5
t17 46.5z" />
    <glyph glyph-name="Egrave" unicode="&#xc8;" horiz-adv-x="637" 
d="M674 683h-525l-7 -22q7 0 17 -2t21 -4.5l21 -5t16 -5.5q11 -5 15.5 -11t4.5 -16q0 -5 -1 -11t-3 -13l-141 -510q-5 -17 -14.5 -30t-28.5 -20q-6 -2 -18 -4.5t-25 -4t-24.5 -2.5t-16.5 -1l-7 -21h574l65 192h-25q-6 -11 -18.5 -29.5t-29 -39t-34.5 -40t-35 -32.5
q-22 -17 -67.5 -20t-96.5 -3q-55 0 -78 7.5t-23 35.5q0 8 2.5 20.5t7.5 27.5l62 221h78q21 0 34 -3t21 -7.5t13 -10t8 -10.5q4 -6 6 -20.5t2 -31.5q0 -12 -0.5 -24t-2.5 -21h24l78 278h-26l-10.5 -22.5t-14 -27t-15.5 -24.5t-15 -17q-11 -10 -33 -21t-62 -11h-78l81 289h108
q24 0 43 -1t35 -3q33 -5 51.5 -39.5t18.5 -77.5v-8h25zM464 726l-22 48.5l-16.5 37l-13.5 30.5l-12 29q-11 25 -22.5 38t-31.5 13q-17 0 -27 -11t-10 -27q0 -29 30 -57q10 -9 19.5 -18.5l21.5 -21.5l28.5 -29l40.5 -42z" />
    <glyph glyph-name="Iacute" unicode="&#xcd;" horiz-adv-x="388" 
d="M465 683h-306l-6 -22q6 0 15 -2t19 -4.5t19 -5.5t14 -5q20 -10 20 -27q0 -5 -1 -10.5t-3 -12.5l-143 -514q-5 -16 -14 -29t-29 -20q-6 -2 -16 -3.5l-21 -3t-21.5 -2.5t-16.5 -1l-5 -21h305l5 21q-7 0 -17.5 2l-20.5 4t-18.5 4.5t-12.5 4.5q-11 5 -16 11t-5 17q0 6 3 20
l144 515q5 16 14.5 30t29.5 20q7 2 17.5 4t21.5 3.5l21.5 3t17.5 1.5zM513 890q0 12 -8.5 22t-25.5 10q-20 0 -37.5 -11t-36.5 -34l-24.5 -29.5l-27.5 -31.5l-34 -39l-44 -50l11 -12l62.5 39.5l46.5 29l36 22l30 18.5q22 15 37 30.5t15 35.5z" />
    <glyph glyph-name="Icircumflex" unicode="&#xce;" horiz-adv-x="388" 
d="M465 683h-306l-6 -22q6 0 15 -2t19 -4.5t19 -5.5t14 -5q20 -10 20 -27q0 -5 -1 -10.5t-3 -12.5l-143 -514q-5 -16 -14 -29t-29 -20q-6 -2 -16 -3.5l-21 -3t-21.5 -2.5t-16.5 -1l-5 -21h305l5 21q-7 0 -17.5 2l-20.5 4t-18.5 4.5t-12.5 4.5q-11 5 -16 11t-5 17q0 6 3 20
l144 515q5 16 14.5 30t29.5 20q7 2 17.5 4t21.5 3.5l21.5 3t17.5 1.5zM474 729l-42.5 103.5t-29.5 71.5q-5 13 -10.5 16.5t-24.5 3.5q-22 0 -29.5 -4t-20.5 -18l-64.5 -71l-92.5 -100l11 -10l183 135l105 -135z" />
    <glyph glyph-name="Idieresis" unicode="&#xcf;" horiz-adv-x="388" 
d="M465 683h-306l-6 -22q6 0 15 -2t19 -4.5t19 -5.5t14 -5q20 -10 20 -27q0 -5 -1 -10.5t-3 -12.5l-143 -514q-5 -16 -14 -29t-29 -20q-6 -2 -16 -3.5l-21 -3t-21.5 -2.5t-16.5 -1l-5 -21h305l5 21q-7 0 -17.5 2l-20.5 4t-18.5 4.5t-12.5 4.5q-11 5 -16 11t-5 17q0 6 3 20
l144 515q5 16 14.5 30t29.5 20q7 2 17.5 4t21.5 3.5l21.5 3t17.5 1.5zM501 835q0 18 -12.5 34.5t-33.5 16.5q-32 0 -50.5 -20t-18.5 -46q0 -20 13 -36t38 -16q31 0 47.5 20.5t16.5 46.5zM288 835q0 18 -13 34.5t-34 16.5q-32 0 -50 -20t-18 -46q0 -20 12.5 -36t37.5 -16
q31 0 48 20.5t17 46.5z" />
    <glyph glyph-name="Igrave" unicode="&#xcc;" horiz-adv-x="388" 
d="M465 683h-306l-6 -22q6 0 15 -2t19 -4.5t19 -5.5t14 -5q20 -10 20 -27q0 -5 -1 -10.5t-3 -12.5l-143 -514q-5 -16 -14 -29t-29 -20q-6 -2 -16 -3.5l-21 -3t-21.5 -2.5t-16.5 -1l-5 -21h305l5 21q-7 0 -17.5 2l-20.5 4t-18.5 4.5t-12.5 4.5q-11 5 -16 11t-5 17q0 6 3 20
l144 515q5 16 14.5 30t29.5 20q7 2 17.5 4t21.5 3.5l21.5 3t17.5 1.5zM349 726l-22 48.5l-16.5 37l-13.5 30.5l-12 29q-11 25 -22.5 38t-31.5 13q-17 0 -27 -11t-10 -27q0 -29 30 -57q10 -9 19.5 -18.5l21.5 -21.5l28.5 -29l40.5 -42z" />
    <glyph glyph-name="Oacute" unicode="&#xd3;" horiz-adv-x="720" 
d="M711 430q0 63 -23 113t-56 84q-37 38 -82 54.5t-101 16.5q-69 0 -133.5 -26.5t-119.5 -77.5q-72 -68 -108 -157t-36 -180q0 -66 24 -117.5t61 -87.5q35 -35 77.5 -51.5t96.5 -16.5q73 0 135 25t116 71q39 33 67 74t46 86.5t27 93.5t9 96zM604 451q0 -45 -7 -91t-19.5 -89
t-31 -82.5t-40.5 -70.5q-35 -49 -81 -76.5t-103 -27.5q-43 0 -74 16.5t-50.5 45t-29 68t-9.5 86.5q0 89 24 171t63 145q34 54 84.5 88t111.5 34q45 0 76 -17t50 -46.5t27.5 -69t8.5 -84.5zM635 890q0 12 -8.5 22t-25.5 10q-20 0 -37.5 -11t-36.5 -34l-24.5 -29.5
l-27.5 -31.5l-34 -39l-44 -50l11 -12l62.5 39.5l46.5 29l36 22l30 18.5q22 15 37 30.5t15 35.5z" />
    <glyph glyph-name="Ocircumflex" unicode="&#xd4;" horiz-adv-x="720" 
d="M711 430q0 63 -23 113t-56 84q-37 38 -82 54.5t-101 16.5q-69 0 -133.5 -26.5t-119.5 -77.5q-72 -68 -108 -157t-36 -180q0 -66 24 -117.5t61 -87.5q35 -35 77.5 -51.5t96.5 -16.5q73 0 135 25t116 71q39 33 67 74t46 86.5t27 93.5t9 96zM604 451q0 -45 -7 -91t-19.5 -89
t-31 -82.5t-40.5 -70.5q-35 -49 -81 -76.5t-103 -27.5q-43 0 -74 16.5t-50.5 45t-29 68t-9.5 86.5q0 89 24 171t63 145q34 54 84.5 88t111.5 34q45 0 76 -17t50 -46.5t27.5 -69t8.5 -84.5zM613 729l-42.5 103.5t-29.5 71.5q-5 13 -10.5 16.5t-24.5 3.5q-22 0 -29.5 -4
t-20.5 -18l-64.5 -71l-92.5 -100l11 -10l183 135l105 -135z" />
    <glyph glyph-name="apple" unicode="&#xf8ff;" horiz-adv-x="617" 
d="M597 291q0 32 -21.5 54.5t-51.5 22.5q-22 0 -35.5 -8t-25 -19.5l-24 -23.5t-33.5 -19l-12 6q-5 20 -18 34.5t-30 23.5l-4 12q11 21 26.5 33l29 22.5t23 23.5t9.5 37q0 31 -20.5 53.5t-53.5 22.5q-31 0 -53.5 -20t-22.5 -53q0 -15 5.5 -27.5l11.5 -25t11.5 -27t5.5 -34.5
l-11 -7q-41 0 -69 -30l-15 -1q-18 19 -24 41.5t-14 39.5q-8 16 -24 29t-43 13q-32 0 -54 -23t-22 -54t22 -53.5t55 -22.5q15 0 29 3.5t35 3.5q7 0 13.5 -0.5t13.5 -2.5l5 -13q-3 -12 -3 -25q0 -21 10 -43l-3 -14q-22 -11 -41.5 -12t-32.5 -1q-35 0 -59 -21.5t-24 -53.5
q0 -33 23.5 -55t53.5 -22q37 0 55 25.5t23 57.5q2 14 6 29.5t15 31.5l13 1q26 -18 56 -18h10t10 1l7 -5v-11q0 -15 -3 -27.5t-6 -23.5l-6 -21t-3 -22q0 -32 22.5 -53.5t52.5 -21.5q16 0 30.5 6t25 16.5t16.5 24.5t6 29q0 29 -16 47t-39 29q-14 7 -27.5 15t-25.5 24l1 10
q15 11 25.5 26.5t13.5 33.5l9 8q21 -3 35 -11.5t26 -17t24.5 -15t30.5 -6.5q32 0 53.5 21t21.5 53zM370 278q0 -29 -19 -49.5t-48 -20.5t-48 20.5t-19 49.5t19 48.5t48 19.5t48 -19.5t19 -48.5z" />
    <glyph glyph-name="Ograve" unicode="&#xd2;" horiz-adv-x="720" 
d="M711 430q0 63 -23 113t-56 84q-37 38 -82 54.5t-101 16.5q-69 0 -133.5 -26.5t-119.5 -77.5q-72 -68 -108 -157t-36 -180q0 -66 24 -117.5t61 -87.5q35 -35 77.5 -51.5t96.5 -16.5q73 0 135 25t116 71q39 33 67 74t46 86.5t27 93.5t9 96zM604 451q0 -45 -7 -91t-19.5 -89
t-31 -82.5t-40.5 -70.5q-35 -49 -81 -76.5t-103 -27.5q-43 0 -74 16.5t-50.5 45t-29 68t-9.5 86.5q0 89 24 171t63 145q34 54 84.5 88t111.5 34q45 0 76 -17t50 -46.5t27.5 -69t8.5 -84.5zM492 726l-22 48.5l-16.5 37l-13.5 30.5l-12 29q-11 25 -22.5 38t-31.5 13
q-17 0 -27 -11t-10 -27q0 -29 30 -57q10 -9 19.5 -18.5l21.5 -21.5l28.5 -29l40.5 -42z" />
    <glyph glyph-name="Uacute" unicode="&#xda;" horiz-adv-x="791" 
d="M884 683h-297l-6 -21q9 0 22 -3t27 -7.5t26.5 -9.5t18.5 -10q14 -11 14 -42q0 -17 -4 -40.5t-12 -51.5l-75 -263q-29 -99 -87 -153.5t-154 -54.5q-79 0 -111 30.5t-32 82.5q0 25 5 55t14 62l95 342q5 16 14.5 30t29.5 20q7 2 17.5 4t21.5 3.5l21.5 3t17.5 1.5l6 22h-306
l-6 -22q6 0 15 -2t19 -4.5t19 -5.5t14 -5q20 -10 20 -27q0 -5 -1 -10.5t-3 -12.5l-99 -357q-8 -26 -11 -50t-3 -45q0 -75 51 -116.5t159 -41.5q127 0 200 64.5t108 182.5l78 273q14 47 28.5 83t40.5 50q8 4 22 8.5t29 8t28 6t20 2.5zM715 890q0 12 -8.5 22t-25.5 10
q-20 0 -37.5 -11t-36.5 -34l-24.5 -29.5l-27.5 -31.5l-34 -39l-44 -50l11 -12l62.5 39.5l46.5 29l36 22l30 18.5q22 15 37 30.5t15 35.5z" />
    <glyph glyph-name="Ucircumflex" unicode="&#xdb;" horiz-adv-x="791" 
d="M884 683h-297l-6 -21q9 0 22 -3t27 -7.5t26.5 -9.5t18.5 -10q14 -11 14 -42q0 -17 -4 -40.5t-12 -51.5l-75 -263q-29 -99 -87 -153.5t-154 -54.5q-79 0 -111 30.5t-32 82.5q0 25 5 55t14 62l95 342q5 16 14.5 30t29.5 20q7 2 17.5 4t21.5 3.5l21.5 3t17.5 1.5l6 22h-306
l-6 -22q6 0 15 -2t19 -4.5t19 -5.5t14 -5q20 -10 20 -27q0 -5 -1 -10.5t-3 -12.5l-99 -357q-8 -26 -11 -50t-3 -45q0 -75 51 -116.5t159 -41.5q127 0 200 64.5t108 182.5l78 273q14 47 28.5 83t40.5 50q8 4 22 8.5t29 8t28 6t20 2.5zM686 729l-42.5 103.5t-29.5 71.5
q-5 13 -10.5 16.5t-24.5 3.5q-22 0 -29.5 -4t-20.5 -18l-64.5 -71l-92.5 -100l11 -10l183 135l105 -135z" />
    <glyph glyph-name="Ugrave" unicode="&#xd9;" horiz-adv-x="791" 
d="M884 683h-297l-6 -21q9 0 22 -3t27 -7.5t26.5 -9.5t18.5 -10q14 -11 14 -42q0 -17 -4 -40.5t-12 -51.5l-75 -263q-29 -99 -87 -153.5t-154 -54.5q-79 0 -111 30.5t-32 82.5q0 25 5 55t14 62l95 342q5 16 14.5 30t29.5 20q7 2 17.5 4t21.5 3.5l21.5 3t17.5 1.5l6 22h-306
l-6 -22q6 0 15 -2t19 -4.5t19 -5.5t14 -5q20 -10 20 -27q0 -5 -1 -10.5t-3 -12.5l-99 -357q-8 -26 -11 -50t-3 -45q0 -75 51 -116.5t159 -41.5q127 0 200 64.5t108 182.5l78 273q14 47 28.5 83t40.5 50q8 4 22 8.5t29 8t28 6t20 2.5zM543 726l-22 48.5l-16.5 37l-13.5 30.5
l-12 29q-11 25 -22.5 38t-31.5 13q-17 0 -27 -11t-10 -27q0 -29 30 -57q10 -9 19.5 -18.5l21.5 -21.5l28.5 -29l40.5 -42z" />
    <glyph glyph-name="Euro" unicode="&#x20ac;" horiz-adv-x="615" 
d="M125 331q-5 -18 -9.5 -37.5t-6.5 -38.5h-73l-7 -23h77q-1 -9 -1.5 -18t-0.5 -18q0 -102 50.5 -156t144.5 -54q82 0 141.5 43.5t99.5 110.5l-23 14q-18 -29 -36.5 -51.5t-40 -39t-47 -25t-58.5 -8.5q-37 0 -62 13t-40.5 35.5t-22.5 52.5t-7 64q0 10 0.5 18.5t1.5 18.5h187
l7 23h-191q2 20 5.5 39.5t8.5 36.5h230l6 23h-231q15 55 37.5 100t49.5 76.5t58 48.5t65 17q41 0 59.5 -17.5t20.5 -37.5q-2 -12 -5.5 -19t-7.5 -13t-7 -14t-3 -22q0 -18 13.5 -29t36.5 -11q10 0 20.5 4t19.5 13.5t14.5 24.5t5.5 36q0 45 -40 77t-118 32q-56 0 -105.5 -21.5
t-90 -58t-71 -84.5t-48.5 -102h-76l-6 -23h76z" />
    <glyph glyph-name="NUL" horiz-adv-x="0" 
 />
    </font>
</defs>
</svg>
