<?xml version="1.0" standalone="no"?>
<!DOCTYPE svg PUBLIC "-//W3C//DTD SVG 1.1//EN" "http://www.w3.org/Graphics/SVG/1.1/DTD/svg11.dtd" >
<svg>
<metadata>
Created by FontForge 20090622 at Sun Nov  1 17:31:34 2015
 By deploy user
Copyright (c) Carter &#38; Cone Type, Inc, 1997. All rights reserved.
</metadata>
<defs>
<font id="MillerText-Italic" horiz-adv-x="500" >
  <font-face 
    font-family="MillerText-Italic"
    font-weight="400"
    font-style="italic"
    font-stretch="normal"
    units-per-em="1000"
    panose-1="2 0 6 3 8 0 0 9 0 4"
    ascent="764"
    descent="-236"
    x-height="469"
    cap-height="683"
    bbox="-229 -239 1152 933"
    underline-thickness="20"
    underline-position="-123"
    unicode-range="U+0020-U+FB02"
  />
<missing-glyph 
 />
    <glyph glyph-name=".notdef" 
 />
    <glyph glyph-name=".null" horiz-adv-x="0" 
 />
    <glyph glyph-name="nonmarkingreturn" horiz-adv-x="0" 
 />
    <glyph glyph-name="space" unicode=" " horiz-adv-x="232" 
 />
    <glyph glyph-name="exclam" unicode="!" horiz-adv-x="365" 
d="M346 641q0 26 -13.5 41t-37.5 15q-28 0 -46.5 -19.5t-26.5 -48.5q-4 -16 -10 -55.5l-14.5 -95l-19 -123.5t-24.5 -140l34 -7l61.5 164l50 127.5t34 90t12.5 51.5zM196 52q0 26 -18 44t-44 18t-44 -18t-18 -44t18 -43.5t44 -17.5t44 17.5t18 43.5z" />
    <glyph glyph-name="quotedbl" unicode="&#x22;" horiz-adv-x="392" 
d="M446 685q0 22 -14 37t-40 15q-53 0 -53 -70q0 -20 -1.5 -73t-5.5 -122h24l38.5 84l28 61.5t17.5 41.5t6 26zM251 685q0 22 -14 37t-40 15q-53 0 -53 -70q0 -20 -1.5 -73t-5.5 -122h24l38.5 84l28 61.5t17.5 41.5t6 26z" />
    <glyph glyph-name="numbersign" unicode="#" horiz-adv-x="560" 
d="M548 517l-115 -27l34 137h-32l-36 -145l-124 -29l43 174h-32l-45 -182l-115 -27l-24 -94l115 27l-28 -111l-114 -27l-23 -94l114 27l-38 -153h32l40 161l124 29l-47 -190h32l49 198l116 27l23 94l-115 -27l28 111l115 27zM376 388l-28 -111l-125 -29l28 111z" />
    <glyph glyph-name="dollar" unicode="$" horiz-adv-x="615" 
d="M587 499q0 41 -39 73t-120 40l25 101h-34l-25 -99h-10q-54 0 -98.5 -15.5t-76.5 -42t-50 -62.5t-18 -77q0 -63 40 -97t127 -51l-58 -235q-61 5 -88 22.5t-40 37.5q7 9 14.5 16t13.5 15t9.5 18t3.5 24q0 20 -11.5 31.5t-30.5 11.5q-16 0 -29 -7t-22.5 -19t-14.5 -28
t-5 -34q0 -25 14 -46t39 -36.5t60.5 -26t77.5 -13.5l-35 -142h34l35 141h3q49 0 95.5 13.5t81.5 40.5t56.5 67t21.5 93q0 31 -11 53t-33 38.5t-53.5 28t-71.5 21.5l56 225q47 -5 69.5 -18t34.5 -27l-25 -33t-10 -36q0 -17 10 -28.5t29 -11.5q27 0 43 20.5t16 53.5zM386 581
l-55 -219q-58 14 -82 34.5t-24 61.5q0 56 40 89.5t111 33.5h10zM451 168q0 -63 -45 -98.5t-122 -36.5l57 229q66 -14 88 -38t22 -56z" />
    <glyph glyph-name="percent" unicode="%" horiz-adv-x="820" 
d="M770 183q0 57 -38.5 90t-96.5 33q-38 0 -73.5 -16.5t-63.5 -43.5t-44.5 -62.5t-16.5 -73.5q0 -57 38.5 -90t96.5 -33q38 0 73.5 16.5t63.5 43.5t44.5 62.5t16.5 73.5zM770 669l-34 24l-665 -770l32 -24zM412 496q0 57 -38.5 90t-96.5 33q-38 0 -73.5 -16.5t-63.5 -43.5
t-44.5 -62.5t-16.5 -73.5q0 -57 38.5 -90t96.5 -33q38 0 73.5 16.5t63.5 43.5t44.5 62.5t16.5 73.5zM694 203q0 -31 -9.5 -64t-26 -60t-39 -44t-47.5 -17q-59 0 -59 72q0 31 9.5 64t26 60t38.5 44t48 17q59 0 59 -72zM336 516q0 -31 -9.5 -64t-26 -60t-39 -44t-47.5 -17
q-59 0 -59 72q0 31 9.5 64t26 60t38.5 44t48 17q59 0 59 -72z" />
    <glyph glyph-name="ampersand" unicode="&#x26;" horiz-adv-x="883" 
d="M871 593q0 12 -3 30t-11 34.5t-22 28.5t-36 12q-32 0 -46 -18t-14 -39q0 -18 10 -31.5t34 -13.5q18 0 28 14t15 26q8 -4 11.5 -11.5t3.5 -24.5q0 -13 -6.5 -26.5t-18.5 -25t-29 -19t-38 -7.5q-9 0 -23.5 1t-30 1.5t-30.5 1.5t-25 1q-27 0 -57.5 -6t-56.5 -22t-43.5 -42.5
t-17.5 -66.5q0 -55 21.5 -85.5t66.5 -30.5q37 0 49 17t12 39q0 14 -11 30.5t-37 16.5q-23 0 -35 -13.5t-21 -35.5q-6 10 -9 21t-3 29q0 22 10 39t26.5 28.5t37.5 17.5t42 6q28 0 55 -8.5t48 -28t33.5 -50.5t12.5 -76t-19 -89t-56 -78t-90.5 -55t-123.5 -21
q-77 0 -137.5 17.5t-102 46t-63 65t-21.5 74.5q0 24 8.5 39.5t19.5 25.5t21.5 14.5l15.5 6.5q23 -14 46 -25t58 -11q23 0 34 12t11 28q0 19 -17 31.5t-48 12.5q-21 0 -43.5 -3.5t-43.5 -11.5q-12 11 -15 28.5t-3 47.5q0 52 31.5 85.5t82.5 33.5q42 0 67.5 -19.5t51.5 -60.5
l22 13q-14 56 -59.5 89t-119.5 33q-33 0 -61 -13t-48.5 -33.5t-32 -45t-11.5 -47.5q0 -26 5.5 -45.5t14.5 -34.5t21 -26.5t25 -21.5q-20 -12 -38.5 -25t-33 -30t-23.5 -40t-9 -56q0 -50 24 -92.5t66 -74.5t98.5 -50t120.5 -18q114 0 193.5 32.5t129 80.5t72 103.5
t22.5 102.5q0 37 -6.5 64t-17.5 46t-27 31.5t-34 22.5q71 0 111 34t40 94z" />
    <glyph glyph-name="quoteright" unicode="&#x2019;" horiz-adv-x="185" 
d="M273 659q0 40 -18 59t-49 19q-16 0 -28.5 -6t-21.5 -15.5t-13.5 -21t-4.5 -21.5q0 -22 16 -37t47 -15h21q-8 -42 -38.5 -70.5t-76.5 -53.5l15 -27q69 36 110 83t41 106z" />
    <glyph glyph-name="parenleft" unicode="(" horiz-adv-x="365" 
d="M416 711l-28 37q-174 -116 -263.5 -255t-89.5 -308q0 -57 12.5 -106t34.5 -91.5t52 -79.5t65 -68l38 33q-31 30 -57 63t-44.5 71.5t-29 84.5t-10.5 101q0 148 77.5 275t242.5 243z" />
    <glyph glyph-name="parenright" unicode=")" horiz-adv-x="365" 
d="M343 403q0 57 -12.5 106t-34.5 91.5t-52 79t-65 68.5l-38 -33q31 -30 57 -63t44.5 -71.5t29 -84.5t10.5 -101q0 -148 -77.5 -275t-242.5 -243l28 -37q174 116 263.5 255t89.5 308z" />
    <glyph glyph-name="asterisk" unicode="*" horiz-adv-x="421" 
d="M471 563q0 14 -10 25.5t-21 11.5q-17 0 -49.5 -20.5t-93.5 -45.5q10 31 21 53.5t20 39t15 28.5t6 21q0 17 -11 25t-27 8q-25 0 -31 -27q-5 -18 -3.5 -54t-5.5 -89q-25 26 -41 49l-27 40t-20 27t-19 10q-20 0 -29.5 -14.5t-9.5 -24.5q0 -11 9 -18t27 -17l44 -25t59 -42
q-24 -5 -46 -7l-40 -3.5t-30 -1.5h-16q-20 0 -31 -6t-11 -24q0 -17 9 -27.5t20 -10.5q8 0 20.5 6l30 15t41 20t54.5 22q-12 -32 -23 -54t-20 -38t-14 -27.5t-5 -21.5q0 -14 10 -23.5t27 -9.5q11 0 20 7.5t11 19.5q4 15 2.5 51.5t6.5 91.5q26 -30 42 -53.5l27 -40t19 -25
t19 -8.5t24 11.5t13 28.5q0 10 -9 18t-26.5 18l-43 25t-57.5 41q44 8 75 10t51 2q47 0 47 33z" />
    <glyph glyph-name="plus" unicode="+" horiz-adv-x="580" 
d="M549 234v52h-214v215h-54v-215h-214v-52h214v-215h54v215h214z" />
    <glyph glyph-name="comma" unicode="," horiz-adv-x="242" 
d="M165 46q0 75 -69 75q-31 0 -49.5 -21t-18.5 -45q0 -25 14.5 -39t46.5 -14h24q-2 -21 -12.5 -41.5t-27 -39t-37.5 -34.5t-43 -28l13 -27q28 14 56.5 35.5t51.5 48.5t37 59.5t14 70.5z" />
    <glyph glyph-name="hyphen" unicode="-" horiz-adv-x="344" 
d="M317 284h-265l-21 -73h265z" />
    <glyph glyph-name="hyphen" unicode="&#xad;" horiz-adv-x="344" 
d="M317 284h-265l-21 -73h265z" />
    <glyph glyph-name="period" unicode="." horiz-adv-x="242" 
d="M165 56q0 27 -19.5 46.5t-46.5 19.5t-46.5 -19.5t-19.5 -46.5t19.5 -46t46.5 -19t46.5 19t19.5 46z" />
    <glyph glyph-name="slash" unicode="/" horiz-adv-x="420" 
d="M517 722l-45 26l-592 -941l44 -26z" />
    <glyph glyph-name="zero" unicode="0" horiz-adv-x="618" 
d="M595 388q0 58 -16 101.5t-44.5 72.5t-67.5 43.5t-85 14.5q-65 0 -124 -33.5t-105 -89.5t-73 -129.5t-27 -153.5q0 -49 13.5 -90.5t40.5 -72t67 -48t93 -17.5q65 0 124.5 33t104.5 88.5t72 128.5t27 152zM496 435q0 -69 -19 -142t-52 -134t-76.5 -100t-91.5 -39
q-50 0 -77.5 40.5t-27.5 106.5q0 76 19.5 151t52.5 134.5t75.5 96.5t89.5 37q27 0 47 -12t33.5 -32t20 -48t6.5 -59z" />
    <glyph glyph-name="one" unicode="1" horiz-adv-x="431" 
d="M395 619h-23q-26 -13 -62.5 -27.5t-79.5 -14.5q-30 0 -54 6t-42 14l-18 -23q27 -26 54 -41.5t51 -15.5q14 0 21.5 1t15.5 3l-119 -431q-5 -16 -14 -29t-29 -20q-6 -2 -17 -3.5t-23.5 -3t-24 -2.5t-17.5 -1l-8 -31h318l8 31q-7 0 -18.5 2l-23.5 4t-22 4.5t-14 4.5
q-11 5 -16 11t-5 17q0 8 3 20l105 375q9 34 24.5 76t29.5 74z" />
    <glyph glyph-name="two" unicode="2" horiz-adv-x="581" 
d="M542 465q0 36 -15 65t-41 49t-61 30.5t-76 10.5q-57 0 -102.5 -19t-76.5 -47t-47.5 -58.5t-16.5 -52.5q0 -23 12.5 -41t38.5 -18q19 0 31.5 7t20 17.5t10.5 22t3 20.5q0 20 -9.5 31t-10.5 22q4 15 17 29.5t31 26t40 18t44 6.5q51 0 79.5 -27t28.5 -79q0 -49 -33.5 -109
t-114.5 -132q-30 -27 -58 -48.5t-59.5 -43.5l-70.5 -48l-91 -60l-8 -37h426l88 169l-27 12q-29 -45 -61.5 -72.5t-70.5 -27.5h-221l27 25q95 48 165 91.5t116.5 86.5t69.5 87t23 94z" />
    <glyph glyph-name="three" unicode="3" horiz-adv-x="569" 
d="M556 494q0 24 -10.5 46.5t-31.5 40.5t-52 28.5t-72 10.5q-57 0 -101.5 -14.5t-75 -37t-46.5 -48.5t-16 -49q0 -19 10.5 -37t39.5 -18q19 0 30.5 8t18.5 18.5t9.5 21.5t2.5 18q0 22 -7 31.5t-7 20.5q2 5 11 14t23.5 17.5t35.5 14.5t47 6q40 0 67 -16.5t27 -60.5
q0 -36 -15 -64t-45.5 -52.5t-76 -49.5t-105.5 -55l19 -37l47.5 31.5t47.5 14.5q32 0 51.5 -16t19.5 -49q0 -46 -20 -86t-52 -70t-72 -47t-79 -17q-48 0 -75.5 14.5t-28.5 40.5q0 21 9.5 29t21 15t21.5 18.5t10 38.5q0 17 -13 28.5t-36 11.5q-20 0 -35.5 -9t-26.5 -23.5
t-17 -33t-6 -38.5q0 -35 17.5 -59.5t46 -40t64 -23t71.5 -7.5q63 0 118 17t96 48.5t64.5 75t23.5 97.5q0 28 -12.5 49t-32.5 35.5t-47 21.5t-55 7l6 11q92 13 142.5 57t50.5 101z" />
    <glyph glyph-name="four" unicode="4" horiz-adv-x="573" 
d="M566 341h-29q-5 -19 -18.5 -42t-30.5 -34q-14 -10 -36 -11.5t-55 -1.5l105 377h-32l-436 -390l-8 -30h265l-33 -119q-5 -16 -14 -29t-29 -20q-6 -2 -16 -3.5l-21 -3t-21.5 -2.5t-16.5 -1l-8 -31h300l8 31q-7 0 -17.5 2l-20.5 4t-18.5 4.5t-12.5 4.5q-11 5 -16 11t-5 17
q0 8 3 20l32 115q34 0 55.5 -1t30.5 -10q11 -12 11.5 -36.5t-4.5 -46.5h27zM372 501l-69 -249h-210z" />
    <glyph glyph-name="five" unicode="5" horiz-adv-x="527" 
d="M583 618l-15 16q-37 -28 -72.5 -42t-86.5 -14q-59 0 -89 13.5t-38 25.5h-26l-149 -334l33 -7q24 35 57 50t71 15q48 0 77 -24.5t29 -66.5q0 -47 -15.5 -89t-42 -74t-62 -50.5t-75.5 -18.5q-38 0 -59.5 14.5t-26.5 34.5q4 11 9.5 19.5l10.5 16.5t8.5 16.5t3.5 20.5
q0 36 -43 36q-12 0 -24.5 -4.5t-23 -14t-17.5 -23.5t-7 -33q0 -25 13.5 -46t36.5 -36.5t55 -24t69 -8.5q64 0 117 19t90 50.5t57.5 73.5t20.5 88q0 36 -14 66t-38 51t-57 33t-72 12q-34 0 -61.5 -7.5t-52.5 -21.5l65 145q6 -1 19.5 -1.5t31.5 -0.5q33 0 72 5t78 19t76 38
t67 63z" />
    <glyph glyph-name="six" unicode="6" horiz-adv-x="569" 
d="M618 603q0 17 -7 34.5t-23 31.5t-41 22.5t-62 8.5q-52 0 -104.5 -20.5t-100.5 -57t-89.5 -85t-72.5 -104.5t-48.5 -116.5t-17.5 -119.5q0 -104 52.5 -157.5t143.5 -53.5q67 0 117 26t83 66.5t49.5 88t16.5 91.5q0 38 -11.5 69.5t-32.5 54t-49.5 35t-62.5 12.5
q-49 0 -88 -16.5t-80 -52.5l-3 3q24 65 55 119.5t65.5 94t71 61.5t70.5 22q37 0 50 -14.5t14 -43.5q2 -34 14 -52.5t36 -18.5q29 0 42 20.5t13 51.5zM410 277q0 -39 -12 -84t-34.5 -83.5t-55 -63.5t-72.5 -25q-46 0 -72.5 33t-26.5 95q0 50 14.5 93.5t38 75t54.5 49.5t64 18
q48 0 75 -27.5t27 -80.5z" />
    <glyph glyph-name="seven" unicode="7" horiz-adv-x="510" 
d="M594 595h-381l7 56h-28l-128 -257l27 -8q36 59 71 90.5t85 31.5h233l-55 -70l-49 -64l-48.5 -65l-52.5 -72l-89.5 -126t-55.5 -86.5t-28 -58t-8 -38.5q0 -21 11.5 -34.5t35.5 -13.5q29 0 47.5 23.5t29.5 62.5q14 51 29 92t32.5 77.5t37 71l41.5 71.5q24 39 48.5 75t53 72
l60.5 73.5l71 79.5z" />
    <glyph glyph-name="eight" unicode="8" horiz-adv-x="562" 
d="M544 494q0 29 -14.5 53.5t-39 42t-57.5 27.5t-70 10q-47 0 -89 -15.5t-73.5 -42t-50.5 -60.5t-19 -71q0 -45 23.5 -72.5t59.5 -50.5v-4q-32 -7 -63.5 -24t-56.5 -40.5t-40 -52.5t-15 -60q0 -32 15.5 -59.5t43 -47.5t65.5 -31.5t82 -11.5q45 0 90.5 13.5t82 40t59.5 66
t23 90.5q0 23 -8.5 42.5t-23 36t-33 30t-38.5 24.5v4q30 9 56.5 25t47 37.5t32 47.5t11.5 53zM475 497q0 -21 -7.5 -43t-21.5 -42.5t-35 -37.5t-49 -27q-39 14 -65 28t-42 29t-23 33t-7 40t10 42.5t27.5 36.5t42 25.5t53.5 9.5q54 0 85.5 -25.5t31.5 -68.5zM405 151
q0 -32 -13 -56.5t-34.5 -41t-49.5 -25t-58 -8.5q-33 0 -58 9t-41.5 24t-24.5 34.5t-8 40.5q0 53 37.5 98t97.5 69q72 -26 112 -59t40 -85z" />
    <glyph glyph-name="nine" unicode="9" horiz-adv-x="569" 
d="M545 414q0 52 -14 90.5t-39.5 64t-60.5 38.5t-76 13q-55 0 -104 -22t-85.5 -59t-58 -85.5t-21.5 -102.5q0 -39 12.5 -71.5t35 -55t52 -35t64.5 -12.5q30 0 53.5 7t43 18t35.5 24.5t31 27.5l4 -3q-21 -64 -51.5 -121.5t-66.5 -100.5t-76 -68t-80 -25q-39 0 -52.5 12.5
t-15.5 41.5q-2 44 -15 58.5t-38 14.5t-39 -17t-14 -46q0 -45 36 -73.5t110 -28.5q60 0 115.5 22.5t103 60.5t86.5 89.5t67 108.5t43 117.5t15 117.5zM462 454q0 -53 -15.5 -95.5t-40 -72.5t-55 -46t-60.5 -16q-51 0 -75.5 29t-24.5 95q0 44 12 87t34 76.5t53 54.5t68 21
q51 0 77.5 -34t26.5 -99z" />
    <glyph glyph-name="colon" unicode=":" horiz-adv-x="320" 
d="M271 398q0 27 -19.5 46.5t-46.5 19.5t-46.5 -19.5t-19.5 -46.5t19.5 -46t46.5 -19t46.5 19t19.5 46zM184 56q0 27 -19.5 46.5t-46.5 19.5t-46.5 -19.5t-19.5 -46.5t19.5 -46t46.5 -19t46.5 19t19.5 46z" />
    <glyph glyph-name="semicolon" unicode=";" horiz-adv-x="320" 
d="M271 398q0 27 -19.5 46.5t-46.5 19.5t-46.5 -19.5t-19.5 -46.5t19.5 -46t46.5 -19t46.5 19t19.5 46zM188 46q0 75 -69 75q-31 0 -49.5 -21t-18.5 -45q0 -25 14.5 -39t46.5 -14h24q-2 -21 -12.5 -41.5t-27 -39t-37.5 -34.5t-43 -28l13 -27q28 14 56.5 35.5t51.5 48.5
t37 59.5t14 70.5z" />
    <glyph glyph-name="semicolon" unicode="&#x37e;" horiz-adv-x="320" 
d="M271 398q0 27 -19.5 46.5t-46.5 19.5t-46.5 -19.5t-19.5 -46.5t19.5 -46t46.5 -19t46.5 19t19.5 46zM188 46q0 75 -69 75q-31 0 -49.5 -21t-18.5 -45q0 -25 14.5 -39t46.5 -14h24q-2 -21 -12.5 -41.5t-27 -39t-37.5 -34.5t-43 -28l13 -27q28 14 56.5 35.5t51.5 48.5
t37 59.5t14 70.5z" />
    <glyph glyph-name="less" unicode="&#x3c;" horiz-adv-x="580" 
d="M525 32v57l-374 171l374 171v57l-442 -205v-46z" />
    <glyph glyph-name="equal" unicode="=" horiz-adv-x="580" 
d="M528 325v52h-442v-52h442zM528 143v52h-442v-52h442z" />
    <glyph glyph-name="greater" unicode="&#x3e;" horiz-adv-x="580" 
d="M533 237v46l-442 205v-57l374 -171l-374 -171v-57z" />
    <glyph glyph-name="question" unicode="?" horiz-adv-x="439" 
d="M478 542q0 33 -12 61.5t-34 50t-54 33.5t-72 12q-33 0 -61 -10t-48.5 -26.5t-31.5 -38t-11 -45.5q0 -41 21 -63t48 -22q24 0 44 18t20 42q0 17 -11.5 29.5t-30.5 12.5q-18 0 -30.5 -11t-20.5 -26h-5q-1 3 -2 5.5t-1 7.5q0 38 26 64.5t75 26.5q30 0 51.5 -8t35.5 -21.5
t20.5 -30t6.5 -33.5q0 -23 -5.5 -42.5t-19 -37t-37 -34t-60.5 -34.5q-76 -36 -112.5 -71t-36.5 -87q0 -51 28 -75.5t67 -24.5q14 0 30 5.5t31 17t27.5 28t19.5 37.5l-29 13q-11 -28 -29 -49t-47 -21q-17 0 -32 8t-15 35q0 23 15 42t38.5 34.5t53 29.5l59.5 27q39 17 64 36.5
t40 41.5t21 45.5t6 47.5zM224 52q0 26 -18.5 44t-44.5 18t-44.5 -18t-18.5 -44t18.5 -43.5t44.5 -17.5t44.5 17.5t18.5 43.5z" />
    <glyph glyph-name="at" unicode="@" horiz-adv-x="1065" 
d="M981 114l-24 8q-47 -140 -151 -217t-269 -77q-71 0 -132.5 23t-106.5 67t-71 109.5t-26 151.5q0 105 34.5 187.5t91 139t127.5 86t144 29.5q74 0 130 -22.5t94 -61t57.5 -89.5t19.5 -108q0 -64 -19 -115.5t-49.5 -87.5t-68.5 -55.5t-76 -19.5q-19 0 -30 11.5t-11 36.5
q0 10 2.5 25t7.5 27l95 258h-70l-20 -54h-3q-5 30 -26 45t-47 15q-54 0 -97 -29t-73 -69.5t-45.5 -85.5t-15.5 -76q0 -38 10 -63t25.5 -40t35.5 -21.5t41 -6.5q31 0 60.5 22.5t51.5 56.5l3 -1q3 -39 28.5 -59.5t66.5 -20.5q52 0 98.5 22.5t82 62.5t56.5 95.5t21 120.5
q0 61 -19.5 119t-60.5 103t-104 72.5t-149 27.5q-74 0 -139 -19t-120 -52.5t-98 -79t-73 -99t-46 -113t-16 -119.5q0 -97 36.5 -170t96.5 -121.5t137.5 -73t158.5 -24.5q82 0 153.5 22.5t128.5 65t98 103.5t64 138zM646 323l-60 -162q-9 -16 -20 -31.5t-24 -28t-28.5 -20
t-34.5 -7.5q-8 0 -15.5 3.5t-13.5 13t-9.5 26t-3.5 42.5q0 36 11 77.5t30 77.5t45 59.5t56 23.5q55 0 67 -74z" />
    <glyph glyph-name="A" unicode="A" horiz-adv-x="644" 
d="M613 31q-14 1 -33.5 4t-30.5 9q-15 8 -19 21t-4 34v595h-36l-224 -290.5l-215 -274.5q-21 -26 -43 -46.5t-45 -31.5q-17 -8 -40.5 -13.5t-34.5 -6.5l-9 -31h287l9 31q-12 1 -28 4t-30.5 9t-25 14.5t-10.5 19.5q0 8 11 24.5l25 36.5q13 19 35.5 49l54.5 72h222v-164
q0 -15 -6 -29.5t-26 -22.5q-28 -10 -76 -13l-9 -31h292zM429 300h-191l191 249v-249z" />
    <glyph glyph-name="B" unicode="B" horiz-adv-x="632" 
d="M634 556q0 63 -48 95t-128 32h-300l-9 -32q6 0 15 -2t19 -4.5t19 -5.5t14 -5q20 -10 20 -27q0 -5 -1 -10.5t-3 -12.5l-137 -494q-5 -16 -14 -29t-29 -20q-6 -2 -16 -3.5l-21 -3t-21.5 -2.5t-16.5 -1l-8 -31h296q72 0 132 16t103 45t67 69.5t24 90.5q0 33 -12.5 57
t-34.5 41t-50.5 27.5t-61.5 16.5v9q39 10 75 25t64.5 36.5t45.5 51.5t17 71zM528 547q0 -33 -15 -63t-42.5 -53t-68 -37t-91.5 -14h-37l74 264q18 1 34.5 1.5t33.5 0.5q54 0 83 -24t29 -75zM485 219q0 -34 -13.5 -66.5t-40 -58t-66 -41t-91.5 -15.5q-45 0 -63.5 13.5
t-13.5 47.5l67 242q14 1 33 1.5t33 0.5q71 0 113 -32.5t42 -91.5z" />
    <glyph glyph-name="C" unicode="C" horiz-adv-x="632" 
d="M680 693h-41l-41 -51q-32 27 -64 40.5t-85 13.5q-75 0 -146.5 -34.5t-127.5 -95.5t-90.5 -143t-34.5 -177q0 -59 17 -107.5t50 -82.5t81 -52.5t110 -18.5q57 0 101 16.5t79 43t62 60t50 68.5l-31 19q-24 -36 -48 -64.5t-50 -48.5t-56 -31t-67 -11q-47 0 -82.5 16
t-58.5 46t-34.5 72t-11.5 93q0 82 24 153.5t62 125t86.5 84t98.5 30.5q82 0 120 -52t49 -159h31z" />
    <glyph glyph-name="D" unicode="D" horiz-adv-x="748" 
d="M737 418q0 74 -25 124.5t-65 82t-91 45t-102 13.5h-296l-9 -32q6 0 15 -2t19 -4.5t19 -5.5t14 -5q20 -10 20 -27q0 -5 -1 -10.5t-3 -12.5l-137 -494q-5 -16 -14 -29t-29 -20q-6 -2 -15.5 -3.5t-20.5 -3t-21.5 -2.5t-17.5 -1l-8 -31h296q94 0 179.5 28.5t150.5 82.5
t103.5 131.5t38.5 175.5zM630 409q0 -79 -26.5 -146.5t-73.5 -117t-111 -78t-139 -28.5q-51 0 -70 20.5t-9 56.5l147 527q17 1 33.5 1.5t33.5 0.5q50 0 90 -13.5t67.5 -42t42.5 -73.5t15 -107z" />
    <glyph glyph-name="E" unicode="E" horiz-adv-x="644" 
d="M679 683h-528l-10 -32q7 0 17 -2t21 -4.5l21 -5t16 -5.5q11 -5 15.5 -11t4.5 -16q0 -5 -1 -11t-3 -13l-135 -490q-5 -17 -14.5 -30t-28.5 -20q-6 -2 -18 -4.5t-25 -4t-24.5 -2.5t-16.5 -1l-10 -31h577l68 202h-31q-6 -11 -18.5 -29.5t-29 -39t-34.5 -40t-35 -32.5
q-22 -17 -66 -20.5t-95 -3.5q-55 0 -78 8t-23 36q0 8 2.5 20.5t7.5 27.5l58 206h75q21 0 34 -3t21 -7.5t13 -10t8 -10.5q4 -6 6 -20.5t2 -31.5q0 -12 -0.5 -24t-2.5 -21h30l80 288h-32l-10.5 -22.5t-14 -27t-15.5 -24.5t-15 -17q-11 -10 -33 -21t-62 -11h-75l77 274h105
q24 0 43 -1t35 -3q33 -5 51.5 -39.5t18.5 -77.5v-8h31z" />
    <glyph glyph-name="F" unicode="F" horiz-adv-x="620" 
d="M706 683h-555l-10 -32q7 0 17 -2t21 -4.5l21 -5t16 -5.5q11 -5 15.5 -11t4.5 -16q0 -5 -1 -11t-3 -13l-135 -490q-5 -17 -14.5 -30t-28.5 -20q-6 -2 -18 -4.5t-25 -4t-24.5 -2.5t-16.5 -1l-10 -31h318l10 32q-7 0 -17 2t-21 4.5l-21 5t-16 5.5q-11 5 -15.5 11t-4.5 16
q0 5 1 11t3 13l65 232h92q21 0 34 -3t21 -7.5t13 -10t8 -10.5q4 -6 6 -20.5t2 -31.5q0 -12 -0.5 -24t-2.5 -21h30l80 288h-32l-10.5 -22.5t-14 -27t-15.5 -24.5t-15 -17q-11 -10 -33 -21t-62 -11h-92l78 277h132q24 0 43 -1t35 -3q33 -5 51.5 -39.5t18.5 -77.5v-8h31z" />
    <glyph glyph-name="G" unicode="G" horiz-adv-x="715" 
d="M734 312h-326l-9 -33q7 0 19.5 -1.5t26 -3.5t27 -5t21.5 -6q17 -8 20 -23.5t-2 -35.5l-10 -38q-17 -66 -56 -102.5t-111 -36.5q-82 0 -127 60t-45 175q0 85 25.5 157t66.5 125t92 83t103 30q45 0 76.5 -15t51.5 -42t31 -64.5t15 -82.5h31l55 240h-39l-45 -51
q-24 22 -60 38t-96 16q-87 0 -163.5 -37t-133.5 -99t-89.5 -142t-32.5 -166q0 -71 20.5 -121.5t55.5 -82.5t82 -47.5t100 -15.5q52 0 92.5 13.5t89.5 36.5l41 -61l18 7l62 232q4 17 13.5 30.5t30.5 21.5q15 6 35.5 9l34.5 5z" />
    <glyph glyph-name="H" unicode="H" horiz-adv-x="813" 
d="M889 683h-305l-11 -32q7 0 16.5 -2t20 -4.5t19.5 -5.5l15 -5q10 -5 15 -10.5t5 -15.5q0 -5 -1 -11t-3 -13l-58 -207h-328l59 212q5 16 14.5 30t29.5 20q7 2 17.5 4t21.5 3.5l21.5 3t17.5 1.5l9 32h-306l-9 -32q6 0 15 -2t19 -4.5t19 -5.5t14 -5q20 -10 20 -27
q0 -5 -1 -10.5t-3 -12.5l-137 -494q-5 -16 -14 -29t-29 -20q-6 -2 -16 -3.5l-21 -3t-21.5 -2.5t-16.5 -1l-8 -31h305l8 31q-7 0 -17.5 2l-20.5 4t-18.5 4.5t-12.5 4.5q-11 5 -16 11t-5 17q0 6 3 20l68 241h329l-69 -245q-5 -17 -14 -29.5t-29 -19.5q-5 -2 -15.5 -3.5l-22 -3
t-22.5 -2.5t-18 -1l-9 -31h306l9 31q-14 1 -37 5.5t-31 9.5q-10 6 -15.5 11t-5.5 16q0 4 1 9t3 12l138 495q5 17 14 30.5t29 19.5q14 4 37.5 7.5t37.5 4.5z" />
    <glyph glyph-name="I" unicode="I" horiz-adv-x="392" 
d="M467 683h-306l-9 -32q6 0 15 -2t19 -4.5t19 -5.5t14 -5q20 -10 20 -27q0 -5 -1 -10.5t-3 -12.5l-137 -494q-5 -16 -14 -29t-29 -20q-6 -2 -16 -3.5l-21 -3t-21.5 -2.5t-16.5 -1l-8 -31h305l8 31q-7 0 -17.5 2l-20.5 4t-18.5 4.5t-12.5 4.5q-11 5 -16 11t-5 17q0 6 3 20
l138 495q5 16 14.5 30t29.5 20q7 2 17.5 4t21.5 3.5l21.5 3t17.5 1.5z" />
    <glyph glyph-name="J" unicode="J" horiz-adv-x="492" 
d="M587 683h-324l-9 -33q7 0 18.5 -1.5t23.5 -3.5t23 -5t18 -7q21 -11 21 -31q0 -9 -3 -18l-98 -379q-10 -39 -23.5 -73t-32 -59.5t-42.5 -40t-56 -14.5q-19 0 -42.5 6.5t-34.5 28.5q29 6 45 25.5t16 42.5q0 24 -14.5 40.5t-43.5 16.5q-32 0 -51.5 -24t-19.5 -55
q0 -21 10.5 -42t29.5 -37.5t46.5 -26.5t60.5 -10q51 0 93 18.5t73 47t50.5 61.5t27.5 62l108 417q4 14 14 28.5t30 20.5q7 2 17.5 4t21.5 3.5l21 3t17 1.5z" />
    <glyph glyph-name="K" unicode="K" horiz-adv-x="742" 
d="M821 683h-283l-9 -32q6 0 17.5 -1.5t21.5 -5.5t16.5 -11t3.5 -18q-5 -18 -32 -46.5t-69.5 -63t-97 -73.5l-113.5 -78h-8l65 235q5 16 14.5 30t29.5 20q7 2 17.5 4t21.5 3.5l21.5 3t17.5 1.5l9 32h-306l-9 -32q6 0 15 -2t19 -4.5t19 -5.5t14 -5q20 -10 20 -27
q0 -5 -1 -10.5t-3 -12.5l-137 -494q-5 -16 -14 -29t-29 -20q-6 -2 -16 -3.5l-21 -3t-21.5 -2.5t-16.5 -1l-8 -31h305l8 31q-7 0 -17.5 2l-20.5 4t-18.5 4.5t-12.5 4.5q-11 5 -16 11t-5 17q0 8 3 20l68 241h18l61 -76.5t56.5 -78t42 -66.5t16.5 -41q0 -21 -21.5 -28.5
t-75.5 -12.5l-8 -32h341l8 32q-6 0 -16.5 1.5l-21.5 3t-21.5 4t-16.5 5.5q-26 13 -43 29.5t-30 36.5l-47.5 70.5l-42.5 61l-44.5 60l-52.5 68.5l76 54l69 53l69 56.5l76 63.5q23 19 47.5 29.5t46.5 15.5t39 6t24 1z" />
    <glyph glyph-name="L" unicode="L" horiz-adv-x="636" 
d="M605 202h-31q-6 -11 -18.5 -29.5t-29 -39t-34.5 -40t-35 -32.5q-22 -17 -66 -20.5t-95 -3.5q-55 0 -78 8t-23 36q0 8 2.5 20.5t7.5 27.5l128 460q5 16 14.5 30t29.5 20q7 2 17.5 4t21.5 3.5l21.5 3t17.5 1.5l9 32h-313l-10 -32q7 0 17 -2t21 -4.5l21 -5t16 -5.5
q11 -5 15.5 -11t4.5 -16q0 -5 -1 -11t-3 -13l-135 -490q-5 -17 -14.5 -30t-28.5 -20q-6 -2 -18 -4.5t-25 -4t-24.5 -2.5t-16.5 -1l-10 -31h577z" />
    <glyph glyph-name="M" unicode="M" horiz-adv-x="945" 
d="M1018 683h-228q-3 -8 -14.5 -32t-31.5 -54l-297 -443l-104 529h-207l-9 -32q20 -1 44 -7.5t38 -20.5q12 -12 14.5 -31.5t-5.5 -50.5l-93 -346q-17 -60 -33 -92t-36 -45q-8 -5 -21 -9.5t-28 -8l-29 -6.5t-22 -3l-9 -31h309l9 31q-7 0 -20.5 3t-28 7.5t-27.5 10t-19 11.5
q-13 13 -13 45q0 12 4.5 39.5t11.5 52.5l97 365l83 -415q7 -36 10 -71.5t5 -67.5h28l387 563l-122 -484q-4 -16 -13.5 -29t-29.5 -20q-5 -2 -14.5 -3.5t-20 -3t-20.5 -2.5t-16 -1l-8 -31h304l8 31q-7 0 -17.5 1.5t-21.5 4t-20.5 5t-13.5 4.5q-11 5 -16 11t-5 17q0 4 0.5 9.5
t2.5 10.5l127 495q5 19 14.5 31.5t29.5 18.5q7 2 17.5 4t21.5 3.5l21.5 3t17.5 1.5z" />
    <glyph glyph-name="N" unicode="N" horiz-adv-x="751" 
d="M858 683h-307l-9 -31q9 0 22 -3t27 -7.5t26.5 -9.5t18.5 -10q14 -11 14 -42q0 -17 -5 -43.5t-11 -49.5l-89 -342l-231 538h-206l-10 -32q39 -2 63 -11t38 -23q10 -10 14.5 -24.5t4.5 -30.5q0 -9 -1 -18.5t-3 -15.5l-88 -333q-16 -60 -33 -92t-37 -45q-8 -5 -21 -9.5
t-28 -8l-29 -6.5t-22 -3l-9 -31h309l9 31q-7 0 -20.5 3t-28 7.5t-27.5 10t-19 11.5q-13 13 -13 45q0 6 1.5 17.5t4 25l5 27t5.5 22.5l92 353l240 -560h43l133 500q13 47 28 83.5t41 50.5q8 4 22 8.5t29 8t28 6t20 2.5z" />
    <glyph glyph-name="O" unicode="O" horiz-adv-x="724" 
d="M713 430q0 63 -23 113t-56 84q-37 38 -82 54.5t-101 16.5q-69 0 -133.5 -26.5t-119.5 -77.5q-72 -68 -108 -157t-36 -180q0 -66 24 -117.5t61 -87.5q35 -35 77.5 -51.5t96.5 -16.5q73 0 135 25t116 71q39 33 67 74t46 86.5t27 93.5t9 96zM606 451q0 -90 -26.5 -176.5
t-71.5 -149.5q-35 -49 -80.5 -75t-102.5 -26q-86 0 -125 56.5t-39 149.5q0 89 24 167.5t63 141.5q34 54 84 86.5t111 32.5q45 0 76.5 -15.5t50.5 -43t27.5 -65.5t8.5 -83z" />
    <glyph glyph-name="P" unicode="P" horiz-adv-x="607" 
d="M632 536q0 70 -51.5 108.5t-145.5 38.5h-277l-9 -32q6 0 15 -2t19 -4.5t19 -5.5t14 -5q20 -10 20 -27q0 -5 -1 -10.5t-3 -12.5l-137 -494q-5 -16 -14 -29t-29 -20q-6 -2 -16 -3.5l-21 -3t-21.5 -2.5t-16.5 -1l-8 -31h305l8 31q-7 0 -17.5 2l-20.5 4t-18.5 4.5t-12.5 4.5
q-11 5 -16 11t-5 17q0 8 3 19l60 215h47q73 0 133.5 16t104 45.5t68 71.5t24.5 95zM526 527q0 -84 -54 -131.5t-157 -47.5h-49l82 297h42q72 0 104 -30.5t32 -87.5z" />
    <glyph glyph-name="Q" unicode="Q" horiz-adv-x="724" 
d="M738 -28l-24 22q-10 -14 -24.5 -27.5t-30.5 -24.5t-33 -18t-32 -7q-19 0 -38 4t-35 15.5t-27.5 32.5t-15.5 56q60 30 104 74.5t73 98t43.5 113t14.5 119.5q0 64 -23.5 115t-55.5 83q-38 37 -82.5 53.5t-100.5 16.5q-69 0 -133.5 -26.5t-119.5 -77.5q-72 -68 -108 -157
t-36 -180q0 -66 23.5 -117t59.5 -86q69 -68 176 -68q18 0 37 1.5t36 4.5q3 -41 16.5 -69t32.5 -44.5t42 -23.5t47 -7q36 0 69.5 13.5t61.5 33t49.5 41t33.5 36.5zM606 451q0 -52 -9 -105t-26.5 -101.5t-41.5 -90.5t-54 -72q-3 27 -13 51t-26 42t-38 28.5t-48 10.5
q-20 0 -42 -5.5t-44 -18t-43 -33t-38 -50.5q-11 25 -16.5 56.5t-5.5 66.5q0 89 24 167.5t63 141.5q34 54 84 86.5t111 32.5q45 0 76.5 -15.5t50.5 -43t27.5 -65.5t8.5 -83zM385 67q0 -9 0.5 -16t-1.5 -19q-29 -8 -59 -8q-42 0 -72.5 14t-50.5 40q12 25 27 41t30 26t28.5 14
t23.5 4q31 0 52.5 -21.5t21.5 -74.5z" />
    <glyph glyph-name="R" unicode="R" horiz-adv-x="705" 
d="M678 33q-14 1 -28.5 3t-29.5 5q-7 1 -16 3t-17 7.5t-14.5 16t-7.5 28.5q-1 5 -2.5 18t-4 29t-6 33.5l-6.5 32.5q-7 32 -20 54t-29.5 37t-35.5 24t-38 15v7q46 10 87 26t71.5 40.5t48 58t17.5 78.5q0 66 -55 100t-153 34h-281l-9 -32q6 0 15 -2t19 -4.5t19 -5.5t14 -5
q20 -10 20 -27q0 -5 -1 -10.5t-3 -12.5l-137 -494q-5 -16 -14 -29t-29 -20q-6 -2 -16 -3.5l-21 -3t-21.5 -2.5t-16.5 -1l-8 -31h309l8 31q-7 0 -18 2l-22 4t-20 4.5t-13 4.5q-11 5 -16 11t-5 17q0 6 3 20l26 92l39 140h46q26 0 49.5 -10t42 -27.5t31 -40.5t17.5 -50
q9 -51 15 -97t6 -101h203zM538 538q0 -85 -58 -128.5t-161 -43.5h-48l78 279h63q62 0 94 -23.5t32 -83.5z" />
    <glyph glyph-name="S" unicode="S" horiz-adv-x="541" 
d="M581 693h-34l-47 -47q-20 20 -54.5 35t-78.5 15q-51 0 -96 -16t-78.5 -43.5t-53 -64.5t-19.5 -79q0 -35 9.5 -61.5t28.5 -48t48.5 -40.5t69.5 -40q34 -18 57 -33.5t36 -32t18.5 -35t5.5 -41.5q0 -26 -9.5 -50.5t-28.5 -43t-47 -29.5t-64 -11q-45 0 -76.5 17t-52.5 44.5
t-33 63t-17 72.5h-31l-56 -234h34l46 47q22 -18 65 -34t100 -16q52 0 100.5 16t86 45t60 70.5t22.5 91.5q0 30 -9.5 55.5t-30 49t-53.5 45.5t-80 46q-59 30 -82.5 58t-23.5 72q0 53 38.5 86.5t102.5 33.5q36 0 60.5 -13.5t41 -38.5t25.5 -60t13 -78h30z" />
    <glyph glyph-name="T" unicode="T" horiz-adv-x="636" 
d="M741 683h-607l-52 -184h28q9 16 26.5 40t38.5 46t43 38.5t39 18.5q18 2 41.5 3t40.5 1h38l-152 -553q-5 -17 -14.5 -30t-29.5 -20q-5 -2 -17 -4t-26 -3.5t-26.5 -3t-19.5 -1.5l-9 -31h341l9 31q-7 0 -20 2t-27 5l-26 5.5t-16 4.5q-20 10 -20 28q0 4 0.5 10.5t2.5 11.5
l149 548h38q20 0 41 -1t39 -3q17 -2 29.5 -14.5t21 -32t12.5 -44.5t4 -52h28z" />
    <glyph glyph-name="U" unicode="U" horiz-adv-x="801" 
d="M892 683h-307l-9 -31q9 0 22 -3t27 -7.5t26.5 -9.5t18.5 -10q14 -11 14 -42q0 -17 -4 -40.5t-12 -51.5l-72 -253q-29 -99 -87.5 -153.5t-151.5 -54.5q-77 0 -109 29.5t-32 83.5q0 51 19 117l92 332q5 16 14.5 30t29.5 20q7 2 17.5 4t21.5 3.5l21.5 3t17.5 1.5l9 32h-306
l-9 -32q6 0 15 -2t19 -4.5t19 -5.5t14 -5q20 -10 20 -27q0 -5 -1 -10.5t-3 -12.5l-96 -347q-8 -26 -11 -50t-3 -45q0 -75 50 -116.5t161 -41.5q127 0 203.5 65.5t111.5 188.5l73 256q14 47 28.5 83t40.5 50q8 4 22 8.5t29 8t28 6t20 2.5z" />
    <glyph glyph-name="V" unicode="V" horiz-adv-x="644" 
d="M809 683h-287l-9 -31q12 -1 28 -4t30.5 -9t25 -14.5t10.5 -19.5q0 -8 -11 -24.5l-25 -36.5q-16 -23 -46.5 -63l-73.5 -97l-192 -250v453q0 15 6 29.5t26 22.5q28 10 76 13l9 31h-292l-9 -31q14 -1 33.5 -4t30.5 -9q15 -8 19 -21t4 -34v-595h36l224 290.5l215 274.5
q21 26 43 46.5t45 31.5q17 8 40.5 13.5t34.5 6.5z" />
    <glyph glyph-name="W" unicode="W" horiz-adv-x="957" 
d="M1116 683h-269l-9 -32q17 -1 34 -4.5t30 -9.5t21 -14.5t8 -19.5q0 -14 -8.5 -31t-33.5 -55l-247 -377v447q0 15 6 29.5t26 22.5q28 10 76 13l9 31h-292l-9 -31q14 -1 33.5 -4t30.5 -9t17 -14t6 -22q0 -9 -0.5 -15.5t-2.5 -15.5l-283 -432v447q0 15 6 29.5t26 22.5
q28 10 76 13l9 31h-292l-9 -31q14 -1 33.5 -4t30.5 -9q15 -8 19 -21t4 -34v-592h46l337 505v-505h46l385 576q14 21 29 37t35 26q15 8 34 13.5t33 6.5z" />
    <glyph glyph-name="X" unicode="X" horiz-adv-x="752" 
d="M840 683h-300l-9 -32q47 -2 63.5 -10t16.5 -27q0 -18 -52 -71.5l-136 -137.5l-57.5 125.5t-21.5 70.5q0 14 8.5 23.5t23.5 15t34.5 8t40.5 3.5l9 32h-343l-9 -32q7 0 18.5 -1.5t23.5 -3.5t22 -4t15 -5q24 -14 34 -32t18 -35l52.5 -108l61.5 -129l-60 -60l-55.5 -54
l-55.5 -52l-59 -54q-18 -17 -42.5 -35.5t-57.5 -31.5q-8 -3 -19 -5.5t-22.5 -4l-22.5 -3t-18 -1.5l-9 -32h300l9 32q-45 2 -61.5 9.5t-16.5 29.5q0 9 18.5 31.5t48 53l66.5 67l75 73.5l41 -87.5t27 -60t14.5 -39.5t4.5 -26q0 -15 -9.5 -24t-24.5 -15t-34.5 -8.5t-40.5 -3.5
l-9 -32h343l9 32q-6 0 -18 1t-24.5 2.5t-23 3.5t-13.5 5q-20 17 -31.5 34.5t-19.5 34.5l-23.5 48.5l-29.5 61.5l-33 69.5l-35 73.5l61 62l52.5 52l48 46l47.5 44q18 17 42.5 35.5t57.5 31.5q16 6 41.5 9.5t39.5 4.5z" />
    <glyph glyph-name="Y" unicode="Y" horiz-adv-x="623" 
d="M758 683h-266l-10 -33q16 -1 33 -2.5t30.5 -5t22 -9t8.5 -15.5q0 -7 -17.5 -30.5l-50.5 -65.5q-29 -38 -69 -86l-88 -104l-62 195t-24 98q0 8 11 13t27.5 7t34.5 3t33 2l10 33h-307l-10 -33q14 -1 31.5 -4.5t29.5 -11.5q15 -11 26.5 -26t21.5 -42l37 -110t36 -123
q4 -16 6.5 -30.5t2.5 -25.5v-10q0 -4 -2 -9l-41 -164q-5 -17 -14 -30t-29 -20q-6 -2 -16.5 -4t-22.5 -3.5t-23 -2.5t-18 -1l-9 -33h324l9 33q-7 0 -19 2t-25 4.5t-24 5t-15 4.5q-19 10 -21 31q0 9 2 19l31 123q6 25 24 55t39 57l109 137t101 109l21.5 19.5t15.5 12.5t15 9
t19 10q5 3 13.5 6t18 6t17.5 5t13 2z" />
    <glyph glyph-name="Z" unicode="Z" horiz-adv-x="600" 
d="M689 683h-510l-71 -194h31q12 19 32 43.5t43.5 47.5t48 40t45.5 21q16 3 38.5 4t48.5 1h153l-607 -624l-6 -22h563l76 215h-31q-10 -16 -25 -36t-32.5 -41t-37.5 -40.5t-39 -34.5q-10 -8 -28 -13t-39.5 -8t-46 -4t-46.5 -1h-174l607 624z" />
    <glyph glyph-name="bracketleft" unicode="[" horiz-adv-x="475" 
d="M531 713h-321l-230 -849h321l12 44h-235l206 761h235z" />
    <glyph glyph-name="backslash" unicode="\" horiz-adv-x="470" 
d="M391 -205l-190 960l-53 -9l191 -961z" />
    <glyph glyph-name="bracketright" unicode="]" horiz-adv-x="475" 
d="M510 713h-321l-12 -44h235l-206 -761h-235l-12 -44h321z" />
    <glyph glyph-name="asciicircum" unicode="^" horiz-adv-x="678" 
d="M682 331q0 10 -3.5 21t-11.5 21t-23 16.5t-37 6.5q-29 0 -53.5 -17t-45.5 -44.5t-40 -61.5l-37 -67q-19 37 -34 63l-27.5 46.5l-22 37.5t-18.5 36q33 16 64 36t55 44.5t38.5 54.5t14.5 66q0 48 -32 77.5t-81 29.5q-41 0 -75.5 -15.5t-59.5 -41.5t-39 -61.5t-14 -75.5
q0 -15 1.5 -28.5t5 -27.5t9.5 -30t15 -37q-60 -30 -100.5 -59t-65 -58.5t-35 -61.5t-10.5 -69q0 -36 13 -63.5t34.5 -45.5t50.5 -27.5t61 -9.5q36 0 64 6t51.5 19.5t45.5 34.5t47 51q16 -33 29.5 -72.5t13.5 -74.5q0 -42 -15 -69.5t-40 -44t-58.5 -24t-69.5 -8.5l4 -39
q52 0 97 19t78.5 53.5t52.5 81t19 102.5q0 33 -14 73t-34 81q42 75 68.5 111t46.5 36q13 0 19 -6.5t12 -15t16 -15t31 -6.5q20 0 29.5 18t9.5 34zM450 585q0 -31 -10 -55t-28 -43.5t-43 -35.5t-55 -31q-10 22 -16 38.5t-9 29.5t-4 24t-1 23q0 23 6 46t18 41t30.5 29.5
t43.5 11.5q31 0 49.5 -21.5t18.5 -56.5zM371 126q-36 -43 -69.5 -66.5t-75.5 -23.5q-49 0 -80.5 35.5t-31.5 93.5q0 24 5.5 47.5t20 47t40 46t66.5 44.5q26 -56 59 -109t66 -115z" />
    <glyph glyph-name="underscore" unicode="_" horiz-adv-x="600" 
d="M500 -157v49h-610v-49h610z" />
    <glyph glyph-name="quoteleft" unicode="&#x2018;" horiz-adv-x="185" 
d="M280 716l-15 27q-69 -36 -110 -83t-41 -106q0 -40 18 -59t49 -19q16 0 28.5 6t21.5 15.5t13.5 21t4.5 21.5q0 22 -16 37t-47 15h-21q8 42 38.5 70.5t76.5 53.5z" />
    <glyph glyph-name="a" unicode="a" horiz-adv-x="555" 
d="M543 134l-29 10q-8 -20 -17.5 -41.5t-20.5 -38.5t-25 -28t-32 -11q-14 0 -24.5 7.5t-10.5 27.5q0 14 4 36t12 42l113 325h-90l-23 -66h-3q-7 38 -33 55.5t-58 17.5q-45 0 -83 -17t-69.5 -44.5t-55 -62.5t-40 -71.5t-24.5 -70.5t-8 -60q0 -47 12 -77.5t31.5 -48.5t44 -25
t49.5 -7q43 0 78.5 25.5t64.5 67.5h2q0 -30 9 -48t22.5 -27t30 -12t32.5 -3q27 0 47.5 11.5t37.5 31t30.5 46t25.5 56.5zM385 350l-73 -222q-23 -39 -55.5 -68t-75.5 -29q-10 0 -20 2.5t-18.5 12t-14 29t-5.5 53.5q0 45 13 99t36.5 101t56 78.5t71.5 31.5q36 0 56 -21
t29 -67z" />
    <glyph glyph-name="b" unicode="b" horiz-adv-x="519" 
d="M495 308q0 48 -13 79t-34 49.5t-46.5 26t-50.5 7.5q-21 0 -41 -7.5t-37 -19t-31.5 -25t-25.5 -26.5l-3 1l114 349l-221 -10v-30q18 -1 29.5 -1.5t30.5 -2.5q17 -2 28.5 -8.5t11.5 -23.5q0 -10 -3.5 -26t-11.5 -41l-127 -400q-6 -20 -11 -38.5t-5 -49.5q0 -35 14 -59
t37 -39t51 -21.5t57 -6.5q45 0 84 16t71 43t56.5 61t41.5 70t26 70.5t9 62.5zM401 323q0 -44 -15 -97.5t-40.5 -99.5t-59.5 -77t-73 -31q-13 0 -28 3.5t-27.5 14.5t-21 31.5t-8.5 55.5l68 212q24 35 58 62.5t79 27.5q10 0 21.5 -3t22 -13.5t17.5 -31t7 -54.5z" />
    <glyph glyph-name="c" unicode="c" horiz-adv-x="405" 
d="M399 380q0 16 -7.5 32.5t-21 29t-33 20.5t-43.5 8q-42 0 -78.5 -16.5t-66 -43.5t-52.5 -61.5t-39 -70.5t-24 -69.5t-8 -59.5q0 -51 14 -83t36.5 -49.5t50 -24t54.5 -6.5q25 0 50.5 8t50.5 26.5t49.5 49t47.5 74.5l-30 14q-14 -26 -28.5 -49t-32.5 -40.5t-40 -28
t-49 -10.5q-78 0 -78 100q0 29 6 63.5t17 69t26.5 67t33.5 57.5t38.5 40t42.5 15q27 0 41.5 -7.5t18.5 -27.5q-23 -12 -38 -27.5t-15 -31.5q0 -12 5 -20.5t13 -14t17.5 -8t18.5 -2.5q26 0 39.5 21t13.5 56z" />
    <glyph glyph-name="d" unicode="d" horiz-adv-x="566" 
d="M598 742l-230 -10v-30q19 -1 35 -1.5t35 -2.5q17 -2 29 -8.5t12 -23.5q0 -10 -4 -27t-11 -40l-58 -193h-3q-11 32 -37 48t-57 16q-45 0 -83.5 -16.5t-70 -43.5t-55.5 -61t-40.5 -70t-25 -70t-8.5 -60q0 -50 12.5 -81.5t32.5 -49.5t45 -25t50 -7q43 0 81.5 25.5t67.5 67.5
l3 -1q0 -30 8.5 -47.5t22 -27t30 -12t32.5 -2.5q27 0 47.5 11.5t37.5 31t30.5 46t25.5 56.5l-29 10q-8 -20 -17.5 -41.5t-20.5 -38.5t-25 -28t-32 -11q-14 0 -24.5 7.5t-10.5 27.5q0 14 4.5 35t11.5 43zM392 361l-71 -235q-23 -39 -58.5 -67t-78.5 -28q-10 0 -20.5 2
t-19.5 12t-15 29t-6 54q0 45 13.5 99t37.5 101t57 78.5t72 31.5q35 0 55.5 -17.5t33.5 -59.5z" />
    <glyph glyph-name="e" unicode="e" horiz-adv-x="406" 
d="M397 398q0 37 -24.5 54.5t-58.5 17.5q-47 0 -86.5 -16.5t-71.5 -43.5t-56 -61.5t-40.5 -70.5t-25 -70.5t-8.5 -61.5q0 -48 14 -79t36 -49t49 -25t54 -7q24 0 50 8t51.5 26.5t50.5 49t48 74.5l-30 14q-14 -26 -29 -49t-33 -40.5t-40.5 -28t-49.5 -10.5q-39 0 -58 22
t-19 70q0 21 3.5 45t8.5 41q37 6 83 19.5t86.5 36.5t68 56t27.5 78zM326 387q0 -18 -9.5 -40t-31.5 -43t-58 -39t-89 -27q10 36 26 71.5t35 64.5t40.5 47t43.5 18q24 0 33.5 -14t9.5 -38z" />
    <glyph glyph-name="f" unicode="f" horiz-adv-x="315" 
d="M538 657q0 15 -6 30.5t-19 28t-32 20t-45 7.5q-35 0 -71 -11.5t-71 -43.5q-47 -42 -74 -92.5t-43 -110.5l-8 -31h-106l-12 -40h106l-47 -189t-63 -229q-17 -55 -34 -93.5t-36.5 -62.5t-42 -35t-50.5 -11q-6 0 -12.5 2.5t-7.5 5.5q10 12 16 22t6 26q0 13 -5.5 22.5t-14 15
t-18 8t-17.5 2.5q-13 0 -22.5 -5.5t-16 -13.5t-10 -17.5t-3.5 -17.5q0 -15 4.5 -29.5t16 -25.5t31 -18t49.5 -7q37 0 69 12.5t71 45.5q46 38 74.5 91t46.5 111q13 41 26 89.5l26.5 99.5l26.5 102.5l25 98.5h124l13 40h-126l17 61q30 107 66.5 152t84.5 45q7 0 13.5 -2
t8.5 -5q-2 -16 -9 -30t-7 -25q0 -12 6 -20.5t14.5 -14t18 -7.5t17.5 -2q13 0 22.5 5.5t16 13.5t10 17t3.5 15z" />
    <glyph glyph-name="g" unicode="g" horiz-adv-x="491" 
d="M526 418q0 20 -13 36t-30 16q-16 0 -27.5 -2t-22 -6t-21 -9.5t-23.5 -11.5q-5 0 -16 4.5t-27.5 10t-38 10t-46.5 4.5q-40 0 -76 -14.5t-63 -39.5t-43 -58.5t-16 -71.5q0 -33 18.5 -59.5t50.5 -41.5v-5q-12 -4 -28 -11t-30.5 -19t-24.5 -28.5t-10 -39.5q0 -33 23 -46
t57 -20v-7q-83 -11 -122 -47.5t-39 -85.5q0 -48 45.5 -79t137.5 -31q70 0 123.5 14.5t89.5 39t54 57.5t18 70q0 25 -8.5 44.5t-22 33.5t-31 22.5t-36.5 11.5q-8 1 -22 3t-30 3.5t-32 3.5t-27 3q-56 6 -81.5 13.5t-25.5 35.5q0 20 14 29.5t30 17.5h60q36 0 69.5 12.5
t59.5 34.5t42 53t16 69q0 17 -5.5 37t-14.5 34v6q11 8 24.5 12.5t37.5 4.5q0 -31 6.5 -48t30.5 -17q20 0 33 13.5t13 38.5zM317 363q0 -23 -5.5 -52t-18 -55t-32 -43.5t-47.5 -17.5q-14 0 -25 8t-19 21t-12.5 29.5t-4.5 34.5q0 17 4.5 43.5t15.5 51t30.5 42.5t48.5 18
q32 0 48.5 -24t16.5 -56zM346 -75q0 -66 -47 -97t-131 -31q-34 0 -57.5 7.5t-38.5 19.5t-21.5 26.5t-6.5 29.5q0 45 27.5 75t78.5 43q39 -2 79 -4.5t80 -11.5q9 -2 16 -8.5t11.5 -15t7 -17.5t2.5 -16z" />
    <glyph glyph-name="h" unicode="h" horiz-adv-x="564" 
d="M547 134l-29 10q-12 -27 -22.5 -48.5t-21.5 -37.5t-24 -24.5t-30 -8.5q-11 0 -22 5.5t-11 29.5q0 11 6 31.5t16 46.5l53 145q8 20 13.5 42t5.5 33q0 22 -8.5 42.5t-24 36t-36.5 24.5t-46 9q-43 0 -78 -23t-64 -59l-4 1l117 353l-221 -10v-30q18 -1 29 -1.5t31 -2.5
q17 -2 28 -8.5t11 -23.5q0 -10 -3 -25t-11 -41l-188 -600h88l94 304q35 63 73.5 93t79.5 30q20 0 35 -8.5t15 -40.5q0 -14 -6.5 -34.5t-13.5 -38.5l-58 -155q-10 -26 -15 -45.5t-5 -37.5q0 -23 10.5 -38t26 -24t33.5 -12.5t32 -3.5q26 0 47 10.5t38.5 30t32 46t27.5 58.5z
" />
    <glyph glyph-name="i" unicode="i" horiz-adv-x="340" 
d="M329 653q0 21 -13 38t-34 17q-32 0 -50.5 -20.5t-18.5 -49.5q0 -23 13 -39.5t38 -16.5q31 0 48 21t17 50zM317 134l-29 10q-12 -27 -22.5 -48.5t-21.5 -37.5t-24 -24.5t-30 -8.5q-11 0 -22 5.5t-11 29.5q0 11 7 34t15 44l56 146q4 11 9.5 24.5t10 27.5t8 27t3.5 22
q0 26 -9 42.5t-23.5 26t-31.5 13t-33 3.5q-27 0 -48 -11.5t-38 -31.5t-31.5 -48.5t-27.5 -61.5l30 -9l19 44.5t22 40.5t26 29.5t31 11.5q14 0 21 -7.5t7 -27.5q0 -9 -6 -31.5t-16 -48.5l-66 -169q-10 -26 -15 -45.5t-5 -37.5q0 -23 10.5 -38t25.5 -24t32.5 -12.5t31.5 -3.5
q52 0 85.5 40.5t59.5 104.5z" />
    <glyph glyph-name="j" unicode="j" horiz-adv-x="300" 
d="M325 653q0 21 -13 38t-34 17q-32 0 -50.5 -20.5t-18.5 -49.5q0 -23 13 -39.5t38 -16.5q31 0 48 21t17 50zM266 379q0 28 -8.5 46t-22 28t-30 13.5t-32.5 3.5q-27 0 -48 -11.5t-39 -32.5t-32.5 -49.5t-27.5 -61.5l30 -9l19 45t22.5 41.5t27 30t31.5 11.5q14 0 21 -7.5
t7 -27.5q0 -11 -4 -30t-7 -32l-22.5 -87.5l-19.5 -77t-22 -80.5l-29 -98q-17 -55 -33.5 -93.5t-36 -62.5t-42.5 -34.5t-51 -10.5q-5 0 -10 2.5t-5 7.5q9 13 14.5 24.5t5.5 21.5q0 26 -15 38t-40 12q-13 0 -23 -5.5t-16.5 -13.5t-10 -17t-3.5 -16q0 -15 4.5 -30t16 -26.5
t30.5 -19t49 -7.5q37 0 70 12t72 45q45 38 73.5 90t46.5 111l22 76.5t18.5 67l17 65.5l18.5 71q5 20 9.5 42.5t4.5 34.5z" />
    <glyph glyph-name="k" unicode="k" horiz-adv-x="554" 
d="M550 394q0 14 -3.5 28t-12.5 24.5t-24.5 17t-38.5 6.5q-35 0 -57.5 -14t-39 -35.5t-29 -46.5t-27.5 -46.5t-35 -35.5t-50 -14h-24q-9 0 -20 1l148 463l-221 -10v-30q18 -1 29 -1.5t31 -2.5q17 -2 28 -8.5t11 -23.5q0 -10 -3 -25.5t-11 -41.5l-189 -599h88l79 247
q9 2 16 2.5t15 0.5q32 0 53 -11.5t21 -42.5q0 -11 -3 -26.5t-7 -32.5t-7 -35t-3 -35q0 -25 10.5 -40.5t26.5 -23.5t34 -11t32 -3q26 0 47 10.5t38.5 30t32.5 46t28 58.5l-29 10q-23 -53 -44 -86t-55 -33q-11 0 -22 5t-11 30q0 12 2.5 23.5t5 24.5t5 29t2.5 36
q0 23 -7.5 38.5t-19.5 26t-26 17t-26 11.5q30 11 50 29t33.5 38t23 40l18 36.5t19 26.5t26.5 10q14 0 20 -4.5t10 -15.5q-2 -9 -8 -13.5l-13 -10t-12 -15t-5 -28.5q0 -14 14 -23.5t29 -9.5q26 0 41.5 21t15.5 47z" />
    <glyph glyph-name="l" unicode="l" horiz-adv-x="301" 
d="M334 742l-222 -10v-30q18 -1 29.5 -1.5t30.5 -2.5q17 -2 28.5 -8.5t11.5 -23.5q0 -10 -3 -25.5t-11 -41.5l-141 -449q-7 -23 -12.5 -44t-5.5 -40q0 -23 10 -38t25 -23.5t32 -12t31 -3.5q26 0 47 10.5t38.5 30t32 46t27.5 58.5l-29 10q-12 -27 -22.5 -48.5t-21.5 -37.5
t-24 -24.5t-30 -8.5q-11 0 -22 5.5t-11 29.5q0 11 6.5 34t12.5 42z" />
    <glyph glyph-name="m" unicode="m" horiz-adv-x="872" 
d="M855 134l-29 10q-12 -27 -22.5 -48.5t-21.5 -37.5t-24 -24.5t-30 -8.5q-11 0 -22 5.5t-11 29.5q0 11 6.5 33t15.5 45l54 146q7 19 13 41t6 33q0 22 -9 42.5t-25 36t-38 24.5t-47 9q-22 0 -42 -8t-38.5 -21t-34 -29.5t-28.5 -33.5h-4q-1 16 -9 32.5t-23 30t-36 21.5t-48 8
q-43 0 -78.5 -27t-63.5 -65l-3 1q0 28 -8.5 46t-22 28t-30 13.5t-32.5 3.5q-27 0 -48 -11.5t-38 -31.5t-31.5 -48.5t-27.5 -61.5l30 -9l19 44.5t22 40.5t26 29.5t31 11.5q14 0 21 -7.5t7 -27.5q0 -9 -6 -34t-13 -46l-107 -319h91l100 304q10 21 26 43t34.5 40t39 29t40.5 11
q10 0 19.5 -1.5t17.5 -6.5t13 -14t5 -25q0 -14 -3.5 -31.5t-8.5 -30.5l-105 -318h92l108 333q12 18 26 34.5t30 30t34.5 21.5t38.5 8q10 0 19.5 -1.5t17 -6.5t12 -14t4.5 -25q0 -14 -5.5 -35.5t-13.5 -39.5l-58 -155q-9 -25 -15.5 -45t-6.5 -38q0 -23 10.5 -38t26.5 -24
t34 -12.5t32 -3.5q26 0 47 10.5t38.5 30t32 46t27.5 58.5z" />
    <glyph glyph-name="n" unicode="n" horiz-adv-x="607" 
d="M590 134l-29 10q-12 -27 -22.5 -48.5t-21.5 -37.5t-24 -24.5t-30 -8.5q-11 0 -22 5.5t-11 29.5q0 11 6.5 31.5t15.5 46.5l54 145q7 19 13 41.5t6 33.5q0 22 -8.5 42.5t-24 36t-36.5 24.5t-46 9q-44 0 -81 -28t-63 -64l-3 1q0 28 -8.5 46t-22 28t-30 13.5t-32.5 3.5
q-27 0 -48 -11.5t-38 -31.5t-31.5 -48.5t-27.5 -61.5l30 -9l19 44.5t22 40.5t26 29.5t31 11.5q14 0 21 -7.5t7 -27.5q0 -5 -2 -14.5l-4.5 -21t-6 -23.5t-6.5 -21l-107 -319h91l100 304q13 25 29.5 47.5t36 39t40 26.5t40.5 10q10 0 18.5 -1.5t15.5 -6.5t11 -14t4 -25
q0 -14 -6 -35.5t-13 -39.5l-58 -155q-11 -26 -16.5 -45.5t-5.5 -37.5q0 -23 10.5 -38t26.5 -24t34 -12.5t32 -3.5q26 0 47 10.5t38.5 30t32 46t27.5 58.5z" />
    <glyph glyph-name="o" unicode="o" horiz-adv-x="487" 
d="M458 291q0 48 -13.5 81.5t-35.5 55.5t-48.5 32t-51.5 10q-70 0 -122 -32.5t-87 -79.5t-52.5 -100t-17.5 -94q0 -48 13.5 -81.5t35 -55t47.5 -31.5t52 -10q70 0 123 32.5t87.5 79.5t52 99.5t17.5 93.5zM364 313q0 -45 -10.5 -97.5t-31.5 -96.5t-52.5 -73.5t-73.5 -29.5
q-29 0 -50.5 29t-21.5 100q0 45 11.5 96.5t33 96t52.5 73.5t70 29q13 0 26.5 -6.5t23.5 -21.5t16.5 -39.5t6.5 -59.5z" />
    <glyph glyph-name="p" unicode="p" horiz-adv-x="570" 
d="M546 308q0 47 -12.5 78t-32.5 50t-45 26.5t-50 7.5q-42 0 -77.5 -25.5t-64.5 -62.5l-3 1q-1 27 -9.5 44t-21 26.5t-28.5 13t-32 3.5q-27 0 -48 -11.5t-38 -31.5t-31.5 -48.5t-27.5 -61.5l30 -9l19 44.5t22 40.5t26 29.5t31 11.5q14 0 21 -7.5t7 -27.5q0 -5 -2 -14.5
t-5 -21l-6 -23.5t-6 -21l-130 -418l-15 -43t-23 -41q-9 -11 -24.5 -16.5t-50.5 -5.5l-8 -29h285l8 30q-18 1 -28.5 1.5t-29.5 2.5q-17 2 -29 8.5t-12 23.5q0 19 14 67l47 152h4q8 -29 35 -46.5t60 -17.5q45 0 83.5 16t69.5 42t55 60t40 69.5t24.5 70.5t8.5 63zM452 323
q0 -43 -13.5 -95.5t-37.5 -98.5t-57 -77.5t-72 -31.5q-36 0 -58 16.5t-33 58.5l73 236q23 37 57 65.5t76 28.5q10 0 21 -3t21 -13.5t16.5 -31t6.5 -54.5z" />
    <glyph glyph-name="q" unicode="q" horiz-adv-x="526" 
d="M520 464h-72l-34 -58h-4q-11 32 -40 48t-60 16q-45 0 -83.5 -16.5t-70 -43.5t-56 -61.5t-41 -71t-25 -71.5t-8.5 -62q0 -47 12.5 -77.5t33 -48t45.5 -24.5t50 -7q21 0 41.5 7t37.5 17.5t31 23.5t23 24l4 -1l-50 -157l-15.5 -44.5t-22.5 -39.5q-19 -22 -87 -22l-8 -29h289
l8 30q-9 0 -14.5 0.5l-10.5 1t-11 1t-15 1.5q-17 2 -28.5 8.5t-11.5 23.5q0 10 3 27t11 40zM398 361l-74 -235q-23 -39 -59.5 -66.5t-79.5 -27.5q-10 0 -21.5 2t-21.5 11.5t-16.5 28.5t-6.5 54q0 29 6.5 63t18.5 68.5t28.5 66.5t37 57t44.5 40t50 15q35 0 58 -17.5t36 -59.5
z" />
    <glyph glyph-name="r" unicode="r" horiz-adv-x="429" 
d="M452 409q0 23 -16.5 42t-48.5 19q-23 0 -40.5 -8t-32 -20.5t-27 -29.5t-23.5 -35l-3 1q0 28 -8 46t-21 28t-29.5 14t-32.5 4q-27 0 -48 -11.5t-38 -31.5t-31.5 -48.5t-27.5 -61.5l30 -9l19 44.5t22 40.5t26 29.5t31 11.5q14 0 21 -7.5t7 -27.5q0 -5 -2 -15t-5 -22
l-6 -23.5t-6 -19.5l-99 -319h90l93 305l24.5 42.5t28 41.5t29.5 31.5t28 12.5q12 0 13.5 -2.5t1.5 -9.5q0 -3 -3.5 -7.5t-8 -9.5t-8 -12t-3.5 -16q0 -17 11.5 -29.5t37.5 -12.5q13 0 23.5 7.5t17.5 18.5t10.5 24t3.5 25z" />
    <glyph glyph-name="s" unicode="s" horiz-adv-x="402" 
d="M380 368q0 9 -4.5 26.5t-18.5 34.5t-39.5 29.5t-67.5 12.5q-31 0 -60 -13t-51.5 -34t-36 -47t-13.5 -51q0 -32 13 -53.5t33 -38t43 -29.5t43 -28.5t33 -35t13 -47.5q0 -20 -10 -34.5t-26 -24t-37 -14t-43 -4.5q-20 0 -37.5 5t-31.5 13.5t-22 19.5t-8 23q0 4 5 6t19 2
q26 0 35.5 15t9.5 29q0 6 -2.5 14t-9 14.5t-17.5 11.5t-28 5q-11 0 -21 -6.5t-17.5 -17t-12.5 -23.5t-5 -27q0 -18 8.5 -38.5t26.5 -37.5t47.5 -28.5t71.5 -11.5q34 0 66 13.5t57 34.5t40 48t15 54q0 32 -13 54t-33 39t-42.5 30.5t-42.5 27.5t-33 31.5t-13 41.5q0 22 9 37.5
t22 25t28 14t27 4.5q25 0 41.5 -5t26 -11.5t13.5 -13.5t5 -11q-2 -4 -11 -8t-18.5 -10t-17 -15.5t-7.5 -24.5q0 -22 15 -31.5t35 -9.5q22 0 35.5 20t13.5 48z" />
    <glyph glyph-name="t" unicode="t" horiz-adv-x="340" 
d="M370 454h-128l46 155h-87l-44 -155h-97l-13 -40h96q-8 -24 -20.5 -66l-25.5 -86.5l-24.5 -82.5t-15.5 -55l-6 -24t-4 -34q0 -24 10.5 -39t26.5 -23.5t34 -11.5t32 -3q52 0 88 40t64 108l-29 11q-24 -54 -48 -88.5t-58 -34.5q-11 0 -22.5 5t-11.5 29q0 11 4.5 32.5
t11.5 44.5l22 76.5l20 69l19.5 66l19.5 66.5h127z" />
    <glyph glyph-name="u" unicode="u" horiz-adv-x="600" 
d="M586 134l-29 10q-8 -20 -17.5 -41.5t-20.5 -38.5t-25 -28t-32 -11q-14 0 -24.5 7.5t-10.5 27.5q0 14 5.5 38t10.5 40l104 318h-92l-100 -320q-12 -21 -27.5 -40t-34 -33.5t-38.5 -23.5t-41 -9q-20 0 -34.5 9t-14.5 41q0 14 5.5 33t13.5 39l60 155q10 26 15.5 45.5
t5.5 37.5q0 21 -9 36t-23.5 25t-32 14.5t-35.5 4.5q-27 0 -48 -11.5t-38 -31.5t-31.5 -48.5t-27.5 -61.5l30 -9l19 44.5t22 40.5t26 29.5t31 11.5q14 0 21.5 -7.5t7.5 -27.5q0 -9 -4.5 -30.5t-15.5 -49.5l-56 -146q-8 -20 -14 -41.5t-6 -32.5q0 -22 8.5 -42.5t24 -36
t37 -24.5t46.5 -9q21 0 42 7.5t40 21t36 30.5t30 37l3 -1q0 -30 9 -48.5t23.5 -28t31.5 -13t33 -3.5q27 0 47.5 11.5t37.5 31t30.5 46t25.5 56.5z" />
    <glyph glyph-name="v" unicode="v" horiz-adv-x="530" 
d="M510 380q0 17 -2 33t-7.5 29t-16 20.5t-28.5 7.5q-21 0 -36.5 -16t-15.5 -36q0 -27 8 -41.5t17 -26.5t17 -27.5t8 -45.5q0 -53 -20 -97t-49.5 -76t-64 -50t-64.5 -18q-13 0 -27 4t-25.5 14t-19 26.5t-7.5 42.5q0 46 14 91.5t35.5 88t48 79t52.5 64.5l-22 26
q-27 -29 -54 -41t-61 -12q-11 0 -24 2.5t-26 8.5t-24.5 15t-18.5 23h-19l-56 -178l30 -9l25 91q17 -11 59 -11q28 0 56 13.5t63 32.5l5 -7q-81 -72 -128 -139.5t-47 -141.5q0 -33 11 -58t29.5 -41.5t42.5 -25t49 -8.5q63 0 116.5 33.5t93 88.5t61.5 126t22 146z" />
    <glyph glyph-name="w" unicode="w" horiz-adv-x="733" 
d="M711 374q0 17 -2 34t-7.5 31t-16 22.5t-28.5 8.5q-21 0 -34.5 -16t-13.5 -36q0 -29 8 -44t17.5 -27.5t17.5 -28t8 -43.5q0 -41 -14.5 -82.5t-38.5 -74.5t-55.5 -54t-65.5 -21q-8 0 -21 0.5t-26 7t-24.5 21.5t-17.5 43q26 32 50.5 67.5t43 71.5t30 70.5t11.5 65.5
q0 33 -8.5 56.5t-33.5 23.5q-17 0 -36.5 -16t-39 -41.5t-37.5 -58.5t-32 -67t-22.5 -66t-8.5 -57q0 -24 3 -42.5t6 -33.5q-20 -26 -46.5 -40.5t-44.5 -14.5q-23 0 -40 19.5t-17 69.5q0 52 13 99t34 87.5t46.5 74.5t51.5 60l-21 29q-23 -30 -49.5 -41.5t-59.5 -11.5
q-11 0 -24 2.5t-26 8.5t-24.5 15t-18.5 23h-19l-56 -178l30 -9l25 91q17 -11 59 -11q28 0 55 13t62 32l4 -6q-80 -72 -126.5 -138t-46.5 -140q0 -69 33 -102t84 -33q26 0 62 19.5t71 54.5q17 -37 45.5 -56t60.5 -19q55 0 104.5 32.5t86.5 86.5t58.5 124t21.5 145zM501 367
q0 -20 -9 -46.5t-24.5 -56t-36 -60t-42.5 -57.5q0 7 -0.5 20t-0.5 22q0 69 8 119t28 77q7 9 19 13t26 4t23 -9t9 -26z" />
    <glyph glyph-name="x" unicode="x" horiz-adv-x="538" 
d="M552 387q0 42 -20.5 62.5t-49.5 20.5q-24 0 -46 -11t-41 -28.5t-33 -38.5t-22 -42h-3q0 43 -11.5 67t-28 36t-36 14.5t-35.5 2.5q-26 0 -48.5 -11.5t-41.5 -31.5t-35 -48.5t-29 -61.5l30 -9q9 22 20.5 44.5t25.5 40.5t30 29.5t34 11.5q7 0 15.5 -1.5t16 -8t13 -20
t5.5 -38.5q0 -26 -7.5 -60t-19.5 -72q-8 -25 -21.5 -60.5t-33 -68.5t-45.5 -56.5t-59 -23.5q-16 0 -18.5 16t-2.5 46q0 24 9 48t25 50l-24 12q-12 -10 -26 -25t-26 -33t-20 -39t-8 -44q0 -30 17.5 -49t62.5 -19q30 0 54.5 12.5t43.5 31.5t32.5 42.5t22.5 44.5h3
q0 -47 12.5 -73.5t30.5 -39t37.5 -15t32.5 -2.5q31 0 54.5 10.5t42.5 30t33.5 46t27.5 58.5l-29 10q-23 -55 -48 -86t-57 -31q-6 0 -16 1t-19.5 8.5t-16.5 23t-7 45.5q0 20 6 47.5t14 59.5q4 14 16 51t31.5 76t47 69t61.5 30q14 0 18 -9t4 -26q0 -14 -4 -32.5t-9 -37.5
t-11 -34.5t-10 -23.5l22 -11q24 22 45.5 51.5t21.5 71.5z" />
    <glyph glyph-name="y" unicode="y" horiz-adv-x="545" 
d="M545 456h-89l-102 -332q-12 -17 -27.5 -33.5t-33.5 -29.5t-38 -21t-41 -8q-20 0 -35 8.5t-15 40.5q0 14 5.5 33.5t13.5 39.5l61 153q11 26 16 45.5t5 37.5q0 21 -9 36t-23.5 25t-32 14.5t-35.5 4.5q-27 0 -48 -11.5t-38 -31.5t-31.5 -48.5t-27.5 -61.5l30 -9l19 44.5
t22 40.5t26 29.5t31 11.5q14 0 21.5 -7.5t7.5 -27.5q0 -9 -4.5 -31t-15.5 -49l-56 -144q-8 -20 -14 -42t-6 -33q0 -22 8.5 -42.5t24 -36t37 -24.5t46.5 -9q43 0 79.5 26t62.5 60l4 -1q-25 -77 -55 -131t-63.5 -88t-68.5 -49t-71 -15q-8 0 -20.5 1t-24.5 5t-21 10.5t-11 18.5
q3 13 13.5 14t22 3t20.5 11.5t9 38.5q0 11 -11.5 26.5t-34.5 15.5q-12 0 -24 -3.5t-22 -11.5t-16.5 -21.5t-6.5 -32.5q0 -11 4.5 -28.5t18.5 -34t40 -29t70 -12.5q52 0 102.5 19.5t95 61t82.5 107t67 157.5z" />
    <glyph glyph-name="z" unicode="z" horiz-adv-x="430" 
d="M454 439q0 18 -11 24t-26 6q-17 0 -24.5 -12.5t-7.5 -32.5v-18t-3 -14t-10.5 -9t-22.5 -3q-25 0 -46.5 13.5t-43 30t-45.5 30.5t-55 14q-19 0 -36.5 -8t-31 -21.5t-21.5 -31t-8 -35.5q0 -26 10 -44t24.5 -30t31.5 -19t32 -12l11 23q-22 7 -39 18t-17 35q0 19 17 29t49 10
q15 0 32 -4.5t37 -10.5t43 -11t51 -6l2 -5l-97 -71l-88 -68.5l-74.5 -60l-56.5 -46.5q-24 -20 -37.5 -40.5t-13.5 -37.5t10 -25.5t19 -8.5q42 0 42 39q0 10 -0.5 18t1 14t5.5 10.5t14 7.5q22 0 49.5 -14t56 -30.5t55 -30t47.5 -13.5q22 0 41 7.5t33 20.5t22 30.5t8 36.5
q0 35 -16.5 61t-63.5 38l-8 -24q20 -5 30.5 -15t10.5 -28q0 -26 -27 -35t-65 -9q-20 0 -37 4.5t-34.5 10l-36.5 11.5t-41 9l-1 6l90 70.5l89.5 69.5l76.5 59.5l52 41.5t29 27t16 22t6.5 19t1.5 18z" />
    <glyph glyph-name="braceleft" unicode="{" horiz-adv-x="430" 
d="M512 744q-72 0 -122 -13t-82 -41.5t-48.5 -74t-20.5 -110.5q-4 -54 -17 -88t-37.5 -54t-60.5 -29.5t-85 -14.5l-15 -63q68 -6 101.5 -24t33.5 -60q0 -27 -10 -54.5t-21.5 -56t-21.5 -59.5t-10 -64q0 -57 42 -82t146 -25l9 33q-60 4 -85 18t-25 50q0 24 8.5 50l18 53.5
t18 57.5t8.5 61q0 29 -9 49t-27 33.5t-44 22.5t-60 16l6 25q46 9 86.5 24t71.5 42.5t51 70t26 107.5q4 48 14.5 79t30 49.5t49 27t72.5 11.5z" />
    <glyph glyph-name="bar" unicode="|" horiz-adv-x="340" 
d="M217 -207v953h-52v-953h52z" />
    <glyph glyph-name="braceright" unicode="}" horiz-adv-x="430" 
d="M433 319q-68 6 -101.5 24t-33.5 60q0 27 10 54.5t21.5 56t21.5 59.5t10 64q0 57 -42 82t-146 25l-9 -33q60 -4 85 -18t25 -50q0 -24 -8.5 -50l-18 -53.5t-18 -57.5t-8.5 -61q0 -29 9 -49t27 -33.5t44 -22.5t60 -16l-6 -25q-47 -9 -87 -24t-71 -42.5t-51 -70.5t-26 -107
q-5 -48 -15 -79t-29.5 -49.5t-49 -27t-72.5 -11.5l-9 -33q72 0 122 13t82 41.5t48 74t21 110.5q4 54 17 87.5t37.5 54t60.5 30t85 14.5z" />
    <glyph glyph-name="asciitilde" unicode="~" horiz-adv-x="540" 
d="M484 310l-20 7q-17 -32 -38.5 -44.5t-59.5 -12.5q-19 0 -38 7l-39.5 15t-44 15t-51.5 7q-24 0 -46.5 -11.5t-41 -29.5t-31.5 -40t-19 -44l20 -7q17 32 38.5 44.5t59.5 12.5q19 0 37 -7l38.5 -15t44 -15t53.5 -7q24 0 46.5 11.5t41 29.5t31.5 40t19 44z" />
    <glyph glyph-name="exclamdown" unicode="&#xa1;" horiz-adv-x="365" 
d="M342 631q0 26 -18 43.5t-44 17.5t-44 -17.5t-18 -43.5t18 -44t44 -18t44 18t18 44zM260 468l-34 7l-61.5 -164l-50 -127.5t-34 -90t-12.5 -51.5q0 -26 13.5 -41t37.5 -15q28 0 46.5 19.5t26.5 48.5q4 16 10 55.5l14 95t19 123.5t25 140z" />
    <glyph glyph-name="cent" unicode="&#xa2;" horiz-adv-x="455" 
d="M459 449q0 15 -7.5 29t-21 26t-31 21t-38.5 12l46 123l-30 10l-48 -132q-41 -2 -76.5 -18.5t-65.5 -43t-53.5 -59.5t-39.5 -67.5t-24.5 -68t-8.5 -59.5q0 -35 8 -61t21 -44t30.5 -29t36.5 -17l-66 -180l28 -9l68 183q7 -1 13 -1h13q27 0 53.5 7.5t53 25.5t52 48t49.5 74
l-28 12q-31 -57 -72 -92t-92 -35q-15 0 -26 4l150 405q17 -4 27 -12.5t15 -20.5q-17 -12 -23.5 -24.5t-6.5 -28.5q0 -24 13 -34.5t30 -10.5q26 0 38.5 20.5t12.5 46.5zM320 514l-144 -390q-22 25 -22 77q0 46 14 98.5t37.5 98.5t53 78.5t61.5 37.5z" />
    <glyph glyph-name="sterling" unicode="&#xa3;" horiz-adv-x="790" 
d="M749 555q0 25 -9 48t-27.5 40.5t-46.5 28t-66 10.5q-57 0 -105 -22t-85.5 -58t-62.5 -82.5t-37 -94.5q-5 -19 -7.5 -40.5l-4.5 -40t-2.5 -31.5t-0.5 -16h-129l-12 -39h138q0 -17 -2.5 -39.5t-6 -45t-8 -43.5t-9.5 -36q-24 11 -60 20.5t-72 9.5q-32 0 -57.5 -9
t-43.5 -23.5t-27.5 -33.5t-9.5 -39q0 -64 101 -64q16 0 36.5 5t41.5 14t41 21.5t35 27.5q19 -12 40.5 -24t45 -21.5t47 -15.5t46.5 -6q61 0 107 23t78 58t52 75.5t31 76.5l-35 9q-9 -27 -22.5 -54.5t-34 -50.5t-49.5 -37.5t-68 -14.5q-32 0 -56.5 3.5t-46.5 9.5t-43.5 14.5
t-47.5 17.5q36 33 58 81.5t31 90.5h167l12 39h-169q3 19 8 46l10 54l9.5 51t7.5 36q12 49 32 81t42.5 50.5t46 25.5t42.5 7q29 0 46.5 -6.5t26.5 -16.5t11.5 -22t2.5 -22q0 -13 -9.5 -20t-21.5 -14.5t-21.5 -19t-9.5 -34.5q0 -17 11.5 -31t41.5 -14q19 0 34 10.5t25 26.5
t15 35t5 35zM226 37q-25 -20 -58 -32.5t-65 -12.5q-36 0 -54.5 11t-18.5 27q0 17 17.5 32.5t54.5 15.5q34 0 66 -12.5t58 -28.5z" />
    <glyph glyph-name="fraction" unicode="&#x2044;" horiz-adv-x="370" 
d="M529 725l-40 27l-684 -938l40 -26z" />
    <glyph glyph-name="yen" unicode="&#xa5;" horiz-adv-x="599" 
d="M684 607h-228l-7 -30q28 -2 50 -7.5t22 -21.5q0 -5 -14 -24.5t-39 -49.5l-60.5 -70.5l-77.5 -87.5q-29 103 -44.5 164.5t-15.5 70.5q0 7 9 11.5t23 7.5t30.5 4.5t31.5 2.5l7 30h-279l-7 -30q13 -1 27 -4t24 -10q14 -9 23.5 -21t17.5 -35l28 -95t28 -106q2 -8 3.5 -17
t1.5 -16h-151l-8 -37h156l-40 -146q-5 -16 -14 -29t-29 -20q-6 -2 -16 -3.5l-21 -3t-21.5 -2.5t-16.5 -1l-8 -31h299l8 31q-7 0 -17.5 2l-20.5 4t-18.5 4.5t-12.5 4.5q-11 5 -16 11t-5 17q0 6 3 20l32 117q3 14 9 25h162l8 37h-150q6 10 12.5 18.5l11.5 15.5
q60 74 102 120.5t70.5 74.5t46.5 40.5t29 18.5q4 2 11.5 4.5t16 5l15.5 4.5t11 2z" />
    <glyph glyph-name="florin" unicode="&#x192;" horiz-adv-x="494" 
d="M547 543q0 15 -8 30t-21.5 26t-33 18t-41.5 7q-35 0 -71.5 -11.5t-72.5 -43.5q-48 -43 -79 -97.5t-53 -134.5h-105l-12 -41h106l-18 -61.5l-16.5 -58.5t-19 -63l-24.5 -75q-19 -55 -37.5 -93.5t-38.5 -63t-43 -35.5t-51 -11q-10 0 -17 10q7 7 14 20.5t7 26.5
q0 25 -13.5 37.5t-36.5 12.5q-26 0 -41.5 -16.5t-15.5 -41.5q0 -15 5 -29t16 -25t30 -17.5t47 -6.5q37 0 71.5 12.5t74.5 45.5q48 38 78 91.5t50 110.5q19 56 35 110l36 120h124l13 41h-126l17 59q31 107 70 152.5t87 45.5q15 0 21 -12q-15 -32 -15 -52q0 -24 14 -34.5
t36 -10.5q26 0 42 18.5t16 39.5z" />
    <glyph glyph-name="section" unicode="&#xa7;" horiz-adv-x="550" 
d="M555 626q0 24 -10 44.5t-27.5 35.5t-42 23.5t-53.5 8.5q-41 0 -74 -15.5t-56 -41.5t-36 -59.5t-13 -68.5q0 -18 3 -35.5t13 -40.5q-41 -3 -72 -16.5t-52.5 -35t-32.5 -49.5t-11 -58q0 -16 1.5 -29t6 -26.5t13 -30t21.5 -39.5q14 -27 27 -47.5l25 -39t22.5 -36.5t19.5 -38
q10 -20 15.5 -34.5t8.5 -25.5t3.5 -20.5t0.5 -20.5q0 -25 -7.5 -48t-21.5 -40t-33 -27.5t-42 -10.5q-29 0 -47.5 13.5t-18.5 30.5q0 9 4.5 15t10.5 12.5t10.5 14t4.5 19.5q0 17 -12.5 29.5t-31.5 12.5q-23 0 -40.5 -17.5t-17.5 -49.5q0 -24 10 -44.5t27.5 -35.5t42 -23.5
t54.5 -8.5q38 0 71.5 14.5t58 40t39 60t14.5 74.5q0 23 -4.5 42.5t-13.5 42.5q32 2 62.5 11.5t54.5 28t38.5 46.5t14.5 69q0 13 -2 25t-7 26t-14 32l-22 42l-27 47.5l-23 39.5l-21 36.5t-20 38.5q-9 20 -15 35t-9.5 27t-5 22.5t-1.5 21.5q0 22 7 42.5t19.5 35.5t31 24
t41.5 9q32 0 50.5 -13.5t18.5 -30.5q0 -9 -4.5 -15t-10.5 -12.5t-10.5 -14t-4.5 -19.5q0 -17 12.5 -29.5t31.5 -12.5q23 0 40.5 17.5t17.5 49.5zM408 167q0 -45 -31.5 -64t-77.5 -25q-11 22 -23 43l-26 44l-29.5 49t-32.5 58q-13 24 -19.5 42.5t-6.5 35.5q0 41 26.5 65.5
t83.5 29.5q20 -41 47.5 -87t62.5 -112q14 -24 20 -40t6 -39z" />
    <glyph glyph-name="currency" unicode="&#xa4;" horiz-adv-x="615" 
d="M220 335h224l10 37h-224q17 58 41 98.5t51.5 66t56 37t54.5 11.5q28 0 45 -6t26 -14.5t12.5 -16.5t4.5 -11q-1 -6 -6.5 -12t-11.5 -14t-10.5 -18.5t-4.5 -25.5q0 -20 12 -34t39 -14q18 0 30.5 7.5t20 19.5t11 26t3.5 27q0 21 -8 42.5t-27 39t-50.5 28.5t-78.5 11
q-52 0 -99 -20t-86.5 -54t-70 -79t-49.5 -95h-72l-10 -37h70q-4 -18 -8.5 -41t-7.5 -44h-68l-9 -37h75v-26q0 -41 11 -77t34.5 -63t60 -43t88.5 -16q42 0 77 12.5t64.5 34t54 50.5t45.5 62l-29 16q-19 -29 -37.5 -51.5t-39 -37.5t-45 -23t-55.5 -8q-133 0 -133 151v19h180
l8 37h-185l8 46t8 39z" />
    <glyph glyph-name="quotesingle" unicode="'" horiz-adv-x="196" 
d="M251 685q0 22 -14 37t-40 15q-53 0 -53 -70q0 -20 -1.5 -73t-5.5 -122h24l38.5 84l28 61.5t17.5 41.5t6 26z" />
    <glyph glyph-name="quotedblleft" unicode="&#x201c;" horiz-adv-x="361" 
d="M456 716l-14 26q-74 -38 -113 -85.5t-39 -107.5q0 -35 17 -54t49 -19q15 0 27.5 5.5t20.5 14.5t12.5 19.5t4.5 20.5q0 22 -15.5 37.5t-47.5 15.5h-18q8 43 39 72.5t77 54.5zM280 716l-14 26q-74 -38 -113 -85.5t-39 -107.5q0 -35 17 -54t49 -19q15 0 27.5 5.5t20.5 14.5
t12.5 19.5t4.5 20.5q0 22 -15.5 37.5t-47.5 15.5h-18q8 43 39 72.5t77 54.5z" />
    <glyph glyph-name="guillemotleft" unicode="&#xab;" horiz-adv-x="580" 
d="M559 415l-16 17l-82 -56l-76.5 -50.5l-63.5 -41l-43 -27.5q-6 -4 -10.5 -12t-7.5 -16t-4.5 -15t-1.5 -9q0 -5 2 -9t13 -14l65.5 -67l96.5 -100l19 12l-106 190zM350 415l-16 17l-82 -56l-76.5 -50.5l-63.5 -41l-43 -27.5q-6 -4 -10.5 -12t-7.5 -16t-4.5 -15t-1.5 -9
q0 -5 2 -9t13 -14l65.5 -67l96.5 -100l19 12l-106 190z" />
    <glyph glyph-name="guilsinglleft" unicode="&#x2039;" horiz-adv-x="370" 
d="M350 415l-16 17l-82 -56l-76.5 -50.5l-63.5 -41l-43 -27.5q-6 -4 -10.5 -12t-7.5 -16t-4.5 -15t-1.5 -9q0 -5 2 -9t13 -14l65.5 -67l96.5 -100l19 12l-106 190z" />
    <glyph glyph-name="guilsinglright" unicode="&#x203a;" horiz-adv-x="370" 
d="M312 242q0 5 -2 9t-13 14l-65.5 67l-96.5 100l-19 -12l106 -190l-215 -198l16 -17l82 55.5l76.5 50.5l63.5 41l43 28q6 4 10.5 12t7.5 16t4.5 15t1.5 9z" />
    <glyph glyph-name="fi" unicode="&#xfb01;" horiz-adv-x="585" 
d="M571 655q0 15 -6 30.5t-19 28.5t-33.5 21t-48.5 8q-39 0 -77.5 -11.5t-77.5 -43.5q-52 -42 -82 -92.5t-48 -110.5l-10 -31h-106l-12 -40h106l-46.5 -188t-63.5 -230q-17 -55 -34 -93.5t-36.5 -62.5t-42 -35t-50.5 -11q-5 0 -10.5 2t-7.5 6q9 13 15.5 24.5t6.5 22.5
q0 14 -5.5 23.5t-14 15t-18 8t-17.5 2.5q-25 0 -39 -17.5t-14 -36.5q0 -15 4.5 -29t16 -25.5t30.5 -18.5t49 -7q37 0 69 12.5t71 45.5q46 38 74.5 91t46.5 111q13 41 26 90l26.5 100.5l26.5 103.5l25 98h179q-2 -25 -8 -46.5t-17 -50.5l-62 -169q-10 -26 -15 -45.5t-5 -37.5
q0 -23 10.5 -38t25.5 -24t32.5 -12.5t31.5 -3.5q52 0 85.5 40.5t59.5 104.5l-29 10q-12 -27 -22.5 -48.5t-21.5 -37.5t-24 -24.5t-30 -8.5q-11 0 -22 5.5t-11 29.5q0 11 7 34.5t15 43.5l52 136q10 27 19 54.5t16 52t11 43.5t5 30h-271l18 61q16 55 35.5 93t42 61t47.5 33
t52 10q19 0 28 -6q-2 -16 -12 -32t-10 -27q0 -14 6 -23t15 -15t19 -8.5t18 -2.5q15 0 25.5 6.5t17 15.5t10 19t3.5 16z" />
    <glyph glyph-name="fl" unicode="&#xfb02;" horiz-adv-x="603" 
d="M635 738l-100 -23q-12 11 -34 19.5t-48 8.5q-38 0 -75 -11.5t-75 -43.5q-25 -21 -44 -43t-33.5 -47t-26 -52.5t-21.5 -60.5l-9 -30h-106l-12 -40h106l-46.5 -188.5t-63.5 -230.5q-17 -55 -34 -93.5t-36.5 -62.5t-42 -35t-50.5 -11q-5 0 -11 2t-7 6q9 13 15 23.5t6 23.5
q0 14 -5.5 23.5t-13.5 15t-17.5 8t-17.5 2.5q-25 0 -39 -17.5t-14 -36.5q0 -15 4.5 -29t16 -25.5t30.5 -18.5t49 -7q37 0 69 12.5t71 45.5q46 38 74.5 91t46.5 111q13 41 26 90l26.5 100.5l26.5 103l25 97.5h124l13 40h-126l17 60q30 106 73 151.5t94 45.5q16 0 27.5 -3
t18.5 -7q0 -18 1 -28.5t4.5 -17t9 -9.5t13.5 -5l-155 -492q-7 -23 -12.5 -44t-5.5 -40q0 -23 10 -38t25 -23.5t32 -12t31 -3.5q26 0 47 10.5t38.5 30t32 46t27.5 58.5l-29 10q-12 -27 -22.5 -48.5t-21.5 -37.5t-24 -24.5t-30 -8.5q-11 0 -22 5.5t-11 29.5q0 11 6 33.5
t13 42.5z" />
    <glyph glyph-name="endash" unicode="&#x2013;" horiz-adv-x="512" 
d="M481 300h-412l-16 -58h412z" />
    <glyph glyph-name="dagger" unicode="&#x2020;" horiz-adv-x="492" 
d="M512 422q0 15 -9.5 27t-24.5 12q-31 0 -44 -32q-9 2 -18 9.5l-19.5 15.5t-23 14.5t-28.5 6.5q-8 0 -16 -2.5t-18 -9.5q9 30 23.5 59l28 55t23 47.5t9.5 36.5q0 20 -11 33t-31 13q-21 0 -35 -17.5t-16 -53.5q-1 -15 -2 -37t-3 -45.5t-4.5 -46t-5.5 -38.5q-7 15 -19 26
t-34 11q-9 0 -19 -3l-19.5 -6t-18.5 -5t-16 0q2 22 -10 36t-28 14q-17 0 -28 -13t-11 -27q0 -25 16 -41.5t39 -16.5q14 0 26.5 5.5t24.5 12l23 12t21 5.5q25 0 25 -27v-10t-2 -11l-24.5 -117l-28 -126.5l-29 -125.5l-27.5 -114l23 -7l33.5 114l37.5 123.5l38.5 123
l36.5 113.5q8 23 14.5 28.5t14.5 5.5q15 0 26.5 -12t23 -27t25 -27t34.5 -12q23 0 40 13.5t17 37.5z" />
    <glyph glyph-name="daggerdbl" unicode="&#x2021;" horiz-adv-x="522" 
d="M539 512q0 14 -11 25.5t-26 11.5q-30 0 -42 -31q-7 2 -16.5 7t-20 10t-22.5 8.5t-23 3.5t-18 -2.5t-17 -9.5q4 13 14.5 28.5l22 32.5t20 34.5t8.5 32.5q0 17 -11 30.5t-31 13.5q-26 0 -37.5 -20t-11.5 -48q0 -23 2.5 -42t2.5 -35q0 -5 -0.5 -10t-1.5 -10q-8 15 -24 26.5
t-42 11.5q-18 0 -27.5 -2.5t-19.5 -0.5q2 19 -9 34.5t-30 15.5q-14 0 -25.5 -10t-11.5 -32q0 -19 15.5 -30t38.5 -11q17 0 31 5t37 5q21 0 31.5 -8.5t10.5 -30.5q0 -6 -0.5 -12.5t-2.5 -18.5q-4 -24 -9.5 -60t-13.5 -79l19 -5q7 21 15 42l15.5 40.5l13.5 35.5t10 25
q8 18 16 28t21 10t27 -7.5t29 -17t31 -17t33 -7.5q16 0 28 11.5t12 28.5zM417 65q0 19 -15.5 30t-38.5 11q-17 0 -31 -5t-37 -5q-21 0 -31.5 8.5t-10.5 31.5q0 9 3 30l9 58t14 81l-19 5l-15.5 -42l-15 -40.5l-13.5 -35.5t-10 -25q-8 -18 -16 -28t-21 -10q-14 0 -27.5 7.5
t-28.5 17t-31 17t-33 7.5q-16 0 -28 -11.5t-12 -28.5q0 -14 11 -25.5t26 -11.5q30 0 42 31q7 -2 16.5 -7t20 -10t22.5 -8.5t23 -3.5t18 2.5t17 9.5q-4 -13 -14.5 -28.5l-22 -32.5t-20 -34.5t-8.5 -32.5q0 -17 11 -30.5t31 -13.5q26 0 37.5 20t11.5 48q0 23 -2.5 44t-2.5 32
q0 5 0.5 10.5t1.5 10.5q8 -15 24 -26.5t42 -11.5q18 0 27.5 2.5t19.5 0.5q-2 -19 9 -34.5t30 -15.5q14 0 25.5 10t11.5 32z" />
    <glyph glyph-name="periodcentered" unicode="&#xb7;" horiz-adv-x="282" 
d="M217 272q0 27 -19.5 46.5t-46.5 19.5t-46.5 -19.5t-19.5 -46.5t19.5 -46t46.5 -19t46.5 19t19.5 46z" />
    <glyph glyph-name="periodcentered" unicode="&#x22c5;" horiz-adv-x="282" 
d="M217 272q0 27 -19.5 46.5t-46.5 19.5t-46.5 -19.5t-19.5 -46.5t19.5 -46t46.5 -19t46.5 19t19.5 46z" />
    <glyph glyph-name="paragraph" unicode="&#xb6;" horiz-adv-x="609" 
d="M693 683h-359q-59 0 -103 -17t-73 -44.5t-44 -61.5t-15 -68q0 -68 54 -109t151 -41h5l-116 -467h38l193 776h86l-193 -776h38l193 776h137z" />
    <glyph glyph-name="bullet" unicode="&#x2022;" horiz-adv-x="413" 
d="M359 325q0 28 -11 52.5t-29.5 43t-43 29.5t-52.5 11t-52.5 -11t-43 -29.5t-29.5 -43t-11 -52.5t11 -52.5t29.5 -42.5t43 -28.5t52.5 -10.5t52.5 10.5t43 28.5t29.5 42.5t11 52.5z" />
    <glyph glyph-name="quotesinglbase" unicode="&#x201a;" horiz-adv-x="259" 
d="M156 39q0 40 -18 59t-49 19q-16 0 -28.5 -6t-21.5 -15.5t-13.5 -20.5t-4.5 -21q0 -22 16 -37.5t47 -15.5h21q-8 -42 -38.5 -70.5t-76.5 -53.5l15 -27q69 36 110 83t41 106z" />
    <glyph glyph-name="quotedblbase" unicode="&#x201e;" horiz-adv-x="431" 
d="M328 41q0 35 -17 54t-49 19q-15 0 -27.5 -5.5t-20.5 -14.5t-12.5 -19.5t-4.5 -20.5q0 -22 15.5 -37.5t47.5 -15.5h18q-8 -43 -39 -72.5t-77 -54.5l14 -26q74 38 113 85.5t39 107.5zM152 41q0 35 -17 54t-49 19q-15 0 -27.5 -5.5t-20.5 -14.5t-12.5 -19.5t-4.5 -20.5
q0 -22 15.5 -37.5t47.5 -15.5h18q-8 -43 -39 -72.5t-77 -54.5l14 -26q74 38 113 85.5t39 107.5z" />
    <glyph glyph-name="quotedblright" unicode="&#x201d;" horiz-adv-x="361" 
d="M449 664q0 35 -17 54t-49 19q-15 0 -27.5 -5.5t-20.5 -14.5t-12.5 -19.5t-4.5 -20.5q0 -22 15.5 -37.5t47.5 -15.5h18q-8 -43 -39 -72.5t-77 -54.5l14 -26q74 38 113 85.5t39 107.5zM273 664q0 35 -17 54t-49 19q-15 0 -27.5 -5.5t-20.5 -14.5t-12.5 -19.5t-4.5 -20.5
q0 -22 15.5 -37.5t47.5 -15.5h18q-8 -43 -39 -72.5t-77 -54.5l14 -26q74 38 113 85.5t39 107.5z" />
    <glyph glyph-name="guillemotright" unicode="&#xbb;" horiz-adv-x="580" 
d="M539 242q0 5 -2 9t-13 14l-65.5 67l-96.5 100l-19 -12l106 -190l-215 -198l16 -17l82 55.5l76.5 50.5l63.5 41l43 28q6 4 10.5 12t7.5 16t4.5 15t1.5 9zM330 242q0 5 -2 9t-13 14l-65.5 67l-96.5 100l-19 -12l106 -190l-215 -198l16 -17l82 55.5l76.5 50.5l63.5 41l43 28
q6 4 10.5 12t7.5 16t4.5 15t1.5 9z" />
    <glyph glyph-name="ellipsis" unicode="&#x2026;" horiz-adv-x="788" 
d="M712 55q0 26 -19 45t-45 19t-45 -19t-19 -45t19 -44.5t45 -18.5t45 18.5t19 44.5zM438 55q0 26 -19 45t-45 19t-45 -19t-19 -45t19 -44.5t45 -18.5t45 18.5t19 44.5zM164 55q0 26 -19 45t-45 19t-45 -19t-19 -45t19 -44.5t45 -18.5t45 18.5t19 44.5z" />
    <glyph glyph-name="perthousand" unicode="&#x2030;" horiz-adv-x="1202" 
d="M1152 183q0 57 -38.5 90t-96.5 33q-38 0 -73.5 -16.5t-63.5 -43.5t-44.5 -62.5t-16.5 -73.5q0 -57 38.5 -90t96.5 -33q38 0 73.5 16.5t63.5 43.5t44.5 62.5t16.5 73.5zM770 183q0 57 -38.5 90t-96.5 33q-38 0 -73.5 -16.5t-63.5 -43.5t-44.5 -62.5t-16.5 -73.5
q0 -57 38.5 -90t96.5 -33q38 0 73.5 16.5t63.5 43.5t44.5 62.5t16.5 73.5zM770 669l-34 24l-665 -770l32 -24zM412 496q0 57 -38.5 90t-96.5 33q-38 0 -73.5 -16.5t-63.5 -43.5t-44.5 -62.5t-16.5 -73.5q0 -57 38.5 -90t96.5 -33q38 0 73.5 16.5t63.5 43.5t44.5 62.5
t16.5 73.5zM1076 203q0 -31 -9.5 -64t-26 -60t-39 -44t-47.5 -17q-59 0 -59 72q0 31 9.5 64t26 60t38.5 44t48 17q59 0 59 -72zM694 203q0 -31 -9.5 -64t-26 -60t-39 -44t-47.5 -17q-59 0 -59 72q0 31 9.5 64t26 60t38.5 44t48 17q59 0 59 -72zM336 516q0 -31 -9.5 -64
t-26 -60t-39 -44t-47.5 -17q-59 0 -59 72q0 31 9.5 64t26 60t38.5 44t48 17q59 0 59 -72z" />
    <glyph glyph-name="questiondown" unicode="&#xbf;" horiz-adv-x="439" 
d="M386 635q0 26 -18.5 43.5t-44.5 17.5t-44.5 -17.5t-18.5 -43.5t18.5 -44t44.5 -18t44.5 18t18.5 44zM354 423q0 51 -28 75.5t-67 24.5q-14 0 -30 -5.5t-31 -17t-27.5 -28t-19.5 -37.5l29 -13q11 28 29 49t47 21q17 0 32 -8t15 -35q0 -23 -15 -42t-38.5 -34.5t-53 -29.5
l-59.5 -27q-39 -17 -64 -36.5t-40 -41.5t-21 -45.5t-6 -47.5q0 -33 12 -61.5t34 -50t54 -33.5t72 -12q33 0 61 9.5t48.5 26t31.5 38.5t11 46q0 41 -21 63t-48 22q-24 0 -44 -18t-20 -42q0 -17 11.5 -29.5t30.5 -12.5q18 0 30.5 11t20.5 26h5q1 -3 2 -5.5t1 -7.5
q0 -38 -26 -64.5t-75 -26.5q-30 0 -51.5 8t-35.5 21.5t-20.5 30t-6.5 33.5q0 23 5.5 42.5t19 37t37 34t60.5 34.5q38 18 66 35t46.5 35.5t27.5 40t9 47.5z" />
    <glyph glyph-name="grave" unicode="`" 
d="M418 541l-24 46l-18 36l-14.5 29.5l-13.5 27.5q-11 24 -24 37.5t-33 13.5q-17 0 -26.5 -11t-9.5 -27q0 -15 8.5 -28.5t23.5 -28.5l19.5 -19l21.5 -21l29 -29l41 -42z" />
    <glyph glyph-name="acute" unicode="&#xb4;" 
d="M451 699q0 12 -8.5 22t-25.5 10q-20 0 -35.5 -11t-38.5 -35l-25 -27l-28 -30.5l-34 -37.5l-43 -47l16 -19l61 39.5l45.5 29l34.5 22t29 19.5q23 16 37.5 30.5t14.5 34.5z" />
    <glyph glyph-name="circumflex" unicode="&#x2c6;" 
d="M483 544l-42 100t-30 69q-5 13 -10.5 16.5t-24.5 3.5q-22 0 -29.5 -4t-20.5 -18l-63.5 -68.5l-90.5 -94.5l17 -18l176 133l95 -133z" />
    <glyph glyph-name="tilde" unicode="&#x2dc;" 
d="M545 685l-25 15l-20 -29t-19.5 -22.5t-23 -15t-30.5 -5.5q-19 0 -35 9l-33 19.5t-36.5 19.5t-45.5 9q-23 0 -44 -12t-39.5 -30t-33.5 -38.5t-25 -38.5l24 -15l20.5 29.5t19.5 23t22.5 14.5t30.5 5q19 0 35 -9l33 -19.5t36.5 -19.5t45.5 -9q23 0 44 12t39.5 30t33.5 39
t26 38z" />
    <glyph glyph-name="macron" unicode="&#xaf;" 
d="M535 658h-330l-16 -62h330z" />
    <glyph glyph-name="macron" unicode="&#x2c9;" 
d="M535 658h-330l-16 -62h330z" />
    <glyph glyph-name="breve" unicode="&#x2d8;" 
d="M524 720l-22 7q-36 -51 -75.5 -81.5t-84.5 -30.5q-43 0 -68 30.5t-36 81.5l-22 -7q1 -52 10.5 -86.5t24.5 -55.5t34.5 -30t39.5 -9t44 9t49.5 30t52 55.5t53.5 86.5z" />
    <glyph glyph-name="dotaccent" unicode="&#x2d9;" 
d="M410 654q0 18 -13 34.5t-34 16.5q-32 0 -50 -20t-18 -46q0 -20 12.5 -36t37.5 -16q31 0 48 20.5t17 46.5z" />
    <glyph glyph-name="dieresis" unicode="&#xa8;" 
d="M519 654q0 18 -12.5 34.5t-33.5 16.5q-32 0 -50.5 -20t-18.5 -46q0 -20 13 -36t38 -16q31 0 47.5 20.5t16.5 46.5zM306 654q0 18 -13 34.5t-34 16.5q-32 0 -50 -20t-18 -46q0 -20 12.5 -36t37.5 -16q31 0 48 20.5t17 46.5z" />
    <glyph glyph-name="ring" unicode="&#x2da;" 
d="M464 635q0 47 -33 76t-83 29q-24 0 -45.5 -8.5t-37.5 -23t-25.5 -33.5t-9.5 -41q0 -51 33.5 -77.5t84.5 -26.5q24 0 45 8t36.5 22t25 33t9.5 42zM408 644q0 -15 -4.5 -30t-13 -27t-21 -19.5t-27.5 -7.5q-26 0 -41 18t-15 48q0 34 18.5 59t47.5 25q26 0 41 -18t15 -48z
" />
    <glyph glyph-name="cedilla" unicode="&#xb8;" 
d="M260 -123q0 38 -30 52.5t-77 14.5l21 64h-30l-41 -121q39 0 59 -7.5t20 -27.5q0 -31 -38 -40.5t-110 -11.5l-9 -32q52 0 95 6t74 18.5t48.5 33.5t17.5 51z" />
    <glyph glyph-name="hungarumlaut" unicode="&#x2dd;" 
d="M542 713q0 11 -8 20t-22 9q-20 0 -35.5 -11t-35.5 -35l-25 -29l-27 -30.5l-34 -38l-45 -50.5l13 -16l61 41l45.5 30.5l34 23.5l28.5 20q23 17 36.5 31.5t13.5 34.5zM361 713q0 11 -8 20t-22 9q-20 0 -35.5 -11t-35.5 -35l-25 -29l-27 -30.5l-34 -38l-45 -50.5l13 -16
l61 41l45.5 30.5l34 23.5l28.5 20q23 17 36.5 31.5t13.5 34.5z" />
    <glyph glyph-name="ogonek" unicode="&#x2db;" 
d="M232 0h-36q-85 -40 -123 -77t-38 -78q0 -35 40.5 -52.5t131.5 -18.5l7 28q-31 3 -50 8t-30 12t-15 16t-4 20q0 24 25 56.5t92 85.5z" />
    <glyph glyph-name="caron" unicode="&#x2c7;" 
d="M527 724l-17 18l-176 -133l-95 133l-23 -14l42 -100t30 -69q5 -13 10.5 -16.5t24.5 -3.5q22 0 29.5 4t20.5 18l63.5 68.5z" />
    <glyph glyph-name="emdash" unicode="&#x2014;" horiz-adv-x="900" 
d="M860 285h-752l-17 -58h752z" />
    <glyph glyph-name="AE" unicode="&#xc6;" horiz-adv-x="971" 
d="M1006 683h-570l-8 -32q8 0 18.5 -1.5l21 -3t19.5 -3.5t15 -4l-223 -262.5l-214 -249.5q-23 -26 -45.5 -45.5t-45.5 -30.5q-17 -8 -40.5 -13t-38.5 -6l-9 -32h292l9 32q-16 1 -32 4.5t-29 9t-21 13t-8 17.5q0 11 11.5 27t26.5 34q20 23 47 57l55 66h233l-46 -167
q-5 -17 -14.5 -30t-28.5 -20q-6 -2 -18 -4.5t-25 -4t-24.5 -2.5t-16.5 -1l-10 -31h577l68 202h-31q-6 -11 -18.5 -29.5t-29 -39t-34.5 -40t-35 -32.5q-22 -17 -66 -20.5t-95 -3.5q-55 0 -78 8t-23 36q0 8 2.5 20.5t7.5 27.5l58 206h75q21 0 34 -3t21 -7.5t13 -10t8 -10.5
q4 -6 6 -20.5t2 -31.5q0 -12 -0.5 -24t-2.5 -21h30l80 288h-32l-10.5 -22.5t-14 -27t-15.5 -24.5t-15 -17q-11 -10 -33 -21t-62 -11h-75l77 274h105q24 0 43 -1t35 -3q33 -5 51.5 -39.5t18.5 -77.5v-8h31zM571 640l-90 -340h-210l287 340h13z" />
    <glyph glyph-name="ordfeminine" unicode="&#xaa;" horiz-adv-x="490" 
d="M479 394l-26 8q-17 -48 -34 -67t-31 -19q-8 0 -14 5t-6 20q0 6 2.5 21.5t7.5 28.5l79 225h-68l-13 -38h-2q-8 23 -25 32.5t-40 9.5q-49 0 -87 -24.5t-64 -60t-39.5 -74t-13.5 -66.5q0 -33 9 -55t23.5 -35t32 -18.5t35.5 -5.5q31 0 53.5 16t45.5 44h4q3 -29 19 -43.5
t48 -14.5q20 0 35 8.5t27 23.5t22 35t20 44zM373 198h-296l-12 -43h296zM359 547l-55 -170q-15 -27 -37.5 -43.5t-44.5 -16.5q-17 0 -29.5 14t-12.5 47q0 30 10 67t27 70t40 55t49 22q24 0 35.5 -9.5t17.5 -35.5z" />
    <glyph glyph-name="Lslash" unicode="&#x141;" horiz-adv-x="636" 
d="M605 202h-31q-6 -11 -18.5 -29.5t-29 -39t-34.5 -40t-35 -32.5q-22 -17 -66 -20.5t-95 -3.5q-55 0 -78 8t-23 36q0 8 2.5 20.5t7.5 27.5l56 200l192 64l-12 39l-167 -56l59 213q5 16 14.5 30t29.5 20q7 2 17.5 4t21.5 3.5l21.5 3t17.5 1.5l9 32h-313l-10 -32q7 0 17 -2
t21 -4.5l21 -5t16 -5.5q11 -5 15.5 -11t4.5 -16q0 -5 -1 -11t-3 -13l-67 -243l-119 -40l12 -39l94 31l-55 -199q-5 -17 -14.5 -30t-28.5 -20q-6 -2 -18 -4.5t-25 -4t-24.5 -2.5t-16.5 -1l-10 -31h577z" />
    <glyph glyph-name="Oslash" unicode="&#xd8;" horiz-adv-x="724" 
d="M780 699l-29 28l-112 -105l-5 5q-37 38 -82 54.5t-101 16.5q-69 0 -133.5 -26.5t-119.5 -77.5q-72 -68 -108 -157t-36 -180q0 -43 10.5 -80t29.5 -68l-133 -124l28 -27l127 119l11.5 -13l11.5 -12q35 -35 77.5 -51.5t96.5 -16.5q73 0 135 25t116 71q39 33 67 74t46 86.5
t27 93.5t9 96t-14 88.5t-35 72.5zM586 572l-422 -397q-2 14 -3 27.5t-1 27.5q0 89 24 167.5t63 141.5q34 54 84.5 86.5t111.5 32.5q56 0 91 -23t52 -63zM607 451q0 -90 -26.5 -176.5t-71.5 -149.5q-35 -49 -81 -75t-103 -26q-61 0 -97.5 28.5t-53.5 78.5l425 399
q5 -18 6.5 -38t1.5 -41z" />
    <glyph glyph-name="OE" unicode="&#x152;" horiz-adv-x="1006" 
d="M1041 683h-394q-24 0 -46 0.5t-45 0.5q-22 0 -47.5 0.5t-56.5 0.5q-69 0 -134 -26.5t-120 -77.5q-36 -33 -63 -73.5t-45 -82.5t-27 -84t-9 -78q0 -53 11 -94.5t40 -76.5q20 -25 40.5 -43t43.5 -29t50 -16.5t60 -5.5q42 0 78.5 1t86.5 1h435l68 202h-31
q-6 -11 -18.5 -29.5t-29 -39t-34.5 -40t-35 -32.5q-22 -17 -66 -20.5t-95 -3.5q-55 0 -78 8t-23 36q0 8 2.5 20.5t7.5 27.5l58 206h75q21 0 34 -3t21 -7.5t13 -10t8 -10.5q4 -6 6 -20.5t2 -31.5q0 -12 -0.5 -24t-2.5 -21h30l80 288h-32l-10.5 -22.5t-14 -27t-15.5 -24.5
t-15 -17q-11 -10 -33 -21t-62 -11h-75l77 274h105q24 0 43 -1t35 -3q33 -5 51.5 -39.5t18.5 -77.5v-8h31zM574 549q0 -18 -3.5 -42t-9.5 -51t-13.5 -56t-15.5 -57q-10 -38 -23 -80.5t-28 -80.5t-32 -67.5t-36 -42.5q-27 -19 -50 -26.5t-60 -7.5q-28 0 -54 11t-45.5 34
t-31 60t-11.5 89q0 82 22.5 157t61.5 132t92 91t114 34q42 0 67 -10t42 -33q7 -10 10.5 -22.5t3.5 -31.5z" />
    <glyph glyph-name="ordmasculine" unicode="&#xba;" horiz-adv-x="447" 
d="M418 494q0 33 -10 57t-25.5 39.5t-34 22.5t-36.5 7q-50 0 -87.5 -22.5t-63 -55.5t-38.5 -70t-13 -65q0 -34 10 -58t26 -39t34.5 -22t36.5 -7q50 0 88 22.5t63 55.5t37.5 69.5t12.5 65.5zM378 198h-296l-12 -43h296zM346 511q0 -31 -7.5 -66.5t-22.5 -65.5t-37 -49.5
t-50 -19.5q-20 0 -33 20.5t-13 62.5q0 30 8.5 65t24 65t37 49.5t48.5 19.5q17 0 31 -18.5t14 -62.5z" />
    <glyph glyph-name="ae" unicode="&#xe6;" horiz-adv-x="700" 
d="M693 398q0 37 -24.5 54.5t-58.5 17.5q-44 0 -79 -16.5t-69 -45.5l18 55h-57l-23 -66h-3q-7 38 -33 55.5t-58 17.5q-45 0 -83 -17t-69.5 -44.5t-55 -62.5t-40 -71.5t-24.5 -70.5t-8 -60q0 -47 12 -77.5t31.5 -48.5t44 -25t49.5 -7q42 0 81.5 24.5t79.5 81.5h5
q8 -30 23 -50t34.5 -32.5t42 -18t46.5 -5.5t50 8t51.5 26.5t50.5 49t48 74.5l-30 14q-14 -26 -29 -49t-33 -40.5t-40.5 -28t-49.5 -10.5q-39 0 -58 22t-19 70q0 21 3.5 45t8.5 41q37 6 83 19.5t86.5 36.5t68 56t27.5 78zM622 387q0 -18 -9.5 -40t-31.5 -43t-58 -39t-89 -27
q10 36 26 71.5t35 64.5t40.5 47t43.5 18q24 0 33.5 -14t9.5 -38zM385 350l-73 -222q-23 -39 -55.5 -68t-75.5 -29q-10 0 -20 2.5t-18.5 12t-14 29t-5.5 53.5q0 45 13 99t36.5 101t56 78.5t71.5 31.5q36 0 56 -21t29 -67z" />
    <glyph glyph-name="dotlessi" unicode="&#x131;" horiz-adv-x="340" 
d="M317 134l-29 10q-12 -27 -22.5 -48.5t-21.5 -37.5t-24 -24.5t-30 -8.5q-11 0 -22 5.5t-11 29.5q0 11 7 34t15 44l56 146l9.5 25l10.5 28t8 26.5t3 21.5q0 26 -9 42.5t-23.5 26t-31.5 13t-33 3.5q-27 0 -48 -11.5t-38 -31.5t-31.5 -48.5t-27.5 -61.5l30 -9l19 44.5
t22 40.5t26 29.5t31 11.5q14 0 21 -7.5t7 -27.5q0 -9 -6 -31.5t-16 -48.5l-66 -169q-10 -26 -15 -45.5t-5 -37.5q0 -23 10.5 -38t25.5 -24t32.5 -12.5t31.5 -3.5q52 0 85.5 40.5t59.5 104.5z" />
    <glyph glyph-name="lslash" unicode="&#x142;" horiz-adv-x="321" 
d="M344 742l-222 -10v-30q18 -1 29.5 -1.5t30.5 -2.5q17 -2 28.5 -8.5t11.5 -23.5q0 -10 -3 -25.5t-11 -41.5l-86 -274l-96 -32l10 -37l72 24l-41 -130q-7 -23 -12.5 -44t-5.5 -40q0 -23 10 -38t25 -23.5t32 -12t31 -3.5q26 0 47 10.5t38.5 30t32 46t27.5 58.5l-29 10
q-12 -27 -22.5 -48.5t-21.5 -37.5t-24 -24.5t-30 -8.5q-11 0 -22 5.5t-11 29.5q0 11 6.5 34t12.5 42l56 177l108 36l-10 37l-83 -28z" />
    <glyph glyph-name="oslash" unicode="&#xf8;" horiz-adv-x="487" 
d="M510 481l-25 22l-76 -76q-22 23 -48 33t-52 10q-70 0 -122 -32.5t-87 -79.5t-52.5 -100t-17.5 -94q0 -30 6 -54.5t16 -44.5l-83 -83l24 -23l78 78q22 -26 50 -38.5t57 -12.5q70 0 123 32.5t87.5 79.5t52 99.5t17.5 93.5q0 35 -8 62t-21 48zM360 375l-239 -240v10
q0 46 12 97.5t34 95.5t53.5 73t70.5 29q20 0 39.5 -15t29.5 -50zM367 313q0 -46 -11 -98t-32.5 -96.5t-53.5 -73.5t-74 -29q-23 0 -43 18t-28 60l241 243q1 -5 1 -12v-12z" />
    <glyph glyph-name="oe" unicode="&#x153;" horiz-adv-x="718" 
d="M709 398q0 37 -24.5 54.5t-58.5 17.5q-60 0 -106 -27t-81 -65q-21 46 -54.5 69t-75.5 23q-70 0 -122 -32.5t-87 -79.5t-52.5 -100t-17.5 -94q0 -48 13.5 -81.5t35 -55t47.5 -31.5t52 -10q58 0 101.5 23t76.5 55q22 -42 56.5 -60t78.5 -18q24 0 50 8t51.5 26.5t50.5 49
t48 74.5l-30 14q-14 -26 -29 -49t-33 -40.5t-40.5 -28t-49.5 -10.5q-39 0 -58 22t-19 70q0 21 3.5 45t8.5 41q37 6 83 19.5t86.5 36.5t68 56t27.5 78zM638 387q0 -18 -9.5 -40t-31.5 -43t-58 -39t-89 -27q10 36 26 71.5t35 64.5t40.5 47t43.5 18q24 0 33.5 -14t9.5 -38z
M364 313q0 -45 -10.5 -97.5t-31.5 -96.5t-52.5 -73.5t-73.5 -29.5q-29 0 -50.5 29t-21.5 100q0 45 11.5 96.5t33 96t52.5 73.5t70 29q13 0 26.5 -6.5t23.5 -21.5t16.5 -39.5t6.5 -59.5z" />
    <glyph glyph-name="germandbls" unicode="&#xdf;" horiz-adv-x="552" 
d="M573 628q0 24 -10 44.5t-28.5 36.5t-44.5 25t-57 9q-35 0 -74 -11.5t-74 -43.5q-23 -21 -41 -42.5t-32 -45.5t-25 -52.5t-20 -62.5q-19 -69 -34.5 -131l-30 -121.5l-30 -118t-33.5 -118.5q-17 -55 -34 -93.5t-36.5 -62.5t-42 -35t-50.5 -11q-6 0 -12.5 2.5t-7.5 5.5
q10 12 16 22t6 26q0 13 -5.5 22.5t-14 15t-18 8t-17.5 2.5q-13 0 -22.5 -5.5t-16 -13.5t-10 -17.5t-3.5 -17.5q0 -15 4.5 -29.5t16 -25.5t31 -18t49.5 -7q37 0 69 12.5t71 45.5q46 38 74.5 91t46.5 111q18 60 35.5 125.5l34 130.5l32 125.5t29.5 109.5q29 101 66 149.5
t84 48.5q44 0 67 -25t23 -72q0 -40 -19 -74.5t-45 -56.5q-19 -10 -37 -23t-31.5 -29.5t-22 -37.5t-8.5 -46q0 -18 3 -32.5t9 -29t15 -29.5t21 -33q17 -26 31 -54t14 -69q0 -45 -22.5 -66.5t-59.5 -21.5q-26 0 -45 11t-19 25q0 8 6 12.5t13.5 9.5t14 12.5t6.5 21.5
q0 20 -12 30t-29 10q-29 0 -44 -19t-15 -43q0 -43 32.5 -70.5t84.5 -27.5q24 0 53.5 10t55 31.5t43 55t17.5 80.5q0 32 -14.5 58t-32.5 53q-26 38 -38.5 66t-12.5 60q0 35 31 58.5t94 43.5q14 24 23 59t9 67z" />
    <glyph glyph-name="Scaron" unicode="&#x160;" horiz-adv-x="541" 
d="M581 693h-34l-47 -47q-20 20 -54.5 35t-78.5 15q-51 0 -96 -16t-78.5 -43.5t-53 -64.5t-19.5 -79q0 -35 9.5 -61.5t28.5 -48t48.5 -40.5t69.5 -40q34 -18 57 -33.5t36 -32t18.5 -35t5.5 -41.5q0 -26 -9.5 -50.5t-28.5 -43t-47 -29.5t-64 -11q-45 0 -76.5 17t-52.5 44.5
t-33 63t-17 72.5h-31l-56 -234h34l46 47q22 -18 65 -34t100 -16q52 0 100.5 16t86 45t60 70.5t22.5 91.5q0 30 -9.5 55.5t-30 49t-53.5 45.5t-80 46q-59 30 -82.5 58t-23.5 72q0 53 38.5 86.5t102.5 33.5q36 0 60.5 -13.5t41 -38.5t25.5 -60t13 -78h30zM582 915l-17 18
l-176 -133l-95 133l-23 -14l42 -100t30 -69q5 -13 10.5 -16.5t24.5 -3.5q22 0 29.5 4t20.5 18l63.5 68.5z" />
    <glyph glyph-name="scaron" unicode="&#x161;" horiz-adv-x="402" 
d="M380 368q0 9 -4.5 26.5t-18.5 34.5t-39.5 29.5t-67.5 12.5q-31 0 -60 -13t-51.5 -34t-36 -47t-13.5 -51q0 -32 13 -53.5t33 -38t43 -29.5t43 -28.5t33 -35t13 -47.5q0 -20 -10 -34.5t-26 -24t-37 -14t-43 -4.5q-20 0 -37.5 5t-31.5 13.5t-22 19.5t-8 23q0 4 5 6t19 2
q26 0 35.5 15t9.5 29q0 6 -2.5 14t-9 14.5t-17.5 11.5t-28 5q-11 0 -21 -6.5t-17.5 -17t-12.5 -23.5t-5 -27q0 -18 8.5 -38.5t26.5 -37.5t47.5 -28.5t71.5 -11.5q34 0 66 13.5t57 34.5t40 48t15 54q0 32 -13 54t-33 39t-42.5 30.5t-42.5 27.5t-33 31.5t-13 41.5q0 22 9 37.5
t22 25t28 14t27 4.5q25 0 41.5 -5t26 -11.5t13.5 -13.5t5 -11q-2 -4 -11 -8t-18.5 -10t-17 -15.5t-7.5 -24.5q0 -22 15 -31.5t35 -9.5q22 0 35.5 20t13.5 48zM483 724l-17 18l-176 -133l-95 133l-23 -14l42 -100t30 -69q5 -13 10.5 -16.5t24.5 -3.5q22 0 29.5 4t20.5 18
l63.5 68.5z" />
    <glyph glyph-name="Yacute" unicode="&#xdd;" horiz-adv-x="623" 
d="M758 683h-266l-10 -33q16 -1 33 -2.5t30.5 -5t22 -9t8.5 -15.5q0 -7 -17.5 -30.5l-50.5 -65.5q-29 -38 -69 -86l-88 -104l-62 195t-24 98q0 8 11 13t27.5 7t34.5 3t33 2l10 33h-307l-10 -33q14 -1 31.5 -4.5t29.5 -11.5q15 -11 26.5 -26t21.5 -42l37 -110t36 -123
q4 -16 6.5 -30.5t2.5 -25.5v-10q0 -4 -2 -9l-41 -164q-5 -17 -14 -30t-29 -20q-6 -2 -16.5 -4t-22.5 -3.5t-23 -2.5t-18 -1l-9 -33h324l9 33q-7 0 -19 2t-25 4.5t-24 5t-15 4.5q-19 10 -21 31q0 9 2 19l31 123q6 25 24 55t39 57l109 137t101 109l21.5 19.5t15.5 12.5t15 9
t19 10q5 3 13.5 6t18 6t17.5 5t13 2zM643 890q0 12 -8.5 22t-25.5 10q-20 0 -35.5 -11t-38.5 -35l-25 -27l-28 -30.5l-34 -37.5l-43 -47l16 -19l61 39.5l45.5 29l34.5 22t29 19.5q23 16 37.5 30.5t14.5 34.5z" />
    <glyph glyph-name="yacute" unicode="&#xfd;" horiz-adv-x="545" 
d="M545 456h-89l-102 -332q-12 -17 -27.5 -33.5t-33.5 -29.5t-38 -21t-41 -8q-20 0 -35 8.5t-15 40.5q0 14 5.5 33.5t13.5 39.5l61 153q11 26 16 45.5t5 37.5q0 21 -9 36t-23.5 25t-32 14.5t-35.5 4.5q-27 0 -48 -11.5t-38 -31.5t-31.5 -48.5t-27.5 -61.5l30 -9l19 44.5
t22 40.5t26 29.5t31 11.5q14 0 21.5 -7.5t7.5 -27.5q0 -9 -4.5 -31t-15.5 -49l-56 -144q-8 -20 -14 -42t-6 -33q0 -22 8.5 -42.5t24 -36t37 -24.5t46.5 -9q43 0 79.5 26t62.5 60l4 -1q-25 -77 -55 -131t-63.5 -88t-68.5 -49t-71 -15q-8 0 -20.5 1t-24.5 5t-21 10.5t-11 18.5
q3 13 13.5 14t22 3t20.5 11.5t9 38.5q0 11 -11.5 26.5t-34.5 15.5q-12 0 -24 -3.5t-22 -11.5t-16.5 -21.5t-6.5 -32.5q0 -11 4.5 -28.5t18.5 -34t40 -29t70 -12.5q52 0 102.5 19.5t95 61t82.5 107t67 157.5zM551 699q0 12 -8.5 22t-25.5 10q-20 0 -35.5 -11t-38.5 -35
l-25 -27l-28 -30.5l-34 -37.5l-43 -47l16 -19l61 39.5l45.5 29l34.5 22t29 19.5q23 16 37.5 30.5t14.5 34.5z" />
    <glyph glyph-name="HT" horiz-adv-x="0" 
 />
    <glyph glyph-name="Thorn" unicode="&#xde;" horiz-adv-x="602" 
d="M591 388q0 70 -51 110t-145 40h-76l15 55q5 16 14 29t29 20q6 2 16 3.5l21 3t21.5 2.5t16.5 1l8 31h-302l-9 -32q6 0 15 -2t19 -4.5t19 -5.5t14 -5q20 -10 20 -27q0 -5 -1 -10.5t-3 -12.5l-137 -494q-5 -16 -14 -29t-29 -20q-6 -2 -16 -3.5l-21 -3t-21.5 -2.5t-16.5 -1
l-8 -31h305l8 31q-7 0 -17.5 2l-20.5 4t-18.5 4.5t-12.5 4.5q-11 5 -16 11t-5 17q0 8 3 19l19 69h47q73 0 133.5 15.5t104 45t68 71t24.5 94.5zM485 379q0 -84 -54 -130.5t-157 -46.5h-48l82 298h45q72 0 102 -32t30 -89z" />
    <glyph glyph-name="thorn" unicode="&#xfe;" horiz-adv-x="510" 
d="M486 308q0 47 -12.5 78t-32.5 50t-45 26.5t-50 7.5q-21 0 -40 -6.5t-35 -17t-29.5 -23.5t-24.5 -26l-3 1l111 344l-218 -10v-30q18 -1 29 -1.5t30 -2.5q17 -2 28.5 -8.5t11.5 -23.5q0 -10 -4.5 -29t-10.5 -38l-219 -698l-15 -43t-23 -41q-9 -11 -24.5 -16.5t-50.5 -5.5
l-8 -29h285l8 30q-18 1 -28.5 1.5t-29.5 2.5q-17 2 -29 8.5t-12 23.5q0 19 14 67l47 152h4q4 -15 13.5 -26.5t22.5 -20t28.5 -13t30.5 -4.5q45 0 83.5 16t69.5 42t55 60t40 69.5t24.5 70.5t8.5 63zM392 323q0 -43 -13.5 -95.5t-37.5 -98.5t-57 -77.5t-72 -31.5
q-36 0 -58 16.5t-33 58.5l73 236q23 37 57 65.5t76 28.5q10 0 21 -3t21 -13.5t16.5 -31t6.5 -54.5z" />
    <glyph glyph-name="Eth" unicode="&#xd0;" horiz-adv-x="748" 
d="M737 418q0 74 -25 124.5t-65 82t-91 45t-102 13.5h-296l-9 -32q6 0 15 -2t19 -4.5t19 -5.5t14 -5q20 -10 20 -27q0 -5 -1 -10.5t-3 -12.5l-58 -208h-102l-10 -41h101l-68 -245q-5 -16 -14 -29t-29 -20q-6 -2 -15.5 -3.5t-20.5 -3t-21.5 -2.5t-17.5 -1l-8 -31h296
q94 0 179.5 28.5t150.5 82.5t103.5 131.5t38.5 175.5zM630 409q0 -79 -26.5 -146.5t-73.5 -117t-111 -78t-139 -28.5q-51 0 -70 20.5t-9 56.5l61 219h145l10 41h-143l74 267q17 1 33.5 1.5t33.5 0.5q50 0 90 -13.5t67.5 -42t42.5 -73.5t15 -107z" />
    <glyph glyph-name="Zcaron" unicode="&#x17d;" horiz-adv-x="600" 
d="M689 683h-510l-71 -194h31q12 19 32 43.5t43.5 47.5t48 40t45.5 21q16 3 38.5 4t48.5 1h153l-607 -624l-6 -22h563l76 215h-31q-10 -16 -25 -36t-32.5 -41t-37.5 -40.5t-39 -34.5q-10 -8 -28 -13t-39.5 -8t-46 -4t-46.5 -1h-174l607 624zM625 915l-17 18l-176 -133
l-95 133l-23 -14l42 -100t30 -69q5 -13 10.5 -16.5t24.5 -3.5q22 0 29.5 4t20.5 18l63.5 68.5z" />
    <glyph glyph-name="zcaron" unicode="&#x17e;" horiz-adv-x="430" 
d="M454 439q0 18 -11 24t-26 6q-17 0 -24.5 -12.5t-7.5 -32.5v-18t-3 -14t-10.5 -9t-22.5 -3q-25 0 -46.5 13.5t-43 30t-45.5 30.5t-55 14q-19 0 -36.5 -8t-31 -21.5t-21.5 -31t-8 -35.5q0 -26 10 -44t24.5 -30t31.5 -19t32 -12l11 23q-22 7 -39 18t-17 35q0 19 17 29t49 10
q15 0 32 -4.5t37 -10.5t43 -11t51 -6l2 -5l-97 -71l-88 -68.5l-74.5 -60l-56.5 -46.5q-24 -20 -37.5 -40.5t-13.5 -37.5t10 -25.5t19 -8.5q42 0 42 39q0 10 -0.5 18t1 14t5.5 10.5t14 7.5q22 0 49.5 -14t56 -30.5t55 -30t47.5 -13.5q22 0 41 7.5t33 20.5t22 30.5t8 36.5
q0 35 -16.5 61t-63.5 38l-8 -24q20 -5 30.5 -15t10.5 -28q0 -26 -27 -35t-65 -9q-20 0 -37 4.5t-34.5 10l-36.5 11.5t-41 9l-1 6l90 70.5l89.5 69.5l76.5 59.5l52 41.5t29 27t16 22t6.5 19t1.5 18zM485 724l-17 18l-176 -133l-95 133l-23 -14l42 -100t30 -69
q5 -13 10.5 -16.5t24.5 -3.5q22 0 29.5 4t20.5 18l63.5 68.5z" />
    <glyph glyph-name="onehalf" unicode="&#xbd;" horiz-adv-x="883" 
d="M825 32l-24 9q-7 -11 -16 -23.5t-19.5 -24t-22.5 -19t-24 -7.5h-168l18 13q75 34 124.5 63t78.5 56t40.5 54t11.5 58q0 41 -35.5 69.5t-98.5 28.5q-46 0 -78 -13t-52 -31t-29 -37.5t-9 -33.5q0 -17 9.5 -32t32.5 -15q15 0 25 5t15.5 11.5t8 14t2.5 13.5q0 15 -9 22.5
t-11 15.5q2 21 22.5 35t55.5 14q28 0 45 -14t17 -41q0 -12 -2.5 -29t-11 -37t-25 -42.5t-45.5 -45.5l-40.5 -30.5t-39.5 -27t-48.5 -29.5t-67.5 -37l-9 -40h312zM779 618l-34 24l-621 -719l32 -24zM356 620h-16q-20 -8 -53 -18.5t-66 -10.5q-24 0 -40 5t-32 12l-15 -20
q18 -15 36.5 -27.5t37.5 -12.5q10 0 19.5 1t17.5 3l-71 -266q-6 -23 -32 -31q-5 -1 -13.5 -2t-18.5 -2t-19 -2t-15 -1l-8 -28h253l8 28q-5 0 -13 1t-17 2t-17 3t-12 4q-15 7 -15 23q0 2 1 7.5t2 9.5l59 218q7 25 17.5 53.5t21.5 50.5z" />
    <glyph glyph-name="onequarter" unicode="&#xbc;" horiz-adv-x="883" 
d="M787 618l-34 24l-621 -719l32 -24zM825 130h-24q-4 -12 -13 -27t-20 -22q-12 -8 -24 -8.5t-43 -0.5l66 245h-46l-306 -244l-11 -42h210l-17 -63q-2 -11 -10 -19t-19 -11q-8 -2 -24 -3t-26 -2l-8 -28h214l8 28q-11 1 -25 3t-21 5q-13 5 -13 21q0 2 1 9t3 12l13 48h26
q11 0 17.5 -0.5t10.5 -2t8 -4.5q5 -5 7 -13.5t2 -17.5v-12t-2 -11h23zM356 620h-16q-20 -8 -53 -18.5t-66 -10.5q-24 0 -40 5t-32 12l-15 -20q18 -15 36.5 -27.5t37.5 -12.5q10 0 19.5 1t17.5 3l-71 -266q-6 -23 -32 -31q-5 -1 -13.5 -2t-18.5 -2t-19 -2t-15 -1l-8 -28h253
l8 28q-5 0 -13 1t-17 2t-17 3t-12 4q-15 7 -15 23q0 2 1 7.5t2 9.5l59 218q7 25 17.5 53.5t21.5 50.5zM669 234l-44 -162h-163z" />
    <glyph glyph-name="onesuperior" unicode="&#xb9;" horiz-adv-x="617" 
d="M597 291q0 32 -21.5 54.5t-51.5 22.5q-22 0 -35.5 -8t-25 -19.5l-24 -23.5t-33.5 -19l-12 6q-5 20 -18 34.5t-30 23.5l-4 12q11 21 26.5 33l29 22.5t23 23.5t9.5 37q0 31 -20.5 53.5t-53.5 22.5q-31 0 -53.5 -20t-22.5 -53q0 -15 5.5 -27.5l11.5 -25t11.5 -27t5.5 -34.5
l-11 -7q-41 0 -69 -30l-15 -1q-18 19 -24 41.5t-14 39.5q-8 16 -24 29t-43 13q-32 0 -54 -23t-22 -54t22 -53.5t55 -22.5q15 0 29 3.5t35 3.5q7 0 13.5 -0.5t13.5 -2.5l5 -13q-3 -12 -3 -25q0 -21 10 -43l-3 -14q-22 -11 -41.5 -12t-32.5 -1q-35 0 -59 -21.5t-24 -53.5
q0 -33 23.5 -55t53.5 -22q37 0 55 25.5t23 57.5q2 14 6 29.5t15 31.5l13 1q26 -18 56 -18h10t10 1l7 -5v-11q0 -15 -3 -27.5t-6 -23.5l-6 -21t-3 -22q0 -32 22.5 -53.5t52.5 -21.5q16 0 30.5 6t25 16.5t16.5 24.5t6 29q0 29 -16 47t-39 29q-14 7 -27.5 15t-25.5 24l1 10
q15 11 25.5 26.5t13.5 33.5l9 8q21 -3 35 -11.5t26 -17t24.5 -15t30.5 -6.5q32 0 53.5 21t21.5 53zM370 278q0 -29 -19 -49.5t-48 -20.5t-48 20.5t-19 49.5t19 48.5t48 19.5t48 -19.5t19 -48.5z" />
    <glyph glyph-name="threequarters" unicode="&#xbe;" horiz-adv-x="883" 
d="M837 618l-34 24l-621 -719l32 -24zM855 130h-24q-4 -12 -13 -27t-20 -22q-12 -8 -24 -8.5t-43 -0.5l66 245h-46l-306 -244l-11 -42h210l-17 -63q-2 -11 -10 -19t-19 -11q-8 -2 -24 -3t-26 -2l-8 -28h214l8 28q-11 1 -25 3t-21 5q-13 5 -13 21q0 2 1 9t3 12l13 48h26
q11 0 17.5 -0.5t10.5 -2t8 -4.5q5 -5 7 -13.5t2 -17.5v-12t-2 -11h23zM439 542q0 12 -6 25.5t-20.5 25.5t-39.5 20t-62 8q-41 0 -71.5 -9.5t-51 -24t-31 -32t-10.5 -32.5q0 -12 8 -26t31 -14q28 0 38 14.5t10 24.5q0 17 -6 24t-6 13q2 7 17.5 19t50.5 12q34 0 50 -11t16 -31
q0 -23 -11 -40.5t-30.5 -33t-47 -30l-61.5 -32.5l19 -31q30 30 61 30q21 0 33.5 -10t12.5 -31q0 -27 -13 -51t-33.5 -42.5t-45 -29t-47.5 -10.5q-65 0 -65 35q0 7 5 11.5t11.5 8.5t11.5 9.5t5 14.5q0 35 -39 35q-23 0 -40.5 -14t-17.5 -42q0 -23 12 -40t30.5 -28t41 -16.5
t43.5 -5.5q43 0 83.5 11.5t72 32t50 49t18.5 63.5q0 22 -10 36.5t-25 23.5t-32.5 12.5t-32.5 3.5h-6t-9 -1l1 4q75 15 106.5 42.5t31.5 59.5zM699 234l-44 -162h-163z" />
    <glyph glyph-name="threesuperior" unicode="&#xb3;" horiz-adv-x="617" 
d="M597 291q0 32 -21.5 54.5t-51.5 22.5q-22 0 -35.5 -8t-25 -19.5l-24 -23.5t-33.5 -19l-12 6q-5 20 -18 34.5t-30 23.5l-4 12q11 21 26.5 33l29 22.5t23 23.5t9.5 37q0 31 -20.5 53.5t-53.5 22.5q-31 0 -53.5 -20t-22.5 -53q0 -15 5.5 -27.5l11.5 -25t11.5 -27t5.5 -34.5
l-11 -7q-41 0 -69 -30l-15 -1q-18 19 -24 41.5t-14 39.5q-8 16 -24 29t-43 13q-32 0 -54 -23t-22 -54t22 -53.5t55 -22.5q15 0 29 3.5t35 3.5q7 0 13.5 -0.5t13.5 -2.5l5 -13q-3 -12 -3 -25q0 -21 10 -43l-3 -14q-22 -11 -41.5 -12t-32.5 -1q-35 0 -59 -21.5t-24 -53.5
q0 -33 23.5 -55t53.5 -22q37 0 55 25.5t23 57.5q2 14 6 29.5t15 31.5l13 1q26 -18 56 -18h10t10 1l7 -5v-11q0 -15 -3 -27.5t-6 -23.5l-6 -21t-3 -22q0 -32 22.5 -53.5t52.5 -21.5q16 0 30.5 6t25 16.5t16.5 24.5t6 29q0 29 -16 47t-39 29q-14 7 -27.5 15t-25.5 24l1 10
q15 11 25.5 26.5t13.5 33.5l9 8q21 -3 35 -11.5t26 -17t24.5 -15t30.5 -6.5q32 0 53.5 21t21.5 53zM370 278q0 -29 -19 -49.5t-48 -20.5t-48 20.5t-19 49.5t19 48.5t48 19.5t48 -19.5t19 -48.5z" />
    <glyph glyph-name="twosuperior" unicode="&#xb2;" horiz-adv-x="617" 
d="M597 291q0 32 -21.5 54.5t-51.5 22.5q-22 0 -35.5 -8t-25 -19.5l-24 -23.5t-33.5 -19l-12 6q-5 20 -18 34.5t-30 23.5l-4 12q11 21 26.5 33l29 22.5t23 23.5t9.5 37q0 31 -20.5 53.5t-53.5 22.5q-31 0 -53.5 -20t-22.5 -53q0 -15 5.5 -27.5l11.5 -25t11.5 -27t5.5 -34.5
l-11 -7q-41 0 -69 -30l-15 -1q-18 19 -24 41.5t-14 39.5q-8 16 -24 29t-43 13q-32 0 -54 -23t-22 -54t22 -53.5t55 -22.5q15 0 29 3.5t35 3.5q7 0 13.5 -0.5t13.5 -2.5l5 -13q-3 -12 -3 -25q0 -21 10 -43l-3 -14q-22 -11 -41.5 -12t-32.5 -1q-35 0 -59 -21.5t-24 -53.5
q0 -33 23.5 -55t53.5 -22q37 0 55 25.5t23 57.5q2 14 6 29.5t15 31.5l13 1q26 -18 56 -18h10t10 1l7 -5v-11q0 -15 -3 -27.5t-6 -23.5l-6 -21t-3 -22q0 -32 22.5 -53.5t52.5 -21.5q16 0 30.5 6t25 16.5t16.5 24.5t6 29q0 29 -16 47t-39 29q-14 7 -27.5 15t-25.5 24l1 10
q15 11 25.5 26.5t13.5 33.5l9 8q21 -3 35 -11.5t26 -17t24.5 -15t30.5 -6.5q32 0 53.5 21t21.5 53zM370 278q0 -29 -19 -49.5t-48 -20.5t-48 20.5t-19 49.5t19 48.5t48 19.5t48 -19.5t19 -48.5z" />
    <glyph glyph-name="brokenbar" unicode="&#xa6;" horiz-adv-x="340" 
d="M217 364v382h-52v-382h52zM217 -207v392h-52v-392h52z" />
    <glyph glyph-name="minus" unicode="&#x2212;" horiz-adv-x="580" 
d="M542 234v52h-470v-52h470z" />
    <glyph glyph-name="multiply" unicode="&#xd7;" horiz-adv-x="580" 
d="M545 66l-198 197l198 196l-37 37l-196 -198l-197 198l-38 -38l198 -197l-198 -196l37 -37l196 198l197 -198z" />
    <glyph glyph-name="eth" unicode="&#xf0;" horiz-adv-x="485" 
d="M508 721l-21 32l-103 -71q-35 36 -87 67l-22 -25q42 -31 67 -70l-114 -78l22 -30l111 76q18 -35 26 -73.5t8 -80.5q0 -28 -3 -55h-4q-15 23 -37.5 35.5t-51.5 12.5q-63 0 -113 -31t-85 -77t-53.5 -98t-18.5 -94q0 -47 13.5 -80t35 -54t47.5 -31t52 -10q70 0 127 34.5
t97 94t61.5 139t21.5 169.5q0 67 -18 125t-57 106zM363 307q0 -45 -11 -96t-32 -94.5t-53 -72.5t-74 -29q-29 0 -49.5 29t-20.5 98q0 44 12 95.5t34 95t53.5 72.5t70.5 29q27 0 48.5 -29t21.5 -98z" />
    <glyph glyph-name="Adieresis" unicode="&#xc4;" horiz-adv-x="644" 
d="M613 31q-14 1 -33.5 4t-30.5 9q-15 8 -19 21t-4 34v595h-36l-224 -290.5l-215 -274.5q-21 -26 -43 -46.5t-45 -31.5q-17 -8 -40.5 -13.5t-34.5 -6.5l-9 -31h287l9 31q-12 1 -28 4t-30.5 9t-25 14.5t-10.5 19.5q0 8 11 24.5l25 36.5q13 19 35.5 49l54.5 72h222v-164
q0 -15 -6 -29.5t-26 -22.5q-28 -10 -76 -13l-9 -31h292zM429 300h-191l191 249v-249zM691 831q0 18 -12.5 34.5t-33.5 16.5q-32 0 -50.5 -20t-18.5 -46q0 -20 13 -36t38 -16q31 0 47.5 20.5t16.5 46.5zM478 831q0 18 -13 34.5t-34 16.5q-32 0 -50 -20t-18 -46
q0 -20 12.5 -36t37.5 -16q31 0 48 20.5t17 46.5z" />
    <glyph glyph-name="Aring" unicode="&#xc5;" horiz-adv-x="644" 
d="M613 31q-14 1 -33.5 4t-30.5 9q-15 8 -19 21t-4 34v595h-36l-224 -290.5l-215 -274.5q-21 -26 -43 -46.5t-45 -31.5q-17 -8 -40.5 -13.5t-34.5 -6.5l-9 -31h287l9 31q-12 1 -28 4t-30.5 9t-25 14.5t-10.5 19.5q0 8 11 24.5l25 36.5q13 19 35.5 49l54.5 72h222v-164
q0 -15 -6 -29.5t-26 -22.5q-28 -10 -76 -13l-9 -31h292zM429 300h-191l191 249v-249zM644 826q0 47 -33 76t-83 29q-24 0 -45.5 -8.5t-37.5 -23t-25.5 -33.5t-9.5 -41q0 -51 33.5 -77.5t84.5 -26.5q24 0 45 8t36.5 22t25 33t9.5 42zM588 835q0 -15 -4.5 -30t-13 -27
t-21 -19.5t-27.5 -7.5q-26 0 -41 18t-15 48q0 34 18.5 59t47.5 25q26 0 41 -18t15 -48z" />
    <glyph glyph-name="Ccedilla" unicode="&#xc7;" horiz-adv-x="632" 
d="M680 693h-41l-41 -51q-32 27 -64 40.5t-85 13.5q-75 0 -146.5 -34.5t-127.5 -95.5t-90.5 -143t-34.5 -177q0 -108 55 -176.5t158 -81.5l-34 -101q39 0 59 -7.5t20 -27.5q0 -31 -38 -40.5t-110 -11.5l-9 -32q52 0 95 6t74 18.5t48.5 33.5t17.5 51q0 38 -30 52.5t-77 14.5
l14 41h15q57 0 101 16.5t79 43t62 60t50 68.5l-31 19q-24 -36 -48 -64.5t-50 -48.5t-56 -31t-67 -11q-47 0 -82.5 16t-58.5 46t-34.5 72t-11.5 93q0 82 24 153.5t62 125t86.5 84t98.5 30.5q82 0 120 -52t49 -159h31z" />
    <glyph glyph-name="Eacute" unicode="&#xc9;" horiz-adv-x="644" 
d="M679 683h-528l-10 -32q7 0 17 -2t21 -4.5l21 -5t16 -5.5q11 -5 15.5 -11t4.5 -16q0 -5 -1 -11t-3 -13l-135 -490q-5 -17 -14.5 -30t-28.5 -20q-6 -2 -18 -4.5t-25 -4t-24.5 -2.5t-16.5 -1l-10 -31h577l68 202h-31q-6 -11 -18.5 -29.5t-29 -39t-34.5 -40t-35 -32.5
q-22 -17 -66 -20.5t-95 -3.5q-55 0 -78 8t-23 36q0 8 2.5 20.5t7.5 27.5l58 206h75q21 0 34 -3t21 -7.5t13 -10t8 -10.5q4 -6 6 -20.5t2 -31.5q0 -12 -0.5 -24t-2.5 -21h30l80 288h-32l-10.5 -22.5t-14 -27t-15.5 -24.5t-15 -17q-11 -10 -33 -21t-62 -11h-75l77 274h105
q24 0 43 -1t35 -3q33 -5 51.5 -39.5t18.5 -77.5v-8h31zM631 890q0 12 -8.5 22t-25.5 10q-20 0 -35.5 -11t-38.5 -35l-25 -27l-28 -30.5l-34 -37.5l-43 -47l16 -19l61 39.5l45.5 29l34.5 22t29 19.5q23 16 37.5 30.5t14.5 34.5z" />
    <glyph glyph-name="Ntilde" unicode="&#xd1;" horiz-adv-x="751" 
d="M858 683h-307l-9 -31q9 0 22 -3t27 -7.5t26.5 -9.5t18.5 -10q14 -11 14 -42q0 -17 -5 -43.5t-11 -49.5l-89 -342l-231 538h-206l-10 -32q39 -2 63 -11t38 -23q10 -10 14.5 -24.5t4.5 -30.5q0 -9 -1 -18.5t-3 -15.5l-88 -333q-16 -60 -33 -92t-37 -45q-8 -5 -21 -9.5
t-28 -8l-29 -6.5t-22 -3l-9 -31h309l9 31q-7 0 -20.5 3t-28 7.5t-27.5 10t-19 11.5q-13 13 -13 45q0 6 1.5 17.5t4 25l5 27t5.5 22.5l92 353l240 -560h43l133 500q13 47 28 83.5t41 50.5q8 4 22 8.5t29 8t28 6t20 2.5zM724 885l-25 15l-20 -29t-19.5 -22.5t-23 -15
t-30.5 -5.5q-19 0 -35 9l-33 19.5t-36.5 19.5t-45.5 9q-23 0 -44 -12t-39.5 -30t-33.5 -38.5t-25 -38.5l24 -15l20.5 29.5t19.5 23t22.5 14.5t30.5 5q19 0 35 -9l33 -19.5t36.5 -19.5t45.5 -9q23 0 44 12t39.5 30t33.5 39t26 38z" />
    <glyph glyph-name="Odieresis" unicode="&#xd6;" horiz-adv-x="724" 
d="M713 430q0 63 -23 113t-56 84q-37 38 -82 54.5t-101 16.5q-69 0 -133.5 -26.5t-119.5 -77.5q-72 -68 -108 -157t-36 -180q0 -66 24 -117.5t61 -87.5q35 -35 77.5 -51.5t96.5 -16.5q73 0 135 25t116 71q39 33 67 74t46 86.5t27 93.5t9 96zM606 451q0 -90 -26.5 -176.5
t-71.5 -149.5q-35 -49 -80.5 -75t-102.5 -26q-86 0 -125 56.5t-39 149.5q0 89 24 167.5t63 141.5q34 54 84 86.5t111 32.5q45 0 76.5 -15.5t50.5 -43t27.5 -65.5t8.5 -83zM650 835q0 18 -12.5 34.5t-33.5 16.5q-32 0 -50.5 -20t-18.5 -46q0 -20 13 -36t38 -16
q31 0 47.5 20.5t16.5 46.5zM437 835q0 18 -13 34.5t-34 16.5q-32 0 -50 -20t-18 -46q0 -20 12.5 -36t37.5 -16q31 0 48 20.5t17 46.5z" />
    <glyph glyph-name="Udieresis" unicode="&#xdc;" horiz-adv-x="801" 
d="M892 683h-307l-9 -31q9 0 22 -3t27 -7.5t26.5 -9.5t18.5 -10q14 -11 14 -42q0 -17 -4 -40.5t-12 -51.5l-72 -253q-29 -99 -87.5 -153.5t-151.5 -54.5q-77 0 -109 29.5t-32 83.5q0 51 19 117l92 332q5 16 14.5 30t29.5 20q7 2 17.5 4t21.5 3.5l21.5 3t17.5 1.5l9 32h-306
l-9 -32q6 0 15 -2t19 -4.5t19 -5.5t14 -5q20 -10 20 -27q0 -5 -1 -10.5t-3 -12.5l-96 -347q-8 -26 -11 -50t-3 -45q0 -75 50 -116.5t161 -41.5q127 0 203.5 65.5t111.5 188.5l73 256q14 47 28.5 83t40.5 50q8 4 22 8.5t29 8t28 6t20 2.5zM712 835q0 18 -12.5 34.5
t-33.5 16.5q-32 0 -50.5 -20t-18.5 -46q0 -20 13 -36t38 -16q31 0 47.5 20.5t16.5 46.5zM499 835q0 18 -13 34.5t-34 16.5q-32 0 -50 -20t-18 -46q0 -20 12.5 -36t37.5 -16q31 0 48 20.5t17 46.5z" />
    <glyph glyph-name="aacute" unicode="&#xe1;" horiz-adv-x="555" 
d="M543 134l-29 10q-8 -20 -17.5 -41.5t-20.5 -38.5t-25 -28t-32 -11q-14 0 -24.5 7.5t-10.5 27.5q0 14 4 36t12 42l113 325h-90l-23 -66h-3q-7 38 -33 55.5t-58 17.5q-45 0 -83 -17t-69.5 -44.5t-55 -62.5t-40 -71.5t-24.5 -70.5t-8 -60q0 -47 12 -77.5t31.5 -48.5t44 -25
t49.5 -7q43 0 78.5 25.5t64.5 67.5h2q0 -30 9 -48t22.5 -27t30 -12t32.5 -3q27 0 47.5 11.5t37.5 31t30.5 46t25.5 56.5zM385 350l-73 -222q-23 -39 -55.5 -68t-75.5 -29q-10 0 -20 2.5t-18.5 12t-14 29t-5.5 53.5q0 45 13 99t36.5 101t56 78.5t71.5 31.5q36 0 56 -21
t29 -67zM503 699q0 12 -8.5 22t-25.5 10q-20 0 -35.5 -11t-38.5 -35l-25 -27l-28 -30.5l-34 -37.5l-43 -47l16 -19l61 39.5l45.5 29l34.5 22t29 19.5q23 16 37.5 30.5t14.5 34.5z" />
    <glyph glyph-name="agrave" unicode="&#xe0;" horiz-adv-x="555" 
d="M543 134l-29 10q-8 -20 -17.5 -41.5t-20.5 -38.5t-25 -28t-32 -11q-14 0 -24.5 7.5t-10.5 27.5q0 14 4 36t12 42l113 325h-90l-23 -66h-3q-7 38 -33 55.5t-58 17.5q-45 0 -83 -17t-69.5 -44.5t-55 -62.5t-40 -71.5t-24.5 -70.5t-8 -60q0 -47 12 -77.5t31.5 -48.5t44 -25
t49.5 -7q43 0 78.5 25.5t64.5 67.5h2q0 -30 9 -48t22.5 -27t30 -12t32.5 -3q27 0 47.5 11.5t37.5 31t30.5 46t25.5 56.5zM385 350l-73 -222q-23 -39 -55.5 -68t-75.5 -29q-10 0 -20 2.5t-18.5 12t-14 29t-5.5 53.5q0 45 13 99t36.5 101t56 78.5t71.5 31.5q36 0 56 -21
t29 -67zM373 541l-24 46l-18 36l-14.5 29.5l-13.5 27.5q-11 24 -24 37.5t-33 13.5q-17 0 -26.5 -11t-9.5 -27q0 -15 8.5 -28.5t23.5 -28.5l19.5 -19l21.5 -21l29 -29l41 -42z" />
    <glyph glyph-name="acircumflex" unicode="&#xe2;" horiz-adv-x="555" 
d="M543 134l-29 10q-8 -20 -17.5 -41.5t-20.5 -38.5t-25 -28t-32 -11q-14 0 -24.5 7.5t-10.5 27.5q0 14 4 36t12 42l113 325h-90l-23 -66h-3q-7 38 -33 55.5t-58 17.5q-45 0 -83 -17t-69.5 -44.5t-55 -62.5t-40 -71.5t-24.5 -70.5t-8 -60q0 -47 12 -77.5t31.5 -48.5t44 -25
t49.5 -7q43 0 78.5 25.5t64.5 67.5h2q0 -30 9 -48t22.5 -27t30 -12t32.5 -3q27 0 47.5 11.5t37.5 31t30.5 46t25.5 56.5zM385 350l-73 -222q-23 -39 -55.5 -68t-75.5 -29q-10 0 -20 2.5t-18.5 12t-14 29t-5.5 53.5q0 45 13 99t36.5 101t56 78.5t71.5 31.5q36 0 56 -21
t29 -67zM494 544l-42 100t-30 69q-5 13 -10.5 16.5t-24.5 3.5q-22 0 -29.5 -4t-20.5 -18l-63.5 -68.5l-90.5 -94.5l17 -18l176 133l95 -133z" />
    <glyph glyph-name="adieresis" unicode="&#xe4;" horiz-adv-x="555" 
d="M543 134l-29 10q-8 -20 -17.5 -41.5t-20.5 -38.5t-25 -28t-32 -11q-14 0 -24.5 7.5t-10.5 27.5q0 14 4 36t12 42l113 325h-90l-23 -66h-3q-7 38 -33 55.5t-58 17.5q-45 0 -83 -17t-69.5 -44.5t-55 -62.5t-40 -71.5t-24.5 -70.5t-8 -60q0 -47 12 -77.5t31.5 -48.5t44 -25
t49.5 -7q43 0 78.5 25.5t64.5 67.5h2q0 -30 9 -48t22.5 -27t30 -12t32.5 -3q27 0 47.5 11.5t37.5 31t30.5 46t25.5 56.5zM385 350l-73 -222q-23 -39 -55.5 -68t-75.5 -29q-10 0 -20 2.5t-18.5 12t-14 29t-5.5 53.5q0 45 13 99t36.5 101t56 78.5t71.5 31.5q36 0 56 -21
t29 -67zM527 652q0 18 -12.5 34.5t-33.5 16.5q-32 0 -50.5 -20t-18.5 -46q0 -20 13 -36t38 -16q31 0 47.5 20.5t16.5 46.5zM314 652q0 18 -13 34.5t-34 16.5q-32 0 -50 -20t-18 -46q0 -20 12.5 -36t37.5 -16q31 0 48 20.5t17 46.5z" />
    <glyph glyph-name="atilde" unicode="&#xe3;" horiz-adv-x="555" 
d="M543 134l-29 10q-8 -20 -17.5 -41.5t-20.5 -38.5t-25 -28t-32 -11q-14 0 -24.5 7.5t-10.5 27.5q0 14 4 36t12 42l113 325h-90l-23 -66h-3q-7 38 -33 55.5t-58 17.5q-45 0 -83 -17t-69.5 -44.5t-55 -62.5t-40 -71.5t-24.5 -70.5t-8 -60q0 -47 12 -77.5t31.5 -48.5t44 -25
t49.5 -7q43 0 78.5 25.5t64.5 67.5h2q0 -30 9 -48t22.5 -27t30 -12t32.5 -3q27 0 47.5 11.5t37.5 31t30.5 46t25.5 56.5zM385 350l-73 -222q-23 -39 -55.5 -68t-75.5 -29q-10 0 -20 2.5t-18.5 12t-14 29t-5.5 53.5q0 45 13 99t36.5 101t56 78.5t71.5 31.5q36 0 56 -21
t29 -67zM563 685l-25 15l-20 -29t-19.5 -22.5t-23 -15t-30.5 -5.5q-19 0 -35 9l-33 19.5t-36.5 19.5t-45.5 9q-23 0 -44 -12t-39.5 -30t-33.5 -38.5t-25 -38.5l24 -15l20.5 29.5t19.5 23t22.5 14.5t30.5 5q19 0 35 -9l33 -19.5t36.5 -19.5t45.5 -9q23 0 44 12t39.5 30
t33.5 39t26 38z" />
    <glyph glyph-name="aring" unicode="&#xe5;" horiz-adv-x="555" 
d="M543 134l-29 10q-8 -20 -17.5 -41.5t-20.5 -38.5t-25 -28t-32 -11q-14 0 -24.5 7.5t-10.5 27.5q0 14 4 36t12 42l113 325h-90l-23 -66h-3q-7 38 -33 55.5t-58 17.5q-45 0 -83 -17t-69.5 -44.5t-55 -62.5t-40 -71.5t-24.5 -70.5t-8 -60q0 -47 12 -77.5t31.5 -48.5t44 -25
t49.5 -7q43 0 78.5 25.5t64.5 67.5h2q0 -30 9 -48t22.5 -27t30 -12t32.5 -3q27 0 47.5 11.5t37.5 31t30.5 46t25.5 56.5zM385 350l-73 -222q-23 -39 -55.5 -68t-75.5 -29q-10 0 -20 2.5t-18.5 12t-14 29t-5.5 53.5q0 45 13 99t36.5 101t56 78.5t71.5 31.5q36 0 56 -21
t29 -67zM464 639q0 47 -33 76t-83 29q-24 0 -45.5 -8.5t-37.5 -23t-25.5 -33.5t-9.5 -41q0 -51 33.5 -77.5t84.5 -26.5q24 0 45 8t36.5 22t25 33t9.5 42zM408 648q0 -15 -4.5 -30t-13 -27t-21 -19.5t-27.5 -7.5q-26 0 -41 18t-15 48q0 34 18.5 59t47.5 25q26 0 41 -18
t15 -48z" />
    <glyph glyph-name="ccedilla" unicode="&#xe7;" horiz-adv-x="405" 
d="M399 380q0 16 -7.5 32.5t-21 29t-33 20.5t-43.5 8q-42 0 -78.5 -16.5t-66 -43.5t-52.5 -61.5t-39 -70.5t-24 -69.5t-8 -59.5q0 -43 10 -72t27 -47t38 -27.5t44 -12.5l-35 -103q39 0 59 -7.5t20 -27.5q0 -31 -38 -40.5t-110 -11.5l-9 -32q52 0 95 6t74 18.5t48.5 33.5
t17.5 51q0 38 -30 52.5t-77 14.5l16 44q27 0 53 7t51.5 25t50 48t48.5 76l-30 14q-14 -26 -28.5 -49.5t-32.5 -41t-40 -28t-49 -10.5q-78 0 -78 101q0 29 6 63.5t17 69t26.5 67t33.5 57.5t38.5 40t42.5 15q27 0 41.5 -7.5t18.5 -27.5q-23 -12 -38 -27.5t-15 -31.5
q0 -12 5 -20.5t13 -14t17.5 -8t18.5 -2.5q26 0 39.5 21t13.5 56z" />
    <glyph glyph-name="eacute" unicode="&#xe9;" horiz-adv-x="406" 
d="M397 398q0 37 -24.5 54.5t-58.5 17.5q-47 0 -86.5 -16.5t-71.5 -43.5t-56 -61.5t-40.5 -70.5t-25 -70.5t-8.5 -61.5q0 -48 14 -79t36 -49t49 -25t54 -7q24 0 50 8t51.5 26.5t50.5 49t48 74.5l-30 14q-14 -26 -29 -49t-33 -40.5t-40.5 -28t-49.5 -10.5q-39 0 -58 22
t-19 70q0 21 3.5 45t8.5 41q37 6 83 19.5t86.5 36.5t68 56t27.5 78zM326 387q0 -18 -9.5 -40t-31.5 -43t-58 -39t-89 -27q10 36 26 71.5t35 64.5t40.5 47t43.5 18q24 0 33.5 -14t9.5 -38zM466 699q0 12 -8.5 22t-25.5 10q-20 0 -35.5 -11t-38.5 -35l-25 -27l-28 -30.5
l-34 -37.5l-43 -47l16 -19l61 39.5l45.5 29l34.5 22t29 19.5q23 16 37.5 30.5t14.5 34.5z" />
    <glyph glyph-name="egrave" unicode="&#xe8;" horiz-adv-x="406" 
d="M397 398q0 37 -24.5 54.5t-58.5 17.5q-47 0 -86.5 -16.5t-71.5 -43.5t-56 -61.5t-40.5 -70.5t-25 -70.5t-8.5 -61.5q0 -48 14 -79t36 -49t49 -25t54 -7q24 0 50 8t51.5 26.5t50.5 49t48 74.5l-30 14q-14 -26 -29 -49t-33 -40.5t-40.5 -28t-49.5 -10.5q-39 0 -58 22
t-19 70q0 21 3.5 45t8.5 41q37 6 83 19.5t86.5 36.5t68 56t27.5 78zM326 387q0 -18 -9.5 -40t-31.5 -43t-58 -39t-89 -27q10 36 26 71.5t35 64.5t40.5 47t43.5 18q24 0 33.5 -14t9.5 -38zM328 541l-24 46l-18 36l-14.5 29.5l-13.5 27.5q-11 24 -24 37.5t-33 13.5
q-17 0 -26.5 -11t-9.5 -27q0 -15 8.5 -28.5t23.5 -28.5l19.5 -19l21.5 -21l29 -29l41 -42z" />
    <glyph glyph-name="ecircumflex" unicode="&#xea;" horiz-adv-x="406" 
d="M397 398q0 37 -24.5 54.5t-58.5 17.5q-47 0 -86.5 -16.5t-71.5 -43.5t-56 -61.5t-40.5 -70.5t-25 -70.5t-8.5 -61.5q0 -48 14 -79t36 -49t49 -25t54 -7q24 0 50 8t51.5 26.5t50.5 49t48 74.5l-30 14q-14 -26 -29 -49t-33 -40.5t-40.5 -28t-49.5 -10.5q-39 0 -58 22
t-19 70q0 21 3.5 45t8.5 41q37 6 83 19.5t86.5 36.5t68 56t27.5 78zM326 387q0 -18 -9.5 -40t-31.5 -43t-58 -39t-89 -27q10 36 26 71.5t35 64.5t40.5 47t43.5 18q24 0 33.5 -14t9.5 -38zM448 529l-42 100t-30 69q-5 13 -10.5 16.5t-24.5 3.5q-22 0 -29.5 -4t-20.5 -18
l-63.5 -68.5l-90.5 -94.5l17 -18l176 133l95 -133z" />
    <glyph glyph-name="edieresis" unicode="&#xeb;" horiz-adv-x="406" 
d="M397 398q0 37 -24.5 54.5t-58.5 17.5q-47 0 -86.5 -16.5t-71.5 -43.5t-56 -61.5t-40.5 -70.5t-25 -70.5t-8.5 -61.5q0 -48 14 -79t36 -49t49 -25t54 -7q24 0 50 8t51.5 26.5t50.5 49t48 74.5l-30 14q-14 -26 -29 -49t-33 -40.5t-40.5 -28t-49.5 -10.5q-39 0 -58 22
t-19 70q0 21 3.5 45t8.5 41q37 6 83 19.5t86.5 36.5t68 56t27.5 78zM326 387q0 -18 -9.5 -40t-31.5 -43t-58 -39t-89 -27q10 36 26 71.5t35 64.5t40.5 47t43.5 18q24 0 33.5 -14t9.5 -38zM476 652q0 18 -12.5 34.5t-33.5 16.5q-32 0 -50.5 -20t-18.5 -46q0 -20 13 -36
t38 -16q31 0 47.5 20.5t16.5 46.5zM263 652q0 18 -13 34.5t-34 16.5q-32 0 -50 -20t-18 -46q0 -20 12.5 -36t37.5 -16q31 0 48 20.5t17 46.5z" />
    <glyph glyph-name="iacute" unicode="&#xed;" horiz-adv-x="340" 
d="M317 134l-29 10q-12 -27 -22.5 -48.5t-21.5 -37.5t-24 -24.5t-30 -8.5q-11 0 -22 5.5t-11 29.5q0 11 7 34t15 44l56 146l9.5 25l10.5 28t8 26.5t3 21.5q0 26 -9 42.5t-23.5 26t-31.5 13t-33 3.5q-27 0 -48 -11.5t-38 -31.5t-31.5 -48.5t-27.5 -61.5l30 -9l19 44.5
t22 40.5t26 29.5t31 11.5q14 0 21 -7.5t7 -27.5q0 -9 -6 -31.5t-16 -48.5l-66 -169q-10 -26 -15 -45.5t-5 -37.5q0 -23 10.5 -38t25.5 -24t32.5 -12.5t31.5 -3.5q52 0 85.5 40.5t59.5 104.5zM397 699q0 12 -8.5 22t-25.5 10q-20 0 -35.5 -11t-38.5 -35l-25 -27l-28 -30.5
l-34 -37.5l-43 -47l16 -19l61 39.5l45.5 29l34.5 22t29 19.5q23 16 37.5 30.5t14.5 34.5z" />
    <glyph glyph-name="igrave" unicode="&#xec;" horiz-adv-x="340" 
d="M317 134l-29 10q-12 -27 -22.5 -48.5t-21.5 -37.5t-24 -24.5t-30 -8.5q-11 0 -22 5.5t-11 29.5q0 11 7 34t15 44l56 146l9.5 25l10.5 28t8 26.5t3 21.5q0 26 -9 42.5t-23.5 26t-31.5 13t-33 3.5q-27 0 -48 -11.5t-38 -31.5t-31.5 -48.5t-27.5 -61.5l30 -9l19 44.5
t22 40.5t26 29.5t31 11.5q14 0 21 -7.5t7 -27.5q0 -9 -6 -31.5t-16 -48.5l-66 -169q-10 -26 -15 -45.5t-5 -37.5q0 -23 10.5 -38t25.5 -24t32.5 -12.5t31.5 -3.5q52 0 85.5 40.5t59.5 104.5zM267 541l-24 46l-18 36l-14.5 29.5l-13.5 27.5q-11 24 -24 37.5t-33 13.5
q-17 0 -26.5 -11t-9.5 -27q0 -15 8.5 -28.5t23.5 -28.5l19.5 -19l21.5 -21l29 -29l41 -42z" />
    <glyph glyph-name="icircumflex" unicode="&#xee;" horiz-adv-x="340" 
d="M340 541q-20 60 -30 102.5t-21 69.5q-5 13 -10.5 16.5t-24.5 3.5q-22 0 -30 -4t-20 -18q-25 -29 -55 -68t-79 -95l16 -18l157 135l74 -135zM317 134l-29 10q-12 -27 -22.5 -48.5t-21.5 -37.5t-24 -24.5t-30 -8.5q-11 0 -22 5.5t-11 29.5q0 11 7 34t15 44l56 146l9.5 25
l10.5 28t8 26.5t3 21.5q0 26 -9 42.5t-23.5 26t-31.5 13t-33 3.5q-27 0 -48 -11.5t-38 -31.5t-31.5 -48.5t-27.5 -61.5l30 -9l19 44.5t22 40.5t26 29.5t31 11.5q14 0 21 -7.5t7 -27.5q0 -9 -6 -31.5t-16 -48.5l-66 -169q-10 -26 -15 -45.5t-5 -37.5q0 -23 10.5 -38t25.5 -24
t32.5 -12.5t31.5 -3.5q52 0 85.5 40.5t59.5 104.5z" />
    <glyph glyph-name="idieresis" unicode="&#xef;" horiz-adv-x="340" 
d="M394 652q0 18 -12.5 34.5t-33.5 16.5q-32 0 -50.5 -20t-18.5 -46q0 -20 13 -36t38 -16q31 0 47.5 20.5t16.5 46.5zM209 652q0 18 -13 34.5t-34 16.5q-32 0 -50 -20t-18 -46q0 -20 12.5 -36t37.5 -16q31 0 48 20.5t17 46.5zM317 134l-29 10q-12 -27 -22.5 -48.5
t-21.5 -37.5t-24 -24.5t-30 -8.5q-11 0 -22 5.5t-11 29.5q0 11 7 34t15 44l56 146l9.5 25l10.5 28t8 26.5t3 21.5q0 26 -9 42.5t-23.5 26t-31.5 13t-33 3.5q-27 0 -48 -11.5t-38 -31.5t-31.5 -48.5t-27.5 -61.5l30 -9l19 44.5t22 40.5t26 29.5t31 11.5q14 0 21 -7.5t7 -27.5
q0 -9 -6 -31.5t-16 -48.5l-66 -169q-10 -26 -15 -45.5t-5 -37.5q0 -23 10.5 -38t25.5 -24t32.5 -12.5t31.5 -3.5q52 0 85.5 40.5t59.5 104.5z" />
    <glyph glyph-name="ntilde" unicode="&#xf1;" horiz-adv-x="607" 
d="M590 134l-29 10q-12 -27 -22.5 -48.5t-21.5 -37.5t-24 -24.5t-30 -8.5q-11 0 -22 5.5t-11 29.5q0 11 6.5 31.5t15.5 46.5l54 145q7 19 13 41.5t6 33.5q0 22 -8.5 42.5t-24 36t-36.5 24.5t-46 9q-44 0 -81 -28t-63 -64l-3 1q0 28 -8.5 46t-22 28t-30 13.5t-32.5 3.5
q-27 0 -48 -11.5t-38 -31.5t-31.5 -48.5t-27.5 -61.5l30 -9l19 44.5t22 40.5t26 29.5t31 11.5q14 0 21 -7.5t7 -27.5q0 -5 -2 -14.5l-4.5 -21t-6 -23.5t-6.5 -21l-107 -319h91l100 304q13 25 29.5 47.5t36 39t40 26.5t40.5 10q10 0 18.5 -1.5t15.5 -6.5t11 -14t4 -25
q0 -14 -6 -35.5t-13 -39.5l-58 -155q-11 -26 -16.5 -45.5t-5.5 -37.5q0 -23 10.5 -38t26.5 -24t34 -12.5t32 -3.5q26 0 47 10.5t38.5 30t32 46t27.5 58.5zM593 685l-25 15l-20 -29t-19.5 -22.5t-23 -15t-30.5 -5.5q-19 0 -35 9l-33 19.5t-36.5 19.5t-45.5 9q-23 0 -44 -12
t-39.5 -30t-33.5 -38.5t-25 -38.5l24 -15l20.5 29.5t19.5 23t22.5 14.5t30.5 5q19 0 35 -9l33 -19.5t36.5 -19.5t45.5 -9q23 0 44 12t39.5 30t33.5 39t26 38z" />
    <glyph glyph-name="oacute" unicode="&#xf3;" horiz-adv-x="487" 
d="M458 291q0 48 -13.5 81.5t-35.5 55.5t-48.5 32t-51.5 10q-70 0 -122 -32.5t-87 -79.5t-52.5 -100t-17.5 -94q0 -48 13.5 -81.5t35 -55t47.5 -31.5t52 -10q70 0 123 32.5t87.5 79.5t52 99.5t17.5 93.5zM364 313q0 -45 -10.5 -97.5t-31.5 -96.5t-52.5 -73.5t-73.5 -29.5
q-29 0 -50.5 29t-21.5 100q0 45 11.5 96.5t33 96t52.5 73.5t70 29q13 0 26.5 -6.5t23.5 -21.5t16.5 -39.5t6.5 -59.5zM481 699q0 12 -8.5 22t-25.5 10q-20 0 -35.5 -11t-38.5 -35l-25 -27l-28 -30.5l-34 -37.5l-43 -47l16 -19l61 39.5l45.5 29l34.5 22t29 19.5
q23 16 37.5 30.5t14.5 34.5z" />
    <glyph glyph-name="ograve" unicode="&#xf2;" horiz-adv-x="487" 
d="M458 291q0 48 -13.5 81.5t-35.5 55.5t-48.5 32t-51.5 10q-70 0 -122 -32.5t-87 -79.5t-52.5 -100t-17.5 -94q0 -48 13.5 -81.5t35 -55t47.5 -31.5t52 -10q70 0 123 32.5t87.5 79.5t52 99.5t17.5 93.5zM364 313q0 -45 -10.5 -97.5t-31.5 -96.5t-52.5 -73.5t-73.5 -29.5
q-29 0 -50.5 29t-21.5 100q0 45 11.5 96.5t33 96t52.5 73.5t70 29q13 0 26.5 -6.5t23.5 -21.5t16.5 -39.5t6.5 -59.5zM351 541l-24 46l-18 36l-14.5 29.5l-13.5 27.5q-11 24 -24 37.5t-33 13.5q-17 0 -26.5 -11t-9.5 -27q0 -15 8.5 -28.5t23.5 -28.5l19.5 -19l21.5 -21
l29 -29l41 -42z" />
    <glyph glyph-name="ocircumflex" unicode="&#xf4;" horiz-adv-x="487" 
d="M458 291q0 48 -13.5 81.5t-35.5 55.5t-48.5 32t-51.5 10q-70 0 -122 -32.5t-87 -79.5t-52.5 -100t-17.5 -94q0 -48 13.5 -81.5t35 -55t47.5 -31.5t52 -10q70 0 123 32.5t87.5 79.5t52 99.5t17.5 93.5zM364 313q0 -45 -10.5 -97.5t-31.5 -96.5t-52.5 -73.5t-73.5 -29.5
q-29 0 -50.5 29t-21.5 100q0 45 11.5 96.5t33 96t52.5 73.5t70 29q13 0 26.5 -6.5t23.5 -21.5t16.5 -39.5t6.5 -59.5zM470 544l-42 100t-30 69q-5 13 -10.5 16.5t-24.5 3.5q-22 0 -29.5 -4t-20.5 -18l-63.5 -68.5l-90.5 -94.5l17 -18l176 133l95 -133z" />
    <glyph glyph-name="odieresis" unicode="&#xf6;" horiz-adv-x="487" 
d="M458 291q0 48 -13.5 81.5t-35.5 55.5t-48.5 32t-51.5 10q-70 0 -122 -32.5t-87 -79.5t-52.5 -100t-17.5 -94q0 -48 13.5 -81.5t35 -55t47.5 -31.5t52 -10q70 0 123 32.5t87.5 79.5t52 99.5t17.5 93.5zM364 313q0 -45 -10.5 -97.5t-31.5 -96.5t-52.5 -73.5t-73.5 -29.5
q-29 0 -50.5 29t-21.5 100q0 45 11.5 96.5t33 96t52.5 73.5t70 29q13 0 26.5 -6.5t23.5 -21.5t16.5 -39.5t6.5 -59.5zM503 652q0 18 -12.5 34.5t-33.5 16.5q-32 0 -50.5 -20t-18.5 -46q0 -20 13 -36t38 -16q31 0 47.5 20.5t16.5 46.5zM290 652q0 18 -13 34.5t-34 16.5
q-32 0 -50 -20t-18 -46q0 -20 12.5 -36t37.5 -16q31 0 48 20.5t17 46.5z" />
    <glyph glyph-name="otilde" unicode="&#xf5;" horiz-adv-x="487" 
d="M458 291q0 48 -13.5 81.5t-35.5 55.5t-48.5 32t-51.5 10q-70 0 -122 -32.5t-87 -79.5t-52.5 -100t-17.5 -94q0 -48 13.5 -81.5t35 -55t47.5 -31.5t52 -10q70 0 123 32.5t87.5 79.5t52 99.5t17.5 93.5zM364 313q0 -45 -10.5 -97.5t-31.5 -96.5t-52.5 -73.5t-73.5 -29.5
q-29 0 -50.5 29t-21.5 100q0 45 11.5 96.5t33 96t52.5 73.5t70 29q13 0 26.5 -6.5t23.5 -21.5t16.5 -39.5t6.5 -59.5zM534 685l-25 15l-20 -29t-19.5 -22.5t-23 -15t-30.5 -5.5q-19 0 -35 9l-33 19.5t-36.5 19.5t-45.5 9q-23 0 -44 -12t-39.5 -30t-33.5 -38.5t-25 -38.5
l24 -15l20.5 29.5t19.5 23t22.5 14.5t30.5 5q19 0 35 -9l33 -19.5t36.5 -19.5t45.5 -9q23 0 44 12t39.5 30t33.5 39t26 38z" />
    <glyph glyph-name="uacute" unicode="&#xfa;" horiz-adv-x="600" 
d="M586 134l-29 10q-8 -20 -17.5 -41.5t-20.5 -38.5t-25 -28t-32 -11q-14 0 -24.5 7.5t-10.5 27.5q0 14 5.5 38t10.5 40l104 318h-92l-100 -320q-12 -21 -27.5 -40t-34 -33.5t-38.5 -23.5t-41 -9q-20 0 -34.5 9t-14.5 41q0 14 5.5 33t13.5 39l60 155q10 26 15.5 45.5
t5.5 37.5q0 21 -9 36t-23.5 25t-32 14.5t-35.5 4.5q-27 0 -48 -11.5t-38 -31.5t-31.5 -48.5t-27.5 -61.5l30 -9l19 44.5t22 40.5t26 29.5t31 11.5q14 0 21.5 -7.5t7.5 -27.5q0 -9 -4.5 -30.5t-15.5 -49.5l-56 -146q-8 -20 -14 -41.5t-6 -32.5q0 -22 8.5 -42.5t24 -36
t37 -24.5t46.5 -9q21 0 42 7.5t40 21t36 30.5t30 37l3 -1q0 -30 9 -48.5t23.5 -28t31.5 -13t33 -3.5q27 0 47.5 11.5t37.5 31t30.5 46t25.5 56.5zM545 699q0 12 -8.5 22t-25.5 10q-20 0 -35.5 -11t-38.5 -35l-25 -27l-28 -30.5l-34 -37.5l-43 -47l16 -19l61 39.5l45.5 29
l34.5 22t29 19.5q23 16 37.5 30.5t14.5 34.5z" />
    <glyph glyph-name="ugrave" unicode="&#xf9;" horiz-adv-x="600" 
d="M586 134l-29 10q-8 -20 -17.5 -41.5t-20.5 -38.5t-25 -28t-32 -11q-14 0 -24.5 7.5t-10.5 27.5q0 14 5.5 38t10.5 40l104 318h-92l-100 -320q-12 -21 -27.5 -40t-34 -33.5t-38.5 -23.5t-41 -9q-20 0 -34.5 9t-14.5 41q0 14 5.5 33t13.5 39l60 155q10 26 15.5 45.5
t5.5 37.5q0 21 -9 36t-23.5 25t-32 14.5t-35.5 4.5q-27 0 -48 -11.5t-38 -31.5t-31.5 -48.5t-27.5 -61.5l30 -9l19 44.5t22 40.5t26 29.5t31 11.5q14 0 21.5 -7.5t7.5 -27.5q0 -9 -4.5 -30.5t-15.5 -49.5l-56 -146q-8 -20 -14 -41.5t-6 -32.5q0 -22 8.5 -42.5t24 -36
t37 -24.5t46.5 -9q21 0 42 7.5t40 21t36 30.5t30 37l3 -1q0 -30 9 -48.5t23.5 -28t31.5 -13t33 -3.5q27 0 47.5 11.5t37.5 31t30.5 46t25.5 56.5zM390 541l-24 46l-18 36l-14.5 29.5l-13.5 27.5q-11 24 -24 37.5t-33 13.5q-17 0 -26.5 -11t-9.5 -27q0 -15 8.5 -28.5
t23.5 -28.5l19.5 -19l21.5 -21l29 -29l41 -42z" />
    <glyph glyph-name="ucircumflex" unicode="&#xfb;" horiz-adv-x="600" 
d="M586 134l-29 10q-8 -20 -17.5 -41.5t-20.5 -38.5t-25 -28t-32 -11q-14 0 -24.5 7.5t-10.5 27.5q0 14 5.5 38t10.5 40l104 318h-92l-100 -320q-12 -21 -27.5 -40t-34 -33.5t-38.5 -23.5t-41 -9q-20 0 -34.5 9t-14.5 41q0 14 5.5 33t13.5 39l60 155q10 26 15.5 45.5
t5.5 37.5q0 21 -9 36t-23.5 25t-32 14.5t-35.5 4.5q-27 0 -48 -11.5t-38 -31.5t-31.5 -48.5t-27.5 -61.5l30 -9l19 44.5t22 40.5t26 29.5t31 11.5q14 0 21.5 -7.5t7.5 -27.5q0 -9 -4.5 -30.5t-15.5 -49.5l-56 -146q-8 -20 -14 -41.5t-6 -32.5q0 -22 8.5 -42.5t24 -36
t37 -24.5t46.5 -9q21 0 42 7.5t40 21t36 30.5t30 37l3 -1q0 -30 9 -48.5t23.5 -28t31.5 -13t33 -3.5q27 0 47.5 11.5t37.5 31t30.5 46t25.5 56.5zM514 544l-42 100t-30 69q-5 13 -10.5 16.5t-24.5 3.5q-22 0 -29.5 -4t-20.5 -18l-63.5 -68.5l-90.5 -94.5l17 -18l176 133
l95 -133z" />
    <glyph glyph-name="udieresis" unicode="&#xfc;" horiz-adv-x="600" 
d="M586 134l-29 10q-8 -20 -17.5 -41.5t-20.5 -38.5t-25 -28t-32 -11q-14 0 -24.5 7.5t-10.5 27.5q0 14 5.5 38t10.5 40l104 318h-92l-100 -320q-12 -21 -27.5 -40t-34 -33.5t-38.5 -23.5t-41 -9q-20 0 -34.5 9t-14.5 41q0 14 5.5 33t13.5 39l60 155q10 26 15.5 45.5
t5.5 37.5q0 21 -9 36t-23.5 25t-32 14.5t-35.5 4.5q-27 0 -48 -11.5t-38 -31.5t-31.5 -48.5t-27.5 -61.5l30 -9l19 44.5t22 40.5t26 29.5t31 11.5q14 0 21.5 -7.5t7.5 -27.5q0 -9 -4.5 -30.5t-15.5 -49.5l-56 -146q-8 -20 -14 -41.5t-6 -32.5q0 -22 8.5 -42.5t24 -36
t37 -24.5t46.5 -9q21 0 42 7.5t40 21t36 30.5t30 37l3 -1q0 -30 9 -48.5t23.5 -28t31.5 -13t33 -3.5q27 0 47.5 11.5t37.5 31t30.5 46t25.5 56.5zM550 652q0 18 -12.5 34.5t-33.5 16.5q-32 0 -50.5 -20t-18.5 -46q0 -20 13 -36t38 -16q31 0 47.5 20.5t16.5 46.5zM337 652
q0 18 -13 34.5t-34 16.5q-32 0 -50 -20t-18 -46q0 -20 12.5 -36t37.5 -16q31 0 48 20.5t17 46.5z" />
    <glyph glyph-name="degree" unicode="&#xb0;" horiz-adv-x="387" 
d="M404 560q0 35 -13.5 63t-35.5 47.5t-49.5 29.5t-55.5 10q-34 0 -64 -12.5t-52.5 -35t-36 -53t-13.5 -65.5t13.5 -63t35.5 -47.5t49.5 -29.5t55.5 -10q34 0 64 12.5t52.5 35t36 53t13.5 65.5zM334 570q0 -29 -7.5 -53.5t-20 -42.5t-30 -28.5t-37.5 -10.5q-37 0 -61 25.5
t-24 73.5q0 28 7.5 53t20 43t30 28.5t37.5 10.5q37 0 61 -25.5t24 -73.5z" />
    <glyph glyph-name="registered" unicode="&#xae;" horiz-adv-x="670" 
d="M635 443q0 54 -21 101t-56.5 82.5t-83 56t-101.5 20.5t-101.5 -20.5t-83.5 -56t-56.5 -82.5t-20.5 -101t20.5 -101.5t56.5 -83t83.5 -56t101.5 -20.5t101.5 20.5t83 56t56.5 83t21 101.5zM607 443q0 -49 -18.5 -92t-50 -75.5t-74.5 -51t-91 -18.5q-49 0 -91.5 18.5
t-74 51t-50 75.5t-18.5 92q0 48 18.5 91t50 75.5t74 51t91.5 18.5q48 0 91 -18.5t74.5 -51t50 -75.5t18.5 -91zM541 306v20q-16 0 -28 3q-6 2 -13 5t-12 17q-2 5 -7 21t-10 29q-11 25 -29.5 36.5t-41.5 16.5v2q34 9 57.5 23.5t23.5 50.5q0 18 -8 31.5t-20.5 21.5t-29 12
t-32.5 4h-150v-20q8 -1 17.5 -2.5t15.5 -3.5q11 -2 11 -18v-207q0 -14 -11 -18q-5 -2 -15 -3t-18 -1v-20h139v20q-8 0 -18.5 1t-15.5 3q-11 4 -11 18v95h19q21 0 39 -15t26 -37t14 -42t11 -43h97zM424 526q0 -28 -19.5 -44t-45.5 -16h-24v111h34q23 0 39 -12t16 -39z" />
    <glyph glyph-name="copyright" unicode="&#xa9;" horiz-adv-x="942" 
d="M911 251q0 88 -34 166.5t-93 137t-137.5 92.5t-166.5 34q-89 0 -168 -34t-138 -92.5t-93 -137t-34 -166.5q0 -89 34 -168t93 -137.5t138 -92.5t168 -34q88 0 166.5 34t137.5 92.5t93 137.5t34 168zM873 251q0 -83 -30.5 -155.5t-84 -126.5t-125 -85t-153.5 -31
q-83 0 -155 31t-125 85t-84 126.5t-31 155.5q0 82 31 154t84 125.5t125 84.5t155 31q82 0 153.5 -31t125 -84.5t84 -125.5t30.5 -154zM677 155l-24 11q-11 -22 -23.5 -41t-30 -33.5t-40 -22.5t-53.5 -8q-33 0 -62 13.5t-50.5 38t-33.5 60t-12 79.5q0 53 11.5 91.5t30 63.5
t42.5 37t49 12q37 0 62.5 -12t43 -31.5t29.5 -45t21 -52.5h25l-4 181l-29 1l-22 -37q-17 13 -48.5 21.5t-58.5 8.5q-56 0 -102 -18.5t-80 -51t-52.5 -77t-18.5 -96.5q0 -54 17 -97.5t48.5 -73.5t75.5 -46.5t98 -16.5q39 0 69.5 12.5t53.5 32.5t39.5 45.5t28.5 51.5z" />
    <glyph glyph-name="trademark" unicode="&#x2122;" horiz-adv-x="830" 
d="M879 368v23q-9 0 -20.5 2t-16.5 4q-11 5 -11 18v222q0 6 2 11t9 7q6 2 17 3.5t20 2.5v22h-111q-2 -6 -4.5 -17t-7.5 -23l-79 -181l-95 221h-115v-22q11 -1 22 -3.5t19 -8.5q13 -11 13 -33v-156q0 -50 -13 -59q-8 -5 -22 -7t-22 -4v-22h146v23q-10 0 -25.5 4t-21.5 8
q-7 6 -10 19.5t-3 39.5v161l77 -184l13 -32.5t12 -33.5h17l108 245v-203q0 -7 -3 -10.5t-10 -8.5q-5 -2 -18.5 -3.5t-22.5 -1.5v-23h156zM424 593v90h-289v-90h22q2 8 7 18.5t11 20t13.5 17t14.5 8.5q8 1 19 1.5t17 0.5h13v-245q0 -5 -2 -10.5t-9 -7.5q-5 -2 -18 -3.5
t-22 -1.5v-23h157v23q-9 0 -22 2.5t-18 4.5q-11 5 -11 19v242h13q8 0 18 -0.5t18 -1.5q7 -1 14 -8.5t13.5 -17t11.5 -20t7 -18.5h22z" />
    <glyph glyph-name="notequal" unicode="&#x2260;" horiz-adv-x="611" 
d="M837 657q0 15 -6 30.5t-19 28t-32 20t-45 7.5q-35 0 -71 -11.5t-71 -43.5l-21 -21q-7 32 -33.5 54t-73.5 22q-39 0 -77.5 -11t-77.5 -43q-56 -46 -85.5 -98.5t-47.5 -112.5l-8 -24h-106l-12 -40h106l-46.5 -188t-63.5 -230q-17 -55 -34 -93.5t-36.5 -62.5t-42 -35
t-50.5 -11q-5 0 -10.5 2t-7.5 6q9 13 15.5 24.5t6.5 22.5q0 14 -5.5 23.5t-14 15t-18 8t-17.5 2.5q-25 0 -39 -17.5t-14 -36.5q0 -15 4.5 -29t16 -25.5t30.5 -18.5t49 -7q37 0 69 12.5t71 45.5q46 38 74.5 91t46.5 111q13 41 26 90l26.5 100.5l26.5 103.5l25 98h210
l-46 -189t-63 -231q-18 -59 -34 -98t-31.5 -62t-32 -33t-35.5 -10q-18 0 -27 8l15.5 22t6.5 25q0 13 -5.5 22.5t-14 15t-18 8t-17.5 2.5q-26 0 -38.5 -17.5t-12.5 -34.5q0 -15 4.5 -29.5t16 -25.5t30.5 -18t49 -7q32 0 62.5 12t63.5 45q38 38 65.5 91.5t45.5 111.5
q13 41 26.5 89.5l27 100l26.5 103l25 97.5h124l13 40h-126l17 61q30 107 66.5 152t84.5 45q7 0 13.5 -2t8.5 -5q-2 -16 -9 -30t-7 -25q0 -12 6 -20.5t14.5 -14t18 -7.5t17.5 -2q13 0 22.5 5.5t16 13.5t10 17t3.5 15zM522 601q-15 -26 -26.5 -55t-19.5 -61l-8 -31h-211l15 54
q16 57 35.5 96t42 63t48 34.5t54.5 10.5q19 0 28 -14q-1 -16 -2.5 -26.5t-1.5 -21.5q0 -26 14 -36.5t32 -12.5z" />
    <glyph glyph-name="infinity" unicode="&#x221e;" horiz-adv-x="883" 
d="M869 655q0 15 -6 30.5t-19 28.5t-33.5 21t-48.5 8q-39 0 -77.5 -11.5t-77.5 -43.5q-18 -15 -34 -31q-4 35 -30.5 60.5t-77.5 25.5q-39 0 -77.5 -11t-77.5 -43q-56 -46 -85.5 -98.5t-47.5 -112.5l-8 -24h-106l-12 -40h106l-46.5 -188t-63.5 -230q-17 -55 -34 -93.5
t-36.5 -62.5t-42 -35t-50.5 -11q-5 0 -10.5 2t-7.5 6q9 13 15.5 24.5t6.5 22.5q0 14 -5.5 23.5t-14 15t-18 8t-17.5 2.5q-25 0 -39 -17.5t-14 -36.5q0 -15 4.5 -29t16 -25.5t30.5 -18.5t49 -7q37 0 69 12.5t71 45.5q46 38 74.5 91t46.5 111q13 41 26 90l26.5 100.5
l26.5 103.5l25 98h210l-46 -189t-63 -231q-18 -59 -34 -98t-31.5 -62t-32 -33t-35.5 -10q-18 0 -27 8l15.5 22t6.5 25q0 13 -5.5 22.5t-14 15t-18 8t-17.5 2.5q-26 0 -38.5 -17.5t-12.5 -34.5q0 -15 4.5 -29.5t16 -25.5t30.5 -18t49 -7q32 0 62.5 12t63.5 45
q38 38 65.5 91.5t45.5 111.5q13 41 26 90l26.5 100.5l26.5 103.5l25 98h179q-2 -25 -8 -46.5t-17 -50.5l-62 -169q-10 -26 -15 -45.5t-5 -37.5q0 -23 10.5 -38t25.5 -24t32.5 -12.5t31.5 -3.5q52 0 85.5 40.5t59.5 104.5l-29 10q-12 -27 -22.5 -48.5t-21.5 -37.5t-24 -24.5
t-30 -8.5q-11 0 -22 5.5t-11 29.5q0 11 7 34.5t15 43.5l52 136q10 27 19 54.5t16 52t11 43.5t5 30h-271l18 61q16 56 36 94t42.5 61t47 32.5t51.5 9.5q19 0 28 -6q-2 -16 -12 -32t-10 -27q0 -14 6 -23t15 -15t19 -8.5t18 -2.5q15 0 25.5 6.5t17 15.5t10 19t3.5 16zM529 601
q-17 -26 -29.5 -55t-22.5 -61l-9 -31h-211l15 54q16 57 35.5 96t42 63t48 34.5t54.5 10.5q19 0 28 -14q-1 -16 -2.5 -26.5t-1.5 -21.5q0 -29 16.5 -39t36.5 -10z" />
    <glyph glyph-name="plusminus" unicode="&#xb1;" horiz-adv-x="900" 
d="M933 738l-100 -23q-12 11 -34 19.5t-48 8.5q-38 0 -75 -11.5t-75 -43.5l-15 -13t-13 -13q-5 34 -32 57.5t-76 23.5q-39 0 -77.5 -11t-77.5 -43q-56 -46 -85.5 -98.5t-47.5 -112.5l-8 -24h-106l-12 -40h106l-46.5 -188t-63.5 -230q-17 -55 -34 -93.5t-36.5 -62.5t-42 -35
t-50.5 -11q-5 0 -10.5 2t-7.5 6q9 13 15.5 24.5t6.5 22.5q0 14 -5.5 23.5t-14 15t-18 8t-17.5 2.5q-25 0 -39 -17.5t-14 -36.5q0 -15 4.5 -29t16 -25.5t30.5 -18.5t49 -7q37 0 69 12.5t71 45.5q46 38 74.5 91t46.5 111q13 41 26 90l26.5 100.5l26.5 103.5l25 98h210
l-46 -189t-63 -231q-18 -59 -34 -98t-31.5 -62t-32 -33t-35.5 -10q-18 0 -27 8l15.5 22t6.5 25q0 13 -5.5 22.5t-14 15t-18 8t-17.5 2.5q-26 0 -38.5 -17.5t-12.5 -34.5q0 -15 4.5 -29.5t16 -25.5t30.5 -18t49 -7q32 0 62.5 12t63.5 45q38 38 65.5 91.5t45.5 111.5
q13 41 26 90l26.5 100.5l26.5 103l25 97.5h124l13 40h-126l17 60q30 106 73 151.5t94 45.5q16 0 27.5 -3t18.5 -7q0 -18 1 -28.5t4.5 -17t9 -9.5t13.5 -5l-155 -492q-7 -23 -12.5 -44t-5.5 -40q0 -23 10 -38t25 -23.5t32 -12t31 -3.5q26 0 47 10.5t38.5 30t32 46t27.5 58.5
l-29 10q-12 -27 -22.5 -48.5t-21.5 -37.5t-24 -24.5t-30 -8.5q-11 0 -22 5.5t-11 29.5q0 11 6 33.5t13 42.5zM525 601q-30 -49 -49 -116l-9 -31h-210l15 54q16 57 35.5 96t42 63t48 34.5t54.5 10.5q19 0 28 -14q-1 -16 -2.5 -26.5t-1.5 -21.5q0 -28 15 -38t34 -11z" />
    <glyph glyph-name="lessequal" unicode="&#x2264;" horiz-adv-x="712" 
d="M702 152l-35 10q-15 -57 -35.5 -89t-49.5 -32q-20 0 -29.5 12t-11.5 40q-2 26 -2 54q0 29 -2 69q-5 105 -111 124v7q45 10 85.5 26t70.5 40t47.5 57.5t17.5 78.5q0 66 -55 100t-153 34h-281l-9 -32q6 0 15 -2t19 -4.5t19 -5.5t14 -5q20 -10 20 -27q0 -5 -1 -10.5
t-3 -12.5l-137 -494q-5 -16 -14 -29t-29 -20q-6 -2 -16 -3.5l-21 -3t-21.5 -2.5t-16.5 -1l-8 -31h309l8 31q-7 0 -18 2l-22 4t-20 4.5t-13 4.5q-11 5 -16 11t-5 17q0 6 3 20l26 92l39 140h46q45 0 71 -9t39.5 -25t17.5 -38t4 -49v-82q0 -71 25.5 -102.5t79.5 -31.5
q36 0 62 12.5t44 34.5t30.5 51.5t22.5 64.5zM538 538q0 -85 -58 -128.5t-161 -43.5h-48l78 279h63q62 0 94 -23.5t32 -83.5z" />
    <glyph glyph-name="greaterequal" unicode="&#x2265;" horiz-adv-x="429" 
d="M452 409q0 23 -16.5 42t-48.5 19q-23 0 -40.5 -8t-32 -20.5t-27 -29.5t-23.5 -35l-3 1q0 28 -8 46t-21 28t-29.5 14t-32.5 4q-27 0 -48 -11.5t-38 -31.5t-31.5 -48.5t-27.5 -61.5l30 -9l19 44.5t22 40.5t26 29.5t31 11.5q14 0 21 -7.5t7 -27.5q0 -5 -2 -15t-5 -22
l-6 -23.5t-6 -19.5l-99 -319h90l93 305l24.5 42.5t28 41.5t29.5 31.5t28 12.5q12 0 13.5 -2.5t1.5 -9.5q0 -3 -3.5 -7.5t-8 -9.5t-8 -12t-3.5 -16q0 -17 11.5 -29.5t37.5 -12.5q13 0 23.5 7.5t17.5 18.5t10.5 24t3.5 25z" />
    <glyph glyph-name="mu" unicode="&#xb5;" horiz-adv-x="617" 
d="M603 134l-29 10q-21 -54 -42.5 -86.5t-51.5 -32.5q-17 0 -26.5 8t-9.5 26q0 14 4 34t9 34l102 329h-90l-96 -319q-6 -11 -18.5 -28.5t-31 -35t-42 -30t-50.5 -12.5q-26 0 -45 15t-19 41q0 10 2.5 30.5t5.5 30.5l93 308h-90l-119 -393q-8 -27 -16 -50.5t-18 -47.5
q-6 -16 -16.5 -36.5l-20.5 -41.5t-17 -39.5t-7 -30.5q0 -25 14 -34t29 -9q19 0 35 13.5t23 38.5q5 18 6 37t1 39q0 21 4 51.5t12 62.5l9 39h2q8 -35 38 -51t59 -16q37 0 63 9t44.5 22.5t32.5 30.5l26 32h3q0 -53 26.5 -73t67.5 -20q53 0 85 39t59 106z" />
    <glyph glyph-name="mu" unicode="&#x3bc;" horiz-adv-x="617" 
d="M603 134l-29 10q-21 -54 -42.5 -86.5t-51.5 -32.5q-17 0 -26.5 8t-9.5 26q0 14 4 34t9 34l102 329h-90l-96 -319q-6 -11 -18.5 -28.5t-31 -35t-42 -30t-50.5 -12.5q-26 0 -45 15t-19 41q0 10 2.5 30.5t5.5 30.5l93 308h-90l-119 -393q-8 -27 -16 -50.5t-18 -47.5
q-6 -16 -16.5 -36.5l-20.5 -41.5t-17 -39.5t-7 -30.5q0 -25 14 -34t29 -9q19 0 35 13.5t23 38.5q5 18 6 37t1 39q0 21 4 51.5t12 62.5l9 39h2q8 -35 38 -51t59 -16q37 0 63 9t44.5 22.5t32.5 30.5l26 32h3q0 -53 26.5 -73t67.5 -20q53 0 85 39t59 106z" />
    <glyph glyph-name="partialdiff" unicode="&#x2202;" horiz-adv-x="617" 
d="M597 291q0 32 -21.5 54.5t-51.5 22.5q-22 0 -35.5 -8t-25 -19.5l-24 -23.5t-33.5 -19l-12 6q-5 20 -18 34.5t-30 23.5l-4 12q11 21 26.5 33l29 22.5t23 23.5t9.5 37q0 31 -20.5 53.5t-53.5 22.5q-31 0 -53.5 -20t-22.5 -53q0 -15 5.5 -27.5l11.5 -25t11.5 -27t5.5 -34.5
l-11 -7q-41 0 -69 -30l-15 -1q-18 19 -24 41.5t-14 39.5q-8 16 -24 29t-43 13q-32 0 -54 -23t-22 -54t22 -53.5t55 -22.5q15 0 29 3.5t35 3.5q7 0 13.5 -0.5t13.5 -2.5l5 -13q-3 -12 -3 -25q0 -21 10 -43l-3 -14q-22 -11 -41.5 -12t-32.5 -1q-35 0 -59 -21.5t-24 -53.5
q0 -33 23.5 -55t53.5 -22q37 0 55 25.5t23 57.5q2 14 6 29.5t15 31.5l13 1q26 -18 56 -18h10t10 1l7 -5v-11q0 -15 -3 -27.5t-6 -23.5l-6 -21t-3 -22q0 -32 22.5 -53.5t52.5 -21.5q16 0 30.5 6t25 16.5t16.5 24.5t6 29q0 29 -16 47t-39 29q-14 7 -27.5 15t-25.5 24l1 10
q15 11 25.5 26.5t13.5 33.5l9 8q21 -3 35 -11.5t26 -17t24.5 -15t30.5 -6.5q32 0 53.5 21t21.5 53zM370 278q0 -29 -19 -49.5t-48 -20.5t-48 20.5t-19 49.5t19 48.5t48 19.5t48 -19.5t19 -48.5z" />
    <glyph glyph-name="summation" unicode="&#x2211;" horiz-adv-x="883" 
d="M787 618l-34 24l-621 -719l32 -24zM825 130h-24q-4 -12 -13 -27t-20 -22q-12 -8 -24 -8.5t-43 -0.5l66 245h-46l-306 -244l-11 -42h210l-17 -63q-2 -11 -10 -19t-19 -11q-8 -2 -24 -3t-26 -2l-8 -28h214l8 28q-11 1 -25 3t-21 5q-13 5 -13 21q0 2 1 9t3 12l13 48h26
q11 0 17.5 -0.5t10.5 -2t8 -4.5q5 -5 7 -13.5t2 -17.5v-12t-2 -11h23zM356 620h-16q-20 -8 -53 -18.5t-66 -10.5q-24 0 -40 5t-32 12l-15 -20q18 -15 36.5 -27.5t37.5 -12.5q10 0 19.5 1t17.5 3l-71 -266q-6 -23 -32 -31q-5 -1 -13.5 -2t-18.5 -2t-19 -2t-15 -1l-8 -28h253
l8 28q-5 0 -13 1t-17 2t-17 3t-12 4q-15 7 -15 23q0 2 1 7.5t2 9.5l59 218q7 25 17.5 53.5t21.5 50.5zM669 234l-44 -162h-163z" />
    <glyph glyph-name="product" unicode="&#x220f;" horiz-adv-x="883" 
d="M825 32l-24 9q-7 -11 -16 -23.5t-19.5 -24t-22.5 -19t-24 -7.5h-168l18 13q75 34 124.5 63t78.5 56t40.5 54t11.5 58q0 41 -35.5 69.5t-98.5 28.5q-46 0 -78 -13t-52 -31t-29 -37.5t-9 -33.5q0 -17 9.5 -32t32.5 -15q15 0 25 5t15.5 11.5t8 14t2.5 13.5q0 15 -9 22.5
t-11 15.5q2 21 22.5 35t55.5 14q28 0 45 -14t17 -41q0 -12 -2.5 -29t-11 -37t-25 -42.5t-45.5 -45.5l-40.5 -30.5t-39.5 -27t-48.5 -29.5t-67.5 -37l-9 -40h312zM779 618l-34 24l-621 -719l32 -24zM356 620h-16q-20 -8 -53 -18.5t-66 -10.5q-24 0 -40 5t-32 12l-15 -20
q18 -15 36.5 -27.5t37.5 -12.5q10 0 19.5 1t17.5 3l-71 -266q-6 -23 -32 -31q-5 -1 -13.5 -2t-18.5 -2t-19 -2t-15 -1l-8 -28h253l8 28q-5 0 -13 1t-17 2t-17 3t-12 4q-15 7 -15 23q0 2 1 7.5t2 9.5l59 218q7 25 17.5 53.5t21.5 50.5z" />
    <glyph glyph-name="pi" unicode="&#x3c0;" horiz-adv-x="942" 
d="M911 251q0 88 -34 166.5t-93 137t-137.5 92.5t-166.5 34q-89 0 -168 -34t-138 -92.5t-93 -137t-34 -166.5q0 -89 34 -168t93 -137.5t138 -92.5t168 -34q88 0 166.5 34t137.5 92.5t93 137.5t34 168zM873 251q0 -83 -30.5 -155.5t-84 -126.5t-125 -85t-153.5 -31
q-83 0 -155 31t-125 85t-84 126.5t-31 155.5q0 82 31 154t84 125.5t125 84.5t155 31q82 0 153.5 -31t125 -84.5t84 -125.5t30.5 -154zM709 359q0 27 -12 49t-33 37.5t-49 24.5t-59 9h-255v-29q12 -1 30 -4t32 -7t18.5 -13t4.5 -17v-317q0 -9 -4.5 -16.5t-18.5 -12.5
q-8 -2 -27.5 -5t-31.5 -4v-30h262v30q-8 0 -19 1t-21.5 2.5t-19.5 3t-12 2.5q-11 4 -15.5 12t-4.5 17v115h53q34 0 66.5 11t58 31.5t41.5 48.5t16 61zM608 342q0 -15 -4 -32.5t-15.5 -32.5t-31.5 -25t-52 -10h-31v205h44q26 0 43.5 -9.5t28 -25t14.5 -34t4 -36.5z" />
    <glyph glyph-name="integral" unicode="&#x222b;" horiz-adv-x="617" 
d="M597 291q0 32 -21.5 54.5t-51.5 22.5q-22 0 -35.5 -8t-25 -19.5l-24 -23.5t-33.5 -19l-12 6q-5 20 -18 34.5t-30 23.5l-4 12q11 21 26.5 33l29 22.5t23 23.5t9.5 37q0 31 -20.5 53.5t-53.5 22.5q-31 0 -53.5 -20t-22.5 -53q0 -15 5.5 -27.5l11.5 -25t11.5 -27t5.5 -34.5
l-11 -7q-41 0 -69 -30l-15 -1q-18 19 -24 41.5t-14 39.5q-8 16 -24 29t-43 13q-32 0 -54 -23t-22 -54t22 -53.5t55 -22.5q15 0 29 3.5t35 3.5q7 0 13.5 -0.5t13.5 -2.5l5 -13q-3 -12 -3 -25q0 -21 10 -43l-3 -14q-22 -11 -41.5 -12t-32.5 -1q-35 0 -59 -21.5t-24 -53.5
q0 -33 23.5 -55t53.5 -22q37 0 55 25.5t23 57.5q2 14 6 29.5t15 31.5l13 1q26 -18 56 -18h10t10 1l7 -5v-11q0 -15 -3 -27.5t-6 -23.5l-6 -21t-3 -22q0 -32 22.5 -53.5t52.5 -21.5q16 0 30.5 6t25 16.5t16.5 24.5t6 29q0 29 -16 47t-39 29q-14 7 -27.5 15t-25.5 24l1 10
q15 11 25.5 26.5t13.5 33.5l9 8q21 -3 35 -11.5t26 -17t24.5 -15t30.5 -6.5q32 0 53.5 21t21.5 53zM370 278q0 -29 -19 -49.5t-48 -20.5t-48 20.5t-19 49.5t19 48.5t48 19.5t48 -19.5t19 -48.5z" />
    <glyph glyph-name="Omega" unicode="&#x2126;" horiz-adv-x="580" 
d="M542 234v52h-470v-52h470z" />
    <glyph glyph-name="logicalnot" unicode="&#xac;" horiz-adv-x="580" 
d="M530 39v267h-463v-52h406v-215h57z" />
    <glyph glyph-name="radical" unicode="&#x221a;" horiz-adv-x="883" 
d="M837 618l-34 24l-621 -719l32 -24zM855 130h-24q-4 -12 -13 -27t-20 -22q-12 -8 -24 -8.5t-43 -0.5l66 245h-46l-306 -244l-11 -42h210l-17 -63q-2 -11 -10 -19t-19 -11q-8 -2 -24 -3t-26 -2l-8 -28h214l8 28q-11 1 -25 3t-21 5q-13 5 -13 21q0 2 1 9t3 12l13 48h26
q11 0 17.5 -0.5t10.5 -2t8 -4.5q5 -5 7 -13.5t2 -17.5v-12t-2 -11h23zM439 542q0 12 -6 25.5t-20.5 25.5t-39.5 20t-62 8q-41 0 -71.5 -9.5t-51 -24t-31 -32t-10.5 -32.5q0 -12 8 -26t31 -14q28 0 38 14.5t10 24.5q0 17 -6 24t-6 13q2 7 17.5 19t50.5 12q34 0 50 -11t16 -31
q0 -23 -11 -40.5t-30.5 -33t-47 -30l-61.5 -32.5l19 -31q30 30 61 30q21 0 33.5 -10t12.5 -31q0 -27 -13 -51t-33.5 -42.5t-45 -29t-47.5 -10.5q-65 0 -65 35q0 7 5 11.5t11.5 8.5t11.5 9.5t5 14.5q0 35 -39 35q-23 0 -40.5 -14t-17.5 -42q0 -23 12 -40t30.5 -28t41 -16.5
t43.5 -5.5q43 0 83.5 11.5t72 32t50 49t18.5 63.5q0 22 -10 36.5t-25 23.5t-32.5 12.5t-32.5 3.5h-6t-9 -1l1 4q75 15 106.5 42.5t31.5 59.5zM699 234l-44 -162h-163z" />
    <glyph glyph-name="approxequal" unicode="&#x2248;" horiz-adv-x="580" 
d="M545 66l-198 197l198 196l-37 37l-196 -198l-197 198l-38 -38l198 -197l-198 -196l37 -37l196 198l197 -198z" />
    <glyph glyph-name="Delta" unicode="&#x2206;" horiz-adv-x="568" 
d="M573 655q0 15 -6.5 30.5t-19.5 28.5t-34 21t-49 8q-39 0 -77.5 -11.5t-77.5 -43.5q-52 -42 -82 -92.5t-48 -110.5l-10 -31h-106l-12 -40h106l-46.5 -188t-63.5 -230q-17 -55 -34 -93.5t-36.5 -62.5t-42 -35t-50.5 -11q-5 0 -10.5 2t-7.5 6q9 13 15.5 24.5t6.5 22.5
q0 14 -5.5 23.5t-14 15t-18 8t-17.5 2.5q-25 0 -39 -17.5t-14 -36.5q0 -15 4.5 -29t16 -25.5t30.5 -18.5t49 -7q37 0 69 12.5t71 45.5q46 38 74.5 91t46.5 111q13 41 26 90l26.5 100.5l26.5 103.5l25 98h195q0 -6 -1 -16.5l-2 -22t-3 -22.5t-3 -17l-21.5 -88l-19 -77.5
t-21 -81t-28.5 -97.5q-16 -51 -31 -89t-32.5 -63t-39 -37t-49.5 -12q-5 0 -10 2.5t-5 7.5q9 13 14.5 24.5t5.5 21.5q0 26 -15.5 37t-35.5 11q-13 0 -23 -5.5t-16.5 -13t-10 -16t-3.5 -15.5q0 -15 4 -30t14.5 -26.5t29 -19t48.5 -7.5q18 0 33 2.5t29.5 9.5t29.5 17.5t35 27.5
q45 38 75 90t47 111q15 49 25 85l18 67l15.5 61l16.5 67q2 9 6.5 26.5t9 38.5t8.5 44t7 43h-285l18 61q16 55 35.5 93t42 61t47.5 33t52 10q19 0 28 -6q-2 -16 -11 -32t-9 -27q0 -14 6 -23t15 -15t19 -8.5t18 -2.5q15 0 25.5 6.5t17 15.5t10 19t3.5 16z" />
    <glyph glyph-name="nonbreakingspace" unicode="&#xa0;" horiz-adv-x="116" 
 />
    <glyph glyph-name="Agrave" unicode="&#xc0;" horiz-adv-x="644" 
d="M613 31q-14 1 -33.5 4t-30.5 9q-15 8 -19 21t-4 34v595h-36l-224 -290.5l-215 -274.5q-21 -26 -43 -46.5t-45 -31.5q-17 -8 -40.5 -13.5t-34.5 -6.5l-9 -31h287l9 31q-12 1 -28 4t-30.5 9t-25 14.5t-10.5 19.5q0 8 11 24.5l25 36.5q13 19 35.5 49l54.5 72h222v-164
q0 -15 -6 -29.5t-26 -22.5q-28 -10 -76 -13l-9 -31h292zM429 300h-191l191 249v-249zM546 743l-24 46l-18 36l-14.5 29.5l-13.5 27.5q-11 24 -24 37.5t-33 13.5q-17 0 -26.5 -11t-9.5 -27q0 -15 8.5 -28.5t23.5 -28.5l19.5 -19l21.5 -21l29 -29l41 -42z" />
    <glyph glyph-name="Atilde" unicode="&#xc3;" horiz-adv-x="644" 
d="M613 31q-14 1 -33.5 4t-30.5 9q-15 8 -19 21t-4 34v595h-36l-224 -290.5l-215 -274.5q-21 -26 -43 -46.5t-45 -31.5q-17 -8 -40.5 -13.5t-34.5 -6.5l-9 -31h287l9 31q-12 1 -28 4t-30.5 9t-25 14.5t-10.5 19.5q0 8 11 24.5l25 36.5q13 19 35.5 49l54.5 72h222v-164
q0 -15 -6 -29.5t-26 -22.5q-28 -10 -76 -13l-9 -31h292zM429 300h-191l191 249v-249zM739 877l-25 15l-20 -29t-19.5 -22.5t-23 -15t-30.5 -5.5q-19 0 -35 9l-33 19.5t-36.5 19.5t-45.5 9q-23 0 -44 -12t-39.5 -30t-33.5 -38.5t-25 -38.5l24 -15l20.5 29.5t19.5 23
t22.5 14.5t30.5 5q19 0 35 -9l33 -19.5t36.5 -19.5t45.5 -9q23 0 44 12t39.5 30t33.5 39t26 38z" />
    <glyph glyph-name="Otilde" unicode="&#xd5;" horiz-adv-x="724" 
d="M713 430q0 63 -23 113t-56 84q-37 38 -82 54.5t-101 16.5q-69 0 -133.5 -26.5t-119.5 -77.5q-72 -68 -108 -157t-36 -180q0 -66 24 -117.5t61 -87.5q35 -35 77.5 -51.5t96.5 -16.5q73 0 135 25t116 71q39 33 67 74t46 86.5t27 93.5t9 96zM606 451q0 -90 -26.5 -176.5
t-71.5 -149.5q-35 -49 -80.5 -75t-102.5 -26q-86 0 -125 56.5t-39 149.5q0 89 24 167.5t63 141.5q34 54 84 86.5t111 32.5q45 0 76.5 -15.5t50.5 -43t27.5 -65.5t8.5 -83zM699 890l-25 15l-20 -29t-19.5 -22.5t-23 -15t-30.5 -5.5q-19 0 -35 9l-33 19.5t-36.5 19.5t-45.5 9
q-23 0 -44 -12t-39.5 -30t-33.5 -38.5t-25 -38.5l24 -15l20.5 29.5t19.5 23t22.5 14.5t30.5 5q19 0 35 -9l33 -19.5t36.5 -19.5t45.5 -9q23 0 44 12t39.5 30t33.5 39t26 38z" />
    <glyph glyph-name="divide" unicode="&#xf7;" horiz-adv-x="580" 
d="M374 446q0 28 -19.5 47t-47.5 19t-47.5 -19t-19.5 -47t19.5 -47.5t47.5 -19.5t47.5 19.5t19.5 47.5zM548 234v52h-482v-52h482zM374 73q0 28 -19.5 47.5t-47.5 19.5t-47.5 -19.5t-19.5 -47.5t19.5 -47t47.5 -19t47.5 19t19.5 47z" />
    <glyph glyph-name="lozenge" unicode="&#x25ca;" horiz-adv-x="388" 
d="M387 566q0 27 -23.5 40.5t-51.5 13.5q-54 0 -95.5 -25t-69.5 -60t-42.5 -74.5t-14.5 -67.5q0 -35 11.5 -57.5t29.5 -36t40 -18.5t43 -5q39 0 81.5 27.5t74.5 90.5l-25 13q-21 -41 -51.5 -69t-68.5 -28q-29 0 -41.5 15t-12.5 50q0 14 1 27.5t6 27.5q31 5 67.5 14.5t68 26
t52.5 40t21 55.5zM323 562q0 -14 -7.5 -29.5t-24 -29.5t-43 -26t-64.5 -18q9 25 21 49t26 42.5t29 30t30 11.5q33 0 33 -30z" />
    <glyph glyph-name="ydieresis" unicode="&#xff;" horiz-adv-x="545" 
d="M545 456h-89l-102 -332q-12 -17 -27.5 -33.5t-33.5 -29.5t-38 -21t-41 -8q-20 0 -35 8.5t-15 40.5q0 14 5.5 33.5t13.5 39.5l61 153q11 26 16 45.5t5 37.5q0 21 -9 36t-23.5 25t-32 14.5t-35.5 4.5q-27 0 -48 -11.5t-38 -31.5t-31.5 -48.5t-27.5 -61.5l30 -9l19 44.5
t22 40.5t26 29.5t31 11.5q14 0 21.5 -7.5t7.5 -27.5q0 -9 -4.5 -31t-15.5 -49l-56 -144q-8 -20 -14 -42t-6 -33q0 -22 8.5 -42.5t24 -36t37 -24.5t46.5 -9q43 0 79.5 26t62.5 60l4 -1q-25 -77 -55 -131t-63.5 -88t-68.5 -49t-71 -15q-8 0 -20.5 1t-24.5 5t-21 10.5t-11 18.5
q3 13 13.5 14t22 3t20.5 11.5t9 38.5q0 11 -11.5 26.5t-34.5 15.5q-12 0 -24 -3.5t-22 -11.5t-16.5 -21.5t-6.5 -32.5q0 -11 4.5 -28.5t18.5 -34t40 -29t70 -12.5q52 0 102.5 19.5t95 61t82.5 107t67 157.5zM549 652q0 18 -12.5 34.5t-33.5 16.5q-32 0 -50.5 -20t-18.5 -46
q0 -20 13 -36t38 -16q31 0 47.5 20.5t16.5 46.5zM336 652q0 18 -13 34.5t-34 16.5q-32 0 -50 -20t-18 -46q0 -20 12.5 -36t37.5 -16q31 0 48 20.5t17 46.5z" />
    <glyph glyph-name="Ydieresis" unicode="&#x178;" horiz-adv-x="623" 
d="M758 683h-266l-10 -33q16 -1 33 -2.5t30.5 -5t22 -9t8.5 -15.5q0 -7 -17.5 -30.5l-50.5 -65.5q-29 -38 -69 -86l-88 -104l-62 195t-24 98q0 8 11 13t27.5 7t34.5 3t33 2l10 33h-307l-10 -33q14 -1 31.5 -4.5t29.5 -11.5q15 -11 26.5 -26t21.5 -42l37 -110t36 -123
q4 -16 6.5 -30.5t2.5 -25.5v-10q0 -4 -2 -9l-41 -164q-5 -17 -14 -30t-29 -20q-6 -2 -16.5 -4t-22.5 -3.5t-23 -2.5t-18 -1l-9 -33h324l9 33q-7 0 -19 2t-25 4.5t-24 5t-15 4.5q-19 10 -21 31q0 9 2 19l31 123q6 25 24 55t39 57l109 137t101 109l21.5 19.5t15.5 12.5t15 9
t19 10q5 3 13.5 6t18 6t17.5 5t13 2zM622 835q0 18 -12.5 34.5t-33.5 16.5q-32 0 -50.5 -20t-18.5 -46q0 -20 13 -36t38 -16q31 0 47.5 20.5t16.5 46.5zM409 835q0 18 -13 34.5t-34 16.5q-32 0 -50 -20t-18 -46q0 -20 12.5 -36t37.5 -16q31 0 48 20.5t17 46.5z" />
    <glyph glyph-name="Acircumflex" unicode="&#xc2;" horiz-adv-x="644" 
d="M613 31q-14 1 -33.5 4t-30.5 9q-15 8 -19 21t-4 34v595h-36l-224 -290.5l-215 -274.5q-21 -26 -43 -46.5t-45 -31.5q-17 -8 -40.5 -13.5t-34.5 -6.5l-9 -31h287l9 31q-12 1 -28 4t-30.5 9t-25 14.5t-10.5 19.5q0 8 11 24.5l25 36.5q13 19 35.5 49l54.5 72h222v-164
q0 -15 -6 -29.5t-26 -22.5q-28 -10 -76 -13l-9 -31h292zM429 300h-191l191 249v-249zM655 719l-42 100t-30 69q-5 13 -10.5 16.5t-24.5 3.5q-22 0 -29.5 -4t-20.5 -18l-63.5 -68.5l-90.5 -94.5l17 -18l176 133l95 -133z" />
    <glyph glyph-name="Ecircumflex" unicode="&#xca;" horiz-adv-x="644" 
d="M679 683h-528l-10 -32q7 0 17 -2t21 -4.5l21 -5t16 -5.5q11 -5 15.5 -11t4.5 -16q0 -5 -1 -11t-3 -13l-135 -490q-5 -17 -14.5 -30t-28.5 -20q-6 -2 -18 -4.5t-25 -4t-24.5 -2.5t-16.5 -1l-10 -31h577l68 202h-31q-6 -11 -18.5 -29.5t-29 -39t-34.5 -40t-35 -32.5
q-22 -17 -66 -20.5t-95 -3.5q-55 0 -78 8t-23 36q0 8 2.5 20.5t7.5 27.5l58 206h75q21 0 34 -3t21 -7.5t13 -10t8 -10.5q4 -6 6 -20.5t2 -31.5q0 -12 -0.5 -24t-2.5 -21h30l80 288h-32l-10.5 -22.5t-14 -27t-15.5 -24.5t-15 -17q-11 -10 -33 -21t-62 -11h-75l77 274h105
q24 0 43 -1t35 -3q33 -5 51.5 -39.5t18.5 -77.5v-8h31zM606 735l-42 100t-30 69q-5 13 -10.5 16.5t-24.5 3.5q-22 0 -29.5 -4t-20.5 -18l-63.5 -68.5l-90.5 -94.5l17 -18l176 133l95 -133z" />
    <glyph glyph-name="Aacute" unicode="&#xc1;" horiz-adv-x="644" 
d="M613 31q-14 1 -33.5 4t-30.5 9q-15 8 -19 21t-4 34v595h-36l-224 -290.5l-215 -274.5q-21 -26 -43 -46.5t-45 -31.5q-17 -8 -40.5 -13.5t-34.5 -6.5l-9 -31h287l9 31q-12 1 -28 4t-30.5 9t-25 14.5t-10.5 19.5q0 8 11 24.5l25 36.5q13 19 35.5 49l54.5 72h222v-164
q0 -15 -6 -29.5t-26 -22.5q-28 -10 -76 -13l-9 -31h292zM429 300h-191l191 249v-249zM681 890q0 12 -8.5 22t-25.5 10q-20 0 -35.5 -11t-38.5 -35l-25 -27l-28 -30.5l-34 -37.5l-43 -47l16 -19l61 39.5l45.5 29l34.5 22t29 19.5q23 16 37.5 30.5t14.5 34.5z" />
    <glyph glyph-name="Edieresis" unicode="&#xcb;" horiz-adv-x="644" 
d="M679 683h-528l-10 -32q7 0 17 -2t21 -4.5l21 -5t16 -5.5q11 -5 15.5 -11t4.5 -16q0 -5 -1 -11t-3 -13l-135 -490q-5 -17 -14.5 -30t-28.5 -20q-6 -2 -18 -4.5t-25 -4t-24.5 -2.5t-16.5 -1l-10 -31h577l68 202h-31q-6 -11 -18.5 -29.5t-29 -39t-34.5 -40t-35 -32.5
q-22 -17 -66 -20.5t-95 -3.5q-55 0 -78 8t-23 36q0 8 2.5 20.5t7.5 27.5l58 206h75q21 0 34 -3t21 -7.5t13 -10t8 -10.5q4 -6 6 -20.5t2 -31.5q0 -12 -0.5 -24t-2.5 -21h30l80 288h-32l-10.5 -22.5t-14 -27t-15.5 -24.5t-15 -17q-11 -10 -33 -21t-62 -11h-75l77 274h105
q24 0 43 -1t35 -3q33 -5 51.5 -39.5t18.5 -77.5v-8h31zM627 835q0 18 -12.5 34.5t-33.5 16.5q-32 0 -50.5 -20t-18.5 -46q0 -20 13 -36t38 -16q31 0 47.5 20.5t16.5 46.5zM414 835q0 18 -13 34.5t-34 16.5q-32 0 -50 -20t-18 -46q0 -20 12.5 -36t37.5 -16q31 0 48 20.5
t17 46.5z" />
    <glyph glyph-name="Egrave" unicode="&#xc8;" horiz-adv-x="644" 
d="M679 683h-528l-10 -32q7 0 17 -2t21 -4.5l21 -5t16 -5.5q11 -5 15.5 -11t4.5 -16q0 -5 -1 -11t-3 -13l-135 -490q-5 -17 -14.5 -30t-28.5 -20q-6 -2 -18 -4.5t-25 -4t-24.5 -2.5t-16.5 -1l-10 -31h577l68 202h-31q-6 -11 -18.5 -29.5t-29 -39t-34.5 -40t-35 -32.5
q-22 -17 -66 -20.5t-95 -3.5q-55 0 -78 8t-23 36q0 8 2.5 20.5t7.5 27.5l58 206h75q21 0 34 -3t21 -7.5t13 -10t8 -10.5q4 -6 6 -20.5t2 -31.5q0 -12 -0.5 -24t-2.5 -21h30l80 288h-32l-10.5 -22.5t-14 -27t-15.5 -24.5t-15 -17q-11 -10 -33 -21t-62 -11h-75l77 274h105
q24 0 43 -1t35 -3q33 -5 51.5 -39.5t18.5 -77.5v-8h31zM468 732l-24 46l-18 36l-14.5 29.5l-13.5 27.5q-11 24 -24 37.5t-33 13.5q-17 0 -26.5 -11t-9.5 -27q0 -15 8.5 -28.5t23.5 -28.5l19.5 -19l21.5 -21l29 -29l41 -42z" />
    <glyph glyph-name="Iacute" unicode="&#xcd;" horiz-adv-x="392" 
d="M467 683h-306l-9 -32q6 0 15 -2t19 -4.5t19 -5.5t14 -5q20 -10 20 -27q0 -5 -1 -10.5t-3 -12.5l-137 -494q-5 -16 -14 -29t-29 -20q-6 -2 -16 -3.5l-21 -3t-21.5 -2.5t-16.5 -1l-8 -31h305l8 31q-7 0 -17.5 2l-20.5 4t-18.5 4.5t-12.5 4.5q-11 5 -16 11t-5 17q0 6 3 20
l138 495q5 16 14.5 30t29.5 20q7 2 17.5 4t21.5 3.5l21.5 3t17.5 1.5zM509 890q0 12 -8.5 22t-25.5 10q-20 0 -35.5 -11t-38.5 -35l-25 -27l-28 -30.5l-34 -37.5l-43 -47l16 -19l61 39.5l45.5 29l34.5 22t29 19.5q23 16 37.5 30.5t14.5 34.5z" />
    <glyph glyph-name="Icircumflex" unicode="&#xce;" horiz-adv-x="392" 
d="M467 683h-306l-9 -32q6 0 15 -2t19 -4.5t19 -5.5t14 -5q20 -10 20 -27q0 -5 -1 -10.5t-3 -12.5l-137 -494q-5 -16 -14 -29t-29 -20q-6 -2 -16 -3.5l-21 -3t-21.5 -2.5t-16.5 -1l-8 -31h305l8 31q-7 0 -17.5 2l-20.5 4t-18.5 4.5t-12.5 4.5q-11 5 -16 11t-5 17q0 6 3 20
l138 495q5 16 14.5 30t29.5 20q7 2 17.5 4t21.5 3.5l21.5 3t17.5 1.5zM476 735l-42 100t-30 69q-5 13 -10.5 16.5t-24.5 3.5q-22 0 -29.5 -4t-20.5 -18l-63.5 -68.5l-90.5 -94.5l17 -18l176 133l95 -133z" />
    <glyph glyph-name="Idieresis" unicode="&#xcf;" horiz-adv-x="392" 
d="M467 683h-306l-9 -32q6 0 15 -2t19 -4.5t19 -5.5t14 -5q20 -10 20 -27q0 -5 -1 -10.5t-3 -12.5l-137 -494q-5 -16 -14 -29t-29 -20q-6 -2 -16 -3.5l-21 -3t-21.5 -2.5t-16.5 -1l-8 -31h305l8 31q-7 0 -17.5 2l-20.5 4t-18.5 4.5t-12.5 4.5q-11 5 -16 11t-5 17q0 6 3 20
l138 495q5 16 14.5 30t29.5 20q7 2 17.5 4t21.5 3.5l21.5 3t17.5 1.5zM504 835q0 18 -12.5 34.5t-33.5 16.5q-32 0 -50.5 -20t-18.5 -46q0 -20 13 -36t38 -16q31 0 47.5 20.5t16.5 46.5zM291 835q0 18 -13 34.5t-34 16.5q-32 0 -50 -20t-18 -46q0 -20 12.5 -36t37.5 -16
q31 0 48 20.5t17 46.5z" />
    <glyph glyph-name="Igrave" unicode="&#xcc;" horiz-adv-x="392" 
d="M467 683h-306l-9 -32q6 0 15 -2t19 -4.5t19 -5.5t14 -5q20 -10 20 -27q0 -5 -1 -10.5t-3 -12.5l-137 -494q-5 -16 -14 -29t-29 -20q-6 -2 -16 -3.5l-21 -3t-21.5 -2.5t-16.5 -1l-8 -31h305l8 31q-7 0 -17.5 2l-20.5 4t-18.5 4.5t-12.5 4.5q-11 5 -16 11t-5 17q0 6 3 20
l138 495q5 16 14.5 30t29.5 20q7 2 17.5 4t21.5 3.5l21.5 3t17.5 1.5zM359 732l-24 46l-18 36l-14.5 29.5l-13.5 27.5q-11 24 -24 37.5t-33 13.5q-17 0 -26.5 -11t-9.5 -27q0 -15 8.5 -28.5t23.5 -28.5l19.5 -19l21.5 -21l29 -29l41 -42z" />
    <glyph glyph-name="Oacute" unicode="&#xd3;" horiz-adv-x="724" 
d="M713 430q0 63 -23 113t-56 84q-37 38 -82 54.5t-101 16.5q-69 0 -133.5 -26.5t-119.5 -77.5q-72 -68 -108 -157t-36 -180q0 -66 24 -117.5t61 -87.5q35 -35 77.5 -51.5t96.5 -16.5q73 0 135 25t116 71q39 33 67 74t46 86.5t27 93.5t9 96zM606 451q0 -90 -26.5 -176.5
t-71.5 -149.5q-35 -49 -80.5 -75t-102.5 -26q-86 0 -125 56.5t-39 149.5q0 89 24 167.5t63 141.5q34 54 84 86.5t111 32.5q45 0 76.5 -15.5t50.5 -43t27.5 -65.5t8.5 -83zM634 890q0 12 -8.5 22t-25.5 10q-20 0 -35.5 -11t-38.5 -35l-25 -27l-28 -30.5l-34 -37.5l-43 -47
l16 -19l61 39.5l45.5 29l34.5 22t29 19.5q23 16 37.5 30.5t14.5 34.5z" />
    <glyph glyph-name="Ocircumflex" unicode="&#xd4;" horiz-adv-x="724" 
d="M713 430q0 63 -23 113t-56 84q-37 38 -82 54.5t-101 16.5q-69 0 -133.5 -26.5t-119.5 -77.5q-72 -68 -108 -157t-36 -180q0 -66 24 -117.5t61 -87.5q35 -35 77.5 -51.5t96.5 -16.5q73 0 135 25t116 71q39 33 67 74t46 86.5t27 93.5t9 96zM606 451q0 -90 -26.5 -176.5
t-71.5 -149.5q-35 -49 -80.5 -75t-102.5 -26q-86 0 -125 56.5t-39 149.5q0 89 24 167.5t63 141.5q34 54 84 86.5t111 32.5q45 0 76.5 -15.5t50.5 -43t27.5 -65.5t8.5 -83zM612 735l-42 100t-30 69q-5 13 -10.5 16.5t-24.5 3.5q-22 0 -29.5 -4t-20.5 -18l-63.5 -68.5
l-90.5 -94.5l17 -18l176 133l95 -133z" />
    <glyph glyph-name="apple" unicode="&#xf8ff;" horiz-adv-x="617" 
d="M597 291q0 32 -21.5 54.5t-51.5 22.5q-22 0 -35.5 -8t-25 -19.5l-24 -23.5t-33.5 -19l-12 6q-5 20 -18 34.5t-30 23.5l-4 12q11 21 26.5 33l29 22.5t23 23.5t9.5 37q0 31 -20.5 53.5t-53.5 22.5q-31 0 -53.5 -20t-22.5 -53q0 -15 5.5 -27.5l11.5 -25t11.5 -27t5.5 -34.5
l-11 -7q-41 0 -69 -30l-15 -1q-18 19 -24 41.5t-14 39.5q-8 16 -24 29t-43 13q-32 0 -54 -23t-22 -54t22 -53.5t55 -22.5q15 0 29 3.5t35 3.5q7 0 13.5 -0.5t13.5 -2.5l5 -13q-3 -12 -3 -25q0 -21 10 -43l-3 -14q-22 -11 -41.5 -12t-32.5 -1q-35 0 -59 -21.5t-24 -53.5
q0 -33 23.5 -55t53.5 -22q37 0 55 25.5t23 57.5q2 14 6 29.5t15 31.5l13 1q26 -18 56 -18h10t10 1l7 -5v-11q0 -15 -3 -27.5t-6 -23.5l-6 -21t-3 -22q0 -32 22.5 -53.5t52.5 -21.5q16 0 30.5 6t25 16.5t16.5 24.5t6 29q0 29 -16 47t-39 29q-14 7 -27.5 15t-25.5 24l1 10
q15 11 25.5 26.5t13.5 33.5l9 8q21 -3 35 -11.5t26 -17t24.5 -15t30.5 -6.5q32 0 53.5 21t21.5 53zM370 278q0 -29 -19 -49.5t-48 -20.5t-48 20.5t-19 49.5t19 48.5t48 19.5t48 -19.5t19 -48.5z" />
    <glyph glyph-name="Ograve" unicode="&#xd2;" horiz-adv-x="724" 
d="M713 430q0 63 -23 113t-56 84q-37 38 -82 54.5t-101 16.5q-69 0 -133.5 -26.5t-119.5 -77.5q-72 -68 -108 -157t-36 -180q0 -66 24 -117.5t61 -87.5q35 -35 77.5 -51.5t96.5 -16.5q73 0 135 25t116 71q39 33 67 74t46 86.5t27 93.5t9 96zM606 451q0 -90 -26.5 -176.5
t-71.5 -149.5q-35 -49 -80.5 -75t-102.5 -26q-86 0 -125 56.5t-39 149.5q0 89 24 167.5t63 141.5q34 54 84 86.5t111 32.5q45 0 76.5 -15.5t50.5 -43t27.5 -65.5t8.5 -83zM502 732l-24 46l-18 36l-14.5 29.5l-13.5 27.5q-11 24 -24 37.5t-33 13.5q-17 0 -26.5 -11t-9.5 -27
q0 -15 8.5 -28.5t23.5 -28.5l19.5 -19l21.5 -21l29 -29l41 -42z" />
    <glyph glyph-name="Uacute" unicode="&#xda;" horiz-adv-x="801" 
d="M892 683h-307l-9 -31q9 0 22 -3t27 -7.5t26.5 -9.5t18.5 -10q14 -11 14 -42q0 -17 -4 -40.5t-12 -51.5l-72 -253q-29 -99 -87.5 -153.5t-151.5 -54.5q-77 0 -109 29.5t-32 83.5q0 51 19 117l92 332q5 16 14.5 30t29.5 20q7 2 17.5 4t21.5 3.5l21.5 3t17.5 1.5l9 32h-306
l-9 -32q6 0 15 -2t19 -4.5t19 -5.5t14 -5q20 -10 20 -27q0 -5 -1 -10.5t-3 -12.5l-96 -347q-8 -26 -11 -50t-3 -45q0 -75 50 -116.5t161 -41.5q127 0 203.5 65.5t111.5 188.5l73 256q14 47 28.5 83t40.5 50q8 4 22 8.5t29 8t28 6t20 2.5zM722 890q0 12 -8.5 22t-25.5 10
q-20 0 -35.5 -11t-38.5 -35l-25 -27l-28 -30.5l-34 -37.5l-43 -47l16 -19l61 39.5l45.5 29l34.5 22t29 19.5q23 16 37.5 30.5t14.5 34.5z" />
    <glyph glyph-name="Ucircumflex" unicode="&#xdb;" horiz-adv-x="801" 
d="M892 683h-307l-9 -31q9 0 22 -3t27 -7.5t26.5 -9.5t18.5 -10q14 -11 14 -42q0 -17 -4 -40.5t-12 -51.5l-72 -253q-29 -99 -87.5 -153.5t-151.5 -54.5q-77 0 -109 29.5t-32 83.5q0 51 19 117l92 332q5 16 14.5 30t29.5 20q7 2 17.5 4t21.5 3.5l21.5 3t17.5 1.5l9 32h-306
l-9 -32q6 0 15 -2t19 -4.5t19 -5.5t14 -5q20 -10 20 -27q0 -5 -1 -10.5t-3 -12.5l-96 -347q-8 -26 -11 -50t-3 -45q0 -75 50 -116.5t161 -41.5q127 0 203.5 65.5t111.5 188.5l73 256q14 47 28.5 83t40.5 50q8 4 22 8.5t29 8t28 6t20 2.5zM689 735l-42 100t-30 69
q-5 13 -10.5 16.5t-24.5 3.5q-22 0 -29.5 -4t-20.5 -18l-63.5 -68.5l-90.5 -94.5l17 -18l176 133l95 -133z" />
    <glyph glyph-name="Ugrave" unicode="&#xd9;" horiz-adv-x="801" 
d="M892 683h-307l-9 -31q9 0 22 -3t27 -7.5t26.5 -9.5t18.5 -10q14 -11 14 -42q0 -17 -4 -40.5t-12 -51.5l-72 -253q-29 -99 -87.5 -153.5t-151.5 -54.5q-77 0 -109 29.5t-32 83.5q0 51 19 117l92 332q5 16 14.5 30t29.5 20q7 2 17.5 4t21.5 3.5l21.5 3t17.5 1.5l9 32h-306
l-9 -32q6 0 15 -2t19 -4.5t19 -5.5t14 -5q20 -10 20 -27q0 -5 -1 -10.5t-3 -12.5l-96 -347q-8 -26 -11 -50t-3 -45q0 -75 50 -116.5t161 -41.5q127 0 203.5 65.5t111.5 188.5l73 256q14 47 28.5 83t40.5 50q8 4 22 8.5t29 8t28 6t20 2.5zM550 732l-24 46l-18 36l-14.5 29.5
l-13.5 27.5q-11 24 -24 37.5t-33 13.5q-17 0 -26.5 -11t-9.5 -27q0 -15 8.5 -28.5t23.5 -28.5l19.5 -19l21.5 -21l29 -29l41 -42z" />
    <glyph glyph-name="Euro" unicode="&#x20ac;" horiz-adv-x="615" 
d="M220 335h224l10 37h-224q17 58 41 98.5t51.5 66t56 37t54.5 11.5q28 0 45 -6t26 -14.5t12.5 -16.5t4.5 -11q-1 -6 -6.5 -12t-11.5 -14t-10.5 -18.5t-4.5 -25.5q0 -20 12 -34t39 -14q18 0 30.5 7.5t20 19.5t11 26t3.5 27q0 21 -8 42.5t-27 39t-50.5 28.5t-78.5 11
q-52 0 -99 -20t-86.5 -54t-70 -79t-49.5 -95h-72l-10 -37h70q-4 -18 -8.5 -41t-7.5 -44h-68l-9 -37h75v-26q0 -41 11 -77t34.5 -63t60 -43t88.5 -16q42 0 77 12.5t64.5 34t54 50.5t45.5 62l-29 16q-19 -29 -37.5 -51.5t-39 -37.5t-45 -23t-55.5 -8q-133 0 -133 151v19h180
l8 37h-185l8 46t8 39z" />
    <glyph glyph-name="NUL" horiz-adv-x="0" 
 />
    </font>
</defs>
</svg>
